M48
;DRILL file {KiCad 4.0.7} date 09/23/18 19:15:48
;FORMAT={2:4/ absolute / inch / suppress leading zeros}
FMAT,2
INCH,TZ
T1C0.016
T2C0.031
T3C0.035
T4C0.039
T5C0.040
T6C0.043
T7C0.120
%
G90
G05
M72
T1
X39750Y-42750
X40250Y-42250
X40250Y-52250
X40500Y-42000
X40500Y-43000
X40500Y-52500
X40500Y-53000
X41250Y-53250
X42500Y-30750
X42500Y-52750
X42500Y-53750
X42500Y-54250
X42750Y-29500
X42750Y-30000
X43250Y-29500
X43250Y-40000
X43250Y-54750
X43500Y-40250
X43750Y-42500
X43750Y-44250
X43750Y-48500
X43750Y-50000
X43750Y-52250
X43750Y-54250
X43750Y-56000
X44000Y-30000
X44000Y-39750
X44000Y-44000
X44000Y-54000
X44250Y-29000
X44250Y-44250
X44500Y-40500
X45250Y-42000
X45500Y-41750
X46500Y-36000
X46500Y-36750
X46500Y-40500
X46750Y-35500
X46750Y-36500
X46750Y-45250
X46750Y-48000
X47000Y-35750
X47000Y-37000
X47000Y-40500
X47000Y-41000
X47000Y-41500
X47000Y-48250
X47250Y-40750
X47250Y-41250
X47250Y-41750
X47250Y-44500
X47250Y-48500
X47250Y-50000
X47500Y-49250
X47750Y-48750
X47750Y-49500
X48000Y-48500
X48000Y-49750
X48250Y-48750
X48500Y-30000
X48500Y-39500
X48500Y-41250
X48500Y-41750
X48500Y-48500
X48750Y-29000
X48750Y-41000
X48750Y-41500
X48750Y-42000
X48750Y-45250
X49000Y-40750
X49000Y-48500
X49250Y-48250
X49250Y-50000
X49750Y-40000
X50000Y-51250
X50250Y-39500
X50250Y-48500
X50250Y-49000
X50250Y-49500
X50500Y-32000
X50500Y-46750
X50500Y-48750
X50500Y-49250
X50500Y-49750
X50500Y-51250
X51750Y-49250
X51750Y-49750
X51750Y-51250
X52000Y-49000
X52000Y-49500
X52000Y-51000
X52750Y-46750
X53000Y-47000
X53500Y-30000
X53500Y-45500
X53500Y-50000
X54250Y-49750
X56250Y-43000
X56250Y-49500
X56500Y-42250
X57500Y-49250
X58000Y-54500
X58250Y-49000
X58500Y-51500
X58500Y-52000
X58750Y-28500
X59250Y-30500
X59250Y-37250
X59250Y-40000
X59750Y-48750
X59750Y-51500
X59750Y-53750
X60000Y-51250
X61250Y-39000
X61250Y-40500
X61500Y-39250
X61500Y-40750
X61500Y-45500
X61750Y-39500
X61750Y-40500
X62000Y-39750
X62000Y-40750
X64750Y-36000
X64750Y-37250
X65500Y-30000
X67250Y-48000
X67500Y-32750
X67500Y-33750
X67500Y-47750
X67750Y-29000
X67750Y-31500
X67750Y-49000
X68250Y-49250
X69750Y-28750
X69750Y-29500
X70000Y-30500
X70250Y-30000
X72500Y-38000
X72500Y-38750
X73750Y-29250
X74000Y-30000
X74250Y-29500
X74250Y-31000
X75000Y-42500
X75250Y-45250
X75250Y-46750
X75500Y-42000
T2
X44750Y-31750
X44750Y-32750
X44750Y-33750
X44750Y-34750
X44750Y-35750
X44750Y-36750
X44750Y-37750
X45000Y-50500
X45781Y-30250
X47750Y-30250
X47750Y-31750
X47750Y-32750
X47750Y-33750
X47750Y-34750
X47750Y-35750
X47750Y-36750
X47750Y-37750
X48000Y-50500
X49250Y-28000
X49250Y-31750
X49250Y-32750
X49250Y-33750
X49250Y-34750
X49250Y-35750
X49250Y-36750
X49250Y-37750
X49250Y-38750
X50000Y-50500
X50281Y-30250
X52250Y-30250
X52250Y-31750
X52250Y-32750
X52250Y-33750
X52250Y-34750
X52250Y-35750
X52250Y-36750
X52250Y-37750
X52250Y-38750
X52500Y-43250
X52500Y-44750
X52500Y-47750
X53000Y-50500
X53250Y-28000
X53500Y-44750
X53500Y-47750
X54250Y-32000
X54250Y-38000
X54469Y-43250
X54500Y-44750
X54500Y-47750
X55000Y-50500
X55250Y-32000
X55250Y-38000
X55500Y-44750
X55500Y-47750
X56250Y-32000
X56250Y-38000
X56500Y-44750
X56500Y-47750
X57000Y-43250
X57250Y-32000
X57250Y-38000
X57500Y-44750
X57500Y-47750
X58000Y-50500
X58250Y-32000
X58250Y-38000
X58500Y-44750
X58500Y-47750
X59500Y-44750
X59500Y-47750
X59750Y-32000
X59750Y-38000
X60000Y-50500
X60500Y-44750
X60500Y-47750
X60750Y-32000
X60750Y-38000
X61000Y-43250
X61500Y-44750
X61500Y-47750
X61750Y-32000
X61750Y-38000
X62750Y-32000
X62750Y-38000
X63000Y-50500
X63750Y-32000
X63750Y-38000
X65000Y-50500
X65750Y-28000
X65750Y-31750
X65750Y-32750
X65750Y-33750
X65750Y-34750
X65750Y-35750
X65750Y-36750
X65750Y-37750
X65750Y-38750
X65750Y-41750
X65750Y-42750
X65750Y-43750
X65750Y-44750
X65750Y-45750
X65750Y-46750
X65750Y-47750
X66781Y-30250
X68000Y-50500
X68750Y-30250
X68750Y-31750
X68750Y-32750
X68750Y-33750
X68750Y-34750
X68750Y-35750
X68750Y-36750
X68750Y-37750
X68750Y-38750
X68750Y-41750
X68750Y-42750
X68750Y-43750
X68750Y-44750
X68750Y-45750
X68750Y-46750
X68750Y-47750
X69750Y-28000
X69750Y-39250
X70000Y-50500
X70250Y-31750
X70250Y-32750
X70250Y-33750
X70250Y-34750
X70250Y-35750
X70250Y-36750
X70250Y-37750
X70250Y-41750
X70250Y-43719
X70250Y-44750
X70250Y-48750
X71281Y-30250
X73000Y-50500
X73250Y-30250
X73250Y-31750
X73250Y-32750
X73250Y-33750
X73250Y-34750
X73250Y-35750
X73250Y-36750
X73250Y-37750
X73750Y-39250
X74750Y-30250
X74750Y-31750
X74750Y-32750
X74750Y-33750
X74750Y-34750
X74750Y-35750
X74750Y-36750
X74750Y-37750
X74750Y-38750
X76719Y-30250
X77750Y-31750
X77750Y-32750
X77750Y-33750
X77750Y-34750
X77750Y-35750
X77750Y-36750
X77750Y-37750
X77750Y-38750
T3
X59000Y-40750
X59000Y-41750
T4
X46250Y-28000
X47250Y-28000
X71750Y-28000
X72750Y-28000
T5
X41250Y-33000
X41250Y-34000
X41250Y-35000
X41250Y-36000
X41250Y-37000
X41250Y-38000
X41250Y-39000
X41250Y-40000
X41250Y-41000
X41250Y-42000
X41250Y-43000
X41250Y-44000
X41250Y-45000
X41250Y-46000
X41250Y-47000
X41250Y-48000
X41250Y-49000
X41250Y-50000
X41250Y-51000
X41250Y-52000
X42250Y-33000
X42250Y-34000
X42250Y-35000
X42250Y-36000
X42250Y-37000
X42250Y-38000
X42250Y-39000
X42250Y-40000
X42250Y-41000
X42250Y-42000
X42250Y-43000
X42250Y-44000
X42250Y-45000
X42250Y-46000
X42250Y-47000
X42250Y-48000
X42250Y-49000
X42250Y-50000
X42250Y-51000
X42250Y-52000
T7
X41250Y-28250
X41250Y-55750
X76750Y-28250
X76750Y-55750
T6
X46506Y-42650G85X45994Y-42650
G05
X46506Y-44500G85X45994Y-44500
G05
X46506Y-46350G85X45994Y-46350
G05
X46545Y-51978G85X45955Y-51978
G05
X46545Y-53750G85X45955Y-53750
G05
X46545Y-55522G85X45955Y-55522
G05
X49795Y-42728G85X49205Y-42728
G05
X49795Y-44500G85X49205Y-44500
G05
X49795Y-46272G85X49205Y-46272
G05
X50045Y-51978G85X49455Y-51978
G05
X50045Y-53750G85X49455Y-53750
G05
X50045Y-55522G85X49455Y-55522
G05
X53545Y-51978G85X52955Y-51978
G05
X53545Y-53750G85X52955Y-53750
G05
X53545Y-55522G85X52955Y-55522
G05
X57045Y-51978G85X56455Y-51978
G05
X57045Y-53750G85X56455Y-53750
G05
X57045Y-55522G85X56455Y-55522
G05
X61545Y-51978G85X60955Y-51978
G05
X61545Y-53750G85X60955Y-53750
G05
X61545Y-55522G85X60955Y-55522
G05
X65045Y-51978G85X64455Y-51978
G05
X65045Y-53750G85X64455Y-53750
G05
X65045Y-55522G85X64455Y-55522
G05
X67955Y-51978G85X68545Y-51978
G05
X67955Y-53750G85X68545Y-53750
G05
X67955Y-55522G85X68545Y-55522
G05
X72045Y-51978G85X71455Y-51978
G05
X72045Y-53750G85X71455Y-53750
G05
X72045Y-55522G85X71455Y-55522
G05
X73545Y-42728G85X72955Y-42728
G05
X73545Y-44500G85X72955Y-44500
G05
X73545Y-46272G85X72955Y-46272
G05
X76205Y-42728G85X76795Y-42728
G05
X76205Y-44500G85X76795Y-44500
G05
X76205Y-46272G85X76795Y-46272
G05
T0
M30
