G04 #@! TF.GenerationSoftware,KiCad,Pcbnew,(5.1.5)-3*
G04 #@! TF.CreationDate,2020-04-10T19:04:35+02:00*
G04 #@! TF.ProjectId,RC1802 UI,52433138-3032-4205-9549-2e6b69636164,rev?*
G04 #@! TF.SameCoordinates,Original*
G04 #@! TF.FileFunction,Legend,Bot*
G04 #@! TF.FilePolarity,Positive*
%FSLAX46Y46*%
G04 Gerber Fmt 4.6, Leading zero omitted, Abs format (unit mm)*
G04 Created by KiCad (PCBNEW (5.1.5)-3) date 2020-04-10 19:04:35*
%MOMM*%
%LPD*%
G04 APERTURE LIST*
%ADD10C,0.300000*%
%ADD11C,0.200000*%
G04 APERTURE END LIST*
D10*
X157967142Y-145093571D02*
X157967142Y-146307857D01*
X158038571Y-146450714D01*
X158110000Y-146522142D01*
X158252857Y-146593571D01*
X158467142Y-146593571D01*
X158610000Y-146522142D01*
X157967142Y-146022142D02*
X158110000Y-146093571D01*
X158395714Y-146093571D01*
X158538571Y-146022142D01*
X158610000Y-145950714D01*
X158681428Y-145807857D01*
X158681428Y-145379285D01*
X158610000Y-145236428D01*
X158538571Y-145165000D01*
X158395714Y-145093571D01*
X158110000Y-145093571D01*
X157967142Y-145165000D01*
X157252857Y-146093571D02*
X157252857Y-145093571D01*
X157252857Y-144593571D02*
X157324285Y-144665000D01*
X157252857Y-144736428D01*
X157181428Y-144665000D01*
X157252857Y-144593571D01*
X157252857Y-144736428D01*
X156752857Y-145093571D02*
X156181428Y-145093571D01*
X156538571Y-144593571D02*
X156538571Y-145879285D01*
X156467142Y-146022142D01*
X156324285Y-146093571D01*
X156181428Y-146093571D01*
X155681428Y-146093571D02*
X155681428Y-144593571D01*
X155038571Y-146093571D02*
X155038571Y-145307857D01*
X155110000Y-145165000D01*
X155252857Y-145093571D01*
X155467142Y-145093571D01*
X155610000Y-145165000D01*
X155681428Y-145236428D01*
X153681428Y-145093571D02*
X153681428Y-146093571D01*
X154324285Y-145093571D02*
X154324285Y-145879285D01*
X154252857Y-146022142D01*
X154110000Y-146093571D01*
X153895714Y-146093571D01*
X153752857Y-146022142D01*
X153681428Y-145950714D01*
X152967142Y-146093571D02*
X152967142Y-144593571D01*
X152967142Y-145165000D02*
X152824285Y-145093571D01*
X152538571Y-145093571D01*
X152395714Y-145165000D01*
X152324285Y-145236428D01*
X152252857Y-145379285D01*
X152252857Y-145807857D01*
X152324285Y-145950714D01*
X152395714Y-146022142D01*
X152538571Y-146093571D01*
X152824285Y-146093571D01*
X152967142Y-146022142D01*
X151610000Y-145950714D02*
X151538571Y-146022142D01*
X151610000Y-146093571D01*
X151681428Y-146022142D01*
X151610000Y-145950714D01*
X151610000Y-146093571D01*
X150252857Y-146022142D02*
X150395714Y-146093571D01*
X150681428Y-146093571D01*
X150824285Y-146022142D01*
X150895714Y-145950714D01*
X150967142Y-145807857D01*
X150967142Y-145379285D01*
X150895714Y-145236428D01*
X150824285Y-145165000D01*
X150681428Y-145093571D01*
X150395714Y-145093571D01*
X150252857Y-145165000D01*
X149395714Y-146093571D02*
X149538571Y-146022142D01*
X149610000Y-145950714D01*
X149681428Y-145807857D01*
X149681428Y-145379285D01*
X149610000Y-145236428D01*
X149538571Y-145165000D01*
X149395714Y-145093571D01*
X149181428Y-145093571D01*
X149038571Y-145165000D01*
X148967142Y-145236428D01*
X148895714Y-145379285D01*
X148895714Y-145807857D01*
X148967142Y-145950714D01*
X149038571Y-146022142D01*
X149181428Y-146093571D01*
X149395714Y-146093571D01*
X148252857Y-146093571D02*
X148252857Y-145093571D01*
X148252857Y-145236428D02*
X148181428Y-145165000D01*
X148038571Y-145093571D01*
X147824285Y-145093571D01*
X147681428Y-145165000D01*
X147610000Y-145307857D01*
X147610000Y-146093571D01*
X147610000Y-145307857D02*
X147538571Y-145165000D01*
X147395714Y-145093571D01*
X147181428Y-145093571D01*
X147038571Y-145165000D01*
X146967142Y-145307857D01*
X146967142Y-146093571D01*
X145181428Y-144522142D02*
X146467142Y-146450714D01*
X144895714Y-145093571D02*
X144324285Y-145093571D01*
X144681428Y-144593571D02*
X144681428Y-145879285D01*
X144610000Y-146022142D01*
X144467142Y-146093571D01*
X144324285Y-146093571D01*
X143252857Y-146022142D02*
X143395714Y-146093571D01*
X143681428Y-146093571D01*
X143824285Y-146022142D01*
X143895714Y-145879285D01*
X143895714Y-145307857D01*
X143824285Y-145165000D01*
X143681428Y-145093571D01*
X143395714Y-145093571D01*
X143252857Y-145165000D01*
X143181428Y-145307857D01*
X143181428Y-145450714D01*
X143895714Y-145593571D01*
X142538571Y-146093571D02*
X142538571Y-144593571D01*
X142538571Y-145165000D02*
X142395714Y-145093571D01*
X142110000Y-145093571D01*
X141967142Y-145165000D01*
X141895714Y-145236428D01*
X141824285Y-145379285D01*
X141824285Y-145807857D01*
X141895714Y-145950714D01*
X141967142Y-146022142D01*
X142110000Y-146093571D01*
X142395714Y-146093571D01*
X142538571Y-146022142D01*
X140967142Y-146093571D02*
X141110000Y-146022142D01*
X141181428Y-145879285D01*
X141181428Y-144593571D01*
D11*
X106045000Y-133350000D02*
X106045000Y-130810000D01*
X108585000Y-133350000D02*
X106045000Y-133350000D01*
X108585000Y-130810000D02*
X108585000Y-133350000D01*
X106045000Y-130810000D02*
X108585000Y-130810000D01*
X111125000Y-78105000D02*
X100965000Y-78105000D01*
X111125000Y-137795000D02*
X111125000Y-78105000D01*
X100965000Y-137795000D02*
X111125000Y-137795000D01*
D10*
X109112857Y-98069285D02*
X109112857Y-97569285D01*
X109898571Y-97569285D02*
X108398571Y-97569285D01*
X108398571Y-98283571D01*
X109898571Y-98855000D02*
X108898571Y-98855000D01*
X109184285Y-98855000D02*
X109041428Y-98926428D01*
X108970000Y-98997857D01*
X108898571Y-99140714D01*
X108898571Y-99283571D01*
X109898571Y-99997857D02*
X109827142Y-99855000D01*
X109755714Y-99783571D01*
X109612857Y-99712142D01*
X109184285Y-99712142D01*
X109041428Y-99783571D01*
X108970000Y-99855000D01*
X108898571Y-99997857D01*
X108898571Y-100212142D01*
X108970000Y-100355000D01*
X109041428Y-100426428D01*
X109184285Y-100497857D01*
X109612857Y-100497857D01*
X109755714Y-100426428D01*
X109827142Y-100355000D01*
X109898571Y-100212142D01*
X109898571Y-99997857D01*
X108898571Y-101140714D02*
X109898571Y-101140714D01*
X109041428Y-101140714D02*
X108970000Y-101212142D01*
X108898571Y-101355000D01*
X108898571Y-101569285D01*
X108970000Y-101712142D01*
X109112857Y-101783571D01*
X109898571Y-101783571D01*
X108898571Y-102283571D02*
X108898571Y-102855000D01*
X108398571Y-102497857D02*
X109684285Y-102497857D01*
X109827142Y-102569285D01*
X109898571Y-102712142D01*
X109898571Y-102855000D01*
X108898571Y-104497857D02*
X110398571Y-104497857D01*
X108970000Y-104497857D02*
X108898571Y-104640714D01*
X108898571Y-104926428D01*
X108970000Y-105069285D01*
X109041428Y-105140714D01*
X109184285Y-105212142D01*
X109612857Y-105212142D01*
X109755714Y-105140714D01*
X109827142Y-105069285D01*
X109898571Y-104926428D01*
X109898571Y-104640714D01*
X109827142Y-104497857D01*
X109898571Y-106497857D02*
X109112857Y-106497857D01*
X108970000Y-106426428D01*
X108898571Y-106283571D01*
X108898571Y-105997857D01*
X108970000Y-105855000D01*
X109827142Y-106497857D02*
X109898571Y-106355000D01*
X109898571Y-105997857D01*
X109827142Y-105855000D01*
X109684285Y-105783571D01*
X109541428Y-105783571D01*
X109398571Y-105855000D01*
X109327142Y-105997857D01*
X109327142Y-106355000D01*
X109255714Y-106497857D01*
X108898571Y-107212142D02*
X109898571Y-107212142D01*
X109041428Y-107212142D02*
X108970000Y-107283571D01*
X108898571Y-107426428D01*
X108898571Y-107640714D01*
X108970000Y-107783571D01*
X109112857Y-107855000D01*
X109898571Y-107855000D01*
X109827142Y-109140714D02*
X109898571Y-108997857D01*
X109898571Y-108712142D01*
X109827142Y-108569285D01*
X109684285Y-108497857D01*
X109112857Y-108497857D01*
X108970000Y-108569285D01*
X108898571Y-108712142D01*
X108898571Y-108997857D01*
X108970000Y-109140714D01*
X109112857Y-109212142D01*
X109255714Y-109212142D01*
X109398571Y-108497857D01*
X109898571Y-110069285D02*
X109827142Y-109926428D01*
X109684285Y-109855000D01*
X108398571Y-109855000D01*
X109827142Y-112426428D02*
X109898571Y-112283571D01*
X109898571Y-111997857D01*
X109827142Y-111855000D01*
X109755714Y-111783571D01*
X109612857Y-111712142D01*
X109184285Y-111712142D01*
X109041428Y-111783571D01*
X108970000Y-111855000D01*
X108898571Y-111997857D01*
X108898571Y-112283571D01*
X108970000Y-112426428D01*
X109898571Y-113283571D02*
X109827142Y-113140714D01*
X109755714Y-113069285D01*
X109612857Y-112997857D01*
X109184285Y-112997857D01*
X109041428Y-113069285D01*
X108970000Y-113140714D01*
X108898571Y-113283571D01*
X108898571Y-113497857D01*
X108970000Y-113640714D01*
X109041428Y-113712142D01*
X109184285Y-113783571D01*
X109612857Y-113783571D01*
X109755714Y-113712142D01*
X109827142Y-113640714D01*
X109898571Y-113497857D01*
X109898571Y-113283571D01*
X108898571Y-114426428D02*
X109898571Y-114426428D01*
X109041428Y-114426428D02*
X108970000Y-114497857D01*
X108898571Y-114640714D01*
X108898571Y-114855000D01*
X108970000Y-114997857D01*
X109112857Y-115069285D01*
X109898571Y-115069285D01*
X108898571Y-115783571D02*
X109898571Y-115783571D01*
X109041428Y-115783571D02*
X108970000Y-115855000D01*
X108898571Y-115997857D01*
X108898571Y-116212142D01*
X108970000Y-116355000D01*
X109112857Y-116426428D01*
X109898571Y-116426428D01*
X109827142Y-117712142D02*
X109898571Y-117569285D01*
X109898571Y-117283571D01*
X109827142Y-117140714D01*
X109684285Y-117069285D01*
X109112857Y-117069285D01*
X108970000Y-117140714D01*
X108898571Y-117283571D01*
X108898571Y-117569285D01*
X108970000Y-117712142D01*
X109112857Y-117783571D01*
X109255714Y-117783571D01*
X109398571Y-117069285D01*
X109827142Y-119069285D02*
X109898571Y-118926428D01*
X109898571Y-118640714D01*
X109827142Y-118497857D01*
X109755714Y-118426428D01*
X109612857Y-118355000D01*
X109184285Y-118355000D01*
X109041428Y-118426428D01*
X108970000Y-118497857D01*
X108898571Y-118640714D01*
X108898571Y-118926428D01*
X108970000Y-119069285D01*
X108898571Y-119497857D02*
X108898571Y-120069285D01*
X108398571Y-119712142D02*
X109684285Y-119712142D01*
X109827142Y-119783571D01*
X109898571Y-119926428D01*
X109898571Y-120069285D01*
X109898571Y-120783571D02*
X109827142Y-120640714D01*
X109755714Y-120569285D01*
X109612857Y-120497857D01*
X109184285Y-120497857D01*
X109041428Y-120569285D01*
X108970000Y-120640714D01*
X108898571Y-120783571D01*
X108898571Y-120997857D01*
X108970000Y-121140714D01*
X109041428Y-121212142D01*
X109184285Y-121283571D01*
X109612857Y-121283571D01*
X109755714Y-121212142D01*
X109827142Y-121140714D01*
X109898571Y-120997857D01*
X109898571Y-120783571D01*
X109898571Y-121926428D02*
X108898571Y-121926428D01*
X109184285Y-121926428D02*
X109041428Y-121997857D01*
X108970000Y-122069285D01*
X108898571Y-122212142D01*
X108898571Y-122355000D01*
D11*
X100965000Y-137795000D02*
X100965000Y-78105000D01*
M02*
