G04 #@! TF.FileFunction,Legend,Top*
%FSLAX46Y46*%
G04 Gerber Fmt 4.6, Leading zero omitted, Abs format (unit mm)*
G04 Created by KiCad (PCBNEW 4.0.7) date 10/03/18 13:38:50*
%MOMM*%
%LPD*%
G01*
G04 APERTURE LIST*
%ADD10C,0.100000*%
%ADD11C,0.300000*%
%ADD12C,0.120000*%
%ADD13C,0.150000*%
G04 APERTURE END LIST*
D10*
D11*
X124015715Y-121963571D02*
X123301429Y-121963571D01*
X123301429Y-120463571D01*
X124801429Y-120463571D02*
X125087143Y-120463571D01*
X125230001Y-120535000D01*
X125372858Y-120677857D01*
X125444286Y-120963571D01*
X125444286Y-121463571D01*
X125372858Y-121749286D01*
X125230001Y-121892143D01*
X125087143Y-121963571D01*
X124801429Y-121963571D01*
X124658572Y-121892143D01*
X124515715Y-121749286D01*
X124444286Y-121463571D01*
X124444286Y-120963571D01*
X124515715Y-120677857D01*
X124658572Y-120535000D01*
X124801429Y-120463571D01*
X126015715Y-121535000D02*
X126730001Y-121535000D01*
X125872858Y-121963571D02*
X126372858Y-120463571D01*
X126872858Y-121963571D01*
X127372858Y-121963571D02*
X127372858Y-120463571D01*
X127730001Y-120463571D01*
X127944286Y-120535000D01*
X128087144Y-120677857D01*
X128158572Y-120820714D01*
X128230001Y-121106429D01*
X128230001Y-121320714D01*
X128158572Y-121606429D01*
X128087144Y-121749286D01*
X127944286Y-121892143D01*
X127730001Y-121963571D01*
X127372858Y-121963571D01*
X116689286Y-121963571D02*
X116689286Y-120463571D01*
X117403572Y-121963571D02*
X117403572Y-120463571D01*
X118260715Y-121963571D01*
X118260715Y-120463571D01*
X193202857Y-121963571D02*
X192702857Y-121249286D01*
X192345714Y-121963571D02*
X192345714Y-120463571D01*
X192917142Y-120463571D01*
X193060000Y-120535000D01*
X193131428Y-120606429D01*
X193202857Y-120749286D01*
X193202857Y-120963571D01*
X193131428Y-121106429D01*
X193060000Y-121177857D01*
X192917142Y-121249286D01*
X192345714Y-121249286D01*
X193845714Y-120463571D02*
X193845714Y-121677857D01*
X193917142Y-121820714D01*
X193988571Y-121892143D01*
X194131428Y-121963571D01*
X194417142Y-121963571D01*
X194560000Y-121892143D01*
X194631428Y-121820714D01*
X194702857Y-121677857D01*
X194702857Y-120463571D01*
X195417143Y-121963571D02*
X195417143Y-120463571D01*
X196274286Y-121963571D01*
X196274286Y-120463571D01*
X184805000Y-121963571D02*
X184805000Y-120463571D01*
X185305000Y-121535000D01*
X185805000Y-120463571D01*
X185805000Y-121963571D01*
X186519286Y-121963571D02*
X186519286Y-120463571D01*
X187090714Y-120463571D01*
X187233572Y-120535000D01*
X187305000Y-120606429D01*
X187376429Y-120749286D01*
X187376429Y-120963571D01*
X187305000Y-121106429D01*
X187233572Y-121177857D01*
X187090714Y-121249286D01*
X186519286Y-121249286D01*
X116975001Y-144593571D02*
X117975001Y-144593571D01*
X117332144Y-146093571D01*
X126650715Y-144593571D02*
X126365001Y-144593571D01*
X126222144Y-144665000D01*
X126150715Y-144736429D01*
X126007858Y-144950714D01*
X125936429Y-145236429D01*
X125936429Y-145807857D01*
X126007858Y-145950714D01*
X126079286Y-146022143D01*
X126222144Y-146093571D01*
X126507858Y-146093571D01*
X126650715Y-146022143D01*
X126722144Y-145950714D01*
X126793572Y-145807857D01*
X126793572Y-145450714D01*
X126722144Y-145307857D01*
X126650715Y-145236429D01*
X126507858Y-145165000D01*
X126222144Y-145165000D01*
X126079286Y-145236429D01*
X126007858Y-145307857D01*
X125936429Y-145450714D01*
X135612144Y-144593571D02*
X134897858Y-144593571D01*
X134826429Y-145307857D01*
X134897858Y-145236429D01*
X135040715Y-145165000D01*
X135397858Y-145165000D01*
X135540715Y-145236429D01*
X135612144Y-145307857D01*
X135683572Y-145450714D01*
X135683572Y-145807857D01*
X135612144Y-145950714D01*
X135540715Y-146022143D01*
X135397858Y-146093571D01*
X135040715Y-146093571D01*
X134897858Y-146022143D01*
X134826429Y-145950714D01*
X144430715Y-145093571D02*
X144430715Y-146093571D01*
X144073572Y-144522143D02*
X143716429Y-145593571D01*
X144645001Y-145593571D01*
X155075001Y-144593571D02*
X156003572Y-144593571D01*
X155503572Y-145165000D01*
X155717858Y-145165000D01*
X155860715Y-145236429D01*
X155932144Y-145307857D01*
X156003572Y-145450714D01*
X156003572Y-145807857D01*
X155932144Y-145950714D01*
X155860715Y-146022143D01*
X155717858Y-146093571D01*
X155289286Y-146093571D01*
X155146429Y-146022143D01*
X155075001Y-145950714D01*
X164036429Y-144736429D02*
X164107858Y-144665000D01*
X164250715Y-144593571D01*
X164607858Y-144593571D01*
X164750715Y-144665000D01*
X164822144Y-144736429D01*
X164893572Y-144879286D01*
X164893572Y-145022143D01*
X164822144Y-145236429D01*
X163965001Y-146093571D01*
X164893572Y-146093571D01*
X173783572Y-146093571D02*
X172926429Y-146093571D01*
X173355001Y-146093571D02*
X173355001Y-144593571D01*
X173212144Y-144807857D01*
X173069286Y-144950714D01*
X172926429Y-145022143D01*
X182173572Y-144593571D02*
X182316429Y-144593571D01*
X182459286Y-144665000D01*
X182530715Y-144736429D01*
X182602144Y-144879286D01*
X182673572Y-145165000D01*
X182673572Y-145522143D01*
X182602144Y-145807857D01*
X182530715Y-145950714D01*
X182459286Y-146022143D01*
X182316429Y-146093571D01*
X182173572Y-146093571D01*
X182030715Y-146022143D01*
X181959286Y-145950714D01*
X181887858Y-145807857D01*
X181816429Y-145522143D01*
X181816429Y-145165000D01*
X181887858Y-144879286D01*
X181959286Y-144736429D01*
X182030715Y-144665000D01*
X182173572Y-144593571D01*
X139542573Y-71539571D02*
X139042573Y-70825286D01*
X138685430Y-71539571D02*
X138685430Y-70039571D01*
X139256858Y-70039571D01*
X139399716Y-70111000D01*
X139471144Y-70182429D01*
X139542573Y-70325286D01*
X139542573Y-70539571D01*
X139471144Y-70682429D01*
X139399716Y-70753857D01*
X139256858Y-70825286D01*
X138685430Y-70825286D01*
X141042573Y-71396714D02*
X140971144Y-71468143D01*
X140756858Y-71539571D01*
X140614001Y-71539571D01*
X140399716Y-71468143D01*
X140256858Y-71325286D01*
X140185430Y-71182429D01*
X140114001Y-70896714D01*
X140114001Y-70682429D01*
X140185430Y-70396714D01*
X140256858Y-70253857D01*
X140399716Y-70111000D01*
X140614001Y-70039571D01*
X140756858Y-70039571D01*
X140971144Y-70111000D01*
X141042573Y-70182429D01*
X142471144Y-71539571D02*
X141614001Y-71539571D01*
X142042573Y-71539571D02*
X142042573Y-70039571D01*
X141899716Y-70253857D01*
X141756858Y-70396714D01*
X141614001Y-70468143D01*
X143328287Y-70682429D02*
X143185429Y-70611000D01*
X143114001Y-70539571D01*
X143042572Y-70396714D01*
X143042572Y-70325286D01*
X143114001Y-70182429D01*
X143185429Y-70111000D01*
X143328287Y-70039571D01*
X143614001Y-70039571D01*
X143756858Y-70111000D01*
X143828287Y-70182429D01*
X143899715Y-70325286D01*
X143899715Y-70396714D01*
X143828287Y-70539571D01*
X143756858Y-70611000D01*
X143614001Y-70682429D01*
X143328287Y-70682429D01*
X143185429Y-70753857D01*
X143114001Y-70825286D01*
X143042572Y-70968143D01*
X143042572Y-71253857D01*
X143114001Y-71396714D01*
X143185429Y-71468143D01*
X143328287Y-71539571D01*
X143614001Y-71539571D01*
X143756858Y-71468143D01*
X143828287Y-71396714D01*
X143899715Y-71253857D01*
X143899715Y-70968143D01*
X143828287Y-70825286D01*
X143756858Y-70753857D01*
X143614001Y-70682429D01*
X144828286Y-70039571D02*
X144971143Y-70039571D01*
X145114000Y-70111000D01*
X145185429Y-70182429D01*
X145256858Y-70325286D01*
X145328286Y-70611000D01*
X145328286Y-70968143D01*
X145256858Y-71253857D01*
X145185429Y-71396714D01*
X145114000Y-71468143D01*
X144971143Y-71539571D01*
X144828286Y-71539571D01*
X144685429Y-71468143D01*
X144614000Y-71396714D01*
X144542572Y-71253857D01*
X144471143Y-70968143D01*
X144471143Y-70611000D01*
X144542572Y-70325286D01*
X144614000Y-70182429D01*
X144685429Y-70111000D01*
X144828286Y-70039571D01*
X145899714Y-70182429D02*
X145971143Y-70111000D01*
X146114000Y-70039571D01*
X146471143Y-70039571D01*
X146614000Y-70111000D01*
X146685429Y-70182429D01*
X146756857Y-70325286D01*
X146756857Y-70468143D01*
X146685429Y-70682429D01*
X145828286Y-71539571D01*
X146756857Y-71539571D01*
X149399714Y-71396714D02*
X149328285Y-71468143D01*
X149113999Y-71539571D01*
X148971142Y-71539571D01*
X148756857Y-71468143D01*
X148613999Y-71325286D01*
X148542571Y-71182429D01*
X148471142Y-70896714D01*
X148471142Y-70682429D01*
X148542571Y-70396714D01*
X148613999Y-70253857D01*
X148756857Y-70111000D01*
X148971142Y-70039571D01*
X149113999Y-70039571D01*
X149328285Y-70111000D01*
X149399714Y-70182429D01*
X150256857Y-71539571D02*
X150113999Y-71468143D01*
X150042571Y-71396714D01*
X149971142Y-71253857D01*
X149971142Y-70825286D01*
X150042571Y-70682429D01*
X150113999Y-70611000D01*
X150256857Y-70539571D01*
X150471142Y-70539571D01*
X150613999Y-70611000D01*
X150685428Y-70682429D01*
X150756857Y-70825286D01*
X150756857Y-71253857D01*
X150685428Y-71396714D01*
X150613999Y-71468143D01*
X150471142Y-71539571D01*
X150256857Y-71539571D01*
X151328285Y-71468143D02*
X151471142Y-71539571D01*
X151756857Y-71539571D01*
X151899714Y-71468143D01*
X151971142Y-71325286D01*
X151971142Y-71253857D01*
X151899714Y-71111000D01*
X151756857Y-71039571D01*
X151542571Y-71039571D01*
X151399714Y-70968143D01*
X151328285Y-70825286D01*
X151328285Y-70753857D01*
X151399714Y-70611000D01*
X151542571Y-70539571D01*
X151756857Y-70539571D01*
X151899714Y-70611000D01*
X152614000Y-71539571D02*
X152614000Y-70539571D01*
X152614000Y-70682429D02*
X152685428Y-70611000D01*
X152828286Y-70539571D01*
X153042571Y-70539571D01*
X153185428Y-70611000D01*
X153256857Y-70753857D01*
X153256857Y-71539571D01*
X153256857Y-70753857D02*
X153328286Y-70611000D01*
X153471143Y-70539571D01*
X153685428Y-70539571D01*
X153828286Y-70611000D01*
X153899714Y-70753857D01*
X153899714Y-71539571D01*
X155256857Y-71539571D02*
X155256857Y-70753857D01*
X155185428Y-70611000D01*
X155042571Y-70539571D01*
X154756857Y-70539571D01*
X154614000Y-70611000D01*
X155256857Y-71468143D02*
X155114000Y-71539571D01*
X154756857Y-71539571D01*
X154614000Y-71468143D01*
X154542571Y-71325286D01*
X154542571Y-71182429D01*
X154614000Y-71039571D01*
X154756857Y-70968143D01*
X155114000Y-70968143D01*
X155256857Y-70896714D01*
X156614000Y-71468143D02*
X156471143Y-71539571D01*
X156185429Y-71539571D01*
X156042571Y-71468143D01*
X155971143Y-71396714D01*
X155899714Y-71253857D01*
X155899714Y-70825286D01*
X155971143Y-70682429D01*
X156042571Y-70611000D01*
X156185429Y-70539571D01*
X156471143Y-70539571D01*
X156614000Y-70611000D01*
X158399714Y-70753857D02*
X158899714Y-70753857D01*
X159114000Y-71539571D02*
X158399714Y-71539571D01*
X158399714Y-70039571D01*
X159114000Y-70039571D01*
X160471143Y-71539571D02*
X159756857Y-71539571D01*
X159756857Y-70039571D01*
X161471143Y-70753857D02*
X160971143Y-70753857D01*
X160971143Y-71539571D02*
X160971143Y-70039571D01*
X161685429Y-70039571D01*
X138971143Y-72589571D02*
X138971143Y-73803857D01*
X139042571Y-73946714D01*
X139114000Y-74018143D01*
X139256857Y-74089571D01*
X139542571Y-74089571D01*
X139685429Y-74018143D01*
X139756857Y-73946714D01*
X139828286Y-73803857D01*
X139828286Y-72589571D01*
X140542572Y-74089571D02*
X140542572Y-72589571D01*
X142899715Y-73303857D02*
X143114001Y-73375286D01*
X143185429Y-73446714D01*
X143256858Y-73589571D01*
X143256858Y-73803857D01*
X143185429Y-73946714D01*
X143114001Y-74018143D01*
X142971143Y-74089571D01*
X142399715Y-74089571D01*
X142399715Y-72589571D01*
X142899715Y-72589571D01*
X143042572Y-72661000D01*
X143114001Y-72732429D01*
X143185429Y-72875286D01*
X143185429Y-73018143D01*
X143114001Y-73161000D01*
X143042572Y-73232429D01*
X142899715Y-73303857D01*
X142399715Y-73303857D01*
X144114001Y-74089571D02*
X143971143Y-74018143D01*
X143899715Y-73946714D01*
X143828286Y-73803857D01*
X143828286Y-73375286D01*
X143899715Y-73232429D01*
X143971143Y-73161000D01*
X144114001Y-73089571D01*
X144328286Y-73089571D01*
X144471143Y-73161000D01*
X144542572Y-73232429D01*
X144614001Y-73375286D01*
X144614001Y-73803857D01*
X144542572Y-73946714D01*
X144471143Y-74018143D01*
X144328286Y-74089571D01*
X144114001Y-74089571D01*
X145899715Y-74089571D02*
X145899715Y-73303857D01*
X145828286Y-73161000D01*
X145685429Y-73089571D01*
X145399715Y-73089571D01*
X145256858Y-73161000D01*
X145899715Y-74018143D02*
X145756858Y-74089571D01*
X145399715Y-74089571D01*
X145256858Y-74018143D01*
X145185429Y-73875286D01*
X145185429Y-73732429D01*
X145256858Y-73589571D01*
X145399715Y-73518143D01*
X145756858Y-73518143D01*
X145899715Y-73446714D01*
X146614001Y-74089571D02*
X146614001Y-73089571D01*
X146614001Y-73375286D02*
X146685429Y-73232429D01*
X146756858Y-73161000D01*
X146899715Y-73089571D01*
X147042572Y-73089571D01*
X148185429Y-74089571D02*
X148185429Y-72589571D01*
X148185429Y-74018143D02*
X148042572Y-74089571D01*
X147756858Y-74089571D01*
X147614000Y-74018143D01*
X147542572Y-73946714D01*
X147471143Y-73803857D01*
X147471143Y-73375286D01*
X147542572Y-73232429D01*
X147614000Y-73161000D01*
X147756858Y-73089571D01*
X148042572Y-73089571D01*
X148185429Y-73161000D01*
X150899715Y-74089571D02*
X150399715Y-73375286D01*
X150042572Y-74089571D02*
X150042572Y-72589571D01*
X150614000Y-72589571D01*
X150756858Y-72661000D01*
X150828286Y-72732429D01*
X150899715Y-72875286D01*
X150899715Y-73089571D01*
X150828286Y-73232429D01*
X150756858Y-73303857D01*
X150614000Y-73375286D01*
X150042572Y-73375286D01*
X152114000Y-74018143D02*
X151971143Y-74089571D01*
X151685429Y-74089571D01*
X151542572Y-74018143D01*
X151471143Y-73875286D01*
X151471143Y-73303857D01*
X151542572Y-73161000D01*
X151685429Y-73089571D01*
X151971143Y-73089571D01*
X152114000Y-73161000D01*
X152185429Y-73303857D01*
X152185429Y-73446714D01*
X151471143Y-73589571D01*
X152685429Y-73089571D02*
X153042572Y-74089571D01*
X153399714Y-73089571D01*
X153971143Y-74089571D02*
X153971143Y-73089571D01*
X153971143Y-72589571D02*
X153899714Y-72661000D01*
X153971143Y-72732429D01*
X154042571Y-72661000D01*
X153971143Y-72589571D01*
X153971143Y-72732429D01*
X154614000Y-74018143D02*
X154756857Y-74089571D01*
X155042572Y-74089571D01*
X155185429Y-74018143D01*
X155256857Y-73875286D01*
X155256857Y-73803857D01*
X155185429Y-73661000D01*
X155042572Y-73589571D01*
X154828286Y-73589571D01*
X154685429Y-73518143D01*
X154614000Y-73375286D01*
X154614000Y-73303857D01*
X154685429Y-73161000D01*
X154828286Y-73089571D01*
X155042572Y-73089571D01*
X155185429Y-73161000D01*
X155899715Y-74089571D02*
X155899715Y-73089571D01*
X155899715Y-72589571D02*
X155828286Y-72661000D01*
X155899715Y-72732429D01*
X155971143Y-72661000D01*
X155899715Y-72589571D01*
X155899715Y-72732429D01*
X156828287Y-74089571D02*
X156685429Y-74018143D01*
X156614001Y-73946714D01*
X156542572Y-73803857D01*
X156542572Y-73375286D01*
X156614001Y-73232429D01*
X156685429Y-73161000D01*
X156828287Y-73089571D01*
X157042572Y-73089571D01*
X157185429Y-73161000D01*
X157256858Y-73232429D01*
X157328287Y-73375286D01*
X157328287Y-73803857D01*
X157256858Y-73946714D01*
X157185429Y-74018143D01*
X157042572Y-74089571D01*
X156828287Y-74089571D01*
X157971144Y-73089571D02*
X157971144Y-74089571D01*
X157971144Y-73232429D02*
X158042572Y-73161000D01*
X158185430Y-73089571D01*
X158399715Y-73089571D01*
X158542572Y-73161000D01*
X158614001Y-73303857D01*
X158614001Y-74089571D01*
X160471144Y-74089571D02*
X160471144Y-72589571D01*
X160828287Y-72589571D01*
X161042572Y-72661000D01*
X161185430Y-72803857D01*
X161256858Y-72946714D01*
X161328287Y-73232429D01*
X161328287Y-73446714D01*
X161256858Y-73732429D01*
X161185430Y-73875286D01*
X161042572Y-74018143D01*
X160828287Y-74089571D01*
X160471144Y-74089571D01*
D12*
X183245000Y-79315000D02*
G75*
G02X181245000Y-79315000I-1000000J0D01*
G01*
X181245000Y-79315000D02*
X179595000Y-79315000D01*
X179595000Y-79315000D02*
X179595000Y-97215000D01*
X179595000Y-97215000D02*
X184895000Y-97215000D01*
X184895000Y-97215000D02*
X184895000Y-79315000D01*
X184895000Y-79315000D02*
X183245000Y-79315000D01*
X177105000Y-79255000D02*
X177105000Y-97275000D01*
X177105000Y-97275000D02*
X187385000Y-97275000D01*
X187385000Y-97275000D02*
X187385000Y-79255000D01*
X187385000Y-79255000D02*
X177105000Y-79255000D01*
X101245000Y-137410000D02*
X101245000Y-78490000D01*
X101245000Y-78490000D02*
X110845000Y-78490000D01*
X110845000Y-78490000D02*
X110845000Y-137410000D01*
X110845000Y-137410000D02*
X101245000Y-137410000D01*
X171815000Y-79315000D02*
G75*
G02X169815000Y-79315000I-1000000J0D01*
G01*
X169815000Y-79315000D02*
X168165000Y-79315000D01*
X168165000Y-79315000D02*
X168165000Y-99755000D01*
X168165000Y-99755000D02*
X173465000Y-99755000D01*
X173465000Y-99755000D02*
X173465000Y-79315000D01*
X173465000Y-79315000D02*
X171815000Y-79315000D01*
X165675000Y-79255000D02*
X165675000Y-99815000D01*
X165675000Y-99815000D02*
X175955000Y-99815000D01*
X175955000Y-99815000D02*
X175955000Y-79255000D01*
X175955000Y-79255000D02*
X165675000Y-79255000D01*
X132020000Y-116475000D02*
G75*
G02X132020000Y-118475000I0J-1000000D01*
G01*
X132020000Y-118475000D02*
X132020000Y-120125000D01*
X132020000Y-120125000D02*
X157540000Y-120125000D01*
X157540000Y-120125000D02*
X157540000Y-114825000D01*
X157540000Y-114825000D02*
X132020000Y-114825000D01*
X132020000Y-114825000D02*
X132020000Y-116475000D01*
X131960000Y-122615000D02*
X157600000Y-122615000D01*
X157600000Y-122615000D02*
X157600000Y-112335000D01*
X157600000Y-112335000D02*
X131960000Y-112335000D01*
X131960000Y-112335000D02*
X131960000Y-122615000D01*
X171815000Y-104715000D02*
G75*
G02X169815000Y-104715000I-1000000J0D01*
G01*
X169815000Y-104715000D02*
X168165000Y-104715000D01*
X168165000Y-104715000D02*
X168165000Y-122615000D01*
X168165000Y-122615000D02*
X173465000Y-122615000D01*
X173465000Y-122615000D02*
X173465000Y-104715000D01*
X173465000Y-104715000D02*
X171815000Y-104715000D01*
X165675000Y-104655000D02*
X165675000Y-122675000D01*
X165675000Y-122675000D02*
X175955000Y-122675000D01*
X175955000Y-122675000D02*
X175955000Y-104655000D01*
X175955000Y-104655000D02*
X165675000Y-104655000D01*
X194675000Y-79315000D02*
G75*
G02X192675000Y-79315000I-1000000J0D01*
G01*
X192675000Y-79315000D02*
X191025000Y-79315000D01*
X191025000Y-79315000D02*
X191025000Y-99755000D01*
X191025000Y-99755000D02*
X196325000Y-99755000D01*
X196325000Y-99755000D02*
X196325000Y-79315000D01*
X196325000Y-79315000D02*
X194675000Y-79315000D01*
X188535000Y-79255000D02*
X188535000Y-99815000D01*
X188535000Y-99815000D02*
X198815000Y-99815000D01*
X198815000Y-99815000D02*
X198815000Y-79255000D01*
X198815000Y-79255000D02*
X188535000Y-79255000D01*
X118475000Y-79315000D02*
G75*
G02X116475000Y-79315000I-1000000J0D01*
G01*
X116475000Y-79315000D02*
X114825000Y-79315000D01*
X114825000Y-79315000D02*
X114825000Y-97215000D01*
X114825000Y-97215000D02*
X120125000Y-97215000D01*
X120125000Y-97215000D02*
X120125000Y-79315000D01*
X120125000Y-79315000D02*
X118475000Y-79315000D01*
X112335000Y-79255000D02*
X112335000Y-97275000D01*
X112335000Y-97275000D02*
X122615000Y-97275000D01*
X122615000Y-97275000D02*
X122615000Y-79255000D01*
X122615000Y-79255000D02*
X112335000Y-79255000D01*
X107061000Y-71755000D02*
G75*
G03X107061000Y-71755000I-2286000J0D01*
G01*
X197231000Y-71755000D02*
G75*
G03X197231000Y-71755000I-2286000J0D01*
G01*
X129905000Y-79315000D02*
G75*
G02X127905000Y-79315000I-1000000J0D01*
G01*
X127905000Y-79315000D02*
X126255000Y-79315000D01*
X126255000Y-79315000D02*
X126255000Y-99755000D01*
X126255000Y-99755000D02*
X131555000Y-99755000D01*
X131555000Y-99755000D02*
X131555000Y-79315000D01*
X131555000Y-79315000D02*
X129905000Y-79315000D01*
X123765000Y-79255000D02*
X123765000Y-99815000D01*
X123765000Y-99815000D02*
X134045000Y-99815000D01*
X134045000Y-99815000D02*
X134045000Y-79255000D01*
X134045000Y-79255000D02*
X123765000Y-79255000D01*
X179035000Y-98385000D02*
X179035000Y-101005000D01*
X179035000Y-101005000D02*
X185455000Y-101005000D01*
X185455000Y-101005000D02*
X185455000Y-98385000D01*
X185455000Y-98385000D02*
X179035000Y-98385000D01*
X178145000Y-99695000D02*
X179035000Y-99695000D01*
X186345000Y-99695000D02*
X185455000Y-99695000D01*
X177125000Y-121955000D02*
X179745000Y-121955000D01*
X179745000Y-121955000D02*
X179745000Y-115535000D01*
X179745000Y-115535000D02*
X177125000Y-115535000D01*
X177125000Y-115535000D02*
X177125000Y-121955000D01*
X178435000Y-122845000D02*
X178435000Y-121955000D01*
X178435000Y-114645000D02*
X178435000Y-115535000D01*
X153070000Y-111165000D02*
X153070000Y-108545000D01*
X153070000Y-108545000D02*
X146650000Y-108545000D01*
X146650000Y-108545000D02*
X146650000Y-111165000D01*
X146650000Y-111165000D02*
X153070000Y-111165000D01*
X153960000Y-109855000D02*
X153070000Y-109855000D01*
X145760000Y-109855000D02*
X146650000Y-109855000D01*
X197231000Y-141605000D02*
G75*
G03X197231000Y-141605000I-2286000J0D01*
G01*
X107061000Y-141605000D02*
G75*
G03X107061000Y-141605000I-2286000J0D01*
G01*
X158270000Y-129330000D02*
X158270000Y-127210000D01*
X158270000Y-127210000D02*
X154150000Y-127210000D01*
X154150000Y-127210000D02*
X154150000Y-129330000D01*
X154150000Y-129330000D02*
X158270000Y-129330000D01*
X159040000Y-128270000D02*
X158270000Y-128270000D01*
X153380000Y-128270000D02*
X154150000Y-128270000D01*
X157610000Y-129330000D02*
X157610000Y-127210000D01*
X183670000Y-129330000D02*
X183670000Y-127210000D01*
X183670000Y-127210000D02*
X179550000Y-127210000D01*
X179550000Y-127210000D02*
X179550000Y-129330000D01*
X179550000Y-129330000D02*
X183670000Y-129330000D01*
X184440000Y-128270000D02*
X183670000Y-128270000D01*
X178780000Y-128270000D02*
X179550000Y-128270000D01*
X183010000Y-129330000D02*
X183010000Y-127210000D01*
X170970000Y-129330000D02*
X170970000Y-127210000D01*
X170970000Y-127210000D02*
X166850000Y-127210000D01*
X166850000Y-127210000D02*
X166850000Y-129330000D01*
X166850000Y-129330000D02*
X170970000Y-129330000D01*
X171740000Y-128270000D02*
X170970000Y-128270000D01*
X166080000Y-128270000D02*
X166850000Y-128270000D01*
X170310000Y-129330000D02*
X170310000Y-127210000D01*
X128750000Y-127210000D02*
X128750000Y-129330000D01*
X128750000Y-129330000D02*
X132870000Y-129330000D01*
X132870000Y-129330000D02*
X132870000Y-127210000D01*
X132870000Y-127210000D02*
X128750000Y-127210000D01*
X127980000Y-128270000D02*
X128750000Y-128270000D01*
X133640000Y-128270000D02*
X132870000Y-128270000D01*
X129410000Y-127210000D02*
X129410000Y-129330000D01*
X120170000Y-129330000D02*
X120170000Y-127210000D01*
X120170000Y-127210000D02*
X116050000Y-127210000D01*
X116050000Y-127210000D02*
X116050000Y-129330000D01*
X116050000Y-129330000D02*
X120170000Y-129330000D01*
X120940000Y-128270000D02*
X120170000Y-128270000D01*
X115280000Y-128270000D02*
X116050000Y-128270000D01*
X119510000Y-129330000D02*
X119510000Y-127210000D01*
X145570000Y-129330000D02*
X145570000Y-127210000D01*
X145570000Y-127210000D02*
X141450000Y-127210000D01*
X141450000Y-127210000D02*
X141450000Y-129330000D01*
X141450000Y-129330000D02*
X145570000Y-129330000D01*
X146340000Y-128270000D02*
X145570000Y-128270000D01*
X140680000Y-128270000D02*
X141450000Y-128270000D01*
X144910000Y-129330000D02*
X144910000Y-127210000D01*
X149860462Y-101785000D02*
G75*
G03X148315170Y-107335000I-462J-2990000D01*
G01*
X149859538Y-101785000D02*
G75*
G02X151404830Y-107335000I462J-2990000D01*
G01*
X152360000Y-104775000D02*
G75*
G03X152360000Y-104775000I-2500000J0D01*
G01*
X148315000Y-107335000D02*
X151405000Y-107335000D01*
X174535000Y-78145000D02*
X169715000Y-78145000D01*
X174535000Y-75525000D02*
X169715000Y-75525000D01*
X174535000Y-78145000D02*
X174535000Y-77831000D01*
X174535000Y-75839000D02*
X174535000Y-75525000D01*
X169715000Y-78145000D02*
X169715000Y-77831000D01*
X169715000Y-75839000D02*
X169715000Y-75525000D01*
X133440000Y-108545000D02*
X138260000Y-108545000D01*
X133440000Y-111165000D02*
X138260000Y-111165000D01*
X133440000Y-108545000D02*
X133440000Y-108859000D01*
X133440000Y-110851000D02*
X133440000Y-111165000D01*
X138260000Y-108545000D02*
X138260000Y-108859000D01*
X138260000Y-110851000D02*
X138260000Y-111165000D01*
X132625000Y-78145000D02*
X127805000Y-78145000D01*
X132625000Y-75525000D02*
X127805000Y-75525000D01*
X132625000Y-78145000D02*
X132625000Y-77831000D01*
X132625000Y-75839000D02*
X132625000Y-75525000D01*
X127805000Y-78145000D02*
X127805000Y-77831000D01*
X127805000Y-75839000D02*
X127805000Y-75525000D01*
X185965000Y-78145000D02*
X181145000Y-78145000D01*
X185965000Y-75525000D02*
X181145000Y-75525000D01*
X185965000Y-78145000D02*
X185965000Y-77831000D01*
X185965000Y-75839000D02*
X185965000Y-75525000D01*
X181145000Y-78145000D02*
X181145000Y-77831000D01*
X181145000Y-75839000D02*
X181145000Y-75525000D01*
X179745000Y-106135000D02*
X179745000Y-110955000D01*
X177125000Y-106135000D02*
X177125000Y-110955000D01*
X179745000Y-106135000D02*
X179431000Y-106135000D01*
X177439000Y-106135000D02*
X177125000Y-106135000D01*
X179745000Y-110955000D02*
X179431000Y-110955000D01*
X177439000Y-110955000D02*
X177125000Y-110955000D01*
X189955000Y-75525000D02*
X194775000Y-75525000D01*
X189955000Y-78145000D02*
X194775000Y-78145000D01*
X189955000Y-75525000D02*
X189955000Y-75839000D01*
X189955000Y-77831000D02*
X189955000Y-78145000D01*
X194775000Y-75525000D02*
X194775000Y-75839000D01*
X194775000Y-77831000D02*
X194775000Y-78145000D01*
X121195000Y-78145000D02*
X116375000Y-78145000D01*
X121195000Y-75525000D02*
X116375000Y-75525000D01*
X121195000Y-78145000D02*
X121195000Y-77831000D01*
X121195000Y-75839000D02*
X121195000Y-75525000D01*
X116375000Y-78145000D02*
X116375000Y-77831000D01*
X116375000Y-75839000D02*
X116375000Y-75525000D01*
D13*
X161292214Y-93900000D02*
G75*
G03X161292214Y-93900000I-447214J0D01*
G01*
X153845000Y-83900000D02*
X152845000Y-88900000D01*
X152845000Y-88900000D02*
X151845000Y-93900000D01*
X151845000Y-93900000D02*
X158845000Y-93900000D01*
X158845000Y-93900000D02*
X159845000Y-88900000D01*
X160845000Y-83900000D02*
X159845000Y-88900000D01*
X159845000Y-88900000D02*
X152845000Y-88900000D01*
X153845000Y-83900000D02*
X160845000Y-83900000D01*
X163145000Y-98500000D02*
X150545000Y-98500000D01*
X150545000Y-83200000D02*
X150545000Y-94600000D01*
X163145000Y-83200000D02*
X163145000Y-94600000D01*
X150545000Y-79300000D02*
X163145000Y-79300000D01*
X147322214Y-93900000D02*
G75*
G03X147322214Y-93900000I-447214J0D01*
G01*
X139875000Y-83900000D02*
X138875000Y-88900000D01*
X138875000Y-88900000D02*
X137875000Y-93900000D01*
X137875000Y-93900000D02*
X144875000Y-93900000D01*
X144875000Y-93900000D02*
X145875000Y-88900000D01*
X146875000Y-83900000D02*
X145875000Y-88900000D01*
X145875000Y-88900000D02*
X138875000Y-88900000D01*
X139875000Y-83900000D02*
X146875000Y-83900000D01*
X149175000Y-98500000D02*
X136575000Y-98500000D01*
X136575000Y-83200000D02*
X136575000Y-94600000D01*
X149175000Y-83200000D02*
X149175000Y-94600000D01*
X136575000Y-79300000D02*
X149175000Y-79300000D01*
X196310000Y-114630000D02*
X196710000Y-114630000D01*
X191910000Y-111430000D02*
X192310000Y-111430000D01*
X196510000Y-114630000D02*
X196510000Y-106430000D01*
X192110000Y-119630000D02*
X192110000Y-111430000D01*
X198310000Y-119630000D02*
X194310000Y-119630000D01*
X194310000Y-119630000D02*
X190310000Y-119630000D01*
X198310000Y-106430000D02*
X194310000Y-106430000D01*
X194310000Y-106430000D02*
X190310000Y-106430000D01*
X190310000Y-119630000D02*
X190310000Y-106430000D01*
X198310000Y-119630000D02*
X198310000Y-106430000D01*
X127730000Y-114630000D02*
X128130000Y-114630000D01*
X123330000Y-111430000D02*
X123730000Y-111430000D01*
X127930000Y-114630000D02*
X127930000Y-106430000D01*
X123530000Y-119630000D02*
X123530000Y-111430000D01*
X129730000Y-119630000D02*
X125730000Y-119630000D01*
X125730000Y-119630000D02*
X121730000Y-119630000D01*
X129730000Y-106430000D02*
X125730000Y-106430000D01*
X125730000Y-106430000D02*
X121730000Y-106430000D01*
X121730000Y-119630000D02*
X121730000Y-106430000D01*
X129730000Y-119630000D02*
X129730000Y-106430000D01*
X175355000Y-138125000D02*
X175755000Y-138125000D01*
X170955000Y-134925000D02*
X171355000Y-134925000D01*
X175555000Y-138125000D02*
X175555000Y-129925000D01*
X171155000Y-143125000D02*
X171155000Y-134925000D01*
X177355000Y-143125000D02*
X173355000Y-143125000D01*
X173355000Y-143125000D02*
X169355000Y-143125000D01*
X177355000Y-129925000D02*
X173355000Y-129925000D01*
X173355000Y-129925000D02*
X169355000Y-129925000D01*
X169355000Y-143125000D02*
X169355000Y-129925000D01*
X177355000Y-143125000D02*
X177355000Y-129925000D01*
D12*
X121345000Y-72450000D02*
X121345000Y-69790000D01*
X118745000Y-72450000D02*
X121345000Y-72450000D01*
X118745000Y-69790000D02*
X121345000Y-69790000D01*
X118745000Y-72450000D02*
X118745000Y-69790000D01*
X117475000Y-72450000D02*
X116145000Y-72450000D01*
X116145000Y-72450000D02*
X116145000Y-71120000D01*
X180915000Y-69790000D02*
X180915000Y-72450000D01*
X183515000Y-69790000D02*
X180915000Y-69790000D01*
X183515000Y-72450000D02*
X180915000Y-72450000D01*
X183515000Y-69790000D02*
X183515000Y-72450000D01*
X184785000Y-69790000D02*
X186115000Y-69790000D01*
X186115000Y-69790000D02*
X186115000Y-71120000D01*
X126965000Y-69810000D02*
X126965000Y-72430000D01*
X126965000Y-72430000D02*
X133385000Y-72430000D01*
X133385000Y-72430000D02*
X133385000Y-69810000D01*
X133385000Y-69810000D02*
X126965000Y-69810000D01*
X126075000Y-71120000D02*
X126965000Y-71120000D01*
X134275000Y-71120000D02*
X133385000Y-71120000D01*
X175295000Y-72430000D02*
X175295000Y-69810000D01*
X175295000Y-69810000D02*
X168875000Y-69810000D01*
X168875000Y-69810000D02*
X168875000Y-72430000D01*
X168875000Y-72430000D02*
X175295000Y-72430000D01*
X176185000Y-71120000D02*
X175295000Y-71120000D01*
X167985000Y-71120000D02*
X168875000Y-71120000D01*
D13*
X184055000Y-111430000D02*
X183655000Y-111430000D01*
X188455000Y-114630000D02*
X188055000Y-114630000D01*
X183855000Y-111430000D02*
X183855000Y-119630000D01*
X188255000Y-106430000D02*
X188255000Y-114630000D01*
X182055000Y-106430000D02*
X186055000Y-106430000D01*
X186055000Y-106430000D02*
X190055000Y-106430000D01*
X182055000Y-119630000D02*
X186055000Y-119630000D01*
X186055000Y-119630000D02*
X190055000Y-119630000D01*
X190055000Y-106430000D02*
X190055000Y-119630000D01*
X182055000Y-106430000D02*
X182055000Y-119630000D01*
X115475000Y-134925000D02*
X115075000Y-134925000D01*
X119875000Y-138125000D02*
X119475000Y-138125000D01*
X115275000Y-134925000D02*
X115275000Y-143125000D01*
X119675000Y-129925000D02*
X119675000Y-138125000D01*
X113475000Y-129925000D02*
X117475000Y-129925000D01*
X117475000Y-129925000D02*
X121475000Y-129925000D01*
X113475000Y-143125000D02*
X117475000Y-143125000D01*
X117475000Y-143125000D02*
X121475000Y-143125000D01*
X121475000Y-129925000D02*
X121475000Y-143125000D01*
X113475000Y-129925000D02*
X113475000Y-143125000D01*
X124365000Y-134925000D02*
X123965000Y-134925000D01*
X128765000Y-138125000D02*
X128365000Y-138125000D01*
X124165000Y-134925000D02*
X124165000Y-143125000D01*
X128565000Y-129925000D02*
X128565000Y-138125000D01*
X122365000Y-129925000D02*
X126365000Y-129925000D01*
X126365000Y-129925000D02*
X130365000Y-129925000D01*
X122365000Y-143125000D02*
X126365000Y-143125000D01*
X126365000Y-143125000D02*
X130365000Y-143125000D01*
X130365000Y-129925000D02*
X130365000Y-143125000D01*
X122365000Y-129925000D02*
X122365000Y-143125000D01*
X133255000Y-134925000D02*
X132855000Y-134925000D01*
X137655000Y-138125000D02*
X137255000Y-138125000D01*
X133055000Y-134925000D02*
X133055000Y-143125000D01*
X137455000Y-129925000D02*
X137455000Y-138125000D01*
X131255000Y-129925000D02*
X135255000Y-129925000D01*
X135255000Y-129925000D02*
X139255000Y-129925000D01*
X131255000Y-143125000D02*
X135255000Y-143125000D01*
X135255000Y-143125000D02*
X139255000Y-143125000D01*
X139255000Y-129925000D02*
X139255000Y-143125000D01*
X131255000Y-129925000D02*
X131255000Y-143125000D01*
X142145000Y-134925000D02*
X141745000Y-134925000D01*
X146545000Y-138125000D02*
X146145000Y-138125000D01*
X141945000Y-134925000D02*
X141945000Y-143125000D01*
X146345000Y-129925000D02*
X146345000Y-138125000D01*
X140145000Y-129925000D02*
X144145000Y-129925000D01*
X144145000Y-129925000D02*
X148145000Y-129925000D01*
X140145000Y-143125000D02*
X144145000Y-143125000D01*
X144145000Y-143125000D02*
X148145000Y-143125000D01*
X148145000Y-129925000D02*
X148145000Y-143125000D01*
X140145000Y-129925000D02*
X140145000Y-143125000D01*
X153575000Y-134925000D02*
X153175000Y-134925000D01*
X157975000Y-138125000D02*
X157575000Y-138125000D01*
X153375000Y-134925000D02*
X153375000Y-143125000D01*
X157775000Y-129925000D02*
X157775000Y-138125000D01*
X151575000Y-129925000D02*
X155575000Y-129925000D01*
X155575000Y-129925000D02*
X159575000Y-129925000D01*
X151575000Y-143125000D02*
X155575000Y-143125000D01*
X155575000Y-143125000D02*
X159575000Y-143125000D01*
X159575000Y-129925000D02*
X159575000Y-143125000D01*
X151575000Y-129925000D02*
X151575000Y-143125000D01*
X162465000Y-134925000D02*
X162065000Y-134925000D01*
X166865000Y-138125000D02*
X166465000Y-138125000D01*
X162265000Y-134925000D02*
X162265000Y-143125000D01*
X166665000Y-129925000D02*
X166665000Y-138125000D01*
X160465000Y-129925000D02*
X164465000Y-129925000D01*
X164465000Y-129925000D02*
X168465000Y-129925000D01*
X160465000Y-143125000D02*
X164465000Y-143125000D01*
X164465000Y-143125000D02*
X168465000Y-143125000D01*
X168465000Y-129925000D02*
X168465000Y-143125000D01*
X160465000Y-129925000D02*
X160465000Y-143125000D01*
X180245000Y-134925000D02*
X179845000Y-134925000D01*
X184645000Y-138125000D02*
X184245000Y-138125000D01*
X180045000Y-134925000D02*
X180045000Y-143125000D01*
X184445000Y-129925000D02*
X184445000Y-138125000D01*
X178245000Y-129925000D02*
X182245000Y-129925000D01*
X182245000Y-129925000D02*
X186245000Y-129925000D01*
X178245000Y-143125000D02*
X182245000Y-143125000D01*
X182245000Y-143125000D02*
X186245000Y-143125000D01*
X186245000Y-129925000D02*
X186245000Y-143125000D01*
X178245000Y-129925000D02*
X178245000Y-143125000D01*
X113475000Y-106530000D02*
X113475000Y-106430000D01*
X113475000Y-106430000D02*
X121475000Y-106430000D01*
X121475000Y-106430000D02*
X121475000Y-106530000D01*
X121475000Y-119530000D02*
X121475000Y-119630000D01*
X121475000Y-119630000D02*
X113475000Y-119630000D01*
X113475000Y-119630000D02*
X113475000Y-119530000D01*
X113475000Y-119530000D02*
X113475000Y-106530000D01*
X121475000Y-119530000D02*
X121475000Y-106530000D01*
X181483095Y-82637381D02*
X181483095Y-83446905D01*
X181530714Y-83542143D01*
X181578333Y-83589762D01*
X181673571Y-83637381D01*
X181864048Y-83637381D01*
X181959286Y-83589762D01*
X182006905Y-83542143D01*
X182054524Y-83446905D01*
X182054524Y-82637381D01*
X182959286Y-82970714D02*
X182959286Y-83637381D01*
X182721190Y-82589762D02*
X182483095Y-83304048D01*
X183102143Y-83304048D01*
X181697381Y-90907857D02*
X181697381Y-90241190D01*
X182697381Y-90669762D01*
X182030714Y-89431666D02*
X182697381Y-89431666D01*
X181649762Y-89669762D02*
X182364048Y-89907857D01*
X182364048Y-89288809D01*
X182697381Y-88431666D02*
X182697381Y-88907857D01*
X181697381Y-88907857D01*
X182649762Y-88145952D02*
X182697381Y-88003095D01*
X182697381Y-87764999D01*
X182649762Y-87669761D01*
X182602143Y-87622142D01*
X182506905Y-87574523D01*
X182411667Y-87574523D01*
X182316429Y-87622142D01*
X182268810Y-87669761D01*
X182221190Y-87764999D01*
X182173571Y-87955476D01*
X182125952Y-88050714D01*
X182078333Y-88098333D01*
X181983095Y-88145952D01*
X181887857Y-88145952D01*
X181792619Y-88098333D01*
X181745000Y-88050714D01*
X181697381Y-87955476D01*
X181697381Y-87717380D01*
X181745000Y-87574523D01*
X182697381Y-86622142D02*
X182697381Y-87193571D01*
X182697381Y-86907857D02*
X181697381Y-86907857D01*
X181840238Y-87003095D01*
X181935476Y-87098333D01*
X181983095Y-87193571D01*
X181697381Y-86003095D02*
X181697381Y-85907856D01*
X181745000Y-85812618D01*
X181792619Y-85764999D01*
X181887857Y-85717380D01*
X182078333Y-85669761D01*
X182316429Y-85669761D01*
X182506905Y-85717380D01*
X182602143Y-85764999D01*
X182649762Y-85812618D01*
X182697381Y-85907856D01*
X182697381Y-86003095D01*
X182649762Y-86098333D01*
X182602143Y-86145952D01*
X182506905Y-86193571D01*
X182316429Y-86241190D01*
X182078333Y-86241190D01*
X181887857Y-86193571D01*
X181792619Y-86145952D01*
X181745000Y-86098333D01*
X181697381Y-86003095D01*
X99147381Y-108283333D02*
X99861667Y-108283333D01*
X100004524Y-108330953D01*
X100099762Y-108426191D01*
X100147381Y-108569048D01*
X100147381Y-108664286D01*
X99147381Y-107378571D02*
X99147381Y-107569048D01*
X99195000Y-107664286D01*
X99242619Y-107711905D01*
X99385476Y-107807143D01*
X99575952Y-107854762D01*
X99956905Y-107854762D01*
X100052143Y-107807143D01*
X100099762Y-107759524D01*
X100147381Y-107664286D01*
X100147381Y-107473809D01*
X100099762Y-107378571D01*
X100052143Y-107330952D01*
X99956905Y-107283333D01*
X99718810Y-107283333D01*
X99623571Y-107330952D01*
X99575952Y-107378571D01*
X99528333Y-107473809D01*
X99528333Y-107664286D01*
X99575952Y-107759524D01*
X99623571Y-107807143D01*
X99718810Y-107854762D01*
D12*
X110307381Y-131794285D02*
X110307381Y-132365714D01*
X110307381Y-132080000D02*
X109307381Y-132080000D01*
X109450238Y-132175238D01*
X109545476Y-132270476D01*
X109593095Y-132365714D01*
D13*
X170053095Y-82637381D02*
X170053095Y-83446905D01*
X170100714Y-83542143D01*
X170148333Y-83589762D01*
X170243571Y-83637381D01*
X170434048Y-83637381D01*
X170529286Y-83589762D01*
X170576905Y-83542143D01*
X170624524Y-83446905D01*
X170624524Y-82637381D01*
X171005476Y-82637381D02*
X171672143Y-82637381D01*
X171243571Y-83637381D01*
X171267381Y-93725476D02*
X170267381Y-93725476D01*
X170981667Y-93392142D01*
X170267381Y-93058809D01*
X171267381Y-93058809D01*
X171172143Y-92011190D02*
X171219762Y-92058809D01*
X171267381Y-92201666D01*
X171267381Y-92296904D01*
X171219762Y-92439762D01*
X171124524Y-92535000D01*
X171029286Y-92582619D01*
X170838810Y-92630238D01*
X170695952Y-92630238D01*
X170505476Y-92582619D01*
X170410238Y-92535000D01*
X170315000Y-92439762D01*
X170267381Y-92296904D01*
X170267381Y-92201666D01*
X170315000Y-92058809D01*
X170362619Y-92011190D01*
X171267381Y-91058809D02*
X171267381Y-91630238D01*
X171267381Y-91344524D02*
X170267381Y-91344524D01*
X170410238Y-91439762D01*
X170505476Y-91535000D01*
X170553095Y-91630238D01*
X170600714Y-90201666D02*
X171267381Y-90201666D01*
X170219762Y-90439762D02*
X170934048Y-90677857D01*
X170934048Y-90058809D01*
X170600714Y-89249285D02*
X171267381Y-89249285D01*
X170219762Y-89487381D02*
X170934048Y-89725476D01*
X170934048Y-89106428D01*
X171267381Y-88677857D02*
X171267381Y-88487381D01*
X171219762Y-88392142D01*
X171172143Y-88344523D01*
X171029286Y-88249285D01*
X170838810Y-88201666D01*
X170457857Y-88201666D01*
X170362619Y-88249285D01*
X170315000Y-88296904D01*
X170267381Y-88392142D01*
X170267381Y-88582619D01*
X170315000Y-88677857D01*
X170362619Y-88725476D01*
X170457857Y-88773095D01*
X170695952Y-88773095D01*
X170791190Y-88725476D01*
X170838810Y-88677857D01*
X170886429Y-88582619D01*
X170886429Y-88392142D01*
X170838810Y-88296904D01*
X170791190Y-88249285D01*
X170695952Y-88201666D01*
X170267381Y-87296904D02*
X170267381Y-87773095D01*
X170743571Y-87820714D01*
X170695952Y-87773095D01*
X170648333Y-87677857D01*
X170648333Y-87439761D01*
X170695952Y-87344523D01*
X170743571Y-87296904D01*
X170838810Y-87249285D01*
X171076905Y-87249285D01*
X171172143Y-87296904D01*
X171219762Y-87344523D01*
X171267381Y-87439761D01*
X171267381Y-87677857D01*
X171219762Y-87773095D01*
X171172143Y-87820714D01*
X171267381Y-86820714D02*
X170267381Y-86820714D01*
X170267381Y-86439761D01*
X170315000Y-86344523D01*
X170362619Y-86296904D01*
X170457857Y-86249285D01*
X170600714Y-86249285D01*
X170695952Y-86296904D01*
X170743571Y-86344523D01*
X170791190Y-86439761D01*
X170791190Y-86820714D01*
X171267381Y-85296904D02*
X171267381Y-85868333D01*
X171267381Y-85582619D02*
X170267381Y-85582619D01*
X170410238Y-85677857D01*
X170505476Y-85773095D01*
X170553095Y-85868333D01*
X135128095Y-116927381D02*
X135128095Y-117736905D01*
X135175714Y-117832143D01*
X135223333Y-117879762D01*
X135318571Y-117927381D01*
X135509048Y-117927381D01*
X135604286Y-117879762D01*
X135651905Y-117832143D01*
X135699524Y-117736905D01*
X135699524Y-116927381D01*
X136604286Y-116927381D02*
X136413809Y-116927381D01*
X136318571Y-116975000D01*
X136270952Y-117022619D01*
X136175714Y-117165476D01*
X136128095Y-117355952D01*
X136128095Y-117736905D01*
X136175714Y-117832143D01*
X136223333Y-117879762D01*
X136318571Y-117927381D01*
X136509048Y-117927381D01*
X136604286Y-117879762D01*
X136651905Y-117832143D01*
X136699524Y-117736905D01*
X136699524Y-117498810D01*
X136651905Y-117403571D01*
X136604286Y-117355952D01*
X136509048Y-117308333D01*
X136318571Y-117308333D01*
X136223333Y-117355952D01*
X136175714Y-117403571D01*
X136128095Y-117498810D01*
X141660952Y-116927381D02*
X142327619Y-116927381D01*
X141899047Y-117927381D01*
X143137143Y-117260714D02*
X143137143Y-117927381D01*
X142899047Y-116879762D02*
X142660952Y-117594048D01*
X143280000Y-117594048D01*
X144137143Y-117927381D02*
X143660952Y-117927381D01*
X143660952Y-116927381D01*
X144422857Y-117879762D02*
X144565714Y-117927381D01*
X144803810Y-117927381D01*
X144899048Y-117879762D01*
X144946667Y-117832143D01*
X144994286Y-117736905D01*
X144994286Y-117641667D01*
X144946667Y-117546429D01*
X144899048Y-117498810D01*
X144803810Y-117451190D01*
X144613333Y-117403571D01*
X144518095Y-117355952D01*
X144470476Y-117308333D01*
X144422857Y-117213095D01*
X144422857Y-117117857D01*
X144470476Y-117022619D01*
X144518095Y-116975000D01*
X144613333Y-116927381D01*
X144851429Y-116927381D01*
X144994286Y-116975000D01*
X145375238Y-117022619D02*
X145422857Y-116975000D01*
X145518095Y-116927381D01*
X145756191Y-116927381D01*
X145851429Y-116975000D01*
X145899048Y-117022619D01*
X145946667Y-117117857D01*
X145946667Y-117213095D01*
X145899048Y-117355952D01*
X145327619Y-117927381D01*
X145946667Y-117927381D01*
X146803810Y-117260714D02*
X146803810Y-117927381D01*
X146565714Y-116879762D02*
X146327619Y-117594048D01*
X146946667Y-117594048D01*
X147756191Y-117260714D02*
X147756191Y-117927381D01*
X147518095Y-116879762D02*
X147280000Y-117594048D01*
X147899048Y-117594048D01*
X170053095Y-108037381D02*
X170053095Y-108846905D01*
X170100714Y-108942143D01*
X170148333Y-108989762D01*
X170243571Y-109037381D01*
X170434048Y-109037381D01*
X170529286Y-108989762D01*
X170576905Y-108942143D01*
X170624524Y-108846905D01*
X170624524Y-108037381D01*
X171005476Y-108037381D02*
X171624524Y-108037381D01*
X171291190Y-108418333D01*
X171434048Y-108418333D01*
X171529286Y-108465952D01*
X171576905Y-108513571D01*
X171624524Y-108608810D01*
X171624524Y-108846905D01*
X171576905Y-108942143D01*
X171529286Y-108989762D01*
X171434048Y-109037381D01*
X171148333Y-109037381D01*
X171053095Y-108989762D01*
X171005476Y-108942143D01*
X170600714Y-114903095D02*
X171267381Y-114903095D01*
X170219762Y-115141191D02*
X170934048Y-115379286D01*
X170934048Y-114760238D01*
X170267381Y-114188810D02*
X170267381Y-114093571D01*
X170315000Y-113998333D01*
X170362619Y-113950714D01*
X170457857Y-113903095D01*
X170648333Y-113855476D01*
X170886429Y-113855476D01*
X171076905Y-113903095D01*
X171172143Y-113950714D01*
X171219762Y-113998333D01*
X171267381Y-114093571D01*
X171267381Y-114188810D01*
X171219762Y-114284048D01*
X171172143Y-114331667D01*
X171076905Y-114379286D01*
X170886429Y-114426905D01*
X170648333Y-114426905D01*
X170457857Y-114379286D01*
X170362619Y-114331667D01*
X170315000Y-114284048D01*
X170267381Y-114188810D01*
X171267381Y-112903095D02*
X171267381Y-113474524D01*
X171267381Y-113188810D02*
X170267381Y-113188810D01*
X170410238Y-113284048D01*
X170505476Y-113379286D01*
X170553095Y-113474524D01*
X170267381Y-112569762D02*
X170267381Y-111950714D01*
X170648333Y-112284048D01*
X170648333Y-112141190D01*
X170695952Y-112045952D01*
X170743571Y-111998333D01*
X170838810Y-111950714D01*
X171076905Y-111950714D01*
X171172143Y-111998333D01*
X171219762Y-112045952D01*
X171267381Y-112141190D01*
X171267381Y-112426905D01*
X171219762Y-112522143D01*
X171172143Y-112569762D01*
X192913095Y-82637381D02*
X192913095Y-83446905D01*
X192960714Y-83542143D01*
X193008333Y-83589762D01*
X193103571Y-83637381D01*
X193294048Y-83637381D01*
X193389286Y-83589762D01*
X193436905Y-83542143D01*
X193484524Y-83446905D01*
X193484524Y-82637381D01*
X193913095Y-82732619D02*
X193960714Y-82685000D01*
X194055952Y-82637381D01*
X194294048Y-82637381D01*
X194389286Y-82685000D01*
X194436905Y-82732619D01*
X194484524Y-82827857D01*
X194484524Y-82923095D01*
X194436905Y-83065952D01*
X193865476Y-83637381D01*
X194484524Y-83637381D01*
X193460714Y-90773095D02*
X194127381Y-90773095D01*
X193079762Y-91011191D02*
X193794048Y-91249286D01*
X193794048Y-90630238D01*
X193127381Y-90058810D02*
X193127381Y-89963571D01*
X193175000Y-89868333D01*
X193222619Y-89820714D01*
X193317857Y-89773095D01*
X193508333Y-89725476D01*
X193746429Y-89725476D01*
X193936905Y-89773095D01*
X194032143Y-89820714D01*
X194079762Y-89868333D01*
X194127381Y-89963571D01*
X194127381Y-90058810D01*
X194079762Y-90154048D01*
X194032143Y-90201667D01*
X193936905Y-90249286D01*
X193746429Y-90296905D01*
X193508333Y-90296905D01*
X193317857Y-90249286D01*
X193222619Y-90201667D01*
X193175000Y-90154048D01*
X193127381Y-90058810D01*
X193127381Y-88820714D02*
X193127381Y-89296905D01*
X193603571Y-89344524D01*
X193555952Y-89296905D01*
X193508333Y-89201667D01*
X193508333Y-88963571D01*
X193555952Y-88868333D01*
X193603571Y-88820714D01*
X193698810Y-88773095D01*
X193936905Y-88773095D01*
X194032143Y-88820714D01*
X194079762Y-88868333D01*
X194127381Y-88963571D01*
X194127381Y-89201667D01*
X194079762Y-89296905D01*
X194032143Y-89344524D01*
X193127381Y-88154048D02*
X193127381Y-88058809D01*
X193175000Y-87963571D01*
X193222619Y-87915952D01*
X193317857Y-87868333D01*
X193508333Y-87820714D01*
X193746429Y-87820714D01*
X193936905Y-87868333D01*
X194032143Y-87915952D01*
X194079762Y-87963571D01*
X194127381Y-88058809D01*
X194127381Y-88154048D01*
X194079762Y-88249286D01*
X194032143Y-88296905D01*
X193936905Y-88344524D01*
X193746429Y-88392143D01*
X193508333Y-88392143D01*
X193317857Y-88344524D01*
X193222619Y-88296905D01*
X193175000Y-88249286D01*
X193127381Y-88154048D01*
X116713095Y-82637381D02*
X116713095Y-83446905D01*
X116760714Y-83542143D01*
X116808333Y-83589762D01*
X116903571Y-83637381D01*
X117094048Y-83637381D01*
X117189286Y-83589762D01*
X117236905Y-83542143D01*
X117284524Y-83446905D01*
X117284524Y-82637381D01*
X118284524Y-83637381D02*
X117713095Y-83637381D01*
X117998809Y-83637381D02*
X117998809Y-82637381D01*
X117903571Y-82780238D01*
X117808333Y-82875476D01*
X117713095Y-82923095D01*
X116927381Y-90907857D02*
X116927381Y-90241190D01*
X117927381Y-90669762D01*
X117260714Y-89431666D02*
X117927381Y-89431666D01*
X116879762Y-89669762D02*
X117594048Y-89907857D01*
X117594048Y-89288809D01*
X117927381Y-88431666D02*
X117927381Y-88907857D01*
X116927381Y-88907857D01*
X117879762Y-88145952D02*
X117927381Y-88003095D01*
X117927381Y-87764999D01*
X117879762Y-87669761D01*
X117832143Y-87622142D01*
X117736905Y-87574523D01*
X117641667Y-87574523D01*
X117546429Y-87622142D01*
X117498810Y-87669761D01*
X117451190Y-87764999D01*
X117403571Y-87955476D01*
X117355952Y-88050714D01*
X117308333Y-88098333D01*
X117213095Y-88145952D01*
X117117857Y-88145952D01*
X117022619Y-88098333D01*
X116975000Y-88050714D01*
X116927381Y-87955476D01*
X116927381Y-87717380D01*
X116975000Y-87574523D01*
X116927381Y-86955476D02*
X116927381Y-86860237D01*
X116975000Y-86764999D01*
X117022619Y-86717380D01*
X117117857Y-86669761D01*
X117308333Y-86622142D01*
X117546429Y-86622142D01*
X117736905Y-86669761D01*
X117832143Y-86717380D01*
X117879762Y-86764999D01*
X117927381Y-86860237D01*
X117927381Y-86955476D01*
X117879762Y-87050714D01*
X117832143Y-87098333D01*
X117736905Y-87145952D01*
X117546429Y-87193571D01*
X117308333Y-87193571D01*
X117117857Y-87145952D01*
X117022619Y-87098333D01*
X116975000Y-87050714D01*
X116927381Y-86955476D01*
X117260714Y-85764999D02*
X117927381Y-85764999D01*
X116879762Y-86003095D02*
X117594048Y-86241190D01*
X117594048Y-85622142D01*
X98726667Y-71207381D02*
X98726667Y-71921667D01*
X98679047Y-72064524D01*
X98583809Y-72159762D01*
X98440952Y-72207381D01*
X98345714Y-72207381D01*
X99155238Y-71302619D02*
X99202857Y-71255000D01*
X99298095Y-71207381D01*
X99536191Y-71207381D01*
X99631429Y-71255000D01*
X99679048Y-71302619D01*
X99726667Y-71397857D01*
X99726667Y-71493095D01*
X99679048Y-71635952D01*
X99107619Y-72207381D01*
X99726667Y-72207381D01*
X200326667Y-71207381D02*
X200326667Y-71921667D01*
X200279047Y-72064524D01*
X200183809Y-72159762D01*
X200040952Y-72207381D01*
X199945714Y-72207381D01*
X201326667Y-72207381D02*
X200755238Y-72207381D01*
X201040952Y-72207381D02*
X201040952Y-71207381D01*
X200945714Y-71350238D01*
X200850476Y-71445476D01*
X200755238Y-71493095D01*
X128143095Y-82637381D02*
X128143095Y-83446905D01*
X128190714Y-83542143D01*
X128238333Y-83589762D01*
X128333571Y-83637381D01*
X128524048Y-83637381D01*
X128619286Y-83589762D01*
X128666905Y-83542143D01*
X128714524Y-83446905D01*
X128714524Y-82637381D01*
X129666905Y-82637381D02*
X129190714Y-82637381D01*
X129143095Y-83113571D01*
X129190714Y-83065952D01*
X129285952Y-83018333D01*
X129524048Y-83018333D01*
X129619286Y-83065952D01*
X129666905Y-83113571D01*
X129714524Y-83208810D01*
X129714524Y-83446905D01*
X129666905Y-83542143D01*
X129619286Y-83589762D01*
X129524048Y-83637381D01*
X129285952Y-83637381D01*
X129190714Y-83589762D01*
X129143095Y-83542143D01*
X129357381Y-93725476D02*
X128357381Y-93725476D01*
X129071667Y-93392142D01*
X128357381Y-93058809D01*
X129357381Y-93058809D01*
X129262143Y-92011190D02*
X129309762Y-92058809D01*
X129357381Y-92201666D01*
X129357381Y-92296904D01*
X129309762Y-92439762D01*
X129214524Y-92535000D01*
X129119286Y-92582619D01*
X128928810Y-92630238D01*
X128785952Y-92630238D01*
X128595476Y-92582619D01*
X128500238Y-92535000D01*
X128405000Y-92439762D01*
X128357381Y-92296904D01*
X128357381Y-92201666D01*
X128405000Y-92058809D01*
X128452619Y-92011190D01*
X129357381Y-91058809D02*
X129357381Y-91630238D01*
X129357381Y-91344524D02*
X128357381Y-91344524D01*
X128500238Y-91439762D01*
X128595476Y-91535000D01*
X128643095Y-91630238D01*
X128690714Y-90201666D02*
X129357381Y-90201666D01*
X128309762Y-90439762D02*
X129024048Y-90677857D01*
X129024048Y-90058809D01*
X128690714Y-89249285D02*
X129357381Y-89249285D01*
X128309762Y-89487381D02*
X129024048Y-89725476D01*
X129024048Y-89106428D01*
X129357381Y-88677857D02*
X129357381Y-88487381D01*
X129309762Y-88392142D01*
X129262143Y-88344523D01*
X129119286Y-88249285D01*
X128928810Y-88201666D01*
X128547857Y-88201666D01*
X128452619Y-88249285D01*
X128405000Y-88296904D01*
X128357381Y-88392142D01*
X128357381Y-88582619D01*
X128405000Y-88677857D01*
X128452619Y-88725476D01*
X128547857Y-88773095D01*
X128785952Y-88773095D01*
X128881190Y-88725476D01*
X128928810Y-88677857D01*
X128976429Y-88582619D01*
X128976429Y-88392142D01*
X128928810Y-88296904D01*
X128881190Y-88249285D01*
X128785952Y-88201666D01*
X128357381Y-87296904D02*
X128357381Y-87773095D01*
X128833571Y-87820714D01*
X128785952Y-87773095D01*
X128738333Y-87677857D01*
X128738333Y-87439761D01*
X128785952Y-87344523D01*
X128833571Y-87296904D01*
X128928810Y-87249285D01*
X129166905Y-87249285D01*
X129262143Y-87296904D01*
X129309762Y-87344523D01*
X129357381Y-87439761D01*
X129357381Y-87677857D01*
X129309762Y-87773095D01*
X129262143Y-87820714D01*
X129357381Y-86820714D02*
X128357381Y-86820714D01*
X128357381Y-86439761D01*
X128405000Y-86344523D01*
X128452619Y-86296904D01*
X128547857Y-86249285D01*
X128690714Y-86249285D01*
X128785952Y-86296904D01*
X128833571Y-86344523D01*
X128881190Y-86439761D01*
X128881190Y-86820714D01*
X129357381Y-85296904D02*
X129357381Y-85868333D01*
X129357381Y-85582619D02*
X128357381Y-85582619D01*
X128500238Y-85677857D01*
X128595476Y-85773095D01*
X128643095Y-85868333D01*
X180173334Y-100147381D02*
X179840000Y-99671190D01*
X179601905Y-100147381D02*
X179601905Y-99147381D01*
X179982858Y-99147381D01*
X180078096Y-99195000D01*
X180125715Y-99242619D01*
X180173334Y-99337857D01*
X180173334Y-99480714D01*
X180125715Y-99575952D01*
X180078096Y-99623571D01*
X179982858Y-99671190D01*
X179601905Y-99671190D01*
X180506667Y-99147381D02*
X181125715Y-99147381D01*
X180792381Y-99528333D01*
X180935239Y-99528333D01*
X181030477Y-99575952D01*
X181078096Y-99623571D01*
X181125715Y-99718810D01*
X181125715Y-99956905D01*
X181078096Y-100052143D01*
X181030477Y-100099762D01*
X180935239Y-100147381D01*
X180649524Y-100147381D01*
X180554286Y-100099762D01*
X180506667Y-100052143D01*
X182824524Y-99480714D02*
X182824524Y-100147381D01*
X182586428Y-99099762D02*
X182348333Y-99814048D01*
X182967381Y-99814048D01*
X183253095Y-99147381D02*
X183919762Y-99147381D01*
X183491190Y-100147381D01*
X184300714Y-100147381D02*
X184300714Y-99147381D01*
X184395952Y-99766429D02*
X184681667Y-100147381D01*
X184681667Y-99480714D02*
X184300714Y-99861667D01*
X178268334Y-117292381D02*
X177935000Y-116816190D01*
X177696905Y-117292381D02*
X177696905Y-116292381D01*
X178077858Y-116292381D01*
X178173096Y-116340000D01*
X178220715Y-116387619D01*
X178268334Y-116482857D01*
X178268334Y-116625714D01*
X178220715Y-116720952D01*
X178173096Y-116768571D01*
X178077858Y-116816190D01*
X177696905Y-116816190D01*
X178649286Y-116387619D02*
X178696905Y-116340000D01*
X178792143Y-116292381D01*
X179030239Y-116292381D01*
X179125477Y-116340000D01*
X179173096Y-116387619D01*
X179220715Y-116482857D01*
X179220715Y-116578095D01*
X179173096Y-116720952D01*
X178601667Y-117292381D01*
X179220715Y-117292381D01*
X178220714Y-120705476D02*
X178887381Y-120705476D01*
X177839762Y-120943572D02*
X178554048Y-121181667D01*
X178554048Y-120562619D01*
X177887381Y-120276905D02*
X177887381Y-119610238D01*
X178887381Y-120038810D01*
X178887381Y-119229286D02*
X177887381Y-119229286D01*
X178506429Y-119134048D02*
X178887381Y-118848333D01*
X178220714Y-118848333D02*
X178601667Y-119229286D01*
X147788334Y-110307381D02*
X147455000Y-109831190D01*
X147216905Y-110307381D02*
X147216905Y-109307381D01*
X147597858Y-109307381D01*
X147693096Y-109355000D01*
X147740715Y-109402619D01*
X147788334Y-109497857D01*
X147788334Y-109640714D01*
X147740715Y-109735952D01*
X147693096Y-109783571D01*
X147597858Y-109831190D01*
X147216905Y-109831190D01*
X148740715Y-110307381D02*
X148169286Y-110307381D01*
X148455000Y-110307381D02*
X148455000Y-109307381D01*
X148359762Y-109450238D01*
X148264524Y-109545476D01*
X148169286Y-109593095D01*
X150368096Y-109640714D02*
X150368096Y-110307381D01*
X150130000Y-109259762D02*
X149891905Y-109974048D01*
X150510953Y-109974048D01*
X150796667Y-109307381D02*
X151463334Y-109307381D01*
X151034762Y-110307381D01*
X152034762Y-109307381D02*
X152130001Y-109307381D01*
X152225239Y-109355000D01*
X152272858Y-109402619D01*
X152320477Y-109497857D01*
X152368096Y-109688333D01*
X152368096Y-109926429D01*
X152320477Y-110116905D01*
X152272858Y-110212143D01*
X152225239Y-110259762D01*
X152130001Y-110307381D01*
X152034762Y-110307381D01*
X151939524Y-110259762D01*
X151891905Y-110212143D01*
X151844286Y-110116905D01*
X151796667Y-109926429D01*
X151796667Y-109688333D01*
X151844286Y-109497857D01*
X151891905Y-109402619D01*
X151939524Y-109355000D01*
X152034762Y-109307381D01*
X200326667Y-141057381D02*
X200326667Y-141771667D01*
X200279047Y-141914524D01*
X200183809Y-142009762D01*
X200040952Y-142057381D01*
X199945714Y-142057381D01*
X201231429Y-141390714D02*
X201231429Y-142057381D01*
X200993333Y-141009762D02*
X200755238Y-141724048D01*
X201374286Y-141724048D01*
X98726667Y-141057381D02*
X98726667Y-141771667D01*
X98679047Y-141914524D01*
X98583809Y-142009762D01*
X98440952Y-142057381D01*
X98345714Y-142057381D01*
X99107619Y-141057381D02*
X99726667Y-141057381D01*
X99393333Y-141438333D01*
X99536191Y-141438333D01*
X99631429Y-141485952D01*
X99679048Y-141533571D01*
X99726667Y-141628810D01*
X99726667Y-141866905D01*
X99679048Y-141962143D01*
X99631429Y-142009762D01*
X99536191Y-142057381D01*
X99250476Y-142057381D01*
X99155238Y-142009762D01*
X99107619Y-141962143D01*
X155471905Y-128722381D02*
X155471905Y-127722381D01*
X155710000Y-127722381D01*
X155852858Y-127770000D01*
X155948096Y-127865238D01*
X155995715Y-127960476D01*
X156043334Y-128150952D01*
X156043334Y-128293810D01*
X155995715Y-128484286D01*
X155948096Y-128579524D01*
X155852858Y-128674762D01*
X155710000Y-128722381D01*
X155471905Y-128722381D01*
X156376667Y-127722381D02*
X157043334Y-127722381D01*
X156614762Y-128722381D01*
X180871905Y-128722381D02*
X180871905Y-127722381D01*
X181110000Y-127722381D01*
X181252858Y-127770000D01*
X181348096Y-127865238D01*
X181395715Y-127960476D01*
X181443334Y-128150952D01*
X181443334Y-128293810D01*
X181395715Y-128484286D01*
X181348096Y-128579524D01*
X181252858Y-128674762D01*
X181110000Y-128722381D01*
X180871905Y-128722381D01*
X182300477Y-127722381D02*
X182110000Y-127722381D01*
X182014762Y-127770000D01*
X181967143Y-127817619D01*
X181871905Y-127960476D01*
X181824286Y-128150952D01*
X181824286Y-128531905D01*
X181871905Y-128627143D01*
X181919524Y-128674762D01*
X182014762Y-128722381D01*
X182205239Y-128722381D01*
X182300477Y-128674762D01*
X182348096Y-128627143D01*
X182395715Y-128531905D01*
X182395715Y-128293810D01*
X182348096Y-128198571D01*
X182300477Y-128150952D01*
X182205239Y-128103333D01*
X182014762Y-128103333D01*
X181919524Y-128150952D01*
X181871905Y-128198571D01*
X181824286Y-128293810D01*
X168171905Y-128722381D02*
X168171905Y-127722381D01*
X168410000Y-127722381D01*
X168552858Y-127770000D01*
X168648096Y-127865238D01*
X168695715Y-127960476D01*
X168743334Y-128150952D01*
X168743334Y-128293810D01*
X168695715Y-128484286D01*
X168648096Y-128579524D01*
X168552858Y-128674762D01*
X168410000Y-128722381D01*
X168171905Y-128722381D01*
X169648096Y-127722381D02*
X169171905Y-127722381D01*
X169124286Y-128198571D01*
X169171905Y-128150952D01*
X169267143Y-128103333D01*
X169505239Y-128103333D01*
X169600477Y-128150952D01*
X169648096Y-128198571D01*
X169695715Y-128293810D01*
X169695715Y-128531905D01*
X169648096Y-128627143D01*
X169600477Y-128674762D01*
X169505239Y-128722381D01*
X169267143Y-128722381D01*
X169171905Y-128674762D01*
X169124286Y-128627143D01*
X130071905Y-128722381D02*
X130071905Y-127722381D01*
X130310000Y-127722381D01*
X130452858Y-127770000D01*
X130548096Y-127865238D01*
X130595715Y-127960476D01*
X130643334Y-128150952D01*
X130643334Y-128293810D01*
X130595715Y-128484286D01*
X130548096Y-128579524D01*
X130452858Y-128674762D01*
X130310000Y-128722381D01*
X130071905Y-128722381D01*
X131500477Y-128055714D02*
X131500477Y-128722381D01*
X131262381Y-127674762D02*
X131024286Y-128389048D01*
X131643334Y-128389048D01*
X117371905Y-128722381D02*
X117371905Y-127722381D01*
X117610000Y-127722381D01*
X117752858Y-127770000D01*
X117848096Y-127865238D01*
X117895715Y-127960476D01*
X117943334Y-128150952D01*
X117943334Y-128293810D01*
X117895715Y-128484286D01*
X117848096Y-128579524D01*
X117752858Y-128674762D01*
X117610000Y-128722381D01*
X117371905Y-128722381D01*
X118276667Y-127722381D02*
X118895715Y-127722381D01*
X118562381Y-128103333D01*
X118705239Y-128103333D01*
X118800477Y-128150952D01*
X118848096Y-128198571D01*
X118895715Y-128293810D01*
X118895715Y-128531905D01*
X118848096Y-128627143D01*
X118800477Y-128674762D01*
X118705239Y-128722381D01*
X118419524Y-128722381D01*
X118324286Y-128674762D01*
X118276667Y-128627143D01*
X142771905Y-128722381D02*
X142771905Y-127722381D01*
X143010000Y-127722381D01*
X143152858Y-127770000D01*
X143248096Y-127865238D01*
X143295715Y-127960476D01*
X143343334Y-128150952D01*
X143343334Y-128293810D01*
X143295715Y-128484286D01*
X143248096Y-128579524D01*
X143152858Y-128674762D01*
X143010000Y-128722381D01*
X142771905Y-128722381D01*
X143724286Y-127817619D02*
X143771905Y-127770000D01*
X143867143Y-127722381D01*
X144105239Y-127722381D01*
X144200477Y-127770000D01*
X144248096Y-127817619D01*
X144295715Y-127912857D01*
X144295715Y-128008095D01*
X144248096Y-128150952D01*
X143676667Y-128722381D01*
X144295715Y-128722381D01*
X171918334Y-77192143D02*
X171870715Y-77239762D01*
X171727858Y-77287381D01*
X171632620Y-77287381D01*
X171489762Y-77239762D01*
X171394524Y-77144524D01*
X171346905Y-77049286D01*
X171299286Y-76858810D01*
X171299286Y-76715952D01*
X171346905Y-76525476D01*
X171394524Y-76430238D01*
X171489762Y-76335000D01*
X171632620Y-76287381D01*
X171727858Y-76287381D01*
X171870715Y-76335000D01*
X171918334Y-76382619D01*
X172251667Y-76287381D02*
X172918334Y-76287381D01*
X172489762Y-77287381D01*
X135723334Y-110212143D02*
X135675715Y-110259762D01*
X135532858Y-110307381D01*
X135437620Y-110307381D01*
X135294762Y-110259762D01*
X135199524Y-110164524D01*
X135151905Y-110069286D01*
X135104286Y-109878810D01*
X135104286Y-109735952D01*
X135151905Y-109545476D01*
X135199524Y-109450238D01*
X135294762Y-109355000D01*
X135437620Y-109307381D01*
X135532858Y-109307381D01*
X135675715Y-109355000D01*
X135723334Y-109402619D01*
X136580477Y-109307381D02*
X136390000Y-109307381D01*
X136294762Y-109355000D01*
X136247143Y-109402619D01*
X136151905Y-109545476D01*
X136104286Y-109735952D01*
X136104286Y-110116905D01*
X136151905Y-110212143D01*
X136199524Y-110259762D01*
X136294762Y-110307381D01*
X136485239Y-110307381D01*
X136580477Y-110259762D01*
X136628096Y-110212143D01*
X136675715Y-110116905D01*
X136675715Y-109878810D01*
X136628096Y-109783571D01*
X136580477Y-109735952D01*
X136485239Y-109688333D01*
X136294762Y-109688333D01*
X136199524Y-109735952D01*
X136151905Y-109783571D01*
X136104286Y-109878810D01*
X130008334Y-77192143D02*
X129960715Y-77239762D01*
X129817858Y-77287381D01*
X129722620Y-77287381D01*
X129579762Y-77239762D01*
X129484524Y-77144524D01*
X129436905Y-77049286D01*
X129389286Y-76858810D01*
X129389286Y-76715952D01*
X129436905Y-76525476D01*
X129484524Y-76430238D01*
X129579762Y-76335000D01*
X129722620Y-76287381D01*
X129817858Y-76287381D01*
X129960715Y-76335000D01*
X130008334Y-76382619D01*
X130913096Y-76287381D02*
X130436905Y-76287381D01*
X130389286Y-76763571D01*
X130436905Y-76715952D01*
X130532143Y-76668333D01*
X130770239Y-76668333D01*
X130865477Y-76715952D01*
X130913096Y-76763571D01*
X130960715Y-76858810D01*
X130960715Y-77096905D01*
X130913096Y-77192143D01*
X130865477Y-77239762D01*
X130770239Y-77287381D01*
X130532143Y-77287381D01*
X130436905Y-77239762D01*
X130389286Y-77192143D01*
X183348334Y-77192143D02*
X183300715Y-77239762D01*
X183157858Y-77287381D01*
X183062620Y-77287381D01*
X182919762Y-77239762D01*
X182824524Y-77144524D01*
X182776905Y-77049286D01*
X182729286Y-76858810D01*
X182729286Y-76715952D01*
X182776905Y-76525476D01*
X182824524Y-76430238D01*
X182919762Y-76335000D01*
X183062620Y-76287381D01*
X183157858Y-76287381D01*
X183300715Y-76335000D01*
X183348334Y-76382619D01*
X184205477Y-76620714D02*
X184205477Y-77287381D01*
X183967381Y-76239762D02*
X183729286Y-76954048D01*
X184348334Y-76954048D01*
X178268334Y-108942143D02*
X178220715Y-108989762D01*
X178077858Y-109037381D01*
X177982620Y-109037381D01*
X177839762Y-108989762D01*
X177744524Y-108894524D01*
X177696905Y-108799286D01*
X177649286Y-108608810D01*
X177649286Y-108465952D01*
X177696905Y-108275476D01*
X177744524Y-108180238D01*
X177839762Y-108085000D01*
X177982620Y-108037381D01*
X178077858Y-108037381D01*
X178220715Y-108085000D01*
X178268334Y-108132619D01*
X178601667Y-108037381D02*
X179220715Y-108037381D01*
X178887381Y-108418333D01*
X179030239Y-108418333D01*
X179125477Y-108465952D01*
X179173096Y-108513571D01*
X179220715Y-108608810D01*
X179220715Y-108846905D01*
X179173096Y-108942143D01*
X179125477Y-108989762D01*
X179030239Y-109037381D01*
X178744524Y-109037381D01*
X178649286Y-108989762D01*
X178601667Y-108942143D01*
X192238334Y-77192143D02*
X192190715Y-77239762D01*
X192047858Y-77287381D01*
X191952620Y-77287381D01*
X191809762Y-77239762D01*
X191714524Y-77144524D01*
X191666905Y-77049286D01*
X191619286Y-76858810D01*
X191619286Y-76715952D01*
X191666905Y-76525476D01*
X191714524Y-76430238D01*
X191809762Y-76335000D01*
X191952620Y-76287381D01*
X192047858Y-76287381D01*
X192190715Y-76335000D01*
X192238334Y-76382619D01*
X192619286Y-76382619D02*
X192666905Y-76335000D01*
X192762143Y-76287381D01*
X193000239Y-76287381D01*
X193095477Y-76335000D01*
X193143096Y-76382619D01*
X193190715Y-76477857D01*
X193190715Y-76573095D01*
X193143096Y-76715952D01*
X192571667Y-77287381D01*
X193190715Y-77287381D01*
X118578334Y-77192143D02*
X118530715Y-77239762D01*
X118387858Y-77287381D01*
X118292620Y-77287381D01*
X118149762Y-77239762D01*
X118054524Y-77144524D01*
X118006905Y-77049286D01*
X117959286Y-76858810D01*
X117959286Y-76715952D01*
X118006905Y-76525476D01*
X118054524Y-76430238D01*
X118149762Y-76335000D01*
X118292620Y-76287381D01*
X118387858Y-76287381D01*
X118530715Y-76335000D01*
X118578334Y-76382619D01*
X119530715Y-77287381D02*
X118959286Y-77287381D01*
X119245000Y-77287381D02*
X119245000Y-76287381D01*
X119149762Y-76430238D01*
X119054524Y-76525476D01*
X118959286Y-76573095D01*
X156178334Y-100147381D02*
X155702143Y-100147381D01*
X155702143Y-99147381D01*
X156464048Y-100099762D02*
X156606905Y-100147381D01*
X156845001Y-100147381D01*
X156940239Y-100099762D01*
X156987858Y-100052143D01*
X157035477Y-99956905D01*
X157035477Y-99861667D01*
X156987858Y-99766429D01*
X156940239Y-99718810D01*
X156845001Y-99671190D01*
X156654524Y-99623571D01*
X156559286Y-99575952D01*
X156511667Y-99528333D01*
X156464048Y-99433095D01*
X156464048Y-99337857D01*
X156511667Y-99242619D01*
X156559286Y-99195000D01*
X156654524Y-99147381D01*
X156892620Y-99147381D01*
X157035477Y-99195000D01*
X157464048Y-100147381D02*
X157464048Y-99147381D01*
X157702143Y-99147381D01*
X157845001Y-99195000D01*
X157940239Y-99290238D01*
X157987858Y-99385476D01*
X158035477Y-99575952D01*
X158035477Y-99718810D01*
X157987858Y-99909286D01*
X157940239Y-100004524D01*
X157845001Y-100099762D01*
X157702143Y-100147381D01*
X157464048Y-100147381D01*
X141565476Y-100147381D02*
X141565476Y-99147381D01*
X141898810Y-99861667D01*
X142232143Y-99147381D01*
X142232143Y-100147381D01*
X142660714Y-100099762D02*
X142803571Y-100147381D01*
X143041667Y-100147381D01*
X143136905Y-100099762D01*
X143184524Y-100052143D01*
X143232143Y-99956905D01*
X143232143Y-99861667D01*
X143184524Y-99766429D01*
X143136905Y-99718810D01*
X143041667Y-99671190D01*
X142851190Y-99623571D01*
X142755952Y-99575952D01*
X142708333Y-99528333D01*
X142660714Y-99433095D01*
X142660714Y-99337857D01*
X142708333Y-99242619D01*
X142755952Y-99195000D01*
X142851190Y-99147381D01*
X143089286Y-99147381D01*
X143232143Y-99195000D01*
X143660714Y-100147381D02*
X143660714Y-99147381D01*
X143898809Y-99147381D01*
X144041667Y-99195000D01*
X144136905Y-99290238D01*
X144184524Y-99385476D01*
X144232143Y-99575952D01*
X144232143Y-99718810D01*
X144184524Y-99909286D01*
X144136905Y-100004524D01*
X144041667Y-100099762D01*
X143898809Y-100147381D01*
X143660714Y-100147381D01*
X196762381Y-113982381D02*
X196762381Y-113791904D01*
X196810000Y-113696666D01*
X196905238Y-113601428D01*
X197095714Y-113553809D01*
X197429048Y-113553809D01*
X197619524Y-113601428D01*
X197714762Y-113696666D01*
X197762381Y-113791904D01*
X197762381Y-113982381D01*
X197714762Y-114077619D01*
X197619524Y-114172857D01*
X197429048Y-114220476D01*
X197095714Y-114220476D01*
X196905238Y-114172857D01*
X196810000Y-114077619D01*
X196762381Y-113982381D01*
X197238571Y-112791904D02*
X197238571Y-113125238D01*
X197762381Y-113125238D02*
X196762381Y-113125238D01*
X196762381Y-112649047D01*
X197238571Y-111934761D02*
X197238571Y-112268095D01*
X197762381Y-112268095D02*
X196762381Y-112268095D01*
X196762381Y-111791904D01*
X190962381Y-113649048D02*
X190962381Y-113458571D01*
X191010000Y-113363333D01*
X191105238Y-113268095D01*
X191295714Y-113220476D01*
X191629048Y-113220476D01*
X191819524Y-113268095D01*
X191914762Y-113363333D01*
X191962381Y-113458571D01*
X191962381Y-113649048D01*
X191914762Y-113744286D01*
X191819524Y-113839524D01*
X191629048Y-113887143D01*
X191295714Y-113887143D01*
X191105238Y-113839524D01*
X191010000Y-113744286D01*
X190962381Y-113649048D01*
X191962381Y-112791905D02*
X190962381Y-112791905D01*
X191962381Y-112220476D01*
X190962381Y-112220476D01*
X128182381Y-113982381D02*
X128182381Y-113791904D01*
X128230000Y-113696666D01*
X128325238Y-113601428D01*
X128515714Y-113553809D01*
X128849048Y-113553809D01*
X129039524Y-113601428D01*
X129134762Y-113696666D01*
X129182381Y-113791904D01*
X129182381Y-113982381D01*
X129134762Y-114077619D01*
X129039524Y-114172857D01*
X128849048Y-114220476D01*
X128515714Y-114220476D01*
X128325238Y-114172857D01*
X128230000Y-114077619D01*
X128182381Y-113982381D01*
X128658571Y-112791904D02*
X128658571Y-113125238D01*
X129182381Y-113125238D02*
X128182381Y-113125238D01*
X128182381Y-112649047D01*
X128658571Y-111934761D02*
X128658571Y-112268095D01*
X129182381Y-112268095D02*
X128182381Y-112268095D01*
X128182381Y-111791904D01*
X122382381Y-113649048D02*
X122382381Y-113458571D01*
X122430000Y-113363333D01*
X122525238Y-113268095D01*
X122715714Y-113220476D01*
X123049048Y-113220476D01*
X123239524Y-113268095D01*
X123334762Y-113363333D01*
X123382381Y-113458571D01*
X123382381Y-113649048D01*
X123334762Y-113744286D01*
X123239524Y-113839524D01*
X123049048Y-113887143D01*
X122715714Y-113887143D01*
X122525238Y-113839524D01*
X122430000Y-113744286D01*
X122382381Y-113649048D01*
X123382381Y-112791905D02*
X122382381Y-112791905D01*
X123382381Y-112220476D01*
X122382381Y-112220476D01*
X172021667Y-135024762D02*
X172164524Y-135072381D01*
X172402620Y-135072381D01*
X172497858Y-135024762D01*
X172545477Y-134977143D01*
X172593096Y-134881905D01*
X172593096Y-134786667D01*
X172545477Y-134691429D01*
X172497858Y-134643810D01*
X172402620Y-134596190D01*
X172212143Y-134548571D01*
X172116905Y-134500952D01*
X172069286Y-134453333D01*
X172021667Y-134358095D01*
X172021667Y-134262857D01*
X172069286Y-134167619D01*
X172116905Y-134120000D01*
X172212143Y-134072381D01*
X172450239Y-134072381D01*
X172593096Y-134120000D01*
X172926429Y-134072381D02*
X173164524Y-135072381D01*
X173355001Y-134358095D01*
X173545477Y-135072381D01*
X173783572Y-134072381D01*
X174593096Y-134072381D02*
X174402619Y-134072381D01*
X174307381Y-134120000D01*
X174259762Y-134167619D01*
X174164524Y-134310476D01*
X174116905Y-134500952D01*
X174116905Y-134881905D01*
X174164524Y-134977143D01*
X174212143Y-135024762D01*
X174307381Y-135072381D01*
X174497858Y-135072381D01*
X174593096Y-135024762D01*
X174640715Y-134977143D01*
X174688334Y-134881905D01*
X174688334Y-134643810D01*
X174640715Y-134548571D01*
X174593096Y-134500952D01*
X174497858Y-134453333D01*
X174307381Y-134453333D01*
X174212143Y-134500952D01*
X174164524Y-134548571D01*
X174116905Y-134643810D01*
X175807381Y-137477381D02*
X175807381Y-137286904D01*
X175855000Y-137191666D01*
X175950238Y-137096428D01*
X176140714Y-137048809D01*
X176474048Y-137048809D01*
X176664524Y-137096428D01*
X176759762Y-137191666D01*
X176807381Y-137286904D01*
X176807381Y-137477381D01*
X176759762Y-137572619D01*
X176664524Y-137667857D01*
X176474048Y-137715476D01*
X176140714Y-137715476D01*
X175950238Y-137667857D01*
X175855000Y-137572619D01*
X175807381Y-137477381D01*
X176283571Y-136286904D02*
X176283571Y-136620238D01*
X176807381Y-136620238D02*
X175807381Y-136620238D01*
X175807381Y-136144047D01*
X176283571Y-135429761D02*
X176283571Y-135763095D01*
X176807381Y-135763095D02*
X175807381Y-135763095D01*
X175807381Y-135286904D01*
X170007381Y-137144048D02*
X170007381Y-136953571D01*
X170055000Y-136858333D01*
X170150238Y-136763095D01*
X170340714Y-136715476D01*
X170674048Y-136715476D01*
X170864524Y-136763095D01*
X170959762Y-136858333D01*
X171007381Y-136953571D01*
X171007381Y-137144048D01*
X170959762Y-137239286D01*
X170864524Y-137334524D01*
X170674048Y-137382143D01*
X170340714Y-137382143D01*
X170150238Y-137334524D01*
X170055000Y-137239286D01*
X170007381Y-137144048D01*
X171007381Y-136286905D02*
X170007381Y-136286905D01*
X171007381Y-135715476D01*
X170007381Y-135715476D01*
X115721190Y-69032381D02*
X115721190Y-68032381D01*
X115959285Y-68032381D01*
X116102143Y-68080000D01*
X116197381Y-68175238D01*
X116245000Y-68270476D01*
X116292619Y-68460952D01*
X116292619Y-68603810D01*
X116245000Y-68794286D01*
X116197381Y-68889524D01*
X116102143Y-68984762D01*
X115959285Y-69032381D01*
X115721190Y-69032381D01*
X116721190Y-69032381D02*
X116721190Y-68032381D01*
X117102143Y-68032381D01*
X117197381Y-68080000D01*
X117245000Y-68127619D01*
X117292619Y-68222857D01*
X117292619Y-68365714D01*
X117245000Y-68460952D01*
X117197381Y-68508571D01*
X117102143Y-68556190D01*
X116721190Y-68556190D01*
X117483095Y-69127619D02*
X118245000Y-69127619D01*
X119054524Y-69032381D02*
X118721190Y-68556190D01*
X118483095Y-69032381D02*
X118483095Y-68032381D01*
X118864048Y-68032381D01*
X118959286Y-68080000D01*
X119006905Y-68127619D01*
X119054524Y-68222857D01*
X119054524Y-68365714D01*
X119006905Y-68460952D01*
X118959286Y-68508571D01*
X118864048Y-68556190D01*
X118483095Y-68556190D01*
X119483095Y-68508571D02*
X119816429Y-68508571D01*
X119959286Y-69032381D02*
X119483095Y-69032381D01*
X119483095Y-68032381D01*
X119959286Y-68032381D01*
X120340238Y-68746667D02*
X120816429Y-68746667D01*
X120245000Y-69032381D02*
X120578333Y-68032381D01*
X120911667Y-69032381D01*
X121245000Y-69032381D02*
X121245000Y-68032381D01*
X121483095Y-68032381D01*
X121625953Y-68080000D01*
X121721191Y-68175238D01*
X121768810Y-68270476D01*
X121816429Y-68460952D01*
X121816429Y-68603810D01*
X121768810Y-68794286D01*
X121721191Y-68889524D01*
X121625953Y-68984762D01*
X121483095Y-69032381D01*
X121245000Y-69032381D01*
X179538809Y-69032381D02*
X179538809Y-68032381D01*
X179776904Y-68032381D01*
X179919762Y-68080000D01*
X180015000Y-68175238D01*
X180062619Y-68270476D01*
X180110238Y-68460952D01*
X180110238Y-68603810D01*
X180062619Y-68794286D01*
X180015000Y-68889524D01*
X179919762Y-68984762D01*
X179776904Y-69032381D01*
X179538809Y-69032381D01*
X180538809Y-69032381D02*
X180538809Y-68032381D01*
X180919762Y-68032381D01*
X181015000Y-68080000D01*
X181062619Y-68127619D01*
X181110238Y-68222857D01*
X181110238Y-68365714D01*
X181062619Y-68460952D01*
X181015000Y-68508571D01*
X180919762Y-68556190D01*
X180538809Y-68556190D01*
X181300714Y-69127619D02*
X182062619Y-69127619D01*
X182253095Y-68984762D02*
X182395952Y-69032381D01*
X182634048Y-69032381D01*
X182729286Y-68984762D01*
X182776905Y-68937143D01*
X182824524Y-68841905D01*
X182824524Y-68746667D01*
X182776905Y-68651429D01*
X182729286Y-68603810D01*
X182634048Y-68556190D01*
X182443571Y-68508571D01*
X182348333Y-68460952D01*
X182300714Y-68413333D01*
X182253095Y-68318095D01*
X182253095Y-68222857D01*
X182300714Y-68127619D01*
X182348333Y-68080000D01*
X182443571Y-68032381D01*
X182681667Y-68032381D01*
X182824524Y-68080000D01*
X183110238Y-68032381D02*
X183681667Y-68032381D01*
X183395952Y-69032381D02*
X183395952Y-68032381D01*
X184586429Y-69032381D02*
X184253095Y-68556190D01*
X184015000Y-69032381D02*
X184015000Y-68032381D01*
X184395953Y-68032381D01*
X184491191Y-68080000D01*
X184538810Y-68127619D01*
X184586429Y-68222857D01*
X184586429Y-68365714D01*
X184538810Y-68460952D01*
X184491191Y-68508571D01*
X184395953Y-68556190D01*
X184015000Y-68556190D01*
X185205476Y-68032381D02*
X185395953Y-68032381D01*
X185491191Y-68080000D01*
X185586429Y-68175238D01*
X185634048Y-68365714D01*
X185634048Y-68699048D01*
X185586429Y-68889524D01*
X185491191Y-68984762D01*
X185395953Y-69032381D01*
X185205476Y-69032381D01*
X185110238Y-68984762D01*
X185015000Y-68889524D01*
X184967381Y-68699048D01*
X184967381Y-68365714D01*
X185015000Y-68175238D01*
X185110238Y-68080000D01*
X185205476Y-68032381D01*
X186395953Y-68508571D02*
X186538810Y-68556190D01*
X186586429Y-68603810D01*
X186634048Y-68699048D01*
X186634048Y-68841905D01*
X186586429Y-68937143D01*
X186538810Y-68984762D01*
X186443572Y-69032381D01*
X186062619Y-69032381D01*
X186062619Y-68032381D01*
X186395953Y-68032381D01*
X186491191Y-68080000D01*
X186538810Y-68127619D01*
X186586429Y-68222857D01*
X186586429Y-68318095D01*
X186538810Y-68413333D01*
X186491191Y-68460952D01*
X186395953Y-68508571D01*
X186062619Y-68508571D01*
X187062619Y-68508571D02*
X187395953Y-68508571D01*
X187538810Y-69032381D02*
X187062619Y-69032381D01*
X187062619Y-68032381D01*
X187538810Y-68032381D01*
X128722381Y-71286666D02*
X128246190Y-71620000D01*
X128722381Y-71858095D02*
X127722381Y-71858095D01*
X127722381Y-71477142D01*
X127770000Y-71381904D01*
X127817619Y-71334285D01*
X127912857Y-71286666D01*
X128055714Y-71286666D01*
X128150952Y-71334285D01*
X128198571Y-71381904D01*
X128246190Y-71477142D01*
X128246190Y-71858095D01*
X128055714Y-70429523D02*
X128722381Y-70429523D01*
X127674762Y-70667619D02*
X128389048Y-70905714D01*
X128389048Y-70286666D01*
X130159286Y-70572381D02*
X130778334Y-70572381D01*
X130445000Y-70953333D01*
X130587858Y-70953333D01*
X130683096Y-71000952D01*
X130730715Y-71048571D01*
X130778334Y-71143810D01*
X130778334Y-71381905D01*
X130730715Y-71477143D01*
X130683096Y-71524762D01*
X130587858Y-71572381D01*
X130302143Y-71572381D01*
X130206905Y-71524762D01*
X130159286Y-71477143D01*
X131111667Y-70572381D02*
X131730715Y-70572381D01*
X131397381Y-70953333D01*
X131540239Y-70953333D01*
X131635477Y-71000952D01*
X131683096Y-71048571D01*
X131730715Y-71143810D01*
X131730715Y-71381905D01*
X131683096Y-71477143D01*
X131635477Y-71524762D01*
X131540239Y-71572381D01*
X131254524Y-71572381D01*
X131159286Y-71524762D01*
X131111667Y-71477143D01*
X132349762Y-70572381D02*
X132445001Y-70572381D01*
X132540239Y-70620000D01*
X132587858Y-70667619D01*
X132635477Y-70762857D01*
X132683096Y-70953333D01*
X132683096Y-71191429D01*
X132635477Y-71381905D01*
X132587858Y-71477143D01*
X132540239Y-71524762D01*
X132445001Y-71572381D01*
X132349762Y-71572381D01*
X132254524Y-71524762D01*
X132206905Y-71477143D01*
X132159286Y-71381905D01*
X132111667Y-71191429D01*
X132111667Y-70953333D01*
X132159286Y-70762857D01*
X132206905Y-70667619D01*
X132254524Y-70620000D01*
X132349762Y-70572381D01*
X170632381Y-71286666D02*
X170156190Y-71620000D01*
X170632381Y-71858095D02*
X169632381Y-71858095D01*
X169632381Y-71477142D01*
X169680000Y-71381904D01*
X169727619Y-71334285D01*
X169822857Y-71286666D01*
X169965714Y-71286666D01*
X170060952Y-71334285D01*
X170108571Y-71381904D01*
X170156190Y-71477142D01*
X170156190Y-71858095D01*
X169632381Y-70381904D02*
X169632381Y-70858095D01*
X170108571Y-70905714D01*
X170060952Y-70858095D01*
X170013333Y-70762857D01*
X170013333Y-70524761D01*
X170060952Y-70429523D01*
X170108571Y-70381904D01*
X170203810Y-70334285D01*
X170441905Y-70334285D01*
X170537143Y-70381904D01*
X170584762Y-70429523D01*
X170632381Y-70524761D01*
X170632381Y-70762857D01*
X170584762Y-70858095D01*
X170537143Y-70905714D01*
X172069286Y-70572381D02*
X172688334Y-70572381D01*
X172355000Y-70953333D01*
X172497858Y-70953333D01*
X172593096Y-71000952D01*
X172640715Y-71048571D01*
X172688334Y-71143810D01*
X172688334Y-71381905D01*
X172640715Y-71477143D01*
X172593096Y-71524762D01*
X172497858Y-71572381D01*
X172212143Y-71572381D01*
X172116905Y-71524762D01*
X172069286Y-71477143D01*
X173021667Y-70572381D02*
X173640715Y-70572381D01*
X173307381Y-70953333D01*
X173450239Y-70953333D01*
X173545477Y-71000952D01*
X173593096Y-71048571D01*
X173640715Y-71143810D01*
X173640715Y-71381905D01*
X173593096Y-71477143D01*
X173545477Y-71524762D01*
X173450239Y-71572381D01*
X173164524Y-71572381D01*
X173069286Y-71524762D01*
X173021667Y-71477143D01*
X174259762Y-70572381D02*
X174355001Y-70572381D01*
X174450239Y-70620000D01*
X174497858Y-70667619D01*
X174545477Y-70762857D01*
X174593096Y-70953333D01*
X174593096Y-71191429D01*
X174545477Y-71381905D01*
X174497858Y-71477143D01*
X174450239Y-71524762D01*
X174355001Y-71572381D01*
X174259762Y-71572381D01*
X174164524Y-71524762D01*
X174116905Y-71477143D01*
X174069286Y-71381905D01*
X174021667Y-71191429D01*
X174021667Y-70953333D01*
X174069286Y-70762857D01*
X174116905Y-70667619D01*
X174164524Y-70620000D01*
X174259762Y-70572381D01*
X182507381Y-113982381D02*
X182507381Y-113791904D01*
X182555000Y-113696666D01*
X182650238Y-113601428D01*
X182840714Y-113553809D01*
X183174048Y-113553809D01*
X183364524Y-113601428D01*
X183459762Y-113696666D01*
X183507381Y-113791904D01*
X183507381Y-113982381D01*
X183459762Y-114077619D01*
X183364524Y-114172857D01*
X183174048Y-114220476D01*
X182840714Y-114220476D01*
X182650238Y-114172857D01*
X182555000Y-114077619D01*
X182507381Y-113982381D01*
X182983571Y-112791904D02*
X182983571Y-113125238D01*
X183507381Y-113125238D02*
X182507381Y-113125238D01*
X182507381Y-112649047D01*
X182983571Y-111934761D02*
X182983571Y-112268095D01*
X183507381Y-112268095D02*
X182507381Y-112268095D01*
X182507381Y-111791904D01*
X188307381Y-113649048D02*
X188307381Y-113458571D01*
X188355000Y-113363333D01*
X188450238Y-113268095D01*
X188640714Y-113220476D01*
X188974048Y-113220476D01*
X189164524Y-113268095D01*
X189259762Y-113363333D01*
X189307381Y-113458571D01*
X189307381Y-113649048D01*
X189259762Y-113744286D01*
X189164524Y-113839524D01*
X188974048Y-113887143D01*
X188640714Y-113887143D01*
X188450238Y-113839524D01*
X188355000Y-113744286D01*
X188307381Y-113649048D01*
X189307381Y-112791905D02*
X188307381Y-112791905D01*
X189307381Y-112220476D01*
X188307381Y-112220476D01*
X115665476Y-135024762D02*
X115808333Y-135072381D01*
X116046429Y-135072381D01*
X116141667Y-135024762D01*
X116189286Y-134977143D01*
X116236905Y-134881905D01*
X116236905Y-134786667D01*
X116189286Y-134691429D01*
X116141667Y-134643810D01*
X116046429Y-134596190D01*
X115855952Y-134548571D01*
X115760714Y-134500952D01*
X115713095Y-134453333D01*
X115665476Y-134358095D01*
X115665476Y-134262857D01*
X115713095Y-134167619D01*
X115760714Y-134120000D01*
X115855952Y-134072381D01*
X116094048Y-134072381D01*
X116236905Y-134120000D01*
X116570238Y-134072381D02*
X116808333Y-135072381D01*
X116998810Y-134358095D01*
X117189286Y-135072381D01*
X117427381Y-134072381D01*
X118332143Y-135072381D02*
X117760714Y-135072381D01*
X118046428Y-135072381D02*
X118046428Y-134072381D01*
X117951190Y-134215238D01*
X117855952Y-134310476D01*
X117760714Y-134358095D01*
X118713095Y-134167619D02*
X118760714Y-134120000D01*
X118855952Y-134072381D01*
X119094048Y-134072381D01*
X119189286Y-134120000D01*
X119236905Y-134167619D01*
X119284524Y-134262857D01*
X119284524Y-134358095D01*
X119236905Y-134500952D01*
X118665476Y-135072381D01*
X119284524Y-135072381D01*
X113927381Y-137477381D02*
X113927381Y-137286904D01*
X113975000Y-137191666D01*
X114070238Y-137096428D01*
X114260714Y-137048809D01*
X114594048Y-137048809D01*
X114784524Y-137096428D01*
X114879762Y-137191666D01*
X114927381Y-137286904D01*
X114927381Y-137477381D01*
X114879762Y-137572619D01*
X114784524Y-137667857D01*
X114594048Y-137715476D01*
X114260714Y-137715476D01*
X114070238Y-137667857D01*
X113975000Y-137572619D01*
X113927381Y-137477381D01*
X114403571Y-136286904D02*
X114403571Y-136620238D01*
X114927381Y-136620238D02*
X113927381Y-136620238D01*
X113927381Y-136144047D01*
X114403571Y-135429761D02*
X114403571Y-135763095D01*
X114927381Y-135763095D02*
X113927381Y-135763095D01*
X113927381Y-135286904D01*
X119727381Y-137144048D02*
X119727381Y-136953571D01*
X119775000Y-136858333D01*
X119870238Y-136763095D01*
X120060714Y-136715476D01*
X120394048Y-136715476D01*
X120584524Y-136763095D01*
X120679762Y-136858333D01*
X120727381Y-136953571D01*
X120727381Y-137144048D01*
X120679762Y-137239286D01*
X120584524Y-137334524D01*
X120394048Y-137382143D01*
X120060714Y-137382143D01*
X119870238Y-137334524D01*
X119775000Y-137239286D01*
X119727381Y-137144048D01*
X120727381Y-136286905D02*
X119727381Y-136286905D01*
X120727381Y-135715476D01*
X119727381Y-135715476D01*
X124555476Y-135024762D02*
X124698333Y-135072381D01*
X124936429Y-135072381D01*
X125031667Y-135024762D01*
X125079286Y-134977143D01*
X125126905Y-134881905D01*
X125126905Y-134786667D01*
X125079286Y-134691429D01*
X125031667Y-134643810D01*
X124936429Y-134596190D01*
X124745952Y-134548571D01*
X124650714Y-134500952D01*
X124603095Y-134453333D01*
X124555476Y-134358095D01*
X124555476Y-134262857D01*
X124603095Y-134167619D01*
X124650714Y-134120000D01*
X124745952Y-134072381D01*
X124984048Y-134072381D01*
X125126905Y-134120000D01*
X125460238Y-134072381D02*
X125698333Y-135072381D01*
X125888810Y-134358095D01*
X126079286Y-135072381D01*
X126317381Y-134072381D01*
X127222143Y-135072381D02*
X126650714Y-135072381D01*
X126936428Y-135072381D02*
X126936428Y-134072381D01*
X126841190Y-134215238D01*
X126745952Y-134310476D01*
X126650714Y-134358095D01*
X128174524Y-135072381D02*
X127603095Y-135072381D01*
X127888809Y-135072381D02*
X127888809Y-134072381D01*
X127793571Y-134215238D01*
X127698333Y-134310476D01*
X127603095Y-134358095D01*
X122817381Y-137477381D02*
X122817381Y-137286904D01*
X122865000Y-137191666D01*
X122960238Y-137096428D01*
X123150714Y-137048809D01*
X123484048Y-137048809D01*
X123674524Y-137096428D01*
X123769762Y-137191666D01*
X123817381Y-137286904D01*
X123817381Y-137477381D01*
X123769762Y-137572619D01*
X123674524Y-137667857D01*
X123484048Y-137715476D01*
X123150714Y-137715476D01*
X122960238Y-137667857D01*
X122865000Y-137572619D01*
X122817381Y-137477381D01*
X123293571Y-136286904D02*
X123293571Y-136620238D01*
X123817381Y-136620238D02*
X122817381Y-136620238D01*
X122817381Y-136144047D01*
X123293571Y-135429761D02*
X123293571Y-135763095D01*
X123817381Y-135763095D02*
X122817381Y-135763095D01*
X122817381Y-135286904D01*
X128617381Y-137144048D02*
X128617381Y-136953571D01*
X128665000Y-136858333D01*
X128760238Y-136763095D01*
X128950714Y-136715476D01*
X129284048Y-136715476D01*
X129474524Y-136763095D01*
X129569762Y-136858333D01*
X129617381Y-136953571D01*
X129617381Y-137144048D01*
X129569762Y-137239286D01*
X129474524Y-137334524D01*
X129284048Y-137382143D01*
X128950714Y-137382143D01*
X128760238Y-137334524D01*
X128665000Y-137239286D01*
X128617381Y-137144048D01*
X129617381Y-136286905D02*
X128617381Y-136286905D01*
X129617381Y-135715476D01*
X128617381Y-135715476D01*
X133445476Y-135024762D02*
X133588333Y-135072381D01*
X133826429Y-135072381D01*
X133921667Y-135024762D01*
X133969286Y-134977143D01*
X134016905Y-134881905D01*
X134016905Y-134786667D01*
X133969286Y-134691429D01*
X133921667Y-134643810D01*
X133826429Y-134596190D01*
X133635952Y-134548571D01*
X133540714Y-134500952D01*
X133493095Y-134453333D01*
X133445476Y-134358095D01*
X133445476Y-134262857D01*
X133493095Y-134167619D01*
X133540714Y-134120000D01*
X133635952Y-134072381D01*
X133874048Y-134072381D01*
X134016905Y-134120000D01*
X134350238Y-134072381D02*
X134588333Y-135072381D01*
X134778810Y-134358095D01*
X134969286Y-135072381D01*
X135207381Y-134072381D01*
X136112143Y-135072381D02*
X135540714Y-135072381D01*
X135826428Y-135072381D02*
X135826428Y-134072381D01*
X135731190Y-134215238D01*
X135635952Y-134310476D01*
X135540714Y-134358095D01*
X136731190Y-134072381D02*
X136826429Y-134072381D01*
X136921667Y-134120000D01*
X136969286Y-134167619D01*
X137016905Y-134262857D01*
X137064524Y-134453333D01*
X137064524Y-134691429D01*
X137016905Y-134881905D01*
X136969286Y-134977143D01*
X136921667Y-135024762D01*
X136826429Y-135072381D01*
X136731190Y-135072381D01*
X136635952Y-135024762D01*
X136588333Y-134977143D01*
X136540714Y-134881905D01*
X136493095Y-134691429D01*
X136493095Y-134453333D01*
X136540714Y-134262857D01*
X136588333Y-134167619D01*
X136635952Y-134120000D01*
X136731190Y-134072381D01*
X131707381Y-137477381D02*
X131707381Y-137286904D01*
X131755000Y-137191666D01*
X131850238Y-137096428D01*
X132040714Y-137048809D01*
X132374048Y-137048809D01*
X132564524Y-137096428D01*
X132659762Y-137191666D01*
X132707381Y-137286904D01*
X132707381Y-137477381D01*
X132659762Y-137572619D01*
X132564524Y-137667857D01*
X132374048Y-137715476D01*
X132040714Y-137715476D01*
X131850238Y-137667857D01*
X131755000Y-137572619D01*
X131707381Y-137477381D01*
X132183571Y-136286904D02*
X132183571Y-136620238D01*
X132707381Y-136620238D02*
X131707381Y-136620238D01*
X131707381Y-136144047D01*
X132183571Y-135429761D02*
X132183571Y-135763095D01*
X132707381Y-135763095D02*
X131707381Y-135763095D01*
X131707381Y-135286904D01*
X137507381Y-137144048D02*
X137507381Y-136953571D01*
X137555000Y-136858333D01*
X137650238Y-136763095D01*
X137840714Y-136715476D01*
X138174048Y-136715476D01*
X138364524Y-136763095D01*
X138459762Y-136858333D01*
X138507381Y-136953571D01*
X138507381Y-137144048D01*
X138459762Y-137239286D01*
X138364524Y-137334524D01*
X138174048Y-137382143D01*
X137840714Y-137382143D01*
X137650238Y-137334524D01*
X137555000Y-137239286D01*
X137507381Y-137144048D01*
X138507381Y-136286905D02*
X137507381Y-136286905D01*
X138507381Y-135715476D01*
X137507381Y-135715476D01*
X142811667Y-135024762D02*
X142954524Y-135072381D01*
X143192620Y-135072381D01*
X143287858Y-135024762D01*
X143335477Y-134977143D01*
X143383096Y-134881905D01*
X143383096Y-134786667D01*
X143335477Y-134691429D01*
X143287858Y-134643810D01*
X143192620Y-134596190D01*
X143002143Y-134548571D01*
X142906905Y-134500952D01*
X142859286Y-134453333D01*
X142811667Y-134358095D01*
X142811667Y-134262857D01*
X142859286Y-134167619D01*
X142906905Y-134120000D01*
X143002143Y-134072381D01*
X143240239Y-134072381D01*
X143383096Y-134120000D01*
X143716429Y-134072381D02*
X143954524Y-135072381D01*
X144145001Y-134358095D01*
X144335477Y-135072381D01*
X144573572Y-134072381D01*
X145002143Y-135072381D02*
X145192619Y-135072381D01*
X145287858Y-135024762D01*
X145335477Y-134977143D01*
X145430715Y-134834286D01*
X145478334Y-134643810D01*
X145478334Y-134262857D01*
X145430715Y-134167619D01*
X145383096Y-134120000D01*
X145287858Y-134072381D01*
X145097381Y-134072381D01*
X145002143Y-134120000D01*
X144954524Y-134167619D01*
X144906905Y-134262857D01*
X144906905Y-134500952D01*
X144954524Y-134596190D01*
X145002143Y-134643810D01*
X145097381Y-134691429D01*
X145287858Y-134691429D01*
X145383096Y-134643810D01*
X145430715Y-134596190D01*
X145478334Y-134500952D01*
X140597381Y-137477381D02*
X140597381Y-137286904D01*
X140645000Y-137191666D01*
X140740238Y-137096428D01*
X140930714Y-137048809D01*
X141264048Y-137048809D01*
X141454524Y-137096428D01*
X141549762Y-137191666D01*
X141597381Y-137286904D01*
X141597381Y-137477381D01*
X141549762Y-137572619D01*
X141454524Y-137667857D01*
X141264048Y-137715476D01*
X140930714Y-137715476D01*
X140740238Y-137667857D01*
X140645000Y-137572619D01*
X140597381Y-137477381D01*
X141073571Y-136286904D02*
X141073571Y-136620238D01*
X141597381Y-136620238D02*
X140597381Y-136620238D01*
X140597381Y-136144047D01*
X141073571Y-135429761D02*
X141073571Y-135763095D01*
X141597381Y-135763095D02*
X140597381Y-135763095D01*
X140597381Y-135286904D01*
X146397381Y-137144048D02*
X146397381Y-136953571D01*
X146445000Y-136858333D01*
X146540238Y-136763095D01*
X146730714Y-136715476D01*
X147064048Y-136715476D01*
X147254524Y-136763095D01*
X147349762Y-136858333D01*
X147397381Y-136953571D01*
X147397381Y-137144048D01*
X147349762Y-137239286D01*
X147254524Y-137334524D01*
X147064048Y-137382143D01*
X146730714Y-137382143D01*
X146540238Y-137334524D01*
X146445000Y-137239286D01*
X146397381Y-137144048D01*
X147397381Y-136286905D02*
X146397381Y-136286905D01*
X147397381Y-135715476D01*
X146397381Y-135715476D01*
X154241667Y-135024762D02*
X154384524Y-135072381D01*
X154622620Y-135072381D01*
X154717858Y-135024762D01*
X154765477Y-134977143D01*
X154813096Y-134881905D01*
X154813096Y-134786667D01*
X154765477Y-134691429D01*
X154717858Y-134643810D01*
X154622620Y-134596190D01*
X154432143Y-134548571D01*
X154336905Y-134500952D01*
X154289286Y-134453333D01*
X154241667Y-134358095D01*
X154241667Y-134262857D01*
X154289286Y-134167619D01*
X154336905Y-134120000D01*
X154432143Y-134072381D01*
X154670239Y-134072381D01*
X154813096Y-134120000D01*
X155146429Y-134072381D02*
X155384524Y-135072381D01*
X155575001Y-134358095D01*
X155765477Y-135072381D01*
X156003572Y-134072381D01*
X156527381Y-134500952D02*
X156432143Y-134453333D01*
X156384524Y-134405714D01*
X156336905Y-134310476D01*
X156336905Y-134262857D01*
X156384524Y-134167619D01*
X156432143Y-134120000D01*
X156527381Y-134072381D01*
X156717858Y-134072381D01*
X156813096Y-134120000D01*
X156860715Y-134167619D01*
X156908334Y-134262857D01*
X156908334Y-134310476D01*
X156860715Y-134405714D01*
X156813096Y-134453333D01*
X156717858Y-134500952D01*
X156527381Y-134500952D01*
X156432143Y-134548571D01*
X156384524Y-134596190D01*
X156336905Y-134691429D01*
X156336905Y-134881905D01*
X156384524Y-134977143D01*
X156432143Y-135024762D01*
X156527381Y-135072381D01*
X156717858Y-135072381D01*
X156813096Y-135024762D01*
X156860715Y-134977143D01*
X156908334Y-134881905D01*
X156908334Y-134691429D01*
X156860715Y-134596190D01*
X156813096Y-134548571D01*
X156717858Y-134500952D01*
X152027381Y-137477381D02*
X152027381Y-137286904D01*
X152075000Y-137191666D01*
X152170238Y-137096428D01*
X152360714Y-137048809D01*
X152694048Y-137048809D01*
X152884524Y-137096428D01*
X152979762Y-137191666D01*
X153027381Y-137286904D01*
X153027381Y-137477381D01*
X152979762Y-137572619D01*
X152884524Y-137667857D01*
X152694048Y-137715476D01*
X152360714Y-137715476D01*
X152170238Y-137667857D01*
X152075000Y-137572619D01*
X152027381Y-137477381D01*
X152503571Y-136286904D02*
X152503571Y-136620238D01*
X153027381Y-136620238D02*
X152027381Y-136620238D01*
X152027381Y-136144047D01*
X152503571Y-135429761D02*
X152503571Y-135763095D01*
X153027381Y-135763095D02*
X152027381Y-135763095D01*
X152027381Y-135286904D01*
X157827381Y-137144048D02*
X157827381Y-136953571D01*
X157875000Y-136858333D01*
X157970238Y-136763095D01*
X158160714Y-136715476D01*
X158494048Y-136715476D01*
X158684524Y-136763095D01*
X158779762Y-136858333D01*
X158827381Y-136953571D01*
X158827381Y-137144048D01*
X158779762Y-137239286D01*
X158684524Y-137334524D01*
X158494048Y-137382143D01*
X158160714Y-137382143D01*
X157970238Y-137334524D01*
X157875000Y-137239286D01*
X157827381Y-137144048D01*
X158827381Y-136286905D02*
X157827381Y-136286905D01*
X158827381Y-135715476D01*
X157827381Y-135715476D01*
X163131667Y-135024762D02*
X163274524Y-135072381D01*
X163512620Y-135072381D01*
X163607858Y-135024762D01*
X163655477Y-134977143D01*
X163703096Y-134881905D01*
X163703096Y-134786667D01*
X163655477Y-134691429D01*
X163607858Y-134643810D01*
X163512620Y-134596190D01*
X163322143Y-134548571D01*
X163226905Y-134500952D01*
X163179286Y-134453333D01*
X163131667Y-134358095D01*
X163131667Y-134262857D01*
X163179286Y-134167619D01*
X163226905Y-134120000D01*
X163322143Y-134072381D01*
X163560239Y-134072381D01*
X163703096Y-134120000D01*
X164036429Y-134072381D02*
X164274524Y-135072381D01*
X164465001Y-134358095D01*
X164655477Y-135072381D01*
X164893572Y-134072381D01*
X165179286Y-134072381D02*
X165845953Y-134072381D01*
X165417381Y-135072381D01*
X160917381Y-137477381D02*
X160917381Y-137286904D01*
X160965000Y-137191666D01*
X161060238Y-137096428D01*
X161250714Y-137048809D01*
X161584048Y-137048809D01*
X161774524Y-137096428D01*
X161869762Y-137191666D01*
X161917381Y-137286904D01*
X161917381Y-137477381D01*
X161869762Y-137572619D01*
X161774524Y-137667857D01*
X161584048Y-137715476D01*
X161250714Y-137715476D01*
X161060238Y-137667857D01*
X160965000Y-137572619D01*
X160917381Y-137477381D01*
X161393571Y-136286904D02*
X161393571Y-136620238D01*
X161917381Y-136620238D02*
X160917381Y-136620238D01*
X160917381Y-136144047D01*
X161393571Y-135429761D02*
X161393571Y-135763095D01*
X161917381Y-135763095D02*
X160917381Y-135763095D01*
X160917381Y-135286904D01*
X166717381Y-137144048D02*
X166717381Y-136953571D01*
X166765000Y-136858333D01*
X166860238Y-136763095D01*
X167050714Y-136715476D01*
X167384048Y-136715476D01*
X167574524Y-136763095D01*
X167669762Y-136858333D01*
X167717381Y-136953571D01*
X167717381Y-137144048D01*
X167669762Y-137239286D01*
X167574524Y-137334524D01*
X167384048Y-137382143D01*
X167050714Y-137382143D01*
X166860238Y-137334524D01*
X166765000Y-137239286D01*
X166717381Y-137144048D01*
X167717381Y-136286905D02*
X166717381Y-136286905D01*
X167717381Y-135715476D01*
X166717381Y-135715476D01*
X180911667Y-135024762D02*
X181054524Y-135072381D01*
X181292620Y-135072381D01*
X181387858Y-135024762D01*
X181435477Y-134977143D01*
X181483096Y-134881905D01*
X181483096Y-134786667D01*
X181435477Y-134691429D01*
X181387858Y-134643810D01*
X181292620Y-134596190D01*
X181102143Y-134548571D01*
X181006905Y-134500952D01*
X180959286Y-134453333D01*
X180911667Y-134358095D01*
X180911667Y-134262857D01*
X180959286Y-134167619D01*
X181006905Y-134120000D01*
X181102143Y-134072381D01*
X181340239Y-134072381D01*
X181483096Y-134120000D01*
X181816429Y-134072381D02*
X182054524Y-135072381D01*
X182245001Y-134358095D01*
X182435477Y-135072381D01*
X182673572Y-134072381D01*
X183530715Y-134072381D02*
X183054524Y-134072381D01*
X183006905Y-134548571D01*
X183054524Y-134500952D01*
X183149762Y-134453333D01*
X183387858Y-134453333D01*
X183483096Y-134500952D01*
X183530715Y-134548571D01*
X183578334Y-134643810D01*
X183578334Y-134881905D01*
X183530715Y-134977143D01*
X183483096Y-135024762D01*
X183387858Y-135072381D01*
X183149762Y-135072381D01*
X183054524Y-135024762D01*
X183006905Y-134977143D01*
X178697381Y-137477381D02*
X178697381Y-137286904D01*
X178745000Y-137191666D01*
X178840238Y-137096428D01*
X179030714Y-137048809D01*
X179364048Y-137048809D01*
X179554524Y-137096428D01*
X179649762Y-137191666D01*
X179697381Y-137286904D01*
X179697381Y-137477381D01*
X179649762Y-137572619D01*
X179554524Y-137667857D01*
X179364048Y-137715476D01*
X179030714Y-137715476D01*
X178840238Y-137667857D01*
X178745000Y-137572619D01*
X178697381Y-137477381D01*
X179173571Y-136286904D02*
X179173571Y-136620238D01*
X179697381Y-136620238D02*
X178697381Y-136620238D01*
X178697381Y-136144047D01*
X179173571Y-135429761D02*
X179173571Y-135763095D01*
X179697381Y-135763095D02*
X178697381Y-135763095D01*
X178697381Y-135286904D01*
X184497381Y-137144048D02*
X184497381Y-136953571D01*
X184545000Y-136858333D01*
X184640238Y-136763095D01*
X184830714Y-136715476D01*
X185164048Y-136715476D01*
X185354524Y-136763095D01*
X185449762Y-136858333D01*
X185497381Y-136953571D01*
X185497381Y-137144048D01*
X185449762Y-137239286D01*
X185354524Y-137334524D01*
X185164048Y-137382143D01*
X184830714Y-137382143D01*
X184640238Y-137334524D01*
X184545000Y-137239286D01*
X184497381Y-137144048D01*
X185497381Y-136286905D02*
X184497381Y-136286905D01*
X185497381Y-135715476D01*
X184497381Y-135715476D01*
X115127381Y-113839524D02*
X114127381Y-113839524D01*
X115127381Y-113268095D01*
X114127381Y-113268095D01*
X114127381Y-112601429D02*
X114127381Y-112410952D01*
X114175000Y-112315714D01*
X114270238Y-112220476D01*
X114460714Y-112172857D01*
X114794048Y-112172857D01*
X114984524Y-112220476D01*
X115079762Y-112315714D01*
X115127381Y-112410952D01*
X115127381Y-112601429D01*
X115079762Y-112696667D01*
X114984524Y-112791905D01*
X114794048Y-112839524D01*
X114460714Y-112839524D01*
X114270238Y-112791905D01*
X114175000Y-112696667D01*
X114127381Y-112601429D01*
X115127381Y-118515714D02*
X114127381Y-118515714D01*
X115127381Y-117944285D01*
X114127381Y-117944285D01*
X115032143Y-116896666D02*
X115079762Y-116944285D01*
X115127381Y-117087142D01*
X115127381Y-117182380D01*
X115079762Y-117325238D01*
X114984524Y-117420476D01*
X114889286Y-117468095D01*
X114698810Y-117515714D01*
X114555952Y-117515714D01*
X114365476Y-117468095D01*
X114270238Y-117420476D01*
X114175000Y-117325238D01*
X114127381Y-117182380D01*
X114127381Y-117087142D01*
X114175000Y-116944285D01*
X114222619Y-116896666D01*
X115082143Y-107970476D02*
X115129762Y-108018095D01*
X115177381Y-108160952D01*
X115177381Y-108256190D01*
X115129762Y-108399048D01*
X115034524Y-108494286D01*
X114939286Y-108541905D01*
X114748810Y-108589524D01*
X114605952Y-108589524D01*
X114415476Y-108541905D01*
X114320238Y-108494286D01*
X114225000Y-108399048D01*
X114177381Y-108256190D01*
X114177381Y-108160952D01*
X114225000Y-108018095D01*
X114272619Y-107970476D01*
M02*
