G04 #@! TF.FileFunction,Legend,Bot*
%FSLAX46Y46*%
G04 Gerber Fmt 4.6, Leading zero omitted, Abs format (unit mm)*
G04 Created by KiCad (PCBNEW 4.0.7) date 10/03/18 13:38:50*
%MOMM*%
%LPD*%
G01*
G04 APERTURE LIST*
%ADD10C,0.100000*%
%ADD11C,0.300000*%
%ADD12C,0.200000*%
G04 APERTURE END LIST*
D10*
D11*
X167860001Y-146093571D02*
X167860001Y-144593571D01*
X167217144Y-146093571D02*
X167217144Y-145307857D01*
X167288573Y-145165000D01*
X167431430Y-145093571D01*
X167645715Y-145093571D01*
X167788573Y-145165000D01*
X167860001Y-145236429D01*
X166717144Y-145093571D02*
X166145715Y-145093571D01*
X166502858Y-144593571D02*
X166502858Y-145879286D01*
X166431430Y-146022143D01*
X166288572Y-146093571D01*
X166145715Y-146093571D01*
X165860001Y-145093571D02*
X165288572Y-145093571D01*
X165645715Y-144593571D02*
X165645715Y-145879286D01*
X165574287Y-146022143D01*
X165431429Y-146093571D01*
X165288572Y-146093571D01*
X164788572Y-145093571D02*
X164788572Y-146593571D01*
X164788572Y-145165000D02*
X164645715Y-145093571D01*
X164360001Y-145093571D01*
X164217144Y-145165000D01*
X164145715Y-145236429D01*
X164074286Y-145379286D01*
X164074286Y-145807857D01*
X164145715Y-145950714D01*
X164217144Y-146022143D01*
X164360001Y-146093571D01*
X164645715Y-146093571D01*
X164788572Y-146022143D01*
X163502858Y-146022143D02*
X163360001Y-146093571D01*
X163074286Y-146093571D01*
X162931429Y-146022143D01*
X162860001Y-145879286D01*
X162860001Y-145807857D01*
X162931429Y-145665000D01*
X163074286Y-145593571D01*
X163288572Y-145593571D01*
X163431429Y-145522143D01*
X163502858Y-145379286D01*
X163502858Y-145307857D01*
X163431429Y-145165000D01*
X163288572Y-145093571D01*
X163074286Y-145093571D01*
X162931429Y-145165000D01*
X162217143Y-145950714D02*
X162145715Y-146022143D01*
X162217143Y-146093571D01*
X162288572Y-146022143D01*
X162217143Y-145950714D01*
X162217143Y-146093571D01*
X162217143Y-145165000D02*
X162145715Y-145236429D01*
X162217143Y-145307857D01*
X162288572Y-145236429D01*
X162217143Y-145165000D01*
X162217143Y-145307857D01*
X160431429Y-144522143D02*
X161717143Y-146450714D01*
X158860000Y-144522143D02*
X160145714Y-146450714D01*
X158359999Y-146093571D02*
X158359999Y-144593571D01*
X157717142Y-146093571D02*
X157717142Y-145307857D01*
X157788571Y-145165000D01*
X157931428Y-145093571D01*
X158145713Y-145093571D01*
X158288571Y-145165000D01*
X158359999Y-145236429D01*
X157145713Y-145093571D02*
X156788570Y-146093571D01*
X156431428Y-145093571D01*
X155288571Y-146022143D02*
X155431428Y-146093571D01*
X155717142Y-146093571D01*
X155859999Y-146022143D01*
X155931428Y-145879286D01*
X155931428Y-145307857D01*
X155859999Y-145165000D01*
X155717142Y-145093571D01*
X155431428Y-145093571D01*
X155288571Y-145165000D01*
X155217142Y-145307857D01*
X155217142Y-145450714D01*
X155931428Y-145593571D01*
X154788571Y-145093571D02*
X154217142Y-145093571D01*
X154574285Y-144593571D02*
X154574285Y-145879286D01*
X154502857Y-146022143D01*
X154359999Y-146093571D01*
X154217142Y-146093571D01*
X153145714Y-146022143D02*
X153288571Y-146093571D01*
X153574285Y-146093571D01*
X153717142Y-146022143D01*
X153788571Y-145879286D01*
X153788571Y-145307857D01*
X153717142Y-145165000D01*
X153574285Y-145093571D01*
X153288571Y-145093571D01*
X153145714Y-145165000D01*
X153074285Y-145307857D01*
X153074285Y-145450714D01*
X153788571Y-145593571D01*
X152431428Y-146093571D02*
X152431428Y-144593571D01*
X152431428Y-145165000D02*
X152288571Y-145093571D01*
X152002857Y-145093571D01*
X151860000Y-145165000D01*
X151788571Y-145236429D01*
X151717142Y-145379286D01*
X151717142Y-145807857D01*
X151788571Y-145950714D01*
X151860000Y-146022143D01*
X152002857Y-146093571D01*
X152288571Y-146093571D01*
X152431428Y-146022143D01*
X150859999Y-146093571D02*
X151002857Y-146022143D01*
X151074285Y-145950714D01*
X151145714Y-145807857D01*
X151145714Y-145379286D01*
X151074285Y-145236429D01*
X151002857Y-145165000D01*
X150859999Y-145093571D01*
X150645714Y-145093571D01*
X150502857Y-145165000D01*
X150431428Y-145236429D01*
X150359999Y-145379286D01*
X150359999Y-145807857D01*
X150431428Y-145950714D01*
X150502857Y-146022143D01*
X150645714Y-146093571D01*
X150859999Y-146093571D01*
X149502856Y-146093571D02*
X149645714Y-146022143D01*
X149717142Y-145879286D01*
X149717142Y-144593571D01*
X148717142Y-146093571D02*
X148860000Y-146022143D01*
X148931428Y-145879286D01*
X148931428Y-144593571D01*
X147574286Y-146022143D02*
X147717143Y-146093571D01*
X148002857Y-146093571D01*
X148145714Y-146022143D01*
X148217143Y-145879286D01*
X148217143Y-145307857D01*
X148145714Y-145165000D01*
X148002857Y-145093571D01*
X147717143Y-145093571D01*
X147574286Y-145165000D01*
X147502857Y-145307857D01*
X147502857Y-145450714D01*
X148217143Y-145593571D01*
X146860000Y-145950714D02*
X146788572Y-146022143D01*
X146860000Y-146093571D01*
X146931429Y-146022143D01*
X146860000Y-145950714D01*
X146860000Y-146093571D01*
X146145714Y-146093571D02*
X146145714Y-144593571D01*
X146145714Y-145165000D02*
X146002857Y-145093571D01*
X145717143Y-145093571D01*
X145574286Y-145165000D01*
X145502857Y-145236429D01*
X145431428Y-145379286D01*
X145431428Y-145807857D01*
X145502857Y-145950714D01*
X145574286Y-146022143D01*
X145717143Y-146093571D01*
X146002857Y-146093571D01*
X146145714Y-146022143D01*
X144574285Y-146093571D02*
X144717143Y-146022143D01*
X144788571Y-145879286D01*
X144788571Y-144593571D01*
X143788571Y-146093571D02*
X143931429Y-146022143D01*
X144002857Y-145950714D01*
X144074286Y-145807857D01*
X144074286Y-145379286D01*
X144002857Y-145236429D01*
X143931429Y-145165000D01*
X143788571Y-145093571D01*
X143574286Y-145093571D01*
X143431429Y-145165000D01*
X143360000Y-145236429D01*
X143288571Y-145379286D01*
X143288571Y-145807857D01*
X143360000Y-145950714D01*
X143431429Y-146022143D01*
X143574286Y-146093571D01*
X143788571Y-146093571D01*
X142002857Y-145093571D02*
X142002857Y-146307857D01*
X142074286Y-146450714D01*
X142145714Y-146522143D01*
X142288571Y-146593571D01*
X142502857Y-146593571D01*
X142645714Y-146522143D01*
X142002857Y-146022143D02*
X142145714Y-146093571D01*
X142431428Y-146093571D01*
X142574286Y-146022143D01*
X142645714Y-145950714D01*
X142717143Y-145807857D01*
X142717143Y-145379286D01*
X142645714Y-145236429D01*
X142574286Y-145165000D01*
X142431428Y-145093571D01*
X142145714Y-145093571D01*
X142002857Y-145165000D01*
X141360000Y-146022143D02*
X141217143Y-146093571D01*
X140931428Y-146093571D01*
X140788571Y-146022143D01*
X140717143Y-145879286D01*
X140717143Y-145807857D01*
X140788571Y-145665000D01*
X140931428Y-145593571D01*
X141145714Y-145593571D01*
X141288571Y-145522143D01*
X141360000Y-145379286D01*
X141360000Y-145307857D01*
X141288571Y-145165000D01*
X141145714Y-145093571D01*
X140931428Y-145093571D01*
X140788571Y-145165000D01*
X140074285Y-145093571D02*
X140074285Y-146593571D01*
X140074285Y-145165000D02*
X139931428Y-145093571D01*
X139645714Y-145093571D01*
X139502857Y-145165000D01*
X139431428Y-145236429D01*
X139359999Y-145379286D01*
X139359999Y-145807857D01*
X139431428Y-145950714D01*
X139502857Y-146022143D01*
X139645714Y-146093571D01*
X139931428Y-146093571D01*
X140074285Y-146022143D01*
X138502856Y-146093571D02*
X138645714Y-146022143D01*
X138717142Y-145950714D01*
X138788571Y-145807857D01*
X138788571Y-145379286D01*
X138717142Y-145236429D01*
X138645714Y-145165000D01*
X138502856Y-145093571D01*
X138288571Y-145093571D01*
X138145714Y-145165000D01*
X138074285Y-145236429D01*
X138002856Y-145379286D01*
X138002856Y-145807857D01*
X138074285Y-145950714D01*
X138145714Y-146022143D01*
X138288571Y-146093571D01*
X138502856Y-146093571D01*
X137574285Y-145093571D02*
X137002856Y-145093571D01*
X137359999Y-144593571D02*
X137359999Y-145879286D01*
X137288571Y-146022143D01*
X137145713Y-146093571D01*
X137002856Y-146093571D01*
X136502856Y-145950714D02*
X136431428Y-146022143D01*
X136502856Y-146093571D01*
X136574285Y-146022143D01*
X136502856Y-145950714D01*
X136502856Y-146093571D01*
X135145713Y-146022143D02*
X135288570Y-146093571D01*
X135574284Y-146093571D01*
X135717142Y-146022143D01*
X135788570Y-145950714D01*
X135859999Y-145807857D01*
X135859999Y-145379286D01*
X135788570Y-145236429D01*
X135717142Y-145165000D01*
X135574284Y-145093571D01*
X135288570Y-145093571D01*
X135145713Y-145165000D01*
X134288570Y-146093571D02*
X134431428Y-146022143D01*
X134502856Y-145950714D01*
X134574285Y-145807857D01*
X134574285Y-145379286D01*
X134502856Y-145236429D01*
X134431428Y-145165000D01*
X134288570Y-145093571D01*
X134074285Y-145093571D01*
X133931428Y-145165000D01*
X133859999Y-145236429D01*
X133788570Y-145379286D01*
X133788570Y-145807857D01*
X133859999Y-145950714D01*
X133931428Y-146022143D01*
X134074285Y-146093571D01*
X134288570Y-146093571D01*
X133145713Y-146093571D02*
X133145713Y-145093571D01*
X133145713Y-145236429D02*
X133074285Y-145165000D01*
X132931427Y-145093571D01*
X132717142Y-145093571D01*
X132574285Y-145165000D01*
X132502856Y-145307857D01*
X132502856Y-146093571D01*
X132502856Y-145307857D02*
X132431427Y-145165000D01*
X132288570Y-145093571D01*
X132074285Y-145093571D01*
X131931427Y-145165000D01*
X131859999Y-145307857D01*
X131859999Y-146093571D01*
D12*
X106045000Y-133350000D02*
X106045000Y-130810000D01*
X108585000Y-133350000D02*
X106045000Y-133350000D01*
X108585000Y-130810000D02*
X108585000Y-133350000D01*
X106045000Y-130810000D02*
X108585000Y-130810000D01*
X111125000Y-78105000D02*
X100965000Y-78105000D01*
X111125000Y-137795000D02*
X111125000Y-78105000D01*
X100965000Y-137795000D02*
X111125000Y-137795000D01*
D11*
X109112857Y-98069287D02*
X109112857Y-97569287D01*
X109898571Y-97569287D02*
X108398571Y-97569287D01*
X108398571Y-98283573D01*
X109898571Y-98855001D02*
X108898571Y-98855001D01*
X109184286Y-98855001D02*
X109041429Y-98926429D01*
X108970000Y-98997858D01*
X108898571Y-99140715D01*
X108898571Y-99283572D01*
X109898571Y-99997858D02*
X109827143Y-99855000D01*
X109755714Y-99783572D01*
X109612857Y-99712143D01*
X109184286Y-99712143D01*
X109041429Y-99783572D01*
X108970000Y-99855000D01*
X108898571Y-99997858D01*
X108898571Y-100212143D01*
X108970000Y-100355000D01*
X109041429Y-100426429D01*
X109184286Y-100497858D01*
X109612857Y-100497858D01*
X109755714Y-100426429D01*
X109827143Y-100355000D01*
X109898571Y-100212143D01*
X109898571Y-99997858D01*
X108898571Y-101140715D02*
X109898571Y-101140715D01*
X109041429Y-101140715D02*
X108970000Y-101212143D01*
X108898571Y-101355001D01*
X108898571Y-101569286D01*
X108970000Y-101712143D01*
X109112857Y-101783572D01*
X109898571Y-101783572D01*
X108898571Y-102283572D02*
X108898571Y-102855001D01*
X108398571Y-102497858D02*
X109684286Y-102497858D01*
X109827143Y-102569286D01*
X109898571Y-102712144D01*
X109898571Y-102855001D01*
X108898571Y-104497858D02*
X110398571Y-104497858D01*
X108970000Y-104497858D02*
X108898571Y-104640715D01*
X108898571Y-104926429D01*
X108970000Y-105069286D01*
X109041429Y-105140715D01*
X109184286Y-105212144D01*
X109612857Y-105212144D01*
X109755714Y-105140715D01*
X109827143Y-105069286D01*
X109898571Y-104926429D01*
X109898571Y-104640715D01*
X109827143Y-104497858D01*
X109898571Y-106497858D02*
X109112857Y-106497858D01*
X108970000Y-106426429D01*
X108898571Y-106283572D01*
X108898571Y-105997858D01*
X108970000Y-105855001D01*
X109827143Y-106497858D02*
X109898571Y-106355001D01*
X109898571Y-105997858D01*
X109827143Y-105855001D01*
X109684286Y-105783572D01*
X109541429Y-105783572D01*
X109398571Y-105855001D01*
X109327143Y-105997858D01*
X109327143Y-106355001D01*
X109255714Y-106497858D01*
X108898571Y-107212144D02*
X109898571Y-107212144D01*
X109041429Y-107212144D02*
X108970000Y-107283572D01*
X108898571Y-107426430D01*
X108898571Y-107640715D01*
X108970000Y-107783572D01*
X109112857Y-107855001D01*
X109898571Y-107855001D01*
X109827143Y-109140715D02*
X109898571Y-108997858D01*
X109898571Y-108712144D01*
X109827143Y-108569287D01*
X109684286Y-108497858D01*
X109112857Y-108497858D01*
X108970000Y-108569287D01*
X108898571Y-108712144D01*
X108898571Y-108997858D01*
X108970000Y-109140715D01*
X109112857Y-109212144D01*
X109255714Y-109212144D01*
X109398571Y-108497858D01*
X109898571Y-110069287D02*
X109827143Y-109926429D01*
X109684286Y-109855001D01*
X108398571Y-109855001D01*
X109827143Y-112426429D02*
X109898571Y-112283572D01*
X109898571Y-111997858D01*
X109827143Y-111855000D01*
X109755714Y-111783572D01*
X109612857Y-111712143D01*
X109184286Y-111712143D01*
X109041429Y-111783572D01*
X108970000Y-111855000D01*
X108898571Y-111997858D01*
X108898571Y-112283572D01*
X108970000Y-112426429D01*
X109898571Y-113283572D02*
X109827143Y-113140714D01*
X109755714Y-113069286D01*
X109612857Y-112997857D01*
X109184286Y-112997857D01*
X109041429Y-113069286D01*
X108970000Y-113140714D01*
X108898571Y-113283572D01*
X108898571Y-113497857D01*
X108970000Y-113640714D01*
X109041429Y-113712143D01*
X109184286Y-113783572D01*
X109612857Y-113783572D01*
X109755714Y-113712143D01*
X109827143Y-113640714D01*
X109898571Y-113497857D01*
X109898571Y-113283572D01*
X108898571Y-114426429D02*
X109898571Y-114426429D01*
X109041429Y-114426429D02*
X108970000Y-114497857D01*
X108898571Y-114640715D01*
X108898571Y-114855000D01*
X108970000Y-114997857D01*
X109112857Y-115069286D01*
X109898571Y-115069286D01*
X108898571Y-115783572D02*
X109898571Y-115783572D01*
X109041429Y-115783572D02*
X108970000Y-115855000D01*
X108898571Y-115997858D01*
X108898571Y-116212143D01*
X108970000Y-116355000D01*
X109112857Y-116426429D01*
X109898571Y-116426429D01*
X109827143Y-117712143D02*
X109898571Y-117569286D01*
X109898571Y-117283572D01*
X109827143Y-117140715D01*
X109684286Y-117069286D01*
X109112857Y-117069286D01*
X108970000Y-117140715D01*
X108898571Y-117283572D01*
X108898571Y-117569286D01*
X108970000Y-117712143D01*
X109112857Y-117783572D01*
X109255714Y-117783572D01*
X109398571Y-117069286D01*
X109827143Y-119069286D02*
X109898571Y-118926429D01*
X109898571Y-118640715D01*
X109827143Y-118497857D01*
X109755714Y-118426429D01*
X109612857Y-118355000D01*
X109184286Y-118355000D01*
X109041429Y-118426429D01*
X108970000Y-118497857D01*
X108898571Y-118640715D01*
X108898571Y-118926429D01*
X108970000Y-119069286D01*
X108898571Y-119497857D02*
X108898571Y-120069286D01*
X108398571Y-119712143D02*
X109684286Y-119712143D01*
X109827143Y-119783571D01*
X109898571Y-119926429D01*
X109898571Y-120069286D01*
X109898571Y-120783572D02*
X109827143Y-120640714D01*
X109755714Y-120569286D01*
X109612857Y-120497857D01*
X109184286Y-120497857D01*
X109041429Y-120569286D01*
X108970000Y-120640714D01*
X108898571Y-120783572D01*
X108898571Y-120997857D01*
X108970000Y-121140714D01*
X109041429Y-121212143D01*
X109184286Y-121283572D01*
X109612857Y-121283572D01*
X109755714Y-121212143D01*
X109827143Y-121140714D01*
X109898571Y-120997857D01*
X109898571Y-120783572D01*
X109898571Y-121926429D02*
X108898571Y-121926429D01*
X109184286Y-121926429D02*
X109041429Y-121997857D01*
X108970000Y-122069286D01*
X108898571Y-122212143D01*
X108898571Y-122355000D01*
D12*
X100965000Y-137795000D02*
X100965000Y-78105000D01*
M02*
