G04 #@! TF.FileFunction,Legend,Bot*
%FSLAX46Y46*%
G04 Gerber Fmt 4.6, Leading zero omitted, Abs format (unit mm)*
G04 Created by KiCad (PCBNEW 4.0.7) date 09/02/18 01:42:51*
%MOMM*%
%LPD*%
G01*
G04 APERTURE LIST*
%ADD10C,0.100000*%
%ADD11C,0.200000*%
%ADD12C,0.300000*%
G04 APERTURE END LIST*
D10*
D11*
X106045000Y-133350000D02*
X106045000Y-130810000D01*
X108585000Y-133350000D02*
X106045000Y-133350000D01*
X108585000Y-130810000D02*
X108585000Y-133350000D01*
X106045000Y-130810000D02*
X108585000Y-130810000D01*
X111125000Y-78105000D02*
X100965000Y-78105000D01*
X111125000Y-137795000D02*
X111125000Y-78105000D01*
X100965000Y-137795000D02*
X111125000Y-137795000D01*
D12*
X109112857Y-98069287D02*
X109112857Y-97569287D01*
X109898571Y-97569287D02*
X108398571Y-97569287D01*
X108398571Y-98283573D01*
X109898571Y-98855001D02*
X108898571Y-98855001D01*
X109184286Y-98855001D02*
X109041429Y-98926429D01*
X108970000Y-98997858D01*
X108898571Y-99140715D01*
X108898571Y-99283572D01*
X109898571Y-99997858D02*
X109827143Y-99855000D01*
X109755714Y-99783572D01*
X109612857Y-99712143D01*
X109184286Y-99712143D01*
X109041429Y-99783572D01*
X108970000Y-99855000D01*
X108898571Y-99997858D01*
X108898571Y-100212143D01*
X108970000Y-100355000D01*
X109041429Y-100426429D01*
X109184286Y-100497858D01*
X109612857Y-100497858D01*
X109755714Y-100426429D01*
X109827143Y-100355000D01*
X109898571Y-100212143D01*
X109898571Y-99997858D01*
X108898571Y-101140715D02*
X109898571Y-101140715D01*
X109041429Y-101140715D02*
X108970000Y-101212143D01*
X108898571Y-101355001D01*
X108898571Y-101569286D01*
X108970000Y-101712143D01*
X109112857Y-101783572D01*
X109898571Y-101783572D01*
X108898571Y-102283572D02*
X108898571Y-102855001D01*
X108398571Y-102497858D02*
X109684286Y-102497858D01*
X109827143Y-102569286D01*
X109898571Y-102712144D01*
X109898571Y-102855001D01*
X108898571Y-104497858D02*
X110398571Y-104497858D01*
X108970000Y-104497858D02*
X108898571Y-104640715D01*
X108898571Y-104926429D01*
X108970000Y-105069286D01*
X109041429Y-105140715D01*
X109184286Y-105212144D01*
X109612857Y-105212144D01*
X109755714Y-105140715D01*
X109827143Y-105069286D01*
X109898571Y-104926429D01*
X109898571Y-104640715D01*
X109827143Y-104497858D01*
X109898571Y-106497858D02*
X109112857Y-106497858D01*
X108970000Y-106426429D01*
X108898571Y-106283572D01*
X108898571Y-105997858D01*
X108970000Y-105855001D01*
X109827143Y-106497858D02*
X109898571Y-106355001D01*
X109898571Y-105997858D01*
X109827143Y-105855001D01*
X109684286Y-105783572D01*
X109541429Y-105783572D01*
X109398571Y-105855001D01*
X109327143Y-105997858D01*
X109327143Y-106355001D01*
X109255714Y-106497858D01*
X108898571Y-107212144D02*
X109898571Y-107212144D01*
X109041429Y-107212144D02*
X108970000Y-107283572D01*
X108898571Y-107426430D01*
X108898571Y-107640715D01*
X108970000Y-107783572D01*
X109112857Y-107855001D01*
X109898571Y-107855001D01*
X109827143Y-109140715D02*
X109898571Y-108997858D01*
X109898571Y-108712144D01*
X109827143Y-108569287D01*
X109684286Y-108497858D01*
X109112857Y-108497858D01*
X108970000Y-108569287D01*
X108898571Y-108712144D01*
X108898571Y-108997858D01*
X108970000Y-109140715D01*
X109112857Y-109212144D01*
X109255714Y-109212144D01*
X109398571Y-108497858D01*
X109898571Y-110069287D02*
X109827143Y-109926429D01*
X109684286Y-109855001D01*
X108398571Y-109855001D01*
X109827143Y-112426429D02*
X109898571Y-112283572D01*
X109898571Y-111997858D01*
X109827143Y-111855000D01*
X109755714Y-111783572D01*
X109612857Y-111712143D01*
X109184286Y-111712143D01*
X109041429Y-111783572D01*
X108970000Y-111855000D01*
X108898571Y-111997858D01*
X108898571Y-112283572D01*
X108970000Y-112426429D01*
X109898571Y-113283572D02*
X109827143Y-113140714D01*
X109755714Y-113069286D01*
X109612857Y-112997857D01*
X109184286Y-112997857D01*
X109041429Y-113069286D01*
X108970000Y-113140714D01*
X108898571Y-113283572D01*
X108898571Y-113497857D01*
X108970000Y-113640714D01*
X109041429Y-113712143D01*
X109184286Y-113783572D01*
X109612857Y-113783572D01*
X109755714Y-113712143D01*
X109827143Y-113640714D01*
X109898571Y-113497857D01*
X109898571Y-113283572D01*
X108898571Y-114426429D02*
X109898571Y-114426429D01*
X109041429Y-114426429D02*
X108970000Y-114497857D01*
X108898571Y-114640715D01*
X108898571Y-114855000D01*
X108970000Y-114997857D01*
X109112857Y-115069286D01*
X109898571Y-115069286D01*
X108898571Y-115783572D02*
X109898571Y-115783572D01*
X109041429Y-115783572D02*
X108970000Y-115855000D01*
X108898571Y-115997858D01*
X108898571Y-116212143D01*
X108970000Y-116355000D01*
X109112857Y-116426429D01*
X109898571Y-116426429D01*
X109827143Y-117712143D02*
X109898571Y-117569286D01*
X109898571Y-117283572D01*
X109827143Y-117140715D01*
X109684286Y-117069286D01*
X109112857Y-117069286D01*
X108970000Y-117140715D01*
X108898571Y-117283572D01*
X108898571Y-117569286D01*
X108970000Y-117712143D01*
X109112857Y-117783572D01*
X109255714Y-117783572D01*
X109398571Y-117069286D01*
X109827143Y-119069286D02*
X109898571Y-118926429D01*
X109898571Y-118640715D01*
X109827143Y-118497857D01*
X109755714Y-118426429D01*
X109612857Y-118355000D01*
X109184286Y-118355000D01*
X109041429Y-118426429D01*
X108970000Y-118497857D01*
X108898571Y-118640715D01*
X108898571Y-118926429D01*
X108970000Y-119069286D01*
X108898571Y-119497857D02*
X108898571Y-120069286D01*
X108398571Y-119712143D02*
X109684286Y-119712143D01*
X109827143Y-119783571D01*
X109898571Y-119926429D01*
X109898571Y-120069286D01*
X109898571Y-120783572D02*
X109827143Y-120640714D01*
X109755714Y-120569286D01*
X109612857Y-120497857D01*
X109184286Y-120497857D01*
X109041429Y-120569286D01*
X108970000Y-120640714D01*
X108898571Y-120783572D01*
X108898571Y-120997857D01*
X108970000Y-121140714D01*
X109041429Y-121212143D01*
X109184286Y-121283572D01*
X109612857Y-121283572D01*
X109755714Y-121212143D01*
X109827143Y-121140714D01*
X109898571Y-120997857D01*
X109898571Y-120783572D01*
X109898571Y-121926429D02*
X108898571Y-121926429D01*
X109184286Y-121926429D02*
X109041429Y-121997857D01*
X108970000Y-122069286D01*
X108898571Y-122212143D01*
X108898571Y-122355000D01*
D11*
X100965000Y-137795000D02*
X100965000Y-78105000D01*
M02*
