M48
;DRILL file {KiCad 4.0.7} date 09/02/18 01:42:54
;FORMAT={2:4/ absolute / inch / suppress leading zeros}
FMAT,2
INCH,TZ
T1C0.016
T2C0.031
T3C0.035
T4C0.040
T5C0.043
T6C0.120
%
G90
G05
M72
T1
X42250Y-30000
X42750Y-30000
X42750Y-50500
X42750Y-52750
X43000Y-29250
X43000Y-50250
X43250Y-29500
X43250Y-39250
X43250Y-48000
X43250Y-49250
X43750Y-48250
X44000Y-37500
X44000Y-48500
X44250Y-41500
X44250Y-48750
X44500Y-49000
X45000Y-49500
X45000Y-52750
X45250Y-49250
X45500Y-37000
X45500Y-37500
X45500Y-48250
X45500Y-48750
X45750Y-39500
X45750Y-41000
X45750Y-41500
X45750Y-48000
X45750Y-48500
X45750Y-49000
X46500Y-47250
X47000Y-41250
X47000Y-45250
X47250Y-47250
X47500Y-50250
X48000Y-42000
X48500Y-51000
X49000Y-41500
X49000Y-51250
X49750Y-40750
X50250Y-39250
X50500Y-39500
X51500Y-32000
X51500Y-40750
X52250Y-40750
X52500Y-41000
X52500Y-41750
X52500Y-46000
X52750Y-43000
X53000Y-38250
X53000Y-41500
X53250Y-33250
X53250Y-39250
X54000Y-39500
X54750Y-39750
X54750Y-47750
X55000Y-39000
X55000Y-40000
X55000Y-49500
X55250Y-35250
X55250Y-36500
X55250Y-40250
X55750Y-40750
X55750Y-41750
X55750Y-48000
X55750Y-49500
X56000Y-38750
X56750Y-48000
X57750Y-48500
X58250Y-49500
X58500Y-50000
X58750Y-48750
X59000Y-49750
X59750Y-47250
X59750Y-48750
X61500Y-41500
X61750Y-51500
X61750Y-55500
X62000Y-41500
X62250Y-38750
X62500Y-41500
X63000Y-43000
X63000Y-46250
X63250Y-40250
X63250Y-47250
X63500Y-33500
X63500Y-43000
X64000Y-43000
X64250Y-41000
X64500Y-32500
X64500Y-40500
X66500Y-39750
X66750Y-40250
X67000Y-40000
X67500Y-36500
X67500Y-37250
X67750Y-32750
X67750Y-33750
X69500Y-40000
X69500Y-40500
X69500Y-41000
X69750Y-29500
X69750Y-39750
X69750Y-40250
X70250Y-30000
X70750Y-46000
X71250Y-39750
X71250Y-40250
X71500Y-40000
X71500Y-40500
X71500Y-41000
X72000Y-39750
X72250Y-40000
X72250Y-40500
X72250Y-41000
X72250Y-44250
X72500Y-40250
X73000Y-45750
X73250Y-46000
X74000Y-43250
X74000Y-44000
X74500Y-42750
X75000Y-43250
X75000Y-46000
X75500Y-45750
T2
X44750Y-31750
X44750Y-32750
X44750Y-33750
X44750Y-34750
X44750Y-35750
X44750Y-36750
X44750Y-37750
X44750Y-39000
X44750Y-40000
X44750Y-41000
X45781Y-30250
X47750Y-30250
X47750Y-31750
X47750Y-32750
X47750Y-33750
X47750Y-34750
X47750Y-35750
X47750Y-36750
X47750Y-37750
X47750Y-39000
X47750Y-40000
X47750Y-41000
X49250Y-31750
X49250Y-32750
X49250Y-33750
X49250Y-34750
X49250Y-35750
X49250Y-36750
X49250Y-37750
X49250Y-38750
X50281Y-30250
X52250Y-30250
X52250Y-31750
X52250Y-32750
X52250Y-33750
X52250Y-34750
X52250Y-35750
X52250Y-36750
X52250Y-37750
X52250Y-38750
X53000Y-42250
X53250Y-43750
X53250Y-46750
X54250Y-32000
X54250Y-38000
X54250Y-43750
X54250Y-46750
X55250Y-32000
X55250Y-38000
X55250Y-43750
X55250Y-46750
X56250Y-32000
X56250Y-38000
X56250Y-43750
X56250Y-46750
X57000Y-42250
X57250Y-32000
X57250Y-38000
X57250Y-43750
X57250Y-46750
X58250Y-32000
X58250Y-38000
X58250Y-43750
X58250Y-46750
X59250Y-43750
X59250Y-46750
X59750Y-32000
X59750Y-38000
X60250Y-43750
X60250Y-46750
X60281Y-48250
X60750Y-32000
X60750Y-38000
X61250Y-43750
X61250Y-46750
X61750Y-32000
X61750Y-38000
X62250Y-43750
X62250Y-46750
X62250Y-48250
X62750Y-32000
X62750Y-38000
X63750Y-32000
X63750Y-38000
X65500Y-57000
X65750Y-31750
X65750Y-32750
X65750Y-33750
X65750Y-34750
X65750Y-35750
X65750Y-36750
X65750Y-37750
X65750Y-38750
X65750Y-41750
X65750Y-42750
X65750Y-43750
X65750Y-44750
X65750Y-45750
X65750Y-46750
X65750Y-47750
X66500Y-57000
X66781Y-30250
X67500Y-57000
X68500Y-57000
X68750Y-30250
X68750Y-31750
X68750Y-32750
X68750Y-33750
X68750Y-34750
X68750Y-35750
X68750Y-36750
X68750Y-37750
X68750Y-38750
X68750Y-41750
X68750Y-42750
X68750Y-43750
X68750Y-44750
X68750Y-45750
X68750Y-46750
X68750Y-47750
X69500Y-57000
X70250Y-31750
X70250Y-32750
X70250Y-33750
X70250Y-34750
X70250Y-35750
X70250Y-36750
X70250Y-37750
X70250Y-41750
X70250Y-43719
X70250Y-44750
X70250Y-48750
X70500Y-57000
X71281Y-30250
X71500Y-57000
X71750Y-44750
X71750Y-48750
X72500Y-57000
X73250Y-30250
X73250Y-31750
X73250Y-32750
X73250Y-33750
X73250Y-34750
X73250Y-35750
X73250Y-36750
X73250Y-37750
X73250Y-44750
X73250Y-47750
X73500Y-57000
X74750Y-30250
X74750Y-31750
X74750Y-32750
X74750Y-33750
X74750Y-34750
X74750Y-35750
X74750Y-36750
X74750Y-37750
X74750Y-38750
X75500Y-44750
X75500Y-47750
X76719Y-30250
X77000Y-44750
X77000Y-47750
X77750Y-31750
X77750Y-32750
X77750Y-33750
X77750Y-34750
X77750Y-35750
X77750Y-36750
X77750Y-37750
X77750Y-38750
T3
X59000Y-40750
X59000Y-41750
T4
X41250Y-33000
X41250Y-34000
X41250Y-35000
X41250Y-36000
X41250Y-37000
X41250Y-38000
X41250Y-39000
X41250Y-40000
X41250Y-41000
X41250Y-42000
X41250Y-43000
X41250Y-44000
X41250Y-45000
X41250Y-46000
X41250Y-47000
X41250Y-48000
X41250Y-49000
X41250Y-50000
X41250Y-51000
X41250Y-52000
X42250Y-33000
X42250Y-34000
X42250Y-35000
X42250Y-36000
X42250Y-37000
X42250Y-38000
X42250Y-39000
X42250Y-40000
X42250Y-41000
X42250Y-42000
X42250Y-43000
X42250Y-44000
X42250Y-45000
X42250Y-46000
X42250Y-47000
X42250Y-48000
X42250Y-49000
X42250Y-50000
X42250Y-51000
X42250Y-52000
T6
X41250Y-28250
X41250Y-55750
X76750Y-28250
X76750Y-55750
T5
X46545Y-42728G85X45955Y-42728
G05
X46545Y-44500G85X45955Y-44500
G05
X46545Y-46272G85X45955Y-46272
G05
X46506Y-49900G85X45994Y-49900
G05
X46506Y-51750G85X45994Y-51750
G05
X46506Y-53600G85X45994Y-53600
G05
X50295Y-42728G85X49705Y-42728
G05
X50295Y-44500G85X49705Y-44500
G05
X50295Y-46272G85X49705Y-46272
G05
X50295Y-49978G85X49705Y-49978
G05
X50295Y-51750G85X49705Y-51750
G05
X50295Y-53522G85X49705Y-53522
G05
X54045Y-49978G85X53455Y-49978
G05
X54045Y-51750G85X53455Y-51750
G05
X54045Y-53522G85X53455Y-53522
G05
X57295Y-49978G85X56705Y-49978
G05
X57295Y-51750G85X56705Y-51750
G05
X57295Y-53522G85X56705Y-53522
G05
X60545Y-49978G85X59955Y-49978
G05
X60545Y-51750G85X59955Y-51750
G05
X60545Y-53522G85X59955Y-53522
G05
X63795Y-49978G85X63205Y-49978
G05
X63795Y-51750G85X63205Y-51750
G05
X63795Y-53522G85X63205Y-53522
G05
X67045Y-49978G85X66455Y-49978
G05
X67045Y-51750G85X66455Y-51750
G05
X67045Y-53522G85X66455Y-53522
G05
X70295Y-49978G85X69705Y-49978
G05
X70295Y-51750G85X69705Y-51750
G05
X70295Y-53522G85X69705Y-53522
G05
X73545Y-49978G85X72955Y-49978
G05
X73545Y-51750G85X72955Y-51750
G05
X73545Y-53522G85X72955Y-53522
G05
X76795Y-49978G85X76205Y-49978
G05
X76795Y-51750G85X76205Y-51750
G05
X76795Y-53522G85X76205Y-53522
G05
T0
M30
