G04 #@! TF.FileFunction,Copper,L1,Top,Signal*
%FSLAX46Y46*%
G04 Gerber Fmt 4.6, Leading zero omitted, Abs format (unit mm)*
G04 Created by KiCad (PCBNEW 4.0.7) date 09/23/18 19:15:46*
%MOMM*%
%LPD*%
G01*
G04 APERTURE LIST*
%ADD10C,0.100000*%
%ADD11R,1.600000X1.600000*%
%ADD12O,1.600000X1.600000*%
%ADD13R,1.727200X1.727200*%
%ADD14O,1.727200X1.727200*%
%ADD15C,5.000000*%
%ADD16C,1.600000*%
%ADD17R,1.800000X1.800000*%
%ADD18C,1.800000*%
%ADD19O,1.524000X2.524000*%
%ADD20O,3.400000X1.800000*%
%ADD21R,1.700000X1.700000*%
%ADD22O,1.700000X1.700000*%
%ADD23C,0.600000*%
%ADD24C,0.250000*%
G04 APERTURE END LIST*
D10*
D11*
X178435000Y-80645000D03*
D12*
X186055000Y-95885000D03*
X178435000Y-83185000D03*
X186055000Y-93345000D03*
X178435000Y-85725000D03*
X186055000Y-90805000D03*
X178435000Y-88265000D03*
X186055000Y-88265000D03*
X178435000Y-90805000D03*
X186055000Y-85725000D03*
X178435000Y-93345000D03*
X186055000Y-83185000D03*
X178435000Y-95885000D03*
X186055000Y-80645000D03*
D13*
X107315000Y-132080000D03*
D14*
X104775000Y-132080000D03*
X107315000Y-129540000D03*
X104775000Y-129540000D03*
X107315000Y-127000000D03*
X104775000Y-127000000D03*
X107315000Y-124460000D03*
X104775000Y-124460000D03*
X107315000Y-121920000D03*
X104775000Y-121920000D03*
X107315000Y-119380000D03*
X104775000Y-119380000D03*
X107315000Y-116840000D03*
X104775000Y-116840000D03*
X107315000Y-114300000D03*
X104775000Y-114300000D03*
X107315000Y-111760000D03*
X104775000Y-111760000D03*
X107315000Y-109220000D03*
X104775000Y-109220000D03*
X107315000Y-106680000D03*
X104775000Y-106680000D03*
X107315000Y-104140000D03*
X104775000Y-104140000D03*
X107315000Y-101600000D03*
X104775000Y-101600000D03*
X107315000Y-99060000D03*
X104775000Y-99060000D03*
X107315000Y-96520000D03*
X104775000Y-96520000D03*
X107315000Y-93980000D03*
X104775000Y-93980000D03*
X107315000Y-91440000D03*
X104775000Y-91440000D03*
X107315000Y-88900000D03*
X104775000Y-88900000D03*
X107315000Y-86360000D03*
X104775000Y-86360000D03*
X107315000Y-83820000D03*
X104775000Y-83820000D03*
D11*
X167005000Y-80645000D03*
D12*
X174625000Y-98425000D03*
X167005000Y-83185000D03*
X174625000Y-95885000D03*
X167005000Y-85725000D03*
X174625000Y-93345000D03*
X167005000Y-88265000D03*
X174625000Y-90805000D03*
X167005000Y-90805000D03*
X174625000Y-88265000D03*
X167005000Y-93345000D03*
X174625000Y-85725000D03*
X167005000Y-95885000D03*
X174625000Y-83185000D03*
X167005000Y-98425000D03*
X174625000Y-80645000D03*
D11*
X133350000Y-121285000D03*
D12*
X156210000Y-113665000D03*
X135890000Y-121285000D03*
X153670000Y-113665000D03*
X138430000Y-121285000D03*
X151130000Y-113665000D03*
X140970000Y-121285000D03*
X148590000Y-113665000D03*
X143510000Y-121285000D03*
X146050000Y-113665000D03*
X146050000Y-121285000D03*
X143510000Y-113665000D03*
X148590000Y-121285000D03*
X140970000Y-113665000D03*
X151130000Y-121285000D03*
X138430000Y-113665000D03*
X153670000Y-121285000D03*
X135890000Y-113665000D03*
X156210000Y-121285000D03*
X133350000Y-113665000D03*
D11*
X167005000Y-106045000D03*
D12*
X174625000Y-121285000D03*
X167005000Y-108585000D03*
X174625000Y-118745000D03*
X167005000Y-111125000D03*
X174625000Y-116205000D03*
X167005000Y-113665000D03*
X174625000Y-113665000D03*
X167005000Y-116205000D03*
X174625000Y-111125000D03*
X167005000Y-118745000D03*
X174625000Y-108585000D03*
X167005000Y-121285000D03*
X174625000Y-106045000D03*
D11*
X189865000Y-80645000D03*
D12*
X197485000Y-98425000D03*
X189865000Y-83185000D03*
X197485000Y-95885000D03*
X189865000Y-85725000D03*
X197485000Y-93345000D03*
X189865000Y-88265000D03*
X197485000Y-90805000D03*
X189865000Y-90805000D03*
X197485000Y-88265000D03*
X189865000Y-93345000D03*
X197485000Y-85725000D03*
X189865000Y-95885000D03*
X197485000Y-83185000D03*
X189865000Y-98425000D03*
X197485000Y-80645000D03*
D11*
X113665000Y-80645000D03*
D12*
X121285000Y-95885000D03*
X113665000Y-83185000D03*
X121285000Y-93345000D03*
X113665000Y-85725000D03*
X121285000Y-90805000D03*
X113665000Y-88265000D03*
X121285000Y-88265000D03*
X113665000Y-90805000D03*
X121285000Y-85725000D03*
X113665000Y-93345000D03*
X121285000Y-83185000D03*
X113665000Y-95885000D03*
X121285000Y-80645000D03*
D15*
X104775000Y-71755000D03*
X194945000Y-71755000D03*
D11*
X125095000Y-80645000D03*
D12*
X132715000Y-98425000D03*
X125095000Y-83185000D03*
X132715000Y-95885000D03*
X125095000Y-85725000D03*
X132715000Y-93345000D03*
X125095000Y-88265000D03*
X132715000Y-90805000D03*
X125095000Y-90805000D03*
X132715000Y-88265000D03*
X125095000Y-93345000D03*
X132715000Y-85725000D03*
X125095000Y-95885000D03*
X132715000Y-83185000D03*
X125095000Y-98425000D03*
X132715000Y-80645000D03*
D16*
X177165000Y-99695000D03*
D12*
X187325000Y-99695000D03*
D16*
X178435000Y-123825000D03*
D12*
X178435000Y-113665000D03*
D16*
X154940000Y-109855000D03*
D12*
X144780000Y-109855000D03*
D15*
X194945000Y-141605000D03*
X104775000Y-141605000D03*
D11*
X160020000Y-128270000D03*
D12*
X152400000Y-128270000D03*
D11*
X185420000Y-128270000D03*
D12*
X177800000Y-128270000D03*
D11*
X172720000Y-128270000D03*
D12*
X165100000Y-128270000D03*
D11*
X127000000Y-128270000D03*
D12*
X134620000Y-128270000D03*
D11*
X121920000Y-128270000D03*
D12*
X114300000Y-128270000D03*
D11*
X147320000Y-128270000D03*
D12*
X139700000Y-128270000D03*
D17*
X149860000Y-106045000D03*
D18*
X149860000Y-103505000D03*
D16*
X174625000Y-76835000D03*
X169625000Y-76835000D03*
X133350000Y-109855000D03*
X138350000Y-109855000D03*
X132715000Y-76835000D03*
X127715000Y-76835000D03*
X186055000Y-76835000D03*
X181055000Y-76835000D03*
X178435000Y-106045000D03*
X178435000Y-111045000D03*
X189865000Y-76835000D03*
X194865000Y-76835000D03*
X121285000Y-76835000D03*
X116285000Y-76835000D03*
D19*
X151765000Y-96520000D03*
X154305000Y-96520000D03*
X156845000Y-96520000D03*
X159385000Y-96520000D03*
X161925000Y-96520000D03*
X161925000Y-81280000D03*
X159385000Y-81280000D03*
X156845000Y-81280000D03*
X154305000Y-81280000D03*
X151765000Y-81280000D03*
X137795000Y-96520000D03*
X140335000Y-96520000D03*
X142875000Y-96520000D03*
X145415000Y-96520000D03*
X147955000Y-96520000D03*
X147955000Y-81280000D03*
X145415000Y-81280000D03*
X142875000Y-81280000D03*
X140335000Y-81280000D03*
X137795000Y-81280000D03*
D20*
X194310000Y-117530000D03*
X194310000Y-113030000D03*
X194310000Y-108530000D03*
X125730000Y-108530000D03*
X125730000Y-113030000D03*
X125730000Y-117530000D03*
X173355000Y-141025000D03*
X173355000Y-136525000D03*
X173355000Y-132025000D03*
D21*
X117475000Y-71120000D03*
D22*
X120015000Y-71120000D03*
D21*
X184785000Y-71120000D03*
D22*
X182245000Y-71120000D03*
D16*
X125095000Y-71120000D03*
D12*
X135255000Y-71120000D03*
D16*
X177165000Y-71120000D03*
D12*
X167005000Y-71120000D03*
D20*
X186055000Y-117530000D03*
X186055000Y-113030000D03*
X186055000Y-108530000D03*
X117475000Y-141025000D03*
X117475000Y-136525000D03*
X117475000Y-132025000D03*
X126365000Y-141025000D03*
X126365000Y-136525000D03*
X126365000Y-132025000D03*
X135255000Y-141025000D03*
X135255000Y-136525000D03*
X135255000Y-132025000D03*
X144145000Y-141025000D03*
X144145000Y-136525000D03*
X144145000Y-132025000D03*
X155575000Y-141025000D03*
X155575000Y-136525000D03*
X155575000Y-132025000D03*
X164465000Y-141025000D03*
X164465000Y-136525000D03*
X164465000Y-132025000D03*
X182245000Y-141025000D03*
X182245000Y-136525000D03*
X182245000Y-132025000D03*
X117475000Y-108330000D03*
X117475000Y-113030000D03*
X117475000Y-117730000D03*
D23*
X128270000Y-81280000D03*
X171450000Y-83185000D03*
X171450000Y-85725000D03*
X107950000Y-133985000D03*
X111125000Y-132715000D03*
X120015000Y-127000000D03*
X120015000Y-123190000D03*
X120015000Y-113030000D03*
X123190000Y-100330000D03*
X123825000Y-106680000D03*
X132080000Y-129540000D03*
X127000000Y-130175000D03*
X125095000Y-122555000D03*
X125095000Y-127000000D03*
X118745000Y-92710000D03*
X118745000Y-90170000D03*
X152400000Y-130175000D03*
X127635000Y-123190000D03*
X135890000Y-127000000D03*
X112395000Y-112395000D03*
X118745000Y-121920000D03*
X109855000Y-101600000D03*
X124460000Y-123190000D03*
X128270000Y-130175000D03*
X131445000Y-130175000D03*
X148590000Y-130810000D03*
X151765000Y-130810000D03*
X110490000Y-102235000D03*
X123190000Y-123190000D03*
X119380000Y-122555000D03*
X128270000Y-123825000D03*
X111760000Y-111760000D03*
X172085000Y-124460000D03*
X171450000Y-121285000D03*
X102870000Y-106680000D03*
X102870000Y-109220000D03*
X102870000Y-133350000D03*
X104775000Y-135255000D03*
X111760000Y-137160000D03*
X107950000Y-136525000D03*
X147320000Y-138430000D03*
X151765000Y-136525000D03*
X191135000Y-118745000D03*
X191135000Y-114935000D03*
X170815000Y-121920000D03*
X173355000Y-125095000D03*
X134620000Y-119380000D03*
X128270000Y-118745000D03*
X118110000Y-91440000D03*
X118110000Y-93345000D03*
X118110000Y-102870000D03*
X114935000Y-106680000D03*
X118745000Y-114935000D03*
X123825000Y-114935000D03*
X102235000Y-107315000D03*
X100965000Y-108585000D03*
X111125000Y-137795000D03*
X107950000Y-137795000D03*
X148590000Y-132080000D03*
X177800000Y-77470000D03*
X177165000Y-73025000D03*
X112395000Y-73660000D03*
X111760000Y-76200000D03*
X190500000Y-107950000D03*
X191770000Y-106680000D03*
X107950000Y-78105000D03*
X108585000Y-74930000D03*
X188595000Y-74930000D03*
X188595000Y-78740000D03*
X177165000Y-74930000D03*
X178435000Y-76200000D03*
X108585000Y-76200000D03*
X109855000Y-74930000D03*
X155575000Y-99060000D03*
X155575000Y-102870000D03*
X164465000Y-91440000D03*
X120015000Y-103505000D03*
X124460000Y-103505000D03*
X164465000Y-94615000D03*
X156210000Y-99695000D03*
X156210000Y-103505000D03*
X123825000Y-104140000D03*
X119380000Y-104140000D03*
X156845000Y-100330000D03*
X156845000Y-102870000D03*
X123190000Y-104775000D03*
X120015000Y-104775000D03*
X157480000Y-100965000D03*
X157480000Y-103505000D03*
X123825000Y-105410000D03*
X119380000Y-105410000D03*
X132080000Y-124460000D03*
X127635000Y-124460000D03*
X151765000Y-123825000D03*
X147955000Y-124460000D03*
X120650000Y-125095000D03*
X121285000Y-123825000D03*
X126365000Y-101600000D03*
X127635000Y-100330000D03*
X131445000Y-125095000D03*
X128270000Y-125095000D03*
X146050000Y-125095000D03*
X121920000Y-123190000D03*
X121285000Y-125730000D03*
X142875000Y-125730000D03*
X127635000Y-125730000D03*
X132080000Y-125730000D03*
X121920000Y-126365000D03*
X122555000Y-123825000D03*
X128270000Y-126365000D03*
X131445000Y-126365000D03*
X137795000Y-126365000D03*
X156210000Y-115570000D03*
X123190000Y-76200000D03*
X123825000Y-73660000D03*
X172085000Y-73660000D03*
X172085000Y-80010000D03*
X187960000Y-76200000D03*
X187325000Y-74295000D03*
X150495000Y-101600000D03*
X150495000Y-94615000D03*
X150495000Y-77470000D03*
X149225000Y-72390000D03*
X143510000Y-107315000D03*
X142875000Y-109220000D03*
X184150000Y-98425000D03*
X184150000Y-96520000D03*
X135890000Y-115570000D03*
X133985000Y-118745000D03*
X111125000Y-123190000D03*
X111125000Y-127000000D03*
X111125000Y-112395000D03*
X111125000Y-107950000D03*
X102870000Y-134620000D03*
X102235000Y-132715000D03*
X111125000Y-142240000D03*
X109855000Y-139065000D03*
X119380000Y-102870000D03*
X119380000Y-93980000D03*
X119380000Y-90805000D03*
X135890000Y-76200000D03*
X166370000Y-76200000D03*
X123190000Y-106045000D03*
X120015000Y-106045000D03*
X115570000Y-106045000D03*
X113030000Y-102870000D03*
X111760000Y-100965000D03*
D24*
X128270000Y-87630000D02*
X128270000Y-81280000D01*
X130175000Y-94615000D02*
X128905000Y-94615000D01*
X128270000Y-93980000D02*
X128270000Y-87630000D01*
X128905000Y-94615000D02*
X128270000Y-93980000D01*
X131445000Y-94615000D02*
X130175000Y-94615000D01*
X137160000Y-94615000D02*
X137795000Y-95250000D01*
X131445000Y-94615000D02*
X137160000Y-94615000D01*
X137795000Y-95250000D02*
X137795000Y-96520000D01*
X133985000Y-92075000D02*
X134620000Y-92710000D01*
X139700000Y-93980000D02*
X140335000Y-94615000D01*
X135255000Y-93980000D02*
X139700000Y-93980000D01*
X134620000Y-93345000D02*
X135255000Y-93980000D01*
X134620000Y-92710000D02*
X134620000Y-93345000D01*
X130810000Y-92075000D02*
X129540000Y-92075000D01*
X129540000Y-83185000D02*
X130810000Y-83185000D01*
X128905000Y-83820000D02*
X129540000Y-83185000D01*
X128905000Y-91440000D02*
X128905000Y-83820000D01*
X129540000Y-92075000D02*
X128905000Y-91440000D01*
X132715000Y-83185000D02*
X130810000Y-83185000D01*
X130810000Y-92075000D02*
X132080000Y-92075000D01*
X132715000Y-83185000D02*
X132080000Y-83185000D01*
X132080000Y-92075000D02*
X133985000Y-92075000D01*
X140335000Y-94615000D02*
X140335000Y-96520000D01*
X134620000Y-89535000D02*
X135255000Y-90170000D01*
X144780000Y-93345000D02*
X145415000Y-93980000D01*
X135890000Y-93345000D02*
X144780000Y-93345000D01*
X135255000Y-92710000D02*
X135890000Y-93345000D01*
X135255000Y-90170000D02*
X135255000Y-92710000D01*
X132715000Y-85725000D02*
X130810000Y-85725000D01*
X130810000Y-89535000D02*
X132080000Y-89535000D01*
X130175000Y-88900000D02*
X130810000Y-89535000D01*
X130175000Y-86360000D02*
X130175000Y-88900000D01*
X130810000Y-85725000D02*
X130175000Y-86360000D01*
X132715000Y-85725000D02*
X132080000Y-85725000D01*
X132080000Y-89535000D02*
X133985000Y-89535000D01*
X133985000Y-89535000D02*
X134620000Y-89535000D01*
X145415000Y-93980000D02*
X145415000Y-96520000D01*
X147955000Y-81280000D02*
X147955000Y-84455000D01*
X133985000Y-88265000D02*
X132715000Y-88265000D01*
X134620000Y-87630000D02*
X133985000Y-88265000D01*
X134620000Y-85725000D02*
X134620000Y-87630000D01*
X135255000Y-85090000D02*
X134620000Y-85725000D01*
X147320000Y-85090000D02*
X135255000Y-85090000D01*
X147955000Y-84455000D02*
X147320000Y-85090000D01*
X131445000Y-90805000D02*
X130175000Y-90805000D01*
X130175000Y-84455000D02*
X131445000Y-84455000D01*
X129540000Y-85090000D02*
X130175000Y-84455000D01*
X129540000Y-90170000D02*
X129540000Y-85090000D01*
X130175000Y-90805000D02*
X129540000Y-90170000D01*
X132715000Y-90805000D02*
X131445000Y-90805000D01*
X145415000Y-83820000D02*
X145415000Y-81280000D01*
X131445000Y-84455000D02*
X144780000Y-84455000D01*
X144780000Y-84455000D02*
X145415000Y-83820000D01*
X134620000Y-78740000D02*
X139700000Y-78740000D01*
X126365000Y-83185000D02*
X127000000Y-82550000D01*
X127000000Y-82550000D02*
X127000000Y-79375000D01*
X127000000Y-79375000D02*
X127635000Y-78740000D01*
X127635000Y-78740000D02*
X134620000Y-78740000D01*
X125095000Y-83185000D02*
X126365000Y-83185000D01*
X140335000Y-79375000D02*
X140335000Y-81280000D01*
X139700000Y-78740000D02*
X140335000Y-79375000D01*
X134620000Y-79375000D02*
X137160000Y-79375000D01*
X127000000Y-85725000D02*
X127635000Y-85090000D01*
X127635000Y-85090000D02*
X127635000Y-80010000D01*
X127635000Y-80010000D02*
X128270000Y-79375000D01*
X128270000Y-79375000D02*
X134620000Y-79375000D01*
X125095000Y-85725000D02*
X127000000Y-85725000D01*
X137795000Y-80010000D02*
X137795000Y-81280000D01*
X137160000Y-79375000D02*
X137795000Y-80010000D01*
X165735000Y-86995000D02*
X165100000Y-86360000D01*
X151765000Y-86995000D02*
X151765000Y-87630000D01*
X152400000Y-86360000D02*
X151765000Y-86995000D01*
X165100000Y-86360000D02*
X152400000Y-86360000D01*
X151765000Y-96520000D02*
X151765000Y-87630000D01*
X168910000Y-82550000D02*
X167005000Y-80645000D01*
X168910000Y-85725000D02*
X168910000Y-82550000D01*
X167640000Y-86995000D02*
X168910000Y-85725000D01*
X165735000Y-86995000D02*
X167640000Y-86995000D01*
X170180000Y-83185000D02*
X171450000Y-83185000D01*
X169545000Y-88900000D02*
X168910000Y-89535000D01*
X169545000Y-83820000D02*
X169545000Y-88900000D01*
X170180000Y-83185000D02*
X169545000Y-83820000D01*
X154305000Y-90170000D02*
X154305000Y-96520000D01*
X165735000Y-89535000D02*
X168275000Y-89535000D01*
X168910000Y-89535000D02*
X168275000Y-89535000D01*
X165100000Y-88900000D02*
X165100000Y-87630000D01*
X165100000Y-87630000D02*
X164465000Y-86995000D01*
X164465000Y-86995000D02*
X154940000Y-86995000D01*
X154940000Y-86995000D02*
X154305000Y-87630000D01*
X154305000Y-87630000D02*
X154305000Y-90170000D01*
X165735000Y-89535000D02*
X165100000Y-88900000D01*
X170815000Y-85725000D02*
X171450000Y-85725000D01*
X159385000Y-96520000D02*
X159385000Y-95250000D01*
X165735000Y-92075000D02*
X163195000Y-94615000D01*
X163195000Y-94615000D02*
X160020000Y-94615000D01*
X160020000Y-94615000D02*
X159385000Y-95250000D01*
X168275000Y-92075000D02*
X169545000Y-92075000D01*
X170180000Y-86360000D02*
X170815000Y-85725000D01*
X170180000Y-91440000D02*
X170180000Y-86360000D01*
X169545000Y-92075000D02*
X170180000Y-91440000D01*
X168275000Y-92075000D02*
X165735000Y-92075000D01*
X161925000Y-81280000D02*
X162560000Y-81280000D01*
X162560000Y-81280000D02*
X163195000Y-80645000D01*
X163195000Y-80645000D02*
X163195000Y-78740000D01*
X163195000Y-78740000D02*
X163830000Y-78105000D01*
X174625000Y-88265000D02*
X173990000Y-88265000D01*
X173990000Y-88265000D02*
X173355000Y-87630000D01*
X173355000Y-87630000D02*
X173355000Y-78740000D01*
X173355000Y-78740000D02*
X172720000Y-78105000D01*
X172720000Y-78105000D02*
X163830000Y-78105000D01*
X163830000Y-81915000D02*
X163830000Y-82550000D01*
X160020000Y-83185000D02*
X159385000Y-82550000D01*
X163195000Y-83185000D02*
X160020000Y-83185000D01*
X163830000Y-82550000D02*
X163195000Y-83185000D01*
X165100000Y-78740000D02*
X164465000Y-78740000D01*
X172720000Y-79375000D02*
X172085000Y-78740000D01*
X172085000Y-78740000D02*
X165100000Y-78740000D01*
X173990000Y-90805000D02*
X172720000Y-89535000D01*
X172720000Y-89535000D02*
X172720000Y-84455000D01*
X172720000Y-84455000D02*
X172720000Y-79375000D01*
X159385000Y-82550000D02*
X159385000Y-81280000D01*
X163830000Y-79375000D02*
X163830000Y-81915000D01*
X164465000Y-78740000D02*
X163830000Y-79375000D01*
X174625000Y-90805000D02*
X173990000Y-90805000D01*
X154305000Y-81280000D02*
X154305000Y-84455000D01*
X165100000Y-85090000D02*
X167005000Y-83185000D01*
X154940000Y-85090000D02*
X165100000Y-85090000D01*
X154305000Y-84455000D02*
X154940000Y-85090000D01*
X151765000Y-81280000D02*
X151765000Y-85090000D01*
X152400000Y-85725000D02*
X167005000Y-85725000D01*
X151765000Y-85090000D02*
X152400000Y-85725000D01*
X114935000Y-130175000D02*
X111760000Y-130175000D01*
X111125000Y-130810000D02*
X111125000Y-132715000D01*
X111760000Y-130175000D02*
X111125000Y-130810000D01*
X117475000Y-113030000D02*
X120015000Y-113030000D01*
X120015000Y-129540000D02*
X120015000Y-127000000D01*
X119380000Y-130175000D02*
X120015000Y-129540000D01*
X120015000Y-123190000D02*
X120015000Y-113030000D01*
X115570000Y-130175000D02*
X119380000Y-130175000D01*
X114935000Y-130175000D02*
X115570000Y-130175000D01*
X117475000Y-113030000D02*
X116840000Y-113030000D01*
X114300000Y-141025000D02*
X114300000Y-140970000D01*
X114300000Y-140970000D02*
X114300000Y-141025000D01*
X194310000Y-117530000D02*
X186055000Y-117530000D01*
X132025000Y-108530000D02*
X143455000Y-108530000D01*
X143455000Y-108530000D02*
X144780000Y-109855000D01*
X194310000Y-117530000D02*
X196270000Y-117530000D01*
X191770000Y-136525000D02*
X193040000Y-136525000D01*
X190500000Y-137795000D02*
X191770000Y-136525000D01*
X190500000Y-139700000D02*
X190500000Y-137795000D01*
X189175000Y-141025000D02*
X190500000Y-139700000D01*
X182245000Y-141025000D02*
X189175000Y-141025000D01*
X197485000Y-118745000D02*
X197485000Y-135255000D01*
X197485000Y-135255000D02*
X196215000Y-136525000D01*
X196215000Y-136525000D02*
X193040000Y-136525000D01*
X196270000Y-117530000D02*
X197485000Y-118745000D01*
X178435000Y-106045000D02*
X179070000Y-106045000D01*
X179070000Y-106045000D02*
X180975000Y-107950000D01*
X180975000Y-116205000D02*
X182300000Y-117530000D01*
X180975000Y-107950000D02*
X180975000Y-116205000D01*
X125730000Y-108530000D02*
X132025000Y-108530000D01*
X132025000Y-108530000D02*
X133350000Y-109855000D01*
X174625000Y-106045000D02*
X178435000Y-106045000D01*
X174625000Y-118745000D02*
X177165000Y-118745000D01*
X178380000Y-117530000D02*
X182300000Y-117530000D01*
X182300000Y-117530000D02*
X186055000Y-117530000D01*
X177165000Y-118745000D02*
X178380000Y-117530000D01*
X174625000Y-76835000D02*
X174625000Y-80645000D01*
X189865000Y-76835000D02*
X189865000Y-80645000D01*
X186055000Y-76835000D02*
X186055000Y-80645000D01*
X133350000Y-109855000D02*
X133350000Y-113665000D01*
X105410000Y-133985000D02*
X107950000Y-133985000D01*
X107950000Y-133985000D02*
X109220000Y-135255000D01*
X110545000Y-141025000D02*
X114300000Y-141025000D01*
X109220000Y-139700000D02*
X110545000Y-141025000D01*
X109220000Y-135255000D02*
X109220000Y-139700000D01*
X114300000Y-141025000D02*
X117475000Y-141025000D01*
X173355000Y-141025000D02*
X182245000Y-141025000D01*
X164465000Y-141025000D02*
X173355000Y-141025000D01*
X155575000Y-141025000D02*
X164465000Y-141025000D01*
X144145000Y-141025000D02*
X155575000Y-141025000D01*
X135255000Y-141025000D02*
X144145000Y-141025000D01*
X126365000Y-141025000D02*
X135255000Y-141025000D01*
X117475000Y-141025000D02*
X126365000Y-141025000D01*
X101600000Y-80010000D02*
X106045000Y-75565000D01*
X186055000Y-75565000D02*
X186055000Y-76835000D01*
X174625000Y-76835000D02*
X174625000Y-75565000D01*
X132715000Y-75565000D02*
X132715000Y-76835000D01*
X121285000Y-75565000D02*
X122555000Y-75565000D01*
X105410000Y-133985000D02*
X102235000Y-133985000D01*
X101600000Y-133350000D02*
X101600000Y-80010000D01*
X102235000Y-133985000D02*
X101600000Y-133350000D01*
X121285000Y-75565000D02*
X121285000Y-76835000D01*
X106045000Y-75565000D02*
X121285000Y-75565000D01*
X133985000Y-75565000D02*
X132715000Y-75565000D01*
X174625000Y-75565000D02*
X133985000Y-75565000D01*
X132715000Y-75565000D02*
X122555000Y-75565000D01*
X175895000Y-75565000D02*
X174625000Y-75565000D01*
X175895000Y-75565000D02*
X184785000Y-75565000D01*
X184785000Y-75565000D02*
X186055000Y-75565000D01*
X186055000Y-75565000D02*
X188595000Y-75565000D01*
X188595000Y-75565000D02*
X189865000Y-76835000D01*
X104775000Y-132080000D02*
X104775000Y-133350000D01*
X104775000Y-133350000D02*
X105410000Y-133985000D01*
X124460000Y-127635000D02*
X125095000Y-127000000D01*
X121285000Y-93345000D02*
X122555000Y-94615000D01*
X123190000Y-100330000D02*
X123190000Y-97155000D01*
X123190000Y-107315000D02*
X123825000Y-106680000D01*
X123190000Y-97155000D02*
X123190000Y-96520000D01*
X123190000Y-95250000D02*
X122555000Y-94615000D01*
X123190000Y-96520000D02*
X123190000Y-95250000D01*
X144780000Y-128270000D02*
X143510000Y-129540000D01*
X143510000Y-129540000D02*
X132080000Y-129540000D01*
X127000000Y-130175000D02*
X125095000Y-130175000D01*
X125095000Y-130175000D02*
X124460000Y-129540000D01*
X124460000Y-129540000D02*
X124460000Y-127635000D01*
X144780000Y-128270000D02*
X147320000Y-128270000D01*
X123190000Y-107315000D02*
X123190000Y-118745000D01*
X123190000Y-120650000D02*
X123190000Y-118745000D01*
X123825000Y-121285000D02*
X123190000Y-120650000D01*
X125095000Y-122555000D02*
X123825000Y-121285000D01*
X118745000Y-92710000D02*
X119380000Y-93345000D01*
X119380000Y-93345000D02*
X121285000Y-93345000D01*
X113665000Y-88265000D02*
X118110000Y-88265000D01*
X118745000Y-88900000D02*
X118745000Y-90170000D01*
X118110000Y-88265000D02*
X118745000Y-88900000D01*
X169545000Y-123190000D02*
X170815000Y-123190000D01*
X157480000Y-128905000D02*
X157480000Y-125730000D01*
X153035000Y-129540000D02*
X156845000Y-129540000D01*
X156845000Y-129540000D02*
X157480000Y-128905000D01*
X152400000Y-130175000D02*
X153035000Y-129540000D01*
X160020000Y-123190000D02*
X160655000Y-123190000D01*
X157480000Y-125730000D02*
X160020000Y-123190000D01*
X160655000Y-123190000D02*
X169545000Y-123190000D01*
X172720000Y-113665000D02*
X174625000Y-113665000D01*
X172085000Y-114300000D02*
X172720000Y-113665000D01*
X172085000Y-121920000D02*
X172085000Y-114300000D01*
X170815000Y-123190000D02*
X172085000Y-121920000D01*
X127635000Y-123190000D02*
X124460000Y-123190000D01*
X139065000Y-127000000D02*
X135890000Y-127000000D01*
X139700000Y-127635000D02*
X139065000Y-127000000D01*
X112395000Y-113030000D02*
X112395000Y-112395000D01*
X117475000Y-123190000D02*
X113030000Y-123190000D01*
X113030000Y-123190000D02*
X112395000Y-122555000D01*
X112395000Y-122555000D02*
X112395000Y-113030000D01*
X118745000Y-121920000D02*
X117475000Y-123190000D01*
X139700000Y-127635000D02*
X139700000Y-128270000D01*
X109855000Y-101600000D02*
X109855000Y-101600000D01*
X108585000Y-99060000D02*
X107315000Y-99060000D01*
X109855000Y-101600000D02*
X109220000Y-100965000D01*
X109220000Y-100965000D02*
X109220000Y-99695000D01*
X109220000Y-99695000D02*
X108585000Y-99060000D01*
X153670000Y-130175000D02*
X157480000Y-130175000D01*
X158115000Y-129540000D02*
X158115000Y-126365000D01*
X157480000Y-130175000D02*
X158115000Y-129540000D01*
X153670000Y-130175000D02*
X153035000Y-130810000D01*
X158115000Y-126365000D02*
X160655000Y-123825000D01*
X174625000Y-116205000D02*
X173355000Y-116205000D01*
X172720000Y-116840000D02*
X173355000Y-116205000D01*
X172720000Y-122555000D02*
X172720000Y-116840000D01*
X171450000Y-123825000D02*
X172720000Y-122555000D01*
X160655000Y-123825000D02*
X171450000Y-123825000D01*
X147320000Y-130810000D02*
X148590000Y-130810000D01*
X131445000Y-130175000D02*
X146685000Y-130175000D01*
X128270000Y-130175000D02*
X127000000Y-128905000D01*
X146685000Y-130175000D02*
X147320000Y-130810000D01*
X153035000Y-130810000D02*
X151765000Y-130810000D01*
X127000000Y-128270000D02*
X127000000Y-128905000D01*
X174625000Y-116205000D02*
X177165000Y-116205000D01*
X177165000Y-116205000D02*
X178435000Y-114935000D01*
X178435000Y-114935000D02*
X178435000Y-113665000D01*
X110490000Y-102235000D02*
X110490000Y-100965000D01*
X119380000Y-122555000D02*
X118110000Y-123825000D01*
X123825000Y-123825000D02*
X123190000Y-123190000D01*
X128270000Y-123825000D02*
X124460000Y-123825000D01*
X124460000Y-123825000D02*
X123825000Y-123825000D01*
X111760000Y-123190000D02*
X111760000Y-111760000D01*
X112395000Y-123825000D02*
X111760000Y-123190000D01*
X118110000Y-123825000D02*
X112395000Y-123825000D01*
X109220000Y-96520000D02*
X107315000Y-96520000D01*
X109855000Y-97155000D02*
X109220000Y-96520000D01*
X109855000Y-100330000D02*
X109855000Y-97155000D01*
X110490000Y-100965000D02*
X109855000Y-100330000D01*
X172085000Y-111760000D02*
X171450000Y-112395000D01*
X172720000Y-125095000D02*
X172085000Y-124460000D01*
X172085000Y-111760000D02*
X172720000Y-111125000D01*
X174625000Y-111125000D02*
X172720000Y-111125000D01*
X172720000Y-125095000D02*
X172720000Y-128270000D01*
X171450000Y-112395000D02*
X171450000Y-121285000D01*
X165100000Y-128270000D02*
X163830000Y-128270000D01*
X113665000Y-137160000D02*
X114935000Y-138430000D01*
X114935000Y-138430000D02*
X140970000Y-138430000D01*
X104775000Y-135255000D02*
X106680000Y-135255000D01*
X102870000Y-109220000D02*
X102870000Y-133350000D01*
X103505000Y-92710000D02*
X106045000Y-92710000D01*
X102870000Y-93345000D02*
X103505000Y-92710000D01*
X106045000Y-92710000D02*
X107315000Y-91440000D01*
X102870000Y-93345000D02*
X102870000Y-106680000D01*
X106680000Y-135255000D02*
X107950000Y-136525000D01*
X111760000Y-137160000D02*
X113665000Y-137160000D01*
X147320000Y-138430000D02*
X140970000Y-138430000D01*
X153670000Y-134620000D02*
X151765000Y-136525000D01*
X160655000Y-134620000D02*
X153670000Y-134620000D01*
X161290000Y-133985000D02*
X160655000Y-134620000D01*
X161290000Y-130810000D02*
X161290000Y-133985000D01*
X163830000Y-128270000D02*
X161290000Y-130810000D01*
X160020000Y-128270000D02*
X160020000Y-126365000D01*
X170815000Y-129540000D02*
X171450000Y-130175000D01*
X170815000Y-125095000D02*
X170815000Y-129540000D01*
X170180000Y-124460000D02*
X170815000Y-125095000D01*
X161925000Y-124460000D02*
X170180000Y-124460000D01*
X160020000Y-126365000D02*
X161925000Y-124460000D01*
X191135000Y-127000000D02*
X191135000Y-118745000D01*
X191135000Y-102870000D02*
X191135000Y-114935000D01*
X189865000Y-128270000D02*
X185420000Y-128270000D01*
X189865000Y-128270000D02*
X191135000Y-127000000D01*
X190500000Y-102235000D02*
X191135000Y-102870000D01*
X187325000Y-99695000D02*
X187325000Y-101600000D01*
X187960000Y-102235000D02*
X190500000Y-102235000D01*
X187325000Y-101600000D02*
X187960000Y-102235000D01*
X191135000Y-102870000D02*
X191135000Y-102235000D01*
X191135000Y-102235000D02*
X191135000Y-90170000D01*
X187325000Y-89535000D02*
X186055000Y-90805000D01*
X190500000Y-89535000D02*
X187325000Y-89535000D01*
X191135000Y-90170000D02*
X190500000Y-89535000D01*
X178435000Y-88265000D02*
X178435000Y-90805000D01*
X186055000Y-90805000D02*
X178435000Y-90805000D01*
X171450000Y-130175000D02*
X183515000Y-130175000D01*
X183515000Y-130175000D02*
X185420000Y-128270000D01*
X163195000Y-118745000D02*
X164465000Y-117475000D01*
X170815000Y-118110000D02*
X170815000Y-120650000D01*
X170180000Y-117475000D02*
X170815000Y-118110000D01*
X164465000Y-117475000D02*
X170180000Y-117475000D01*
X156845000Y-118745000D02*
X163195000Y-118745000D01*
X134620000Y-119380000D02*
X135255000Y-118745000D01*
X135255000Y-118745000D02*
X156845000Y-118745000D01*
X123825000Y-114935000D02*
X127000000Y-114935000D01*
X177800000Y-126365000D02*
X177800000Y-128270000D01*
X170815000Y-120650000D02*
X170815000Y-121920000D01*
X173355000Y-125095000D02*
X176530000Y-125095000D01*
X176530000Y-125095000D02*
X177800000Y-126365000D01*
X128270000Y-116205000D02*
X128270000Y-118745000D01*
X127000000Y-114935000D02*
X128270000Y-116205000D01*
X113665000Y-90805000D02*
X117475000Y-90805000D01*
X117475000Y-90805000D02*
X118110000Y-91440000D01*
X118110000Y-93345000D02*
X118745000Y-93980000D01*
X118745000Y-93980000D02*
X118745000Y-95885000D01*
X118745000Y-95885000D02*
X119380000Y-96520000D01*
X119380000Y-96520000D02*
X119380000Y-101600000D01*
X119380000Y-101600000D02*
X118110000Y-102870000D01*
X114935000Y-106680000D02*
X114300000Y-107315000D01*
X114300000Y-107315000D02*
X114300000Y-114300000D01*
X114300000Y-114300000D02*
X114935000Y-114935000D01*
X114935000Y-114935000D02*
X118745000Y-114935000D01*
X125730000Y-113030000D02*
X123825000Y-114935000D01*
X121285000Y-90805000D02*
X120650000Y-90805000D01*
X120650000Y-90805000D02*
X120015000Y-91440000D01*
X120015000Y-91440000D02*
X118110000Y-91440000D01*
X140970000Y-139065000D02*
X147955000Y-139065000D01*
X113030000Y-137795000D02*
X114300000Y-139065000D01*
X114300000Y-139065000D02*
X140970000Y-139065000D01*
X102235000Y-135255000D02*
X103505000Y-135255000D01*
X100965000Y-108585000D02*
X100965000Y-133985000D01*
X100965000Y-133985000D02*
X102235000Y-135255000D01*
X107315000Y-88900000D02*
X106045000Y-90170000D01*
X102870000Y-90170000D02*
X102235000Y-90805000D01*
X106045000Y-90170000D02*
X102870000Y-90170000D01*
X102235000Y-90805000D02*
X102235000Y-107315000D01*
X106045000Y-135890000D02*
X107950000Y-137795000D01*
X104140000Y-135890000D02*
X106045000Y-135890000D01*
X103505000Y-135255000D02*
X104140000Y-135890000D01*
X111125000Y-137795000D02*
X113030000Y-137795000D01*
X148590000Y-138430000D02*
X148590000Y-132080000D01*
X147955000Y-139065000D02*
X148590000Y-138430000D01*
X107315000Y-93980000D02*
X109855000Y-93980000D01*
X176530000Y-86360000D02*
X177165000Y-86995000D01*
X176530000Y-78740000D02*
X176530000Y-86360000D01*
X177800000Y-77470000D02*
X176530000Y-78740000D01*
X123190000Y-73025000D02*
X177165000Y-73025000D01*
X122555000Y-73660000D02*
X123190000Y-73025000D01*
X112395000Y-73660000D02*
X122555000Y-73660000D01*
X111760000Y-92075000D02*
X111760000Y-76200000D01*
X109855000Y-93980000D02*
X111760000Y-92075000D01*
X186055000Y-88265000D02*
X180975000Y-88265000D01*
X179705000Y-86995000D02*
X177165000Y-86995000D01*
X180975000Y-88265000D02*
X179705000Y-86995000D01*
X189230000Y-86995000D02*
X188595000Y-86360000D01*
X189920000Y-108530000D02*
X190500000Y-107950000D01*
X191770000Y-106680000D02*
X191770000Y-88265000D01*
X191770000Y-88265000D02*
X191135000Y-87630000D01*
X191135000Y-87630000D02*
X190500000Y-86995000D01*
X190500000Y-86995000D02*
X189230000Y-86995000D01*
X186055000Y-108530000D02*
X189920000Y-108530000D01*
X107315000Y-78740000D02*
X107315000Y-83820000D01*
X107950000Y-78105000D02*
X107315000Y-78740000D01*
X109220000Y-74295000D02*
X108585000Y-74930000D01*
X177800000Y-74295000D02*
X109220000Y-74295000D01*
X178435000Y-74930000D02*
X177800000Y-74295000D01*
X188595000Y-74930000D02*
X178435000Y-74930000D01*
X188595000Y-86360000D02*
X188595000Y-78740000D01*
X178435000Y-80645000D02*
X178435000Y-76200000D01*
X109855000Y-74930000D02*
X177165000Y-74930000D01*
X106045000Y-85090000D02*
X106045000Y-78740000D01*
X106045000Y-85090000D02*
X107315000Y-86360000D01*
X108585000Y-76200000D02*
X106045000Y-78740000D01*
X178435000Y-85725000D02*
X178435000Y-83185000D01*
X178435000Y-80645000D02*
X178435000Y-83185000D01*
X178435000Y-83185000D02*
X186055000Y-83185000D01*
X138430000Y-113665000D02*
X138430000Y-113030000D01*
X138430000Y-113030000D02*
X140335000Y-111125000D01*
X140335000Y-111125000D02*
X141605000Y-111125000D01*
X156210000Y-111125000D02*
X156845000Y-110490000D01*
X141605000Y-111125000D02*
X156210000Y-111125000D01*
X155575000Y-107950000D02*
X155575000Y-102870000D01*
X156845000Y-109220000D02*
X155575000Y-107950000D01*
X156845000Y-110490000D02*
X156845000Y-109220000D01*
X164465000Y-98425000D02*
X164465000Y-94615000D01*
X163830000Y-99060000D02*
X164465000Y-98425000D01*
X164465000Y-91440000D02*
X165100000Y-90805000D01*
X167005000Y-90805000D02*
X165100000Y-90805000D01*
X128270000Y-103505000D02*
X128905000Y-102870000D01*
X111760000Y-104775000D02*
X113030000Y-103505000D01*
X113030000Y-103505000D02*
X120015000Y-103505000D01*
X124460000Y-103505000D02*
X128270000Y-103505000D01*
X108585000Y-109220000D02*
X111125000Y-109220000D01*
X111125000Y-109220000D02*
X111760000Y-108585000D01*
X111760000Y-108585000D02*
X111760000Y-107315000D01*
X108585000Y-109220000D02*
X107315000Y-109220000D01*
X111760000Y-107315000D02*
X111760000Y-104775000D01*
X149860000Y-99060000D02*
X155575000Y-99060000D01*
X155575000Y-99060000D02*
X161925000Y-99060000D01*
X149225000Y-98425000D02*
X149860000Y-99060000D01*
X135890000Y-98425000D02*
X149225000Y-98425000D01*
X135255000Y-99060000D02*
X135890000Y-98425000D01*
X135255000Y-100330000D02*
X135255000Y-99060000D01*
X134620000Y-100965000D02*
X135255000Y-100330000D01*
X131445000Y-100965000D02*
X134620000Y-100965000D01*
X130810000Y-101600000D02*
X131445000Y-100965000D01*
X130810000Y-102235000D02*
X130810000Y-101600000D01*
X130175000Y-102870000D02*
X130810000Y-102235000D01*
X128905000Y-102870000D02*
X130175000Y-102870000D01*
X161925000Y-99060000D02*
X163830000Y-99060000D01*
X112395000Y-107315000D02*
X112395000Y-105410000D01*
X156845000Y-111760000D02*
X157480000Y-111125000D01*
X143510000Y-112210002D02*
X143960002Y-111760000D01*
X143960002Y-111760000D02*
X156845000Y-111760000D01*
X143510000Y-113665000D02*
X143510000Y-112210002D01*
X156210000Y-107315000D02*
X156210000Y-103505000D01*
X157480000Y-108585000D02*
X156210000Y-107315000D01*
X157480000Y-111125000D02*
X157480000Y-108585000D01*
X167005000Y-93345000D02*
X165735000Y-93345000D01*
X128905000Y-104140000D02*
X129540000Y-103505000D01*
X129540000Y-103505000D02*
X130810000Y-103505000D01*
X130810000Y-103505000D02*
X131445000Y-102870000D01*
X131445000Y-102870000D02*
X131445000Y-102235000D01*
X131445000Y-102235000D02*
X132080000Y-101600000D01*
X132080000Y-101600000D02*
X135255000Y-101600000D01*
X135255000Y-101600000D02*
X135890000Y-100965000D01*
X135890000Y-100965000D02*
X135890000Y-99695000D01*
X135890000Y-99695000D02*
X136525000Y-99060000D01*
X136525000Y-99060000D02*
X148590000Y-99060000D01*
X148590000Y-99060000D02*
X149225000Y-99695000D01*
X149225000Y-99695000D02*
X156210000Y-99695000D01*
X156210000Y-99695000D02*
X161925000Y-99695000D01*
X108585000Y-111760000D02*
X109220000Y-111125000D01*
X109220000Y-111125000D02*
X109220000Y-110490000D01*
X109220000Y-110490000D02*
X109855000Y-109855000D01*
X109855000Y-109855000D02*
X111760000Y-109855000D01*
X111760000Y-109855000D02*
X112395000Y-109220000D01*
X112395000Y-109220000D02*
X112395000Y-107315000D01*
X108585000Y-111760000D02*
X107315000Y-111760000D01*
X123825000Y-104140000D02*
X127000000Y-104140000D01*
X113665000Y-104140000D02*
X119380000Y-104140000D01*
X112395000Y-105410000D02*
X113665000Y-104140000D01*
X127000000Y-104140000D02*
X128905000Y-104140000D01*
X164465000Y-99695000D02*
X161925000Y-99695000D01*
X165100000Y-99060000D02*
X164465000Y-99695000D01*
X165100000Y-93980000D02*
X165100000Y-99060000D01*
X165735000Y-93345000D02*
X165100000Y-93980000D01*
X157480000Y-112395000D02*
X158115000Y-111760000D01*
X149225000Y-112395000D02*
X157480000Y-112395000D01*
X148590000Y-113030000D02*
X149225000Y-112395000D01*
X156845000Y-106680000D02*
X156845000Y-102870000D01*
X158115000Y-107950000D02*
X156845000Y-106680000D01*
X158115000Y-111760000D02*
X158115000Y-107950000D01*
X148590000Y-113665000D02*
X148590000Y-113030000D01*
X161925000Y-100330000D02*
X173990000Y-100330000D01*
X148590000Y-100330000D02*
X156845000Y-100330000D01*
X156845000Y-100330000D02*
X161925000Y-100330000D01*
X132715000Y-102235000D02*
X135890000Y-102235000D01*
X129540000Y-104775000D02*
X130175000Y-104140000D01*
X130175000Y-104140000D02*
X131445000Y-104140000D01*
X131445000Y-104140000D02*
X132080000Y-103505000D01*
X132080000Y-103505000D02*
X132080000Y-102870000D01*
X132080000Y-102870000D02*
X132715000Y-102235000D01*
X113030000Y-107315000D02*
X113030000Y-106045000D01*
X108585000Y-114300000D02*
X109220000Y-113665000D01*
X109220000Y-113665000D02*
X109220000Y-112395000D01*
X109220000Y-112395000D02*
X109855000Y-111760000D01*
X109855000Y-111760000D02*
X109855000Y-111125000D01*
X109855000Y-111125000D02*
X110490000Y-110490000D01*
X110490000Y-110490000D02*
X112395000Y-110490000D01*
X112395000Y-110490000D02*
X113030000Y-109855000D01*
X113030000Y-109855000D02*
X113030000Y-107315000D01*
X107315000Y-114300000D02*
X108585000Y-114300000D01*
X123190000Y-104775000D02*
X126365000Y-104775000D01*
X114300000Y-104775000D02*
X120015000Y-104775000D01*
X113030000Y-106045000D02*
X114300000Y-104775000D01*
X126365000Y-104775000D02*
X129540000Y-104775000D01*
X137160000Y-99695000D02*
X147955000Y-99695000D01*
X136525000Y-100330000D02*
X137160000Y-99695000D01*
X136525000Y-101600000D02*
X136525000Y-100330000D01*
X135890000Y-102235000D02*
X136525000Y-101600000D01*
X147955000Y-99695000D02*
X148590000Y-100330000D01*
X174625000Y-99695000D02*
X174625000Y-98425000D01*
X173990000Y-100330000D02*
X174625000Y-99695000D01*
X158750000Y-112395000D02*
X158750000Y-107315000D01*
X158750000Y-107315000D02*
X157480000Y-106045000D01*
X154940000Y-114935000D02*
X157480000Y-114935000D01*
X153670000Y-113665000D02*
X154940000Y-114935000D01*
X158115000Y-113030000D02*
X158115000Y-114300000D01*
X158115000Y-114300000D02*
X157480000Y-114935000D01*
X158750000Y-112395000D02*
X158115000Y-113030000D01*
X157480000Y-103505000D02*
X157480000Y-106045000D01*
X174625000Y-95885000D02*
X175895000Y-97155000D01*
X147320000Y-100330000D02*
X147955000Y-100965000D01*
X147955000Y-100965000D02*
X157480000Y-100965000D01*
X157480000Y-100965000D02*
X161925000Y-100965000D01*
X133350000Y-102870000D02*
X135890000Y-102870000D01*
X130175000Y-105410000D02*
X130810000Y-104775000D01*
X130810000Y-104775000D02*
X132080000Y-104775000D01*
X132080000Y-104775000D02*
X132715000Y-104140000D01*
X132715000Y-104140000D02*
X132715000Y-103505000D01*
X132715000Y-103505000D02*
X133350000Y-102870000D01*
X113665000Y-107315000D02*
X113665000Y-106680000D01*
X108585000Y-116840000D02*
X109220000Y-116205000D01*
X109220000Y-116205000D02*
X109220000Y-114935000D01*
X109220000Y-114935000D02*
X109855000Y-114300000D01*
X109855000Y-114300000D02*
X109855000Y-113030000D01*
X109855000Y-113030000D02*
X110490000Y-112395000D01*
X110490000Y-112395000D02*
X110490000Y-111760000D01*
X110490000Y-111760000D02*
X111125000Y-111125000D01*
X111125000Y-111125000D02*
X113030000Y-111125000D01*
X113030000Y-111125000D02*
X113665000Y-110490000D01*
X113665000Y-110490000D02*
X113665000Y-107315000D01*
X108585000Y-116840000D02*
X107315000Y-116840000D01*
X114935000Y-105410000D02*
X119380000Y-105410000D01*
X113665000Y-106680000D02*
X114935000Y-105410000D01*
X123825000Y-105410000D02*
X130175000Y-105410000D01*
X137795000Y-100330000D02*
X146685000Y-100330000D01*
X137160000Y-100965000D02*
X137795000Y-100330000D01*
X137160000Y-102235000D02*
X137160000Y-100965000D01*
X136525000Y-102870000D02*
X137160000Y-102235000D01*
X135890000Y-102870000D02*
X136525000Y-102870000D01*
X146685000Y-100330000D02*
X147320000Y-100330000D01*
X175260000Y-100965000D02*
X161925000Y-100965000D01*
X175895000Y-100330000D02*
X175260000Y-100965000D01*
X175895000Y-97155000D02*
X175895000Y-100330000D01*
X125095000Y-90805000D02*
X127000000Y-90805000D01*
X120650000Y-102235000D02*
X121920000Y-100965000D01*
X121920000Y-100965000D02*
X125095000Y-100965000D01*
X120650000Y-123825000D02*
X120015000Y-124460000D01*
X120650000Y-123825000D02*
X120650000Y-113665000D01*
X120650000Y-113665000D02*
X120650000Y-102235000D01*
X128270000Y-100965000D02*
X125095000Y-100965000D01*
X128905000Y-100330000D02*
X128270000Y-100965000D01*
X128905000Y-95885000D02*
X128905000Y-100330000D01*
X127635000Y-94615000D02*
X128905000Y-95885000D01*
X127635000Y-91440000D02*
X127635000Y-94615000D01*
X127000000Y-90805000D02*
X127635000Y-91440000D01*
X107315000Y-119380000D02*
X108585000Y-119380000D01*
X153035000Y-122555000D02*
X153670000Y-121920000D01*
X153035000Y-122555000D02*
X152400000Y-122555000D01*
X152400000Y-122555000D02*
X151765000Y-123190000D01*
X151765000Y-123190000D02*
X151765000Y-123825000D01*
X147955000Y-124460000D02*
X132080000Y-124460000D01*
X111125000Y-124460000D02*
X120015000Y-124460000D01*
X120015000Y-124460000D02*
X127635000Y-124460000D01*
X109855000Y-123190000D02*
X111125000Y-124460000D01*
X109855000Y-120650000D02*
X109855000Y-123190000D01*
X108585000Y-119380000D02*
X109855000Y-120650000D01*
X153670000Y-121285000D02*
X153670000Y-121920000D01*
X125095000Y-93345000D02*
X126365000Y-93345000D01*
X121285000Y-102870000D02*
X122555000Y-101600000D01*
X121285000Y-123825000D02*
X121285000Y-102870000D01*
X126365000Y-101600000D02*
X122555000Y-101600000D01*
X128270000Y-99695000D02*
X127635000Y-100330000D01*
X128270000Y-96520000D02*
X128270000Y-99695000D01*
X127000000Y-95250000D02*
X128270000Y-96520000D01*
X127000000Y-93980000D02*
X127000000Y-95250000D01*
X126365000Y-93345000D02*
X127000000Y-93980000D01*
X125095000Y-125095000D02*
X120650000Y-125095000D01*
X120650000Y-125095000D02*
X120015000Y-125095000D01*
X120015000Y-125095000D02*
X110490000Y-125095000D01*
X128270000Y-125095000D02*
X125095000Y-125095000D01*
X146050000Y-125095000D02*
X131445000Y-125095000D01*
X108585000Y-121920000D02*
X107315000Y-121920000D01*
X109220000Y-122555000D02*
X108585000Y-121920000D01*
X109220000Y-123825000D02*
X109220000Y-122555000D01*
X110490000Y-125095000D02*
X109220000Y-123825000D01*
X121920000Y-103505000D02*
X123190000Y-102235000D01*
X121920000Y-103505000D02*
X121920000Y-123190000D01*
X130175000Y-98425000D02*
X132715000Y-98425000D01*
X129540000Y-99060000D02*
X130175000Y-98425000D01*
X129540000Y-100965000D02*
X129540000Y-99060000D01*
X128905000Y-101600000D02*
X129540000Y-100965000D01*
X127635000Y-101600000D02*
X128905000Y-101600000D01*
X127000000Y-102235000D02*
X127635000Y-101600000D01*
X123190000Y-102235000D02*
X127000000Y-102235000D01*
X142875000Y-125730000D02*
X132080000Y-125730000D01*
X109220000Y-125095000D02*
X108585000Y-124460000D01*
X109855000Y-125730000D02*
X109220000Y-125095000D01*
X127635000Y-125730000D02*
X121285000Y-125730000D01*
X121285000Y-125730000D02*
X109855000Y-125730000D01*
X108585000Y-124460000D02*
X107315000Y-124460000D01*
X132715000Y-95885000D02*
X133350000Y-95885000D01*
X133350000Y-95885000D02*
X134620000Y-97155000D01*
X134620000Y-97155000D02*
X134620000Y-99695000D01*
X134620000Y-99695000D02*
X133985000Y-100330000D01*
X133985000Y-100330000D02*
X130810000Y-100330000D01*
X130810000Y-100330000D02*
X130175000Y-100965000D01*
X130175000Y-100965000D02*
X130175000Y-101600000D01*
X130175000Y-101600000D02*
X129540000Y-102235000D01*
X129540000Y-102235000D02*
X128270000Y-102235000D01*
X128270000Y-102235000D02*
X127635000Y-102870000D01*
X127635000Y-102870000D02*
X123825000Y-102870000D01*
X123825000Y-102870000D02*
X123190000Y-103505000D01*
X122555000Y-104140000D02*
X123190000Y-103505000D01*
X122555000Y-104140000D02*
X122555000Y-123825000D01*
X128270000Y-126365000D02*
X121920000Y-126365000D01*
X121920000Y-126365000D02*
X109855000Y-126365000D01*
X137795000Y-126365000D02*
X131445000Y-126365000D01*
X107315000Y-127000000D02*
X109220000Y-127000000D01*
X109855000Y-126365000D02*
X109220000Y-127000000D01*
X149225000Y-133985000D02*
X149225000Y-139065000D01*
X182245000Y-139065000D02*
X182245000Y-136525000D01*
X181610000Y-139700000D02*
X182245000Y-139065000D01*
X149860000Y-139700000D02*
X181610000Y-139700000D01*
X149225000Y-139065000D02*
X149860000Y-139700000D01*
X149225000Y-132080000D02*
X149225000Y-133985000D01*
X149225000Y-126365000D02*
X149225000Y-124460000D01*
X149225000Y-132080000D02*
X149225000Y-126365000D01*
X135890000Y-123190000D02*
X135890000Y-121285000D01*
X136525000Y-123825000D02*
X135890000Y-123190000D01*
X148590000Y-123825000D02*
X136525000Y-123825000D01*
X149225000Y-124460000D02*
X148590000Y-123825000D01*
X182245000Y-136525000D02*
X182245000Y-135890000D01*
X149860000Y-125730000D02*
X149860000Y-123825000D01*
X149860000Y-123825000D02*
X149225000Y-123190000D01*
X149860000Y-133350000D02*
X149860000Y-138430000D01*
X173355000Y-138430000D02*
X173355000Y-136525000D01*
X172720000Y-139065000D02*
X173355000Y-138430000D01*
X150495000Y-139065000D02*
X172720000Y-139065000D01*
X149860000Y-138430000D02*
X150495000Y-139065000D01*
X149860000Y-131445000D02*
X149860000Y-133350000D01*
X149860000Y-131445000D02*
X149860000Y-125730000D01*
X140970000Y-122555000D02*
X140970000Y-121285000D01*
X141605000Y-123190000D02*
X140970000Y-122555000D01*
X149225000Y-123190000D02*
X141605000Y-123190000D01*
X150495000Y-125730000D02*
X150495000Y-123190000D01*
X150495000Y-123190000D02*
X149860000Y-122555000D01*
X150495000Y-132715000D02*
X150495000Y-137795000D01*
X150495000Y-130810000D02*
X150495000Y-125730000D01*
X150495000Y-130810000D02*
X150495000Y-132715000D01*
X150495000Y-137795000D02*
X151130000Y-138430000D01*
X151130000Y-138430000D02*
X163830000Y-138430000D01*
X163830000Y-138430000D02*
X164465000Y-137795000D01*
X164465000Y-137795000D02*
X164465000Y-136525000D01*
X147320000Y-122555000D02*
X146050000Y-121285000D01*
X149860000Y-122555000D02*
X147320000Y-122555000D01*
X151130000Y-121285000D02*
X151130000Y-125730000D01*
X151130000Y-132080000D02*
X151130000Y-137160000D01*
X151130000Y-137160000D02*
X151765000Y-137795000D01*
X151765000Y-137795000D02*
X154940000Y-137795000D01*
X154940000Y-137795000D02*
X155575000Y-137160000D01*
X151130000Y-130175000D02*
X151130000Y-125730000D01*
X151130000Y-130175000D02*
X151130000Y-132080000D01*
X155575000Y-137160000D02*
X155575000Y-136525000D01*
X156210000Y-115570000D02*
X156210000Y-117475000D01*
X144145000Y-136525000D02*
X144145000Y-134620000D01*
X143510000Y-133985000D02*
X144145000Y-134620000D01*
X131445000Y-133985000D02*
X143510000Y-133985000D01*
X130810000Y-133350000D02*
X131445000Y-133985000D01*
X130810000Y-120650000D02*
X130810000Y-133350000D01*
X133350000Y-118110000D02*
X130810000Y-120650000D01*
X155575000Y-118110000D02*
X133350000Y-118110000D01*
X156210000Y-117475000D02*
X155575000Y-118110000D01*
X151130000Y-113665000D02*
X151130000Y-116840000D01*
X134620000Y-134620000D02*
X135255000Y-135255000D01*
X130810000Y-134620000D02*
X134620000Y-134620000D01*
X130175000Y-133985000D02*
X130810000Y-134620000D01*
X130175000Y-133350000D02*
X130175000Y-133985000D01*
X130175000Y-120015000D02*
X130175000Y-133350000D01*
X132715000Y-117475000D02*
X130175000Y-120015000D01*
X150495000Y-117475000D02*
X132715000Y-117475000D01*
X151130000Y-116840000D02*
X150495000Y-117475000D01*
X135255000Y-136525000D02*
X135255000Y-135255000D01*
X129540000Y-133350000D02*
X129540000Y-133985000D01*
X127000000Y-134620000D02*
X126365000Y-135255000D01*
X128905000Y-134620000D02*
X127000000Y-134620000D01*
X129540000Y-133985000D02*
X128905000Y-134620000D01*
X146050000Y-113665000D02*
X146050000Y-116205000D01*
X129540000Y-119380000D02*
X129540000Y-133350000D01*
X132080000Y-116840000D02*
X129540000Y-119380000D01*
X145415000Y-116840000D02*
X132080000Y-116840000D01*
X146050000Y-116205000D02*
X145415000Y-116840000D01*
X126365000Y-136525000D02*
X126365000Y-135255000D01*
X128905000Y-132715000D02*
X128905000Y-133350000D01*
X118110000Y-133985000D02*
X117475000Y-134620000D01*
X128270000Y-133985000D02*
X118110000Y-133985000D01*
X128905000Y-133350000D02*
X128270000Y-133985000D01*
X128905000Y-132715000D02*
X128905000Y-123825000D01*
X140970000Y-115570000D02*
X140335000Y-116205000D01*
X140970000Y-113665000D02*
X140970000Y-115570000D01*
X128905000Y-118745000D02*
X128905000Y-123825000D01*
X131445000Y-116205000D02*
X128905000Y-118745000D01*
X140335000Y-116205000D02*
X131445000Y-116205000D01*
X117475000Y-136525000D02*
X117475000Y-134620000D01*
X123190000Y-92710000D02*
X123190000Y-93980000D01*
X123190000Y-92710000D02*
X123190000Y-76200000D01*
X123825000Y-73660000D02*
X140335000Y-73660000D01*
X172085000Y-73660000D02*
X140335000Y-73660000D01*
X123190000Y-93980000D02*
X125095000Y-95885000D01*
X172085000Y-85090000D02*
X172085000Y-80010000D01*
X171450000Y-95885000D02*
X172085000Y-95250000D01*
X172085000Y-95250000D02*
X172085000Y-85090000D01*
X167005000Y-95885000D02*
X171450000Y-95885000D01*
X185420000Y-74295000D02*
X179070000Y-74295000D01*
X178435000Y-73660000D02*
X172085000Y-73660000D01*
X179070000Y-74295000D02*
X178435000Y-73660000D01*
X187325000Y-74295000D02*
X185420000Y-74295000D01*
X188595000Y-88265000D02*
X187960000Y-87630000D01*
X187960000Y-87630000D02*
X187960000Y-76200000D01*
X189865000Y-88265000D02*
X188595000Y-88265000D01*
X184785000Y-73660000D02*
X184785000Y-71120000D01*
X185420000Y-74295000D02*
X184785000Y-73660000D01*
X117475000Y-71120000D02*
X117475000Y-69850000D01*
X150495000Y-77470000D02*
X150495000Y-94615000D01*
X137795000Y-72390000D02*
X149225000Y-72390000D01*
X137160000Y-71755000D02*
X137795000Y-72390000D01*
X137160000Y-69850000D02*
X137160000Y-71755000D01*
X136525000Y-69215000D02*
X137160000Y-69850000D01*
X118110000Y-69215000D02*
X136525000Y-69215000D01*
X117475000Y-69850000D02*
X118110000Y-69215000D01*
X143510000Y-107315000D02*
X146685000Y-107315000D01*
X139700000Y-110490000D02*
X142240000Y-110490000D01*
X136525000Y-112395000D02*
X137795000Y-112395000D01*
X137795000Y-112395000D02*
X139700000Y-110490000D01*
X135890000Y-113030000D02*
X136525000Y-112395000D01*
X142875000Y-109855000D02*
X142875000Y-109220000D01*
X142240000Y-110490000D02*
X142875000Y-109855000D01*
X147320000Y-102235000D02*
X147955000Y-101600000D01*
X147320000Y-106680000D02*
X147320000Y-102235000D01*
X146685000Y-107315000D02*
X147320000Y-106680000D01*
X135890000Y-113665000D02*
X135890000Y-113030000D01*
X163195000Y-101600000D02*
X150495000Y-101600000D01*
X150495000Y-101600000D02*
X147955000Y-101600000D01*
X175895000Y-101600000D02*
X183515000Y-101600000D01*
X184150000Y-100965000D02*
X184150000Y-99695000D01*
X183515000Y-101600000D02*
X184150000Y-100965000D01*
X184150000Y-98425000D02*
X184150000Y-99695000D01*
X189865000Y-93345000D02*
X188595000Y-93345000D01*
X184150000Y-95250000D02*
X184150000Y-96520000D01*
X184785000Y-94615000D02*
X184150000Y-95250000D01*
X187325000Y-94615000D02*
X184785000Y-94615000D01*
X188595000Y-93345000D02*
X187325000Y-94615000D01*
X175895000Y-101600000D02*
X163195000Y-101600000D01*
X133350000Y-121285000D02*
X133350000Y-119380000D01*
X135890000Y-115570000D02*
X135890000Y-113665000D01*
X133350000Y-119380000D02*
X133985000Y-118745000D01*
X154940000Y-109855000D02*
X154940000Y-104775000D01*
X153670000Y-103505000D02*
X149860000Y-103505000D01*
X154940000Y-104775000D02*
X153670000Y-103505000D01*
X118110000Y-92075000D02*
X117475000Y-92075000D01*
X115570000Y-91440000D02*
X114935000Y-92075000D01*
X116840000Y-91440000D02*
X115570000Y-91440000D01*
X117475000Y-92075000D02*
X116840000Y-91440000D01*
X111125000Y-127000000D02*
X111125000Y-127635000D01*
X114300000Y-128270000D02*
X113030000Y-128270000D01*
X111760000Y-128270000D02*
X113030000Y-128270000D01*
X111125000Y-127635000D02*
X111760000Y-128270000D01*
X110490000Y-104140000D02*
X111125000Y-104775000D01*
X111125000Y-123190000D02*
X111125000Y-123190000D01*
X111125000Y-112395000D02*
X111125000Y-123190000D01*
X111125000Y-104775000D02*
X111125000Y-107950000D01*
X122555000Y-91440000D02*
X122555000Y-89535000D01*
X122555000Y-91440000D02*
X121920000Y-92075000D01*
X121920000Y-92075000D02*
X118110000Y-92075000D01*
X113665000Y-93345000D02*
X114935000Y-92075000D01*
X122555000Y-89535000D02*
X121285000Y-88265000D01*
X111125000Y-95885000D02*
X111125000Y-93980000D01*
X111125000Y-95885000D02*
X111125000Y-103505000D01*
X111125000Y-103505000D02*
X110490000Y-104140000D01*
X107315000Y-104140000D02*
X109220000Y-104140000D01*
X110490000Y-104140000D02*
X109220000Y-104140000D01*
X111760000Y-93345000D02*
X113665000Y-93345000D01*
X111125000Y-93980000D02*
X111760000Y-93345000D01*
X194310000Y-113030000D02*
X196850000Y-113030000D01*
X196850000Y-113030000D02*
X198755000Y-114935000D01*
X197485000Y-107315000D02*
X198755000Y-108585000D01*
X198755000Y-108585000D02*
X198755000Y-114935000D01*
X198755000Y-114935000D02*
X198755000Y-115570000D01*
X112395000Y-143510000D02*
X189230000Y-143510000D01*
X189230000Y-143510000D02*
X191770000Y-140970000D01*
X191770000Y-140970000D02*
X191770000Y-139065000D01*
X191770000Y-139065000D02*
X193040000Y-137795000D01*
X193040000Y-137795000D02*
X197485000Y-137795000D01*
X197485000Y-137795000D02*
X198755000Y-136525000D01*
X198755000Y-136525000D02*
X198755000Y-115570000D01*
X107315000Y-106680000D02*
X106045000Y-107950000D01*
X111125000Y-143510000D02*
X112395000Y-143510000D01*
X108585000Y-140970000D02*
X111125000Y-143510000D01*
X108585000Y-140335000D02*
X108585000Y-140970000D01*
X108585000Y-135890000D02*
X108585000Y-140335000D01*
X107315000Y-134620000D02*
X108585000Y-135890000D01*
X102870000Y-134620000D02*
X107315000Y-134620000D01*
X102235000Y-108585000D02*
X102235000Y-132715000D01*
X102870000Y-107950000D02*
X102235000Y-108585000D01*
X106045000Y-107950000D02*
X102870000Y-107950000D01*
X189865000Y-85725000D02*
X194310000Y-85725000D01*
X195580000Y-105410000D02*
X197485000Y-107315000D01*
X195580000Y-86995000D02*
X195580000Y-105410000D01*
X194310000Y-85725000D02*
X195580000Y-86995000D01*
X189865000Y-85725000D02*
X189865000Y-83185000D01*
X109220000Y-129540000D02*
X109855000Y-130175000D01*
X111125000Y-142240000D02*
X111760000Y-142875000D01*
X189230000Y-115570000D02*
X196215000Y-115570000D01*
X186690000Y-113030000D02*
X189230000Y-115570000D01*
X188595000Y-142875000D02*
X111760000Y-142875000D01*
X191135000Y-140335000D02*
X188595000Y-142875000D01*
X191135000Y-138430000D02*
X191135000Y-140335000D01*
X192405000Y-137160000D02*
X191135000Y-138430000D01*
X196850000Y-137160000D02*
X192405000Y-137160000D01*
X198120000Y-135890000D02*
X196850000Y-137160000D01*
X198120000Y-117475000D02*
X198120000Y-135890000D01*
X196215000Y-115570000D02*
X198120000Y-117475000D01*
X109220000Y-129540000D02*
X107315000Y-129540000D01*
X109855000Y-130175000D02*
X109855000Y-139065000D01*
X186055000Y-113030000D02*
X186690000Y-113030000D01*
X119380000Y-88265000D02*
X118745000Y-87630000D01*
X114935000Y-86360000D02*
X114300000Y-85725000D01*
X114935000Y-86995000D02*
X114935000Y-86360000D01*
X115570000Y-87630000D02*
X114935000Y-86995000D01*
X118745000Y-87630000D02*
X115570000Y-87630000D01*
X114300000Y-85725000D02*
X113665000Y-85725000D01*
X120015000Y-95885000D02*
X120015000Y-97155000D01*
X119380000Y-102870000D02*
X120015000Y-102235000D01*
X120015000Y-102235000D02*
X120015000Y-97155000D01*
X120015000Y-97155000D02*
X121285000Y-95885000D01*
X119380000Y-88265000D02*
X119380000Y-90805000D01*
X119380000Y-95250000D02*
X120015000Y-95885000D01*
X119380000Y-93980000D02*
X119380000Y-95250000D01*
X147955000Y-96520000D02*
X148590000Y-96520000D01*
X148590000Y-96520000D02*
X149225000Y-95885000D01*
X149225000Y-95885000D02*
X149225000Y-93980000D01*
X148590000Y-76200000D02*
X135890000Y-76200000D01*
X149225000Y-76835000D02*
X148590000Y-76200000D01*
X149225000Y-93980000D02*
X149225000Y-76835000D01*
X150495000Y-98425000D02*
X149860000Y-97790000D01*
X160655000Y-98425000D02*
X150495000Y-98425000D01*
X161925000Y-97155000D02*
X160655000Y-98425000D01*
X150495000Y-76200000D02*
X166370000Y-76200000D01*
X149860000Y-76835000D02*
X150495000Y-76200000D01*
X149860000Y-97790000D02*
X149860000Y-76835000D01*
X161925000Y-96520000D02*
X161925000Y-97155000D01*
X127000000Y-106045000D02*
X128905000Y-107950000D01*
X149860000Y-107315000D02*
X149860000Y-106045000D01*
X149225000Y-107950000D02*
X149860000Y-107315000D01*
X128905000Y-107950000D02*
X149225000Y-107950000D01*
X123190000Y-106045000D02*
X127000000Y-106045000D01*
X115570000Y-106045000D02*
X120015000Y-106045000D01*
X113030000Y-102235000D02*
X113030000Y-102870000D01*
X111760000Y-100965000D02*
X113030000Y-102235000D01*
X120015000Y-71120000D02*
X125095000Y-71120000D01*
X177165000Y-71120000D02*
X182245000Y-71120000D01*
X177165000Y-71120000D02*
X177165000Y-70485000D01*
X178435000Y-93345000D02*
X180340000Y-93345000D01*
X187960000Y-97790000D02*
X189865000Y-95885000D01*
X184150000Y-97790000D02*
X187960000Y-97790000D01*
X182245000Y-95885000D02*
X184150000Y-97790000D01*
X182245000Y-95250000D02*
X182245000Y-95885000D01*
X180340000Y-93345000D02*
X182245000Y-95250000D01*
M02*
