G04 #@! TF.FileFunction,Copper,L1,Top,Signal*
%FSLAX46Y46*%
G04 Gerber Fmt 4.6, Leading zero omitted, Abs format (unit mm)*
G04 Created by KiCad (PCBNEW 4.0.7) date 08/25/19 17:49:11*
%MOMM*%
%LPD*%
G01*
G04 APERTURE LIST*
%ADD10C,0.100000*%
%ADD11C,2.200000*%
%ADD12R,1.700000X1.700000*%
%ADD13O,1.700000X1.700000*%
%ADD14C,0.250000*%
G04 APERTURE END LIST*
D10*
D11*
X93980000Y-126365000D03*
X87630000Y-128905000D03*
X153035000Y-106680000D03*
X146685000Y-109220000D03*
X133350000Y-67310000D03*
X127000000Y-69850000D03*
X113665000Y-126365000D03*
X107315000Y-128905000D03*
X93980000Y-86995000D03*
X87630000Y-89535000D03*
X153035000Y-67310000D03*
X146685000Y-69850000D03*
X133350000Y-126365000D03*
X127000000Y-128905000D03*
X113665000Y-86995000D03*
X107315000Y-89535000D03*
X153035000Y-126365000D03*
X146685000Y-128905000D03*
X133350000Y-86995000D03*
X127000000Y-89535000D03*
X93980000Y-106680000D03*
X87630000Y-109220000D03*
X153035000Y-86995000D03*
X146685000Y-89535000D03*
X113665000Y-106680000D03*
X107315000Y-109220000D03*
X93980000Y-67310000D03*
X87630000Y-69850000D03*
X133350000Y-106680000D03*
X127000000Y-109220000D03*
X113665000Y-67310000D03*
X107315000Y-69850000D03*
D12*
X124460000Y-57785000D03*
D13*
X124460000Y-60325000D03*
X121920000Y-57785000D03*
X121920000Y-60325000D03*
X119380000Y-57785000D03*
X119380000Y-60325000D03*
X116840000Y-57785000D03*
X116840000Y-60325000D03*
D14*
X113665000Y-67310000D02*
X113665000Y-62865000D01*
X124460000Y-61595000D02*
X124460000Y-60325000D01*
X123825000Y-62230000D02*
X124460000Y-61595000D01*
X114300000Y-62230000D02*
X123825000Y-62230000D01*
X113665000Y-62865000D02*
X114300000Y-62230000D01*
X127000000Y-128905000D02*
X146685000Y-128905000D01*
X107315000Y-128905000D02*
X127000000Y-128905000D01*
X87630000Y-128905000D02*
X107315000Y-128905000D01*
X127000000Y-109220000D02*
X146685000Y-109220000D01*
X107315000Y-109220000D02*
X127000000Y-109220000D01*
X87630000Y-109220000D02*
X107315000Y-109220000D01*
X127000000Y-89535000D02*
X146685000Y-89535000D01*
X107315000Y-89535000D02*
X127000000Y-89535000D01*
X87630000Y-89535000D02*
X107315000Y-89535000D01*
X127000000Y-69850000D02*
X146685000Y-69850000D01*
X107315000Y-69850000D02*
X127000000Y-69850000D01*
X87630000Y-69850000D02*
X107315000Y-69850000D01*
M02*
