G04 #@! TF.FileFunction,Drawing*
%FSLAX46Y46*%
G04 Gerber Fmt 4.6, Leading zero omitted, Abs format (unit mm)*
G04 Created by KiCad (PCBNEW 4.0.7) date 08/25/19 17:49:11*
%MOMM*%
%LPD*%
G01*
G04 APERTURE LIST*
%ADD10C,0.100000*%
%ADD11C,0.150000*%
G04 APERTURE END LIST*
D10*
D11*
X81915000Y-121920000D02*
X100965000Y-121920000D01*
X100965000Y-121920000D02*
X100965000Y-140970000D01*
X100965000Y-140970000D02*
X81915000Y-140970000D01*
X81915000Y-140970000D02*
X81915000Y-121920000D01*
X140970000Y-102235000D02*
X160020000Y-102235000D01*
X160020000Y-102235000D02*
X160020000Y-121285000D01*
X160020000Y-121285000D02*
X140970000Y-121285000D01*
X140970000Y-121285000D02*
X140970000Y-102235000D01*
X121285000Y-62865000D02*
X140335000Y-62865000D01*
X140335000Y-62865000D02*
X140335000Y-81915000D01*
X140335000Y-81915000D02*
X121285000Y-81915000D01*
X121285000Y-81915000D02*
X121285000Y-62865000D01*
X101600000Y-121920000D02*
X120650000Y-121920000D01*
X120650000Y-121920000D02*
X120650000Y-140970000D01*
X120650000Y-140970000D02*
X101600000Y-140970000D01*
X101600000Y-140970000D02*
X101600000Y-121920000D01*
X81915000Y-82550000D02*
X100965000Y-82550000D01*
X100965000Y-82550000D02*
X100965000Y-101600000D01*
X100965000Y-101600000D02*
X81915000Y-101600000D01*
X81915000Y-101600000D02*
X81915000Y-82550000D01*
X140970000Y-62865000D02*
X160020000Y-62865000D01*
X160020000Y-62865000D02*
X160020000Y-81915000D01*
X160020000Y-81915000D02*
X140970000Y-81915000D01*
X140970000Y-81915000D02*
X140970000Y-62865000D01*
X121285000Y-121920000D02*
X140335000Y-121920000D01*
X140335000Y-121920000D02*
X140335000Y-140970000D01*
X140335000Y-140970000D02*
X121285000Y-140970000D01*
X121285000Y-140970000D02*
X121285000Y-121920000D01*
X101600000Y-82550000D02*
X120650000Y-82550000D01*
X120650000Y-82550000D02*
X120650000Y-101600000D01*
X120650000Y-101600000D02*
X101600000Y-101600000D01*
X101600000Y-101600000D02*
X101600000Y-82550000D01*
X140970000Y-121920000D02*
X160020000Y-121920000D01*
X160020000Y-121920000D02*
X160020000Y-140970000D01*
X160020000Y-140970000D02*
X140970000Y-140970000D01*
X140970000Y-140970000D02*
X140970000Y-121920000D01*
X121285000Y-82550000D02*
X140335000Y-82550000D01*
X140335000Y-82550000D02*
X140335000Y-101600000D01*
X140335000Y-101600000D02*
X121285000Y-101600000D01*
X121285000Y-101600000D02*
X121285000Y-82550000D01*
X81915000Y-102235000D02*
X100965000Y-102235000D01*
X100965000Y-102235000D02*
X100965000Y-121285000D01*
X100965000Y-121285000D02*
X81915000Y-121285000D01*
X81915000Y-121285000D02*
X81915000Y-102235000D01*
X140970000Y-82550000D02*
X160020000Y-82550000D01*
X160020000Y-82550000D02*
X160020000Y-101600000D01*
X160020000Y-101600000D02*
X140970000Y-101600000D01*
X140970000Y-101600000D02*
X140970000Y-82550000D01*
X101600000Y-102235000D02*
X120650000Y-102235000D01*
X120650000Y-102235000D02*
X120650000Y-121285000D01*
X120650000Y-121285000D02*
X101600000Y-121285000D01*
X101600000Y-121285000D02*
X101600000Y-102235000D01*
X81915000Y-62865000D02*
X100965000Y-62865000D01*
X100965000Y-62865000D02*
X100965000Y-81915000D01*
X100965000Y-81915000D02*
X81915000Y-81915000D01*
X81915000Y-81915000D02*
X81915000Y-62865000D01*
X121285000Y-102235000D02*
X140335000Y-102235000D01*
X140335000Y-102235000D02*
X140335000Y-121285000D01*
X140335000Y-121285000D02*
X121285000Y-121285000D01*
X121285000Y-121285000D02*
X121285000Y-102235000D01*
X101600000Y-62865000D02*
X120650000Y-62865000D01*
X120650000Y-62865000D02*
X120650000Y-81915000D01*
X120650000Y-81915000D02*
X101600000Y-81915000D01*
X101600000Y-81915000D02*
X101600000Y-62865000D01*
M02*
