M48
;DRILL file {KiCad 4.0.7} date 08/25/19 17:49:13
;FORMAT={2:4/ absolute / inch / suppress leading zeros}
FMAT,2
INCH,TZ
T1C0.039
T2C0.059
T3C0.067
T4C0.157
%
G90
G05
M72
T1
X46000Y-22750
X46000Y-23750
X47000Y-22750
X47000Y-23750
X48000Y-22750
X48000Y-23750
X49000Y-22750
X49000Y-23750
T2
X34500Y-27500
X34500Y-35250
X34500Y-43000
X34500Y-50750
X37000Y-26500
X37000Y-34250
X37000Y-42000
X37000Y-49750
X42250Y-27500
X42250Y-35250
X42250Y-43000
X42250Y-50750
X44750Y-26500
X44750Y-34250
X44750Y-42000
X44750Y-49750
X50000Y-27500
X50000Y-35250
X50000Y-43000
X50000Y-50750
X52500Y-26500
X52500Y-34250
X52500Y-42000
X52500Y-49750
X57750Y-27500
X57750Y-35250
X57750Y-43000
X57750Y-50750
X60250Y-26500
X60250Y-34250
X60250Y-42000
X60250Y-49750
T3
X34000Y-28500
X34000Y-36250
X34000Y-44000
X34000Y-51750
X38000Y-28500
X38000Y-36250
X38000Y-44000
X38000Y-51750
X41750Y-28500
X41750Y-36250
X41750Y-44000
X41750Y-51750
X45750Y-28500
X45750Y-36250
X45750Y-44000
X45750Y-51750
X49500Y-28500
X49500Y-36250
X49500Y-44000
X49500Y-51750
X53500Y-28500
X53500Y-36250
X53500Y-44000
X53500Y-51750
X57250Y-28500
X57250Y-36250
X57250Y-44000
X57250Y-51750
X61250Y-28500
X61250Y-36250
X61250Y-44000
X61250Y-51750
T4
X36000Y-28500
X36000Y-36250
X36000Y-44000
X36000Y-51750
X43750Y-28500
X43750Y-36250
X43750Y-44000
X43750Y-51750
X51500Y-28500
X51500Y-36250
X51500Y-44000
X51500Y-51750
X59250Y-28500
X59250Y-36250
X59250Y-44000
X59250Y-51750
T0
M30
