G04 #@! TF.FileFunction,Soldermask,Top*
%FSLAX46Y46*%
G04 Gerber Fmt 4.6, Leading zero omitted, Abs format (unit mm)*
G04 Created by KiCad (PCBNEW 4.0.7) date 10/17/18 13:30:52*
%MOMM*%
%LPD*%
G01*
G04 APERTURE LIST*
%ADD10C,0.100000*%
%ADD11R,2.000000X2.000000*%
%ADD12C,2.000000*%
%ADD13C,5.400000*%
%ADD14R,2.100000X2.100000*%
%ADD15O,2.100000X2.100000*%
%ADD16O,2.000000X2.000000*%
%ADD17R,3.900000X3.900000*%
%ADD18R,2.200000X2.200000*%
%ADD19C,2.200000*%
G04 APERTURE END LIST*
D10*
D11*
X115570000Y-74930000D03*
D12*
X115570000Y-67310000D03*
X130810000Y-67310000D03*
X130810000Y-74930000D03*
X195580000Y-113030000D03*
X190580000Y-113030000D03*
X132715000Y-80010000D03*
X127715000Y-80010000D03*
X137160000Y-66040000D03*
X137160000Y-71040000D03*
X195580000Y-80010000D03*
X190580000Y-80010000D03*
X156210000Y-80010000D03*
X151210000Y-80010000D03*
D13*
X104775000Y-141605000D03*
X104775000Y-71755000D03*
D14*
X172085000Y-132080000D03*
D15*
X172085000Y-134620000D03*
X172085000Y-137160000D03*
D14*
X183515000Y-83820000D03*
D15*
X183515000Y-86360000D03*
X183515000Y-88900000D03*
D12*
X140970000Y-139700000D03*
D16*
X140970000Y-129540000D03*
D12*
X145415000Y-139700000D03*
D16*
X145415000Y-129540000D03*
D12*
X149860000Y-139700000D03*
D16*
X149860000Y-129540000D03*
D12*
X154305000Y-139700000D03*
D16*
X154305000Y-129540000D03*
D12*
X158750000Y-139700000D03*
D16*
X158750000Y-129540000D03*
D12*
X163195000Y-139700000D03*
D16*
X163195000Y-129540000D03*
D12*
X167640000Y-139700000D03*
D16*
X167640000Y-129540000D03*
D13*
X194945000Y-141605000D03*
X194945000Y-71755000D03*
D14*
X198120000Y-146050000D03*
D15*
X195580000Y-146050000D03*
X193040000Y-146050000D03*
X190500000Y-146050000D03*
X187960000Y-146050000D03*
X185420000Y-146050000D03*
X182880000Y-146050000D03*
X180340000Y-146050000D03*
X177800000Y-146050000D03*
X175260000Y-146050000D03*
X172720000Y-146050000D03*
X170180000Y-146050000D03*
X167640000Y-146050000D03*
X165100000Y-146050000D03*
X162560000Y-146050000D03*
X160020000Y-146050000D03*
X157480000Y-146050000D03*
X154940000Y-146050000D03*
X152400000Y-146050000D03*
X149860000Y-146050000D03*
X147320000Y-146050000D03*
X144780000Y-146050000D03*
X142240000Y-146050000D03*
X139700000Y-146050000D03*
X137160000Y-146050000D03*
X134620000Y-146050000D03*
X132080000Y-146050000D03*
X129540000Y-146050000D03*
X127000000Y-146050000D03*
X124460000Y-146050000D03*
X121920000Y-146050000D03*
X119380000Y-146050000D03*
X116840000Y-146050000D03*
X114300000Y-146050000D03*
X111760000Y-146050000D03*
X109220000Y-146050000D03*
X106680000Y-146050000D03*
X104140000Y-146050000D03*
X101600000Y-146050000D03*
D17*
X110490000Y-53340000D03*
X104490000Y-53340000D03*
X107490000Y-58040000D03*
D14*
X176530000Y-132080000D03*
D15*
X176530000Y-134620000D03*
X176530000Y-137160000D03*
D11*
X187960000Y-116840000D03*
D16*
X195580000Y-132080000D03*
X187960000Y-119380000D03*
X195580000Y-129540000D03*
X187960000Y-121920000D03*
X195580000Y-127000000D03*
X187960000Y-124460000D03*
X195580000Y-124460000D03*
X187960000Y-127000000D03*
X195580000Y-121920000D03*
X187960000Y-129540000D03*
X195580000Y-119380000D03*
X187960000Y-132080000D03*
X195580000Y-116840000D03*
D11*
X117475000Y-83820000D03*
D16*
X132715000Y-132080000D03*
X117475000Y-86360000D03*
X132715000Y-129540000D03*
X117475000Y-88900000D03*
X132715000Y-127000000D03*
X117475000Y-91440000D03*
X132715000Y-124460000D03*
X117475000Y-93980000D03*
X132715000Y-121920000D03*
X117475000Y-96520000D03*
X132715000Y-119380000D03*
X117475000Y-99060000D03*
X132715000Y-116840000D03*
X117475000Y-101600000D03*
X132715000Y-114300000D03*
X117475000Y-104140000D03*
X132715000Y-111760000D03*
X117475000Y-106680000D03*
X132715000Y-109220000D03*
X117475000Y-109220000D03*
X132715000Y-106680000D03*
X117475000Y-111760000D03*
X132715000Y-104140000D03*
X117475000Y-114300000D03*
X132715000Y-101600000D03*
X117475000Y-116840000D03*
X132715000Y-99060000D03*
X117475000Y-119380000D03*
X132715000Y-96520000D03*
X117475000Y-121920000D03*
X132715000Y-93980000D03*
X117475000Y-124460000D03*
X132715000Y-91440000D03*
X117475000Y-127000000D03*
X132715000Y-88900000D03*
X117475000Y-129540000D03*
X132715000Y-86360000D03*
X117475000Y-132080000D03*
X132715000Y-83820000D03*
D11*
X187960000Y-83820000D03*
D16*
X195580000Y-106680000D03*
X187960000Y-86360000D03*
X195580000Y-104140000D03*
X187960000Y-88900000D03*
X195580000Y-101600000D03*
X187960000Y-91440000D03*
X195580000Y-99060000D03*
X187960000Y-93980000D03*
X195580000Y-96520000D03*
X187960000Y-96520000D03*
X195580000Y-93980000D03*
X187960000Y-99060000D03*
X195580000Y-91440000D03*
X187960000Y-101600000D03*
X195580000Y-88900000D03*
X187960000Y-104140000D03*
X195580000Y-86360000D03*
X187960000Y-106680000D03*
X195580000Y-83820000D03*
D14*
X107315000Y-132080000D03*
D15*
X104775000Y-132080000D03*
X107315000Y-129540000D03*
X104775000Y-129540000D03*
X107315000Y-127000000D03*
X104775000Y-127000000D03*
X107315000Y-124460000D03*
X104775000Y-124460000D03*
X107315000Y-121920000D03*
X104775000Y-121920000D03*
X107315000Y-119380000D03*
X104775000Y-119380000D03*
X107315000Y-116840000D03*
X104775000Y-116840000D03*
X107315000Y-114300000D03*
X104775000Y-114300000D03*
X107315000Y-111760000D03*
X104775000Y-111760000D03*
X107315000Y-109220000D03*
X104775000Y-109220000D03*
X107315000Y-106680000D03*
X104775000Y-106680000D03*
X107315000Y-104140000D03*
X104775000Y-104140000D03*
X107315000Y-101600000D03*
X104775000Y-101600000D03*
X107315000Y-99060000D03*
X104775000Y-99060000D03*
X107315000Y-96520000D03*
X104775000Y-96520000D03*
X107315000Y-93980000D03*
X104775000Y-93980000D03*
X107315000Y-91440000D03*
X104775000Y-91440000D03*
X107315000Y-88900000D03*
X104775000Y-88900000D03*
X107315000Y-86360000D03*
X104775000Y-86360000D03*
X107315000Y-83820000D03*
X104775000Y-83820000D03*
D14*
X160020000Y-83820000D03*
D15*
X160020000Y-86360000D03*
X160020000Y-88900000D03*
D18*
X121920000Y-50800000D03*
D19*
X121920000Y-53340000D03*
D18*
X129540000Y-50800000D03*
D19*
X129540000Y-53340000D03*
D18*
X137160000Y-50800000D03*
D19*
X137160000Y-53340000D03*
D18*
X144780000Y-50800000D03*
D19*
X144780000Y-53340000D03*
D18*
X154940000Y-50800000D03*
D19*
X154940000Y-53340000D03*
D18*
X162560000Y-50800000D03*
D19*
X162560000Y-53340000D03*
D18*
X170180000Y-50800000D03*
D19*
X170180000Y-53340000D03*
D18*
X177800000Y-50800000D03*
D19*
X177800000Y-53340000D03*
D14*
X140970000Y-77470000D03*
D15*
X143510000Y-77470000D03*
X146050000Y-77470000D03*
D12*
X168275000Y-74930000D03*
D16*
X168275000Y-64770000D03*
D12*
X171450000Y-74930000D03*
D16*
X171450000Y-64770000D03*
D12*
X174625000Y-74930000D03*
D16*
X174625000Y-64770000D03*
D12*
X177800000Y-74930000D03*
D16*
X177800000Y-64770000D03*
D12*
X180975000Y-74930000D03*
D16*
X180975000Y-64770000D03*
D12*
X184150000Y-74930000D03*
D16*
X184150000Y-64770000D03*
D12*
X187325000Y-74930000D03*
D16*
X187325000Y-64770000D03*
D12*
X190500000Y-74930000D03*
D16*
X190500000Y-64770000D03*
D11*
X140970000Y-73660000D03*
D16*
X163830000Y-66040000D03*
X143510000Y-73660000D03*
X161290000Y-66040000D03*
X146050000Y-73660000D03*
X158750000Y-66040000D03*
X148590000Y-73660000D03*
X156210000Y-66040000D03*
X151130000Y-73660000D03*
X153670000Y-66040000D03*
X153670000Y-73660000D03*
X151130000Y-66040000D03*
X156210000Y-73660000D03*
X148590000Y-66040000D03*
X158750000Y-73660000D03*
X146050000Y-66040000D03*
X161290000Y-73660000D03*
X143510000Y-66040000D03*
X163830000Y-73660000D03*
X140970000Y-66040000D03*
D12*
X179705000Y-80010000D03*
X174705000Y-80010000D03*
D11*
X140970000Y-83820000D03*
D16*
X156210000Y-116840000D03*
X140970000Y-86360000D03*
X156210000Y-114300000D03*
X140970000Y-88900000D03*
X156210000Y-111760000D03*
X140970000Y-91440000D03*
X156210000Y-109220000D03*
X140970000Y-93980000D03*
X156210000Y-106680000D03*
X140970000Y-96520000D03*
X156210000Y-104140000D03*
X140970000Y-99060000D03*
X156210000Y-101600000D03*
X140970000Y-101600000D03*
X156210000Y-99060000D03*
X140970000Y-104140000D03*
X156210000Y-96520000D03*
X140970000Y-106680000D03*
X156210000Y-93980000D03*
X140970000Y-109220000D03*
X156210000Y-91440000D03*
X140970000Y-111760000D03*
X156210000Y-88900000D03*
X140970000Y-114300000D03*
X156210000Y-86360000D03*
X140970000Y-116840000D03*
X156210000Y-83820000D03*
D11*
X164465000Y-83820000D03*
D16*
X179705000Y-116840000D03*
X164465000Y-86360000D03*
X179705000Y-114300000D03*
X164465000Y-88900000D03*
X179705000Y-111760000D03*
X164465000Y-91440000D03*
X179705000Y-109220000D03*
X164465000Y-93980000D03*
X179705000Y-106680000D03*
X164465000Y-96520000D03*
X179705000Y-104140000D03*
X164465000Y-99060000D03*
X179705000Y-101600000D03*
X164465000Y-101600000D03*
X179705000Y-99060000D03*
X164465000Y-104140000D03*
X179705000Y-96520000D03*
X164465000Y-106680000D03*
X179705000Y-93980000D03*
X164465000Y-109220000D03*
X179705000Y-91440000D03*
X164465000Y-111760000D03*
X179705000Y-88900000D03*
X164465000Y-114300000D03*
X179705000Y-86360000D03*
X164465000Y-116840000D03*
X179705000Y-83820000D03*
D14*
X114300000Y-62230000D03*
D15*
X116840000Y-62230000D03*
X119380000Y-62230000D03*
X121920000Y-62230000D03*
X124460000Y-62230000D03*
D11*
X151130000Y-125095000D03*
D16*
X158750000Y-125095000D03*
D14*
X152400000Y-120650000D03*
D15*
X154940000Y-120650000D03*
X157480000Y-120650000D03*
D14*
X141605000Y-120650000D03*
D15*
X144145000Y-120650000D03*
X146685000Y-120650000D03*
D14*
X141605000Y-125095000D03*
D15*
X144145000Y-125095000D03*
X146685000Y-125095000D03*
D14*
X187325000Y-59055000D03*
D15*
X189865000Y-59055000D03*
X192405000Y-59055000D03*
X194945000Y-59055000D03*
X197485000Y-59055000D03*
M02*
