G04 #@! TF.FileFunction,Copper,L1,Top,Signal*
%FSLAX46Y46*%
G04 Gerber Fmt 4.6, Leading zero omitted, Abs format (unit mm)*
G04 Created by KiCad (PCBNEW 4.0.7) date 10/17/18 13:54:43*
%MOMM*%
%LPD*%
G01*
G04 APERTURE LIST*
%ADD10C,0.100000*%
%ADD11R,1.600000X1.600000*%
%ADD12C,1.600000*%
%ADD13C,5.000000*%
%ADD14R,1.700000X1.700000*%
%ADD15O,1.700000X1.700000*%
%ADD16O,1.600000X1.600000*%
%ADD17R,3.500000X3.500000*%
%ADD18R,1.800000X1.800000*%
%ADD19C,1.800000*%
%ADD20C,0.600000*%
%ADD21C,0.250000*%
%ADD22C,0.750000*%
G04 APERTURE END LIST*
D10*
D11*
X115570000Y-74930000D03*
D12*
X115570000Y-67310000D03*
X130810000Y-67310000D03*
X130810000Y-74930000D03*
X195580000Y-113030000D03*
X190580000Y-113030000D03*
X132715000Y-80010000D03*
X127715000Y-80010000D03*
X137160000Y-66040000D03*
X137160000Y-71040000D03*
X195580000Y-80010000D03*
X190580000Y-80010000D03*
X156210000Y-80010000D03*
X151210000Y-80010000D03*
D13*
X104775000Y-141605000D03*
X104775000Y-71755000D03*
D14*
X172085000Y-132080000D03*
D15*
X172085000Y-134620000D03*
X172085000Y-137160000D03*
D14*
X183515000Y-83820000D03*
D15*
X183515000Y-86360000D03*
X183515000Y-88900000D03*
D12*
X140970000Y-139700000D03*
D16*
X140970000Y-129540000D03*
D12*
X145415000Y-139700000D03*
D16*
X145415000Y-129540000D03*
D12*
X149860000Y-139700000D03*
D16*
X149860000Y-129540000D03*
D12*
X154305000Y-139700000D03*
D16*
X154305000Y-129540000D03*
D12*
X158750000Y-139700000D03*
D16*
X158750000Y-129540000D03*
D12*
X163195000Y-139700000D03*
D16*
X163195000Y-129540000D03*
D12*
X167640000Y-139700000D03*
D16*
X167640000Y-129540000D03*
D13*
X194945000Y-141605000D03*
X194945000Y-71755000D03*
D14*
X198120000Y-146050000D03*
D15*
X195580000Y-146050000D03*
X193040000Y-146050000D03*
X190500000Y-146050000D03*
X187960000Y-146050000D03*
X185420000Y-146050000D03*
X182880000Y-146050000D03*
X180340000Y-146050000D03*
X177800000Y-146050000D03*
X175260000Y-146050000D03*
X172720000Y-146050000D03*
X170180000Y-146050000D03*
X167640000Y-146050000D03*
X165100000Y-146050000D03*
X162560000Y-146050000D03*
X160020000Y-146050000D03*
X157480000Y-146050000D03*
X154940000Y-146050000D03*
X152400000Y-146050000D03*
X149860000Y-146050000D03*
X147320000Y-146050000D03*
X144780000Y-146050000D03*
X142240000Y-146050000D03*
X139700000Y-146050000D03*
X137160000Y-146050000D03*
X134620000Y-146050000D03*
X132080000Y-146050000D03*
X129540000Y-146050000D03*
X127000000Y-146050000D03*
X124460000Y-146050000D03*
X121920000Y-146050000D03*
X119380000Y-146050000D03*
X116840000Y-146050000D03*
X114300000Y-146050000D03*
X111760000Y-146050000D03*
X109220000Y-146050000D03*
X106680000Y-146050000D03*
X104140000Y-146050000D03*
X101600000Y-146050000D03*
D17*
X110490000Y-53340000D03*
X104490000Y-53340000D03*
X107490000Y-58040000D03*
D14*
X176530000Y-132080000D03*
D15*
X176530000Y-134620000D03*
X176530000Y-137160000D03*
D11*
X187960000Y-116840000D03*
D16*
X195580000Y-132080000D03*
X187960000Y-119380000D03*
X195580000Y-129540000D03*
X187960000Y-121920000D03*
X195580000Y-127000000D03*
X187960000Y-124460000D03*
X195580000Y-124460000D03*
X187960000Y-127000000D03*
X195580000Y-121920000D03*
X187960000Y-129540000D03*
X195580000Y-119380000D03*
X187960000Y-132080000D03*
X195580000Y-116840000D03*
D11*
X117475000Y-83820000D03*
D16*
X132715000Y-132080000D03*
X117475000Y-86360000D03*
X132715000Y-129540000D03*
X117475000Y-88900000D03*
X132715000Y-127000000D03*
X117475000Y-91440000D03*
X132715000Y-124460000D03*
X117475000Y-93980000D03*
X132715000Y-121920000D03*
X117475000Y-96520000D03*
X132715000Y-119380000D03*
X117475000Y-99060000D03*
X132715000Y-116840000D03*
X117475000Y-101600000D03*
X132715000Y-114300000D03*
X117475000Y-104140000D03*
X132715000Y-111760000D03*
X117475000Y-106680000D03*
X132715000Y-109220000D03*
X117475000Y-109220000D03*
X132715000Y-106680000D03*
X117475000Y-111760000D03*
X132715000Y-104140000D03*
X117475000Y-114300000D03*
X132715000Y-101600000D03*
X117475000Y-116840000D03*
X132715000Y-99060000D03*
X117475000Y-119380000D03*
X132715000Y-96520000D03*
X117475000Y-121920000D03*
X132715000Y-93980000D03*
X117475000Y-124460000D03*
X132715000Y-91440000D03*
X117475000Y-127000000D03*
X132715000Y-88900000D03*
X117475000Y-129540000D03*
X132715000Y-86360000D03*
X117475000Y-132080000D03*
X132715000Y-83820000D03*
D11*
X187960000Y-83820000D03*
D16*
X195580000Y-106680000D03*
X187960000Y-86360000D03*
X195580000Y-104140000D03*
X187960000Y-88900000D03*
X195580000Y-101600000D03*
X187960000Y-91440000D03*
X195580000Y-99060000D03*
X187960000Y-93980000D03*
X195580000Y-96520000D03*
X187960000Y-96520000D03*
X195580000Y-93980000D03*
X187960000Y-99060000D03*
X195580000Y-91440000D03*
X187960000Y-101600000D03*
X195580000Y-88900000D03*
X187960000Y-104140000D03*
X195580000Y-86360000D03*
X187960000Y-106680000D03*
X195580000Y-83820000D03*
D14*
X107315000Y-132080000D03*
D15*
X104775000Y-132080000D03*
X107315000Y-129540000D03*
X104775000Y-129540000D03*
X107315000Y-127000000D03*
X104775000Y-127000000D03*
X107315000Y-124460000D03*
X104775000Y-124460000D03*
X107315000Y-121920000D03*
X104775000Y-121920000D03*
X107315000Y-119380000D03*
X104775000Y-119380000D03*
X107315000Y-116840000D03*
X104775000Y-116840000D03*
X107315000Y-114300000D03*
X104775000Y-114300000D03*
X107315000Y-111760000D03*
X104775000Y-111760000D03*
X107315000Y-109220000D03*
X104775000Y-109220000D03*
X107315000Y-106680000D03*
X104775000Y-106680000D03*
X107315000Y-104140000D03*
X104775000Y-104140000D03*
X107315000Y-101600000D03*
X104775000Y-101600000D03*
X107315000Y-99060000D03*
X104775000Y-99060000D03*
X107315000Y-96520000D03*
X104775000Y-96520000D03*
X107315000Y-93980000D03*
X104775000Y-93980000D03*
X107315000Y-91440000D03*
X104775000Y-91440000D03*
X107315000Y-88900000D03*
X104775000Y-88900000D03*
X107315000Y-86360000D03*
X104775000Y-86360000D03*
X107315000Y-83820000D03*
X104775000Y-83820000D03*
D14*
X160020000Y-83820000D03*
D15*
X160020000Y-86360000D03*
X160020000Y-88900000D03*
D18*
X121920000Y-50800000D03*
D19*
X121920000Y-53340000D03*
D18*
X129540000Y-50800000D03*
D19*
X129540000Y-53340000D03*
D18*
X137160000Y-50800000D03*
D19*
X137160000Y-53340000D03*
D18*
X144780000Y-50800000D03*
D19*
X144780000Y-53340000D03*
D18*
X154940000Y-50800000D03*
D19*
X154940000Y-53340000D03*
D18*
X162560000Y-50800000D03*
D19*
X162560000Y-53340000D03*
D18*
X170180000Y-50800000D03*
D19*
X170180000Y-53340000D03*
D18*
X177800000Y-50800000D03*
D19*
X177800000Y-53340000D03*
D14*
X140970000Y-77470000D03*
D15*
X143510000Y-77470000D03*
X146050000Y-77470000D03*
D12*
X168275000Y-74930000D03*
D16*
X168275000Y-64770000D03*
D12*
X171450000Y-74930000D03*
D16*
X171450000Y-64770000D03*
D12*
X174625000Y-74930000D03*
D16*
X174625000Y-64770000D03*
D12*
X177800000Y-74930000D03*
D16*
X177800000Y-64770000D03*
D12*
X180975000Y-74930000D03*
D16*
X180975000Y-64770000D03*
D12*
X184150000Y-74930000D03*
D16*
X184150000Y-64770000D03*
D12*
X187325000Y-74930000D03*
D16*
X187325000Y-64770000D03*
D12*
X190500000Y-74930000D03*
D16*
X190500000Y-64770000D03*
D11*
X140970000Y-73660000D03*
D16*
X163830000Y-66040000D03*
X143510000Y-73660000D03*
X161290000Y-66040000D03*
X146050000Y-73660000D03*
X158750000Y-66040000D03*
X148590000Y-73660000D03*
X156210000Y-66040000D03*
X151130000Y-73660000D03*
X153670000Y-66040000D03*
X153670000Y-73660000D03*
X151130000Y-66040000D03*
X156210000Y-73660000D03*
X148590000Y-66040000D03*
X158750000Y-73660000D03*
X146050000Y-66040000D03*
X161290000Y-73660000D03*
X143510000Y-66040000D03*
X163830000Y-73660000D03*
X140970000Y-66040000D03*
D12*
X179705000Y-80010000D03*
X174705000Y-80010000D03*
D11*
X140970000Y-83820000D03*
D16*
X156210000Y-116840000D03*
X140970000Y-86360000D03*
X156210000Y-114300000D03*
X140970000Y-88900000D03*
X156210000Y-111760000D03*
X140970000Y-91440000D03*
X156210000Y-109220000D03*
X140970000Y-93980000D03*
X156210000Y-106680000D03*
X140970000Y-96520000D03*
X156210000Y-104140000D03*
X140970000Y-99060000D03*
X156210000Y-101600000D03*
X140970000Y-101600000D03*
X156210000Y-99060000D03*
X140970000Y-104140000D03*
X156210000Y-96520000D03*
X140970000Y-106680000D03*
X156210000Y-93980000D03*
X140970000Y-109220000D03*
X156210000Y-91440000D03*
X140970000Y-111760000D03*
X156210000Y-88900000D03*
X140970000Y-114300000D03*
X156210000Y-86360000D03*
X140970000Y-116840000D03*
X156210000Y-83820000D03*
D11*
X164465000Y-83820000D03*
D16*
X179705000Y-116840000D03*
X164465000Y-86360000D03*
X179705000Y-114300000D03*
X164465000Y-88900000D03*
X179705000Y-111760000D03*
X164465000Y-91440000D03*
X179705000Y-109220000D03*
X164465000Y-93980000D03*
X179705000Y-106680000D03*
X164465000Y-96520000D03*
X179705000Y-104140000D03*
X164465000Y-99060000D03*
X179705000Y-101600000D03*
X164465000Y-101600000D03*
X179705000Y-99060000D03*
X164465000Y-104140000D03*
X179705000Y-96520000D03*
X164465000Y-106680000D03*
X179705000Y-93980000D03*
X164465000Y-109220000D03*
X179705000Y-91440000D03*
X164465000Y-111760000D03*
X179705000Y-88900000D03*
X164465000Y-114300000D03*
X179705000Y-86360000D03*
X164465000Y-116840000D03*
X179705000Y-83820000D03*
D14*
X114300000Y-62230000D03*
D15*
X116840000Y-62230000D03*
X119380000Y-62230000D03*
X121920000Y-62230000D03*
X124460000Y-62230000D03*
D11*
X151130000Y-125095000D03*
D16*
X158750000Y-125095000D03*
D14*
X152400000Y-120650000D03*
D15*
X154940000Y-120650000D03*
X157480000Y-120650000D03*
D14*
X141605000Y-120650000D03*
D15*
X144145000Y-120650000D03*
X146685000Y-120650000D03*
D14*
X141605000Y-125095000D03*
D15*
X144145000Y-125095000D03*
X146685000Y-125095000D03*
D14*
X187325000Y-59055000D03*
D15*
X189865000Y-59055000D03*
X192405000Y-59055000D03*
X194945000Y-59055000D03*
X197485000Y-59055000D03*
D20*
X167005000Y-62230000D03*
X114300000Y-121920000D03*
X155575000Y-144145000D03*
X156845000Y-137795000D03*
X156845000Y-140970000D03*
X156845000Y-133350000D03*
X108585000Y-123190000D03*
X151765000Y-130175000D03*
X153035000Y-125730000D03*
X135890000Y-132080000D03*
X165735000Y-138430000D03*
X165735000Y-135255000D03*
X125095000Y-100330000D03*
X121920000Y-99060000D03*
X128905000Y-133350000D03*
X146685000Y-141605000D03*
X134620000Y-140970000D03*
X132080000Y-140970000D03*
X129540000Y-123825000D03*
X129540000Y-122555000D03*
X127635000Y-100330000D03*
X124460000Y-93980000D03*
X133985000Y-64135000D03*
X136525000Y-64135000D03*
X113665000Y-92710000D03*
X116205000Y-90170000D03*
X124460000Y-90170000D03*
X120650000Y-90170000D03*
X137160000Y-80645000D03*
X138430000Y-79375000D03*
X139065000Y-73660000D03*
X139065000Y-70485000D03*
X139065000Y-67310000D03*
X118745000Y-139065000D03*
X115570000Y-135890000D03*
X113665000Y-99695000D03*
X111760000Y-104775000D03*
X113030000Y-133350000D03*
X109855000Y-138430000D03*
X113030000Y-118110000D03*
X114300000Y-104775000D03*
X114300000Y-100330000D03*
X114300000Y-118110000D03*
X114300000Y-93345000D03*
X135890000Y-135890000D03*
X135255000Y-134620000D03*
X155575000Y-136525000D03*
X134620000Y-135890000D03*
X134620000Y-133985000D03*
X153035000Y-136525000D03*
X153670000Y-133985000D03*
X153670000Y-135255000D03*
X153670000Y-131445000D03*
X154305000Y-125730000D03*
X164465000Y-135255000D03*
X165100000Y-137160000D03*
X127000000Y-100965000D03*
X128905000Y-121920000D03*
X128905000Y-124460000D03*
X135255000Y-141605000D03*
X132715000Y-141605000D03*
X147320000Y-142240000D03*
X128270000Y-132080000D03*
X121285000Y-96520000D03*
X123190000Y-84455000D03*
X121920000Y-86995000D03*
X159385000Y-63500000D03*
X135890000Y-63500000D03*
X133350000Y-63500000D03*
X149860000Y-78105000D03*
X151765000Y-76200000D03*
X128270000Y-101600000D03*
X128270000Y-122555000D03*
X128270000Y-123825000D03*
X132080000Y-135255000D03*
X147955000Y-142875000D03*
X113030000Y-96520000D03*
X126365000Y-101600000D03*
X144145000Y-79375000D03*
X142240000Y-81280000D03*
X186690000Y-135890000D03*
X198120000Y-112395000D03*
X198120000Y-109855000D03*
X148590000Y-143510000D03*
X132080000Y-136525000D03*
X127635000Y-121920000D03*
X127000000Y-123825000D03*
X186690000Y-87630000D03*
X175260000Y-88900000D03*
X177800000Y-90170000D03*
X190500000Y-87630000D03*
X182880000Y-127000000D03*
X171450000Y-99695000D03*
X171450000Y-102870000D03*
X171450000Y-107950000D03*
X171450000Y-111125000D03*
X172720000Y-95250000D03*
X170815000Y-95250000D03*
X189230000Y-92710000D03*
X170815000Y-99060000D03*
X182245000Y-127635000D03*
X170815000Y-110490000D03*
X170815000Y-107315000D03*
X170815000Y-103505000D03*
X172720000Y-104140000D03*
X191135000Y-104140000D03*
X189230000Y-105410000D03*
X170180000Y-104140000D03*
X170180000Y-107950000D03*
X170180000Y-111125000D03*
X181610000Y-128270000D03*
X170180000Y-99695000D03*
X180975000Y-128905000D03*
X169545000Y-111760000D03*
X172720000Y-112395000D03*
X187960000Y-113665000D03*
X177800000Y-112395000D03*
X169545000Y-103505000D03*
X169545000Y-107315000D03*
X169545000Y-99060000D03*
X168910000Y-102870000D03*
X168910000Y-107950000D03*
X168910000Y-111125000D03*
X180340000Y-129540000D03*
X168910000Y-100965000D03*
X184785000Y-97790000D03*
X173990000Y-99695000D03*
X172720000Y-102235000D03*
X168275000Y-110490000D03*
X179705000Y-130175000D03*
X167640000Y-111125000D03*
X179070000Y-129540000D03*
X190500000Y-92075000D03*
X172085000Y-113030000D03*
X183515000Y-114300000D03*
X186055000Y-114300000D03*
X183515000Y-126365000D03*
X167005000Y-110490000D03*
X177165000Y-128905000D03*
X114300000Y-85090000D03*
X127635000Y-73025000D03*
X139700000Y-71755000D03*
X134620000Y-73025000D03*
X124460000Y-97790000D03*
X131445000Y-137160000D03*
X132080000Y-139700000D03*
X124460000Y-95250000D03*
X148590000Y-76835000D03*
X147955000Y-78105000D03*
X157480000Y-74930000D03*
X130810000Y-139700000D03*
X130810000Y-137795000D03*
X123825000Y-95885000D03*
X123825000Y-97155000D03*
X193675000Y-76835000D03*
X193040000Y-117475000D03*
X193040000Y-110490000D03*
X192405000Y-92075000D03*
X193675000Y-98425000D03*
X193675000Y-99695000D03*
X192405000Y-88265000D03*
X193040000Y-78740000D03*
X172085000Y-121920000D03*
X182245000Y-121920000D03*
X149860000Y-127000000D03*
X166370000Y-127000000D03*
X125095000Y-121285000D03*
X135890000Y-122555000D03*
X120650000Y-100330000D03*
X120650000Y-97155000D03*
X123190000Y-100965000D03*
X129540000Y-137795000D03*
X129540000Y-139700000D03*
X128270000Y-139700000D03*
X128270000Y-137795000D03*
X131445000Y-97790000D03*
X128905000Y-99060000D03*
X143510000Y-97790000D03*
X153670000Y-97790000D03*
X121920000Y-103505000D03*
X127000000Y-137795000D03*
X127000000Y-139700000D03*
X114935000Y-92710000D03*
X114935000Y-98425000D03*
X128905000Y-110490000D03*
X121285000Y-110490000D03*
X135890000Y-109855000D03*
X121285000Y-137795000D03*
X121285000Y-139700000D03*
X113030000Y-113030000D03*
X113030000Y-116205000D03*
X120015000Y-118745000D03*
X121920000Y-140335000D03*
X121920000Y-137160000D03*
X113665000Y-113665000D03*
X113665000Y-115570000D03*
X120650000Y-119380000D03*
X136525000Y-118110000D03*
X122555000Y-137795000D03*
X122555000Y-140970000D03*
X142875000Y-115570000D03*
X171450000Y-115570000D03*
X166370000Y-115570000D03*
X128270000Y-113030000D03*
X133985000Y-115570000D03*
X121285000Y-111760000D03*
X123190000Y-137160000D03*
X123190000Y-141605000D03*
X114935000Y-113665000D03*
X114935000Y-114935000D03*
X142875000Y-112395000D03*
X135255000Y-113030000D03*
X121285000Y-109220000D03*
X128270000Y-109855000D03*
X154305000Y-113665000D03*
X152400000Y-113665000D03*
X166370000Y-113030000D03*
X172720000Y-113665000D03*
X114300000Y-135890000D03*
X118110000Y-139700000D03*
X113665000Y-109220000D03*
X112395000Y-115570000D03*
X111760000Y-121920000D03*
X152400000Y-112395000D03*
X133985000Y-107950000D03*
X143510000Y-110490000D03*
X121285000Y-106680000D03*
X128270000Y-106680000D03*
X111125000Y-116205000D03*
X111125000Y-107950000D03*
X113030000Y-135890000D03*
X116840000Y-139700000D03*
X120650000Y-104775000D03*
X128905000Y-104775000D03*
X131445000Y-105410000D03*
X139700000Y-107950000D03*
X111125000Y-127000000D03*
X110490000Y-108585000D03*
X110490000Y-116840000D03*
X111125000Y-125095000D03*
X111760000Y-135890000D03*
X115570000Y-139700000D03*
X121285000Y-104140000D03*
X128270000Y-104140000D03*
X131445000Y-102870000D03*
X139700000Y-105410000D03*
X110490000Y-124460000D03*
X109855000Y-117475000D03*
X109855000Y-107950000D03*
X110490000Y-127635000D03*
X110490000Y-135890000D03*
X114300000Y-139700000D03*
X151765000Y-118110000D03*
X152400000Y-91440000D03*
X149860000Y-70485000D03*
X149860000Y-68580000D03*
X151765000Y-87630000D03*
X151130000Y-83185000D03*
X149225000Y-76200000D03*
X153035000Y-115570000D03*
X153035000Y-111125000D03*
X153035000Y-106045000D03*
X153035000Y-102235000D03*
X153035000Y-97155000D03*
X137160000Y-133985000D03*
X137160000Y-137160000D03*
X197485000Y-106680000D03*
X193675000Y-116205000D03*
X170180000Y-90170000D03*
X172720000Y-91440000D03*
X182880000Y-90805000D03*
X172085000Y-86995000D03*
X172085000Y-89535000D03*
X172085000Y-103505000D03*
X172085000Y-99060000D03*
X189230000Y-107950000D03*
X180975000Y-107950000D03*
X177165000Y-107950000D03*
X170180000Y-92710000D03*
X172720000Y-92710000D03*
X182880000Y-93980000D03*
X182245000Y-87630000D03*
X186055000Y-85725000D03*
X182245000Y-101600000D03*
X176530000Y-90805000D03*
X175260000Y-86995000D03*
X176530000Y-88900000D03*
X177800000Y-92710000D03*
X186690000Y-90170000D03*
X191135000Y-90170000D03*
X154940000Y-81915000D03*
X157480000Y-81915000D03*
X169545000Y-95885000D03*
X173355000Y-95885000D03*
X185420000Y-100330000D03*
X185420000Y-103505000D03*
X172720000Y-121285000D03*
X172720000Y-115570000D03*
X172720000Y-106680000D03*
X153670000Y-111760000D03*
X153670000Y-114935000D03*
X170180000Y-128270000D03*
X153035000Y-118110000D03*
X167640000Y-71755000D03*
X179070000Y-71755000D03*
X167005000Y-71120000D03*
X178435000Y-71120000D03*
X179070000Y-70485000D03*
X167640000Y-70485000D03*
X178435000Y-69850000D03*
X167005000Y-69850000D03*
X109855000Y-99060000D03*
X109855000Y-95885000D03*
X112395000Y-88265000D03*
X129540000Y-128905000D03*
X152400000Y-140335000D03*
X152400000Y-137795000D03*
X152400000Y-133985000D03*
X134620000Y-125730000D03*
X138430000Y-128905000D03*
X109855000Y-125730000D03*
X109220000Y-118110000D03*
X109220000Y-110490000D03*
X118745000Y-133985000D03*
X114300000Y-128905000D03*
X151765000Y-140970000D03*
X151765000Y-137160000D03*
X151130000Y-133985000D03*
X118110000Y-134620000D03*
X137795000Y-129540000D03*
X109220000Y-125095000D03*
X113665000Y-129540000D03*
X109855000Y-88900000D03*
X110490000Y-85725000D03*
X109220000Y-95250000D03*
X109220000Y-99695000D03*
X158115000Y-81280000D03*
X154305000Y-81280000D03*
X144145000Y-81915000D03*
X136525000Y-85090000D03*
X107315000Y-81280000D03*
X124460000Y-81915000D03*
X121920000Y-81915000D03*
X103505000Y-81280000D03*
X166370000Y-87630000D03*
X147955000Y-123190000D03*
X172720000Y-122555000D03*
X181610000Y-122555000D03*
X147320000Y-127635000D03*
X150495000Y-127635000D03*
X171450000Y-127635000D03*
X102235000Y-122555000D03*
X102235000Y-123825000D03*
X102235000Y-132715000D03*
X102235000Y-130175000D03*
X113665000Y-132715000D03*
X107950000Y-134620000D03*
X118745000Y-135255000D03*
X136525000Y-130175000D03*
X129540000Y-130810000D03*
X131445000Y-130810000D03*
X197485000Y-114935000D03*
X198120000Y-78740000D03*
X198120000Y-107315000D03*
X198120000Y-76835000D03*
X156845000Y-122555000D03*
X166370000Y-125730000D03*
X172720000Y-120015000D03*
X180340000Y-121285000D03*
X181610000Y-121285000D03*
X189230000Y-120650000D03*
X172085000Y-119380000D03*
X165735000Y-125095000D03*
X192405000Y-116840000D03*
X192405000Y-111125000D03*
X193040000Y-97790000D03*
X193040000Y-100330000D03*
X191770000Y-92710000D03*
X191770000Y-87630000D03*
X192405000Y-76835000D03*
X192405000Y-78105000D03*
X149860000Y-117475000D03*
X153670000Y-118745000D03*
X178435000Y-121285000D03*
X173355000Y-120650000D03*
X165735000Y-126365000D03*
X156210000Y-123190000D03*
X147320000Y-122555000D03*
X109220000Y-90805000D03*
X113665000Y-79375000D03*
X128270000Y-69215000D03*
D21*
X101600000Y-84455000D02*
X101600000Y-82550000D01*
X102235000Y-81915000D02*
X104775000Y-81915000D01*
X101600000Y-82550000D02*
X102235000Y-81915000D01*
X101600000Y-85725000D02*
X101600000Y-84455000D01*
X101600000Y-123190000D02*
X101600000Y-85725000D01*
D22*
X107950000Y-76835000D02*
X106045000Y-76835000D01*
X104775000Y-78105000D02*
X104775000Y-80010000D01*
X106045000Y-76835000D02*
X104775000Y-78105000D01*
X110490000Y-62865000D02*
X110490000Y-62230000D01*
X110490000Y-60325000D02*
X110490000Y-62230000D01*
X110490000Y-59055000D02*
X110490000Y-60325000D01*
X107950000Y-76835000D02*
X109220000Y-76835000D01*
X109220000Y-76835000D02*
X110490000Y-75565000D01*
X110490000Y-75565000D02*
X110490000Y-62865000D01*
X104775000Y-80010000D02*
X104775000Y-81915000D01*
X104775000Y-81915000D02*
X104775000Y-83820000D01*
X124460000Y-62230000D02*
X133350000Y-62230000D01*
X124460000Y-62230000D02*
X124460000Y-60325000D01*
X111125000Y-59690000D02*
X110490000Y-59055000D01*
X123825000Y-59690000D02*
X111125000Y-59690000D01*
X124460000Y-60325000D02*
X123825000Y-59690000D01*
D21*
X195580000Y-113030000D02*
X197485000Y-111125000D01*
X198120000Y-77470000D02*
X193040000Y-77470000D01*
X198755000Y-78105000D02*
X198120000Y-77470000D01*
X198755000Y-110490000D02*
X198755000Y-78105000D01*
X198120000Y-111125000D02*
X198755000Y-110490000D01*
X197485000Y-111125000D02*
X198120000Y-111125000D01*
X195580000Y-113030000D02*
X193675000Y-114935000D01*
X186690000Y-114935000D02*
X184785000Y-116840000D01*
X184785000Y-130175000D02*
X184785000Y-133350000D01*
X179070000Y-132715000D02*
X179070000Y-132080000D01*
X180340000Y-133985000D02*
X179070000Y-132715000D01*
X184150000Y-133985000D02*
X180340000Y-133985000D01*
X184785000Y-133350000D02*
X184150000Y-133985000D01*
X177800000Y-129540000D02*
X179070000Y-130810000D01*
X184785000Y-130175000D02*
X184785000Y-126365000D01*
X179070000Y-130810000D02*
X179070000Y-132080000D01*
X177800000Y-129540000D02*
X167640000Y-129540000D01*
X184785000Y-126365000D02*
X184785000Y-116840000D01*
X186690000Y-114935000D02*
X193675000Y-114935000D01*
X195580000Y-113030000D02*
X195580000Y-114935000D01*
X195580000Y-114935000D02*
X195580000Y-116840000D01*
D22*
X133350000Y-62230000D02*
X167005000Y-62230000D01*
D21*
X182245000Y-77470000D02*
X193040000Y-77470000D01*
X193040000Y-77470000D02*
X195580000Y-80010000D01*
X115570000Y-121920000D02*
X114300000Y-121920000D01*
X110490000Y-53340000D02*
X110490000Y-55245000D01*
D22*
X110490000Y-55245000D02*
X110490000Y-59055000D01*
D21*
X146050000Y-78740000D02*
X147320000Y-77470000D01*
X144780000Y-80010000D02*
X146050000Y-78740000D01*
X154940000Y-144780000D02*
X155575000Y-144145000D01*
X156845000Y-129540000D02*
X156845000Y-133350000D01*
X156845000Y-137795000D02*
X156845000Y-140970000D01*
X154940000Y-144780000D02*
X154940000Y-146050000D01*
X156210000Y-83820000D02*
X160020000Y-83820000D01*
X156210000Y-83820000D02*
X156210000Y-80010000D01*
X146050000Y-77470000D02*
X146050000Y-78740000D01*
X143510000Y-80010000D02*
X132715000Y-80010000D01*
X144780000Y-80010000D02*
X143510000Y-80010000D01*
X179705000Y-80010000D02*
X179705000Y-83820000D01*
X183515000Y-81280000D02*
X183515000Y-78740000D01*
X183515000Y-83820000D02*
X183515000Y-81280000D01*
X183515000Y-78740000D02*
X182245000Y-77470000D01*
X178435000Y-77470000D02*
X182245000Y-77470000D01*
X156210000Y-77470000D02*
X178435000Y-77470000D01*
X154940000Y-77470000D02*
X156210000Y-77470000D01*
X179705000Y-78740000D02*
X179705000Y-80010000D01*
X178435000Y-77470000D02*
X179705000Y-78740000D01*
X156210000Y-80010000D02*
X156210000Y-78740000D01*
X156210000Y-78740000D02*
X154940000Y-77470000D01*
X147320000Y-77470000D02*
X154940000Y-77470000D01*
X132715000Y-80010000D02*
X132715000Y-71120000D01*
X132715000Y-71120000D02*
X137160000Y-66675000D01*
X137160000Y-66675000D02*
X137160000Y-66040000D01*
X133350000Y-62230000D02*
X137160000Y-66040000D01*
X154940000Y-145415000D02*
X154940000Y-146050000D01*
X101600000Y-123190000D02*
X108585000Y-123190000D01*
X115570000Y-121920000D02*
X117475000Y-121920000D01*
X104775000Y-132080000D02*
X102870000Y-132080000D01*
X102870000Y-132080000D02*
X101600000Y-130810000D01*
X160020000Y-83820000D02*
X160020000Y-84455000D01*
X195580000Y-83820000D02*
X195580000Y-80010000D01*
X163195000Y-129540000D02*
X167640000Y-129540000D01*
X158750000Y-129540000D02*
X163195000Y-129540000D01*
X154305000Y-129540000D02*
X156845000Y-129540000D01*
X156845000Y-129540000D02*
X158750000Y-129540000D01*
X145415000Y-129540000D02*
X140970000Y-129540000D01*
X149860000Y-129540000D02*
X145415000Y-129540000D01*
X154305000Y-129540000D02*
X149860000Y-129540000D01*
X137160000Y-66040000D02*
X140970000Y-66040000D01*
X132715000Y-80010000D02*
X132715000Y-83820000D01*
X101600000Y-130810000D02*
X101600000Y-123190000D01*
X153035000Y-133350000D02*
X153035000Y-131445000D01*
X153035000Y-134620000D02*
X153035000Y-133350000D01*
X151765000Y-130175000D02*
X153035000Y-131445000D01*
X153035000Y-125730000D02*
X153035000Y-122555000D01*
X152400000Y-120650000D02*
X152400000Y-121920000D01*
X153035000Y-122555000D02*
X152400000Y-121920000D01*
X107315000Y-99060000D02*
X108585000Y-97790000D01*
X108585000Y-97790000D02*
X110490000Y-97790000D01*
X165735000Y-138430000D02*
X167005000Y-139700000D01*
X154940000Y-134620000D02*
X157480000Y-134620000D01*
X135890000Y-133985000D02*
X135890000Y-132080000D01*
X136525000Y-134620000D02*
X135890000Y-133985000D01*
X154940000Y-134620000D02*
X153670000Y-134620000D01*
X165100000Y-134620000D02*
X157480000Y-134620000D01*
X165735000Y-135255000D02*
X165100000Y-134620000D01*
X153670000Y-134620000D02*
X153035000Y-134620000D01*
X153035000Y-134620000D02*
X136525000Y-134620000D01*
X135890000Y-132080000D02*
X135890000Y-128270000D01*
X135890000Y-128270000D02*
X135890000Y-123825000D01*
X135255000Y-123190000D02*
X133985000Y-123190000D01*
X135890000Y-123825000D02*
X135255000Y-123190000D01*
X120650000Y-97790000D02*
X118745000Y-97790000D01*
X120650000Y-97790000D02*
X121920000Y-99060000D01*
X110490000Y-97790000D02*
X118745000Y-97790000D01*
X127635000Y-123190000D02*
X127000000Y-122555000D01*
X130175000Y-123190000D02*
X127635000Y-123190000D01*
X133985000Y-123190000D02*
X130175000Y-123190000D01*
X125095000Y-117475000D02*
X125095000Y-100330000D01*
X127000000Y-119380000D02*
X125095000Y-117475000D01*
X127000000Y-122555000D02*
X127000000Y-119380000D01*
X167005000Y-139700000D02*
X167640000Y-139700000D01*
X190500000Y-146050000D02*
X190500000Y-139700000D01*
X190500000Y-139700000D02*
X189865000Y-139065000D01*
X189865000Y-139065000D02*
X188595000Y-139065000D01*
X169545000Y-140970000D02*
X168275000Y-139700000D01*
X169545000Y-140970000D02*
X180975000Y-140970000D01*
X180975000Y-140970000D02*
X182880000Y-139065000D01*
X182880000Y-139065000D02*
X188595000Y-139065000D01*
X167640000Y-139700000D02*
X168275000Y-139700000D01*
X128905000Y-133350000D02*
X128905000Y-127000000D01*
X127635000Y-102870000D02*
X127635000Y-100330000D01*
X187960000Y-146050000D02*
X187960000Y-142240000D01*
X187325000Y-139700000D02*
X187960000Y-140335000D01*
X187960000Y-140335000D02*
X187960000Y-142240000D01*
X147955000Y-141605000D02*
X146685000Y-141605000D01*
X187325000Y-139700000D02*
X183515000Y-139700000D01*
X157480000Y-141605000D02*
X181610000Y-141605000D01*
X183515000Y-139700000D02*
X181610000Y-141605000D01*
X147955000Y-141605000D02*
X157480000Y-141605000D01*
X134620000Y-140970000D02*
X132080000Y-140970000D01*
X129540000Y-119380000D02*
X129540000Y-122555000D01*
X127635000Y-102870000D02*
X127635000Y-113030000D01*
X127635000Y-113030000D02*
X127635000Y-114935000D01*
X127635000Y-114935000D02*
X129540000Y-116840000D01*
X129540000Y-116840000D02*
X129540000Y-119380000D01*
X128905000Y-125730000D02*
X128905000Y-127000000D01*
X129540000Y-125095000D02*
X128905000Y-125730000D01*
X129540000Y-123825000D02*
X129540000Y-125095000D01*
X163830000Y-66040000D02*
X163830000Y-64770000D01*
X123825000Y-79375000D02*
X129540000Y-73660000D01*
X129540000Y-73660000D02*
X129540000Y-71755000D01*
X123825000Y-81280000D02*
X123825000Y-93345000D01*
X123825000Y-93345000D02*
X124460000Y-93980000D01*
X123825000Y-81280000D02*
X123825000Y-79375000D01*
X129540000Y-64770000D02*
X129540000Y-71755000D01*
X130175000Y-64135000D02*
X129540000Y-64770000D01*
X130810000Y-64135000D02*
X130175000Y-64135000D01*
X133985000Y-64135000D02*
X130810000Y-64135000D01*
X163195000Y-64135000D02*
X136525000Y-64135000D01*
X163830000Y-64770000D02*
X163195000Y-64135000D01*
X115570000Y-95885000D02*
X115570000Y-96520000D01*
X108585000Y-97155000D02*
X107950000Y-96520000D01*
X114935000Y-97155000D02*
X108585000Y-97155000D01*
X115570000Y-96520000D02*
X114935000Y-97155000D01*
X107950000Y-96520000D02*
X107315000Y-96520000D01*
X116205000Y-93980000D02*
X117475000Y-93980000D01*
X115570000Y-94615000D02*
X116205000Y-93980000D01*
X115570000Y-95885000D02*
X115570000Y-94615000D01*
X108585000Y-90170000D02*
X108585000Y-90805000D01*
X113665000Y-92710000D02*
X113665000Y-92075000D01*
X113665000Y-88265000D02*
X113030000Y-87630000D01*
X113030000Y-87630000D02*
X109855000Y-87630000D01*
X109855000Y-87630000D02*
X109220000Y-88265000D01*
X109220000Y-88265000D02*
X109220000Y-89535000D01*
X109220000Y-89535000D02*
X108585000Y-90170000D01*
X113665000Y-92075000D02*
X113665000Y-88265000D01*
X108585000Y-90805000D02*
X107950000Y-91440000D01*
X107950000Y-91440000D02*
X107315000Y-91440000D01*
X125730000Y-88900000D02*
X132715000Y-88900000D01*
X124460000Y-90170000D02*
X125730000Y-88900000D01*
X120650000Y-90170000D02*
X116205000Y-90170000D01*
X111760000Y-104775000D02*
X111760000Y-104140000D01*
X111760000Y-104140000D02*
X113665000Y-102235000D01*
X137160000Y-81915000D02*
X137160000Y-80645000D01*
X138430000Y-79375000D02*
X139065000Y-78740000D01*
X139065000Y-78740000D02*
X139065000Y-73660000D01*
X139065000Y-70485000D02*
X139065000Y-67310000D01*
X132715000Y-88900000D02*
X136525000Y-88900000D01*
X137160000Y-88265000D02*
X137160000Y-81915000D01*
X136525000Y-88900000D02*
X137160000Y-88265000D01*
X146685000Y-140970000D02*
X144145000Y-140970000D01*
X132715000Y-139065000D02*
X118745000Y-139065000D01*
X133985000Y-137795000D02*
X132715000Y-139065000D01*
X142240000Y-137795000D02*
X133985000Y-137795000D01*
X143510000Y-139065000D02*
X142240000Y-137795000D01*
X143510000Y-140335000D02*
X143510000Y-139065000D01*
X144145000Y-140970000D02*
X143510000Y-140335000D01*
X113030000Y-133350000D02*
X115570000Y-135890000D01*
X148590000Y-140970000D02*
X149860000Y-139700000D01*
X146685000Y-140970000D02*
X148590000Y-140970000D01*
X113665000Y-99695000D02*
X113665000Y-102235000D01*
X113030000Y-119380000D02*
X113030000Y-118110000D01*
X109220000Y-139065000D02*
X109855000Y-138430000D01*
X109220000Y-139065000D02*
X109220000Y-146050000D01*
X113030000Y-119380000D02*
X113030000Y-133350000D01*
X114300000Y-118110000D02*
X114300000Y-118745000D01*
X118745000Y-121285000D02*
X118745000Y-124460000D01*
X118110000Y-120650000D02*
X118745000Y-121285000D01*
X116205000Y-120650000D02*
X118110000Y-120650000D01*
X114300000Y-118745000D02*
X116205000Y-120650000D01*
X108585000Y-87630000D02*
X108585000Y-88265000D01*
X114300000Y-104775000D02*
X114300000Y-100330000D01*
X114300000Y-93345000D02*
X114300000Y-89535000D01*
X114300000Y-87630000D02*
X113665000Y-86995000D01*
X113665000Y-86995000D02*
X109220000Y-86995000D01*
X109220000Y-86995000D02*
X108585000Y-87630000D01*
X114300000Y-89535000D02*
X114300000Y-87630000D01*
X108585000Y-88265000D02*
X107950000Y-88900000D01*
X107950000Y-88900000D02*
X107315000Y-88900000D01*
X118745000Y-124460000D02*
X119380000Y-124460000D01*
X120015000Y-137795000D02*
X119380000Y-137795000D01*
X120650000Y-137160000D02*
X120015000Y-137795000D01*
X120650000Y-125730000D02*
X120650000Y-137160000D01*
X119380000Y-124460000D02*
X120650000Y-125730000D01*
X106680000Y-144780000D02*
X107950000Y-143510000D01*
X119380000Y-137795000D02*
X113030000Y-137795000D01*
X106680000Y-144780000D02*
X106680000Y-146050000D01*
X108585000Y-137795000D02*
X113030000Y-137795000D01*
X107950000Y-138430000D02*
X108585000Y-137795000D01*
X107950000Y-143510000D02*
X107950000Y-138430000D01*
X117475000Y-124460000D02*
X118745000Y-124460000D01*
X135255000Y-128905000D02*
X135255000Y-125095000D01*
X134620000Y-124460000D02*
X132715000Y-124460000D01*
X135255000Y-125095000D02*
X134620000Y-124460000D01*
X154940000Y-135890000D02*
X157480000Y-135890000D01*
X167640000Y-135890000D02*
X157480000Y-135890000D01*
X198120000Y-144780000D02*
X198755000Y-144145000D01*
X198755000Y-144145000D02*
X198755000Y-139065000D01*
X198755000Y-139065000D02*
X196850000Y-137160000D01*
X196850000Y-137160000D02*
X193675000Y-137160000D01*
X198120000Y-144780000D02*
X198120000Y-146050000D01*
X179070000Y-139065000D02*
X171450000Y-139065000D01*
X168275000Y-135890000D02*
X171450000Y-139065000D01*
X167640000Y-135890000D02*
X168275000Y-135890000D01*
X193675000Y-137160000D02*
X180975000Y-137160000D01*
X180975000Y-137160000D02*
X179070000Y-139065000D01*
X135255000Y-133350000D02*
X135255000Y-134620000D01*
X154940000Y-135890000D02*
X139065000Y-135890000D01*
X138430000Y-135890000D02*
X139065000Y-135890000D01*
X135255000Y-128905000D02*
X135255000Y-133350000D01*
X135890000Y-135890000D02*
X138430000Y-135890000D01*
X132715000Y-124460000D02*
X132715000Y-125095000D01*
X154305000Y-136525000D02*
X154305000Y-139700000D01*
X154940000Y-135890000D02*
X154305000Y-136525000D01*
X154305000Y-139065000D02*
X154305000Y-139700000D01*
X134620000Y-129540000D02*
X134620000Y-127635000D01*
X133985000Y-127000000D02*
X132715000Y-127000000D01*
X134620000Y-127635000D02*
X133985000Y-127000000D01*
X155575000Y-136525000D02*
X156845000Y-136525000D01*
X135255000Y-136525000D02*
X134620000Y-135890000D01*
X135890000Y-136525000D02*
X135255000Y-136525000D01*
X159385000Y-136525000D02*
X156845000Y-136525000D01*
X135890000Y-136525000D02*
X140335000Y-136525000D01*
X134620000Y-129540000D02*
X134620000Y-133985000D01*
X153035000Y-136525000D02*
X140335000Y-136525000D01*
X132715000Y-127000000D02*
X133350000Y-127000000D01*
X167005000Y-136525000D02*
X167640000Y-136525000D01*
X167640000Y-136525000D02*
X170815000Y-139700000D01*
X198120000Y-139700000D02*
X196215000Y-137795000D01*
X196215000Y-137795000D02*
X193040000Y-137795000D01*
X198120000Y-143510000D02*
X195580000Y-146050000D01*
X198120000Y-143510000D02*
X198120000Y-140970000D01*
X198120000Y-140970000D02*
X198120000Y-139700000D01*
X181610000Y-137795000D02*
X193040000Y-137795000D01*
X179705000Y-139700000D02*
X181610000Y-137795000D01*
X170815000Y-139700000D02*
X179705000Y-139700000D01*
X159385000Y-136525000D02*
X167005000Y-136525000D01*
X158750000Y-139700000D02*
X158750000Y-137160000D01*
X158750000Y-137160000D02*
X159385000Y-136525000D01*
X153670000Y-131445000D02*
X153670000Y-133985000D01*
X154305000Y-125730000D02*
X154305000Y-122555000D01*
X153670000Y-120015000D02*
X153670000Y-121920000D01*
X153670000Y-121920000D02*
X154305000Y-122555000D01*
X157480000Y-120015000D02*
X156845000Y-119380000D01*
X156845000Y-119380000D02*
X154305000Y-119380000D01*
X154305000Y-119380000D02*
X153670000Y-120015000D01*
X157480000Y-120650000D02*
X157480000Y-120015000D01*
X155575000Y-135255000D02*
X156845000Y-135255000D01*
X153670000Y-135255000D02*
X155575000Y-135255000D01*
X156845000Y-135255000D02*
X164465000Y-135255000D01*
X133350000Y-129540000D02*
X133985000Y-130175000D01*
X133985000Y-134620000D02*
X134620000Y-135255000D01*
X133985000Y-130175000D02*
X133985000Y-134620000D01*
X134620000Y-135255000D02*
X139065000Y-135255000D01*
X139065000Y-135255000D02*
X153670000Y-135255000D01*
X132715000Y-129540000D02*
X133350000Y-129540000D01*
X179070000Y-140335000D02*
X180340000Y-140335000D01*
X180340000Y-140335000D02*
X182245000Y-138430000D01*
X182245000Y-138430000D02*
X191135000Y-138430000D01*
X191135000Y-138430000D02*
X191770000Y-139065000D01*
X191770000Y-139065000D02*
X191770000Y-144780000D01*
X191770000Y-144780000D02*
X193040000Y-146050000D01*
X179070000Y-140335000D02*
X170180000Y-140335000D01*
X166370000Y-137160000D02*
X167005000Y-137160000D01*
X165100000Y-137160000D02*
X166370000Y-137160000D01*
X167005000Y-137160000D02*
X167640000Y-137795000D01*
X170180000Y-140335000D02*
X167640000Y-137795000D01*
X163195000Y-139065000D02*
X165100000Y-137160000D01*
X163195000Y-139700000D02*
X163195000Y-139065000D01*
X128270000Y-127635000D02*
X128270000Y-132080000D01*
X128905000Y-124460000D02*
X128270000Y-125095000D01*
X128270000Y-125095000D02*
X128270000Y-127635000D01*
X128905000Y-117475000D02*
X128905000Y-119380000D01*
X127000000Y-115570000D02*
X128905000Y-117475000D01*
X127000000Y-102235000D02*
X127000000Y-115570000D01*
X128905000Y-119380000D02*
X128905000Y-121920000D01*
X132715000Y-141605000D02*
X135255000Y-141605000D01*
X149225000Y-142240000D02*
X157480000Y-142240000D01*
X182245000Y-142240000D02*
X157480000Y-142240000D01*
X184150000Y-140335000D02*
X182880000Y-141605000D01*
X182880000Y-141605000D02*
X182245000Y-142240000D01*
X186690000Y-140335000D02*
X184150000Y-140335000D01*
X149225000Y-142240000D02*
X147320000Y-142240000D01*
X186690000Y-141605000D02*
X186690000Y-144780000D01*
X186690000Y-140335000D02*
X186690000Y-141605000D01*
X186690000Y-144780000D02*
X185420000Y-146050000D01*
X127000000Y-102235000D02*
X127000000Y-100965000D01*
X128905000Y-71755000D02*
X128905000Y-64135000D01*
X123190000Y-78740000D02*
X128905000Y-73025000D01*
X128905000Y-73025000D02*
X128905000Y-71755000D01*
X121920000Y-90805000D02*
X121920000Y-86995000D01*
X121285000Y-96520000D02*
X121285000Y-92075000D01*
X121285000Y-92075000D02*
X121920000Y-91440000D01*
X121920000Y-90805000D02*
X121920000Y-91440000D01*
X123190000Y-84455000D02*
X123190000Y-81280000D01*
X123190000Y-81280000D02*
X123190000Y-78740000D01*
X135890000Y-63500000D02*
X159385000Y-63500000D01*
X129540000Y-63500000D02*
X133350000Y-63500000D01*
X128905000Y-64135000D02*
X129540000Y-63500000D01*
X142875000Y-81915000D02*
X143510000Y-81280000D01*
X143510000Y-81280000D02*
X146685000Y-81280000D01*
X146685000Y-81280000D02*
X149860000Y-78105000D01*
X134620000Y-100965000D02*
X134620000Y-100330000D01*
X134620000Y-100330000D02*
X135890000Y-99060000D01*
X135890000Y-99060000D02*
X135890000Y-98425000D01*
X135890000Y-98425000D02*
X136525000Y-97790000D01*
X136525000Y-97790000D02*
X136525000Y-95885000D01*
X136525000Y-95885000D02*
X137160000Y-95250000D01*
X137160000Y-95250000D02*
X137160000Y-94615000D01*
X137160000Y-94615000D02*
X137795000Y-93980000D01*
X137795000Y-93980000D02*
X137795000Y-92710000D01*
X137795000Y-92710000D02*
X138430000Y-92075000D01*
X138430000Y-92075000D02*
X138430000Y-90805000D01*
X138430000Y-90805000D02*
X139065000Y-90170000D01*
X139065000Y-90170000D02*
X139065000Y-82550000D01*
X139065000Y-82550000D02*
X139700000Y-81915000D01*
X132715000Y-101600000D02*
X133985000Y-101600000D01*
X133985000Y-101600000D02*
X134620000Y-100965000D01*
X139700000Y-81915000D02*
X142875000Y-81915000D01*
X151765000Y-76200000D02*
X153670000Y-74295000D01*
X153670000Y-74295000D02*
X153670000Y-73660000D01*
X128270000Y-101600000D02*
X132715000Y-101600000D01*
X126365000Y-101600000D02*
X126365000Y-102870000D01*
X126365000Y-102870000D02*
X126365000Y-116205000D01*
X126365000Y-116205000D02*
X128270000Y-118110000D01*
X128270000Y-118110000D02*
X128270000Y-122555000D01*
X128270000Y-123825000D02*
X127635000Y-124460000D01*
X127635000Y-124460000D02*
X127635000Y-133350000D01*
X127635000Y-133350000D02*
X128270000Y-133985000D01*
X128270000Y-133985000D02*
X130175000Y-133985000D01*
X130175000Y-133985000D02*
X130810000Y-133985000D01*
X130810000Y-133985000D02*
X132080000Y-135255000D01*
X150495000Y-142875000D02*
X147955000Y-142875000D01*
X182880000Y-143510000D02*
X182880000Y-146050000D01*
X182245000Y-142875000D02*
X157480000Y-142875000D01*
X182880000Y-143510000D02*
X182245000Y-142875000D01*
X150495000Y-142875000D02*
X157480000Y-142875000D01*
X107315000Y-93980000D02*
X107950000Y-93980000D01*
X107950000Y-93980000D02*
X108585000Y-94615000D01*
X109220000Y-96520000D02*
X113030000Y-96520000D01*
X108585000Y-95885000D02*
X109220000Y-96520000D01*
X108585000Y-94615000D02*
X108585000Y-95885000D01*
X127635000Y-99060000D02*
X128905000Y-100330000D01*
X131445000Y-100330000D02*
X132715000Y-99060000D01*
X130810000Y-100965000D02*
X131445000Y-100330000D01*
X129540000Y-100965000D02*
X130810000Y-100965000D01*
X128905000Y-100330000D02*
X129540000Y-100965000D01*
X144780000Y-76835000D02*
X144780000Y-78740000D01*
X133985000Y-99060000D02*
X135255000Y-97790000D01*
X135255000Y-97790000D02*
X135255000Y-97155000D01*
X135255000Y-97155000D02*
X135890000Y-96520000D01*
X135890000Y-96520000D02*
X135890000Y-95250000D01*
X135890000Y-95250000D02*
X136525000Y-94615000D01*
X136525000Y-94615000D02*
X136525000Y-93980000D01*
X136525000Y-93980000D02*
X137160000Y-93345000D01*
X137160000Y-93345000D02*
X137160000Y-92075000D01*
X137160000Y-92075000D02*
X137795000Y-91440000D01*
X137795000Y-91440000D02*
X137795000Y-90170000D01*
X137795000Y-90170000D02*
X138430000Y-89535000D01*
X138430000Y-89535000D02*
X138430000Y-81915000D01*
X138430000Y-81915000D02*
X139065000Y-81280000D01*
X139065000Y-81280000D02*
X142240000Y-81280000D01*
X132715000Y-99060000D02*
X133985000Y-99060000D01*
X144780000Y-78740000D02*
X144145000Y-79375000D01*
X148590000Y-73660000D02*
X148590000Y-74930000D01*
X144780000Y-76200000D02*
X144780000Y-76835000D01*
X145415000Y-75565000D02*
X144780000Y-76200000D01*
X147955000Y-75565000D02*
X145415000Y-75565000D01*
X148590000Y-74930000D02*
X147955000Y-75565000D01*
X187960000Y-134620000D02*
X189230000Y-134620000D01*
X186690000Y-135890000D02*
X187960000Y-134620000D01*
X196215000Y-106680000D02*
X198120000Y-108585000D01*
X197485000Y-134620000D02*
X189230000Y-134620000D01*
X198120000Y-133985000D02*
X197485000Y-134620000D01*
X198120000Y-112395000D02*
X198120000Y-133985000D01*
X198120000Y-108585000D02*
X198120000Y-109855000D01*
X195580000Y-106680000D02*
X196215000Y-106680000D01*
X132080000Y-136525000D02*
X130175000Y-134620000D01*
X149860000Y-143510000D02*
X157480000Y-143510000D01*
X180340000Y-144145000D02*
X179705000Y-143510000D01*
X179705000Y-143510000D02*
X157480000Y-143510000D01*
X180340000Y-146050000D02*
X180340000Y-144145000D01*
X149860000Y-143510000D02*
X148590000Y-143510000D01*
X127000000Y-99060000D02*
X127635000Y-99060000D01*
X125730000Y-100330000D02*
X127000000Y-99060000D01*
X125730000Y-116840000D02*
X125730000Y-100330000D01*
X127635000Y-118745000D02*
X125730000Y-116840000D01*
X127635000Y-121920000D02*
X127635000Y-118745000D01*
X127000000Y-133985000D02*
X127000000Y-123825000D01*
X127635000Y-134620000D02*
X127000000Y-133985000D01*
X128270000Y-134620000D02*
X127635000Y-134620000D01*
X130175000Y-134620000D02*
X128270000Y-134620000D01*
X190500000Y-87630000D02*
X191770000Y-88900000D01*
X194945000Y-89535000D02*
X195580000Y-88900000D01*
X192405000Y-89535000D02*
X194945000Y-89535000D01*
X191770000Y-88900000D02*
X192405000Y-89535000D01*
X171450000Y-113665000D02*
X172085000Y-114300000D01*
X177800000Y-114300000D02*
X179070000Y-115570000D01*
X172085000Y-114300000D02*
X177800000Y-114300000D01*
X186055000Y-89535000D02*
X184150000Y-91440000D01*
X186055000Y-88265000D02*
X186690000Y-87630000D01*
X186055000Y-89535000D02*
X186055000Y-88265000D01*
X160020000Y-90170000D02*
X161925000Y-90170000D01*
X163195000Y-88900000D02*
X164465000Y-88900000D01*
X161925000Y-90170000D02*
X163195000Y-88900000D01*
X170815000Y-88900000D02*
X175260000Y-88900000D01*
X182245000Y-91440000D02*
X184150000Y-91440000D01*
X180975000Y-90170000D02*
X182245000Y-91440000D01*
X177800000Y-90170000D02*
X180975000Y-90170000D01*
X182880000Y-127000000D02*
X182880000Y-123190000D01*
X182880000Y-123190000D02*
X182880000Y-116840000D01*
X182880000Y-116840000D02*
X181610000Y-115570000D01*
X181610000Y-115570000D02*
X179070000Y-115570000D01*
X170815000Y-88900000D02*
X164465000Y-88900000D01*
X171450000Y-89535000D02*
X170815000Y-88900000D01*
X171450000Y-90170000D02*
X171450000Y-89535000D01*
X171450000Y-99695000D02*
X171450000Y-90170000D01*
X171450000Y-107950000D02*
X171450000Y-102870000D01*
X171450000Y-113665000D02*
X171450000Y-111125000D01*
X140970000Y-88900000D02*
X153670000Y-88900000D01*
X153670000Y-88900000D02*
X154940000Y-90170000D01*
X154940000Y-90170000D02*
X160020000Y-90170000D01*
X160020000Y-90170000D02*
X158115000Y-90170000D01*
X135255000Y-100965000D02*
X136525000Y-99695000D01*
X139700000Y-90170000D02*
X140970000Y-88900000D01*
X139700000Y-90805000D02*
X139700000Y-90170000D01*
X139065000Y-91440000D02*
X139700000Y-90805000D01*
X139065000Y-92710000D02*
X139065000Y-91440000D01*
X138430000Y-93345000D02*
X139065000Y-92710000D01*
X138430000Y-94615000D02*
X138430000Y-93345000D01*
X137795000Y-95250000D02*
X138430000Y-94615000D01*
X137795000Y-95885000D02*
X137795000Y-95250000D01*
X137160000Y-96520000D02*
X137795000Y-95885000D01*
X137160000Y-98425000D02*
X137160000Y-96520000D01*
X136525000Y-99060000D02*
X137160000Y-98425000D01*
X136525000Y-99695000D02*
X136525000Y-99060000D01*
X132715000Y-104140000D02*
X133350000Y-104140000D01*
X133350000Y-104140000D02*
X135255000Y-102235000D01*
X135255000Y-102235000D02*
X135255000Y-100965000D01*
X189230000Y-92710000D02*
X182880000Y-92710000D01*
X177800000Y-95250000D02*
X180975000Y-95250000D01*
X172720000Y-95250000D02*
X176530000Y-95250000D01*
X181610000Y-94615000D02*
X180975000Y-95250000D01*
X181610000Y-93980000D02*
X181610000Y-94615000D01*
X182880000Y-92710000D02*
X181610000Y-93980000D01*
X177800000Y-95250000D02*
X176530000Y-95250000D01*
X160655000Y-92075000D02*
X161290000Y-91440000D01*
X154305000Y-92075000D02*
X154940000Y-92710000D01*
X154940000Y-92710000D02*
X157480000Y-92710000D01*
X143510000Y-89535000D02*
X153035000Y-89535000D01*
X153035000Y-89535000D02*
X154305000Y-90805000D01*
X154305000Y-90805000D02*
X154305000Y-92075000D01*
X141605000Y-91440000D02*
X143510000Y-89535000D01*
X158115000Y-92075000D02*
X160655000Y-92075000D01*
X157480000Y-92710000D02*
X158115000Y-92075000D01*
X161290000Y-91440000D02*
X164465000Y-91440000D01*
X140970000Y-91440000D02*
X141605000Y-91440000D01*
X170815000Y-118745000D02*
X170815000Y-122555000D01*
X170815000Y-95250000D02*
X170815000Y-99060000D01*
X182245000Y-126365000D02*
X182245000Y-127635000D01*
X179070000Y-123190000D02*
X182245000Y-126365000D01*
X171450000Y-123190000D02*
X179070000Y-123190000D01*
X170815000Y-122555000D02*
X171450000Y-123190000D01*
X170815000Y-110490000D02*
X170815000Y-118745000D01*
X170815000Y-103505000D02*
X170815000Y-107315000D01*
X170180000Y-91440000D02*
X170815000Y-92075000D01*
X170815000Y-95250000D02*
X170815000Y-92075000D01*
X170180000Y-91440000D02*
X164465000Y-91440000D01*
X135890000Y-101600000D02*
X137160000Y-100330000D01*
X139700000Y-92075000D02*
X140335000Y-91440000D01*
X139700000Y-93345000D02*
X139700000Y-92075000D01*
X139065000Y-93980000D02*
X139700000Y-93345000D01*
X139065000Y-95250000D02*
X139065000Y-93980000D01*
X138430000Y-95885000D02*
X139065000Y-95250000D01*
X138430000Y-96520000D02*
X138430000Y-95885000D01*
X137795000Y-97155000D02*
X138430000Y-96520000D01*
X137795000Y-99060000D02*
X137795000Y-97155000D01*
X137160000Y-99695000D02*
X137795000Y-99060000D01*
X137160000Y-100330000D02*
X137160000Y-99695000D01*
X140335000Y-91440000D02*
X140970000Y-91440000D01*
X132715000Y-106680000D02*
X134620000Y-106680000D01*
X135890000Y-102870000D02*
X135890000Y-101600000D01*
X135255000Y-103505000D02*
X135890000Y-102870000D01*
X135255000Y-106045000D02*
X135255000Y-103505000D01*
X134620000Y-106680000D02*
X135255000Y-106045000D01*
X160655000Y-95250000D02*
X161290000Y-95250000D01*
X161290000Y-95250000D02*
X162560000Y-93980000D01*
X173355000Y-103505000D02*
X174625000Y-103505000D01*
X172720000Y-104140000D02*
X173355000Y-103505000D01*
X186690000Y-105410000D02*
X186055000Y-105410000D01*
X177800000Y-103505000D02*
X174625000Y-103505000D01*
X178435000Y-102870000D02*
X177800000Y-103505000D01*
X180975000Y-102870000D02*
X178435000Y-102870000D01*
X181610000Y-103505000D02*
X180975000Y-102870000D01*
X184150000Y-103505000D02*
X181610000Y-103505000D01*
X186055000Y-105410000D02*
X184150000Y-103505000D01*
X195580000Y-99060000D02*
X194310000Y-99060000D01*
X191135000Y-102235000D02*
X191135000Y-104140000D01*
X186690000Y-105410000D02*
X189230000Y-105410000D01*
X191135000Y-99695000D02*
X191770000Y-99060000D01*
X191770000Y-99060000D02*
X194310000Y-99060000D01*
X191135000Y-102235000D02*
X191135000Y-99695000D01*
X142240000Y-92710000D02*
X144780000Y-90170000D01*
X140970000Y-93980000D02*
X142240000Y-92710000D01*
X170180000Y-121920000D02*
X170180000Y-119380000D01*
X170180000Y-111125000D02*
X170180000Y-119380000D01*
X170180000Y-121920000D02*
X170180000Y-123190000D01*
X170180000Y-123190000D02*
X170815000Y-123825000D01*
X170815000Y-123825000D02*
X178435000Y-123825000D01*
X178435000Y-123825000D02*
X181610000Y-127000000D01*
X181610000Y-127000000D02*
X181610000Y-128270000D01*
X170180000Y-107950000D02*
X170180000Y-104140000D01*
X164465000Y-93980000D02*
X162560000Y-93980000D01*
X154305000Y-93345000D02*
X153670000Y-92710000D01*
X153670000Y-91440000D02*
X153670000Y-92710000D01*
X152400000Y-90170000D02*
X153670000Y-91440000D01*
X144780000Y-90170000D02*
X152400000Y-90170000D01*
X154940000Y-95250000D02*
X160655000Y-95250000D01*
X154305000Y-93980000D02*
X154305000Y-94615000D01*
X154305000Y-94615000D02*
X154940000Y-95250000D01*
X154305000Y-93980000D02*
X154305000Y-93345000D01*
X170180000Y-99695000D02*
X170180000Y-94615000D01*
X169545000Y-93980000D02*
X164465000Y-93980000D01*
X169545000Y-93980000D02*
X170180000Y-94615000D01*
X136525000Y-102235000D02*
X137795000Y-100965000D01*
X139700000Y-94615000D02*
X140335000Y-93980000D01*
X139700000Y-95885000D02*
X139700000Y-94615000D01*
X139065000Y-96520000D02*
X139700000Y-95885000D01*
X139065000Y-97155000D02*
X139065000Y-96520000D01*
X138430000Y-97790000D02*
X139065000Y-97155000D01*
X138430000Y-99695000D02*
X138430000Y-97790000D01*
X137795000Y-100330000D02*
X138430000Y-99695000D01*
X137795000Y-100965000D02*
X137795000Y-100330000D01*
X140335000Y-93980000D02*
X140970000Y-93980000D01*
X132715000Y-109220000D02*
X135255000Y-109220000D01*
X136525000Y-103505000D02*
X136525000Y-102235000D01*
X135890000Y-104140000D02*
X136525000Y-103505000D01*
X135890000Y-108585000D02*
X135890000Y-104140000D01*
X135255000Y-109220000D02*
X135890000Y-108585000D01*
X194310000Y-107950000D02*
X194310000Y-111125000D01*
X193675000Y-111760000D02*
X190500000Y-111760000D01*
X194310000Y-111125000D02*
X193675000Y-111760000D01*
X169545000Y-122555000D02*
X169545000Y-118745000D01*
X169545000Y-111760000D02*
X169545000Y-118745000D01*
X169545000Y-122555000D02*
X169545000Y-123825000D01*
X169545000Y-123825000D02*
X170180000Y-124460000D01*
X170180000Y-124460000D02*
X177800000Y-124460000D01*
X177800000Y-124460000D02*
X180975000Y-127635000D01*
X180975000Y-127635000D02*
X180975000Y-128905000D01*
X172720000Y-112395000D02*
X177800000Y-112395000D01*
X194310000Y-102870000D02*
X195580000Y-101600000D01*
X194310000Y-107950000D02*
X194310000Y-102870000D01*
X189865000Y-111760000D02*
X190500000Y-111760000D01*
X187960000Y-113665000D02*
X189865000Y-111760000D01*
X164465000Y-96520000D02*
X158115000Y-96520000D01*
X158115000Y-96520000D02*
X156845000Y-97790000D01*
X168910000Y-96520000D02*
X169545000Y-97155000D01*
X169545000Y-103505000D02*
X169545000Y-107315000D01*
X168910000Y-96520000D02*
X164465000Y-96520000D01*
X169545000Y-99060000D02*
X169545000Y-97155000D01*
X140970000Y-96520000D02*
X142240000Y-97790000D01*
X154940000Y-97790000D02*
X156845000Y-97790000D01*
X142240000Y-97790000D02*
X142240000Y-97974998D01*
X142240000Y-97974998D02*
X142690002Y-98425000D01*
X142690002Y-98425000D02*
X154305000Y-98425000D01*
X154305000Y-98425000D02*
X154940000Y-97790000D01*
X137160000Y-102870000D02*
X138430000Y-101600000D01*
X139700000Y-97155000D02*
X140335000Y-96520000D01*
X139700000Y-97790000D02*
X139700000Y-97155000D01*
X139065000Y-98425000D02*
X139700000Y-97790000D01*
X139065000Y-99060000D02*
X139065000Y-98425000D01*
X139065000Y-100330000D02*
X139065000Y-99060000D01*
X138430000Y-100965000D02*
X139065000Y-100330000D01*
X138430000Y-101600000D02*
X138430000Y-100965000D01*
X140335000Y-96520000D02*
X140970000Y-96520000D01*
X132715000Y-111760000D02*
X135890000Y-111760000D01*
X137160000Y-104140000D02*
X137160000Y-102870000D01*
X136525000Y-104775000D02*
X137160000Y-104140000D01*
X136525000Y-111125000D02*
X136525000Y-104775000D01*
X135890000Y-111760000D02*
X136525000Y-111125000D01*
X164465000Y-99060000D02*
X163195000Y-99060000D01*
X158115000Y-100965000D02*
X157480000Y-100330000D01*
X161290000Y-100965000D02*
X158115000Y-100965000D01*
X163195000Y-99060000D02*
X161290000Y-100965000D01*
X168910000Y-119380000D02*
X168910000Y-121920000D01*
X168910000Y-102870000D02*
X168910000Y-107950000D01*
X168910000Y-111125000D02*
X168910000Y-119380000D01*
X168910000Y-121920000D02*
X168910000Y-124460000D01*
X168910000Y-124460000D02*
X169545000Y-125095000D01*
X169545000Y-125095000D02*
X177165000Y-125095000D01*
X177165000Y-125095000D02*
X180340000Y-128270000D01*
X180340000Y-128270000D02*
X180340000Y-129540000D01*
X178435000Y-100330000D02*
X177800000Y-100965000D01*
X167640000Y-100965000D02*
X167005000Y-100330000D01*
X177800000Y-100965000D02*
X168910000Y-100965000D01*
X168910000Y-100965000D02*
X167640000Y-100965000D01*
X181610000Y-100965000D02*
X181610000Y-102235000D01*
X186690000Y-102870000D02*
X187960000Y-101600000D01*
X182245000Y-102870000D02*
X186690000Y-102870000D01*
X181610000Y-102235000D02*
X182245000Y-102870000D01*
X164465000Y-99060000D02*
X165735000Y-99060000D01*
X181610000Y-100965000D02*
X180975000Y-100330000D01*
X178435000Y-100330000D02*
X180975000Y-100330000D01*
X165735000Y-99060000D02*
X167005000Y-100330000D01*
X140970000Y-99060000D02*
X153670000Y-99060000D01*
X154940000Y-100330000D02*
X157480000Y-100330000D01*
X153670000Y-99060000D02*
X154940000Y-100330000D01*
X137795000Y-103505000D02*
X139065000Y-102235000D01*
X139700000Y-100330000D02*
X140970000Y-99060000D01*
X139700000Y-100965000D02*
X139700000Y-100330000D01*
X139065000Y-101600000D02*
X139700000Y-100965000D01*
X139065000Y-102235000D02*
X139065000Y-101600000D01*
X132715000Y-114300000D02*
X136525000Y-114300000D01*
X137795000Y-104775000D02*
X137795000Y-103505000D01*
X137160000Y-105410000D02*
X137795000Y-104775000D01*
X137160000Y-113665000D02*
X137160000Y-105410000D01*
X136525000Y-114300000D02*
X137160000Y-113665000D01*
X173990000Y-99695000D02*
X176530000Y-99695000D01*
X164465000Y-101600000D02*
X165735000Y-101600000D01*
X178435000Y-97790000D02*
X184785000Y-97790000D01*
X166370000Y-102235000D02*
X172720000Y-102235000D01*
X165735000Y-101600000D02*
X166370000Y-102235000D01*
X176530000Y-99695000D02*
X178435000Y-97790000D01*
X168275000Y-122555000D02*
X168275000Y-118745000D01*
X168275000Y-110490000D02*
X168275000Y-118745000D01*
X168275000Y-122555000D02*
X168275000Y-125095000D01*
X168275000Y-125095000D02*
X168910000Y-125730000D01*
X168910000Y-125730000D02*
X176530000Y-125730000D01*
X176530000Y-125730000D02*
X179705000Y-128905000D01*
X179705000Y-128905000D02*
X179705000Y-130175000D01*
X156845000Y-102870000D02*
X157480000Y-102870000D01*
X163195000Y-101600000D02*
X164465000Y-101600000D01*
X162560000Y-102235000D02*
X163195000Y-101600000D01*
X158115000Y-102235000D02*
X162560000Y-102235000D01*
X157480000Y-102870000D02*
X158115000Y-102235000D01*
X140970000Y-101600000D02*
X142875000Y-99695000D01*
X154940000Y-102870000D02*
X155575000Y-102870000D01*
X154305000Y-102235000D02*
X154940000Y-102870000D01*
X154305000Y-100965000D02*
X154305000Y-102235000D01*
X153035000Y-99695000D02*
X154305000Y-100965000D01*
X142875000Y-99695000D02*
X153035000Y-99695000D01*
X155575000Y-102870000D02*
X156845000Y-102870000D01*
X137795000Y-114300000D02*
X137160000Y-114935000D01*
X133985000Y-116840000D02*
X132715000Y-116840000D01*
X134620000Y-116205000D02*
X133985000Y-116840000D01*
X134620000Y-115570000D02*
X134620000Y-116205000D01*
X135255000Y-114935000D02*
X134620000Y-115570000D01*
X137160000Y-114935000D02*
X135255000Y-114935000D01*
X138430000Y-104140000D02*
X139700000Y-102870000D01*
X139700000Y-102235000D02*
X140335000Y-101600000D01*
X139700000Y-102870000D02*
X139700000Y-102235000D01*
X140335000Y-101600000D02*
X140970000Y-101600000D01*
X138430000Y-105410000D02*
X138430000Y-104140000D01*
X137795000Y-106045000D02*
X138430000Y-105410000D01*
X137795000Y-114300000D02*
X137795000Y-106045000D01*
X164465000Y-104140000D02*
X163195000Y-104140000D01*
X154305000Y-103505000D02*
X154305000Y-104775000D01*
X153670000Y-102870000D02*
X154305000Y-103505000D01*
X153670000Y-101600000D02*
X153670000Y-102870000D01*
X152400000Y-100330000D02*
X153670000Y-101600000D01*
X143510000Y-100330000D02*
X152400000Y-100330000D01*
X142875000Y-100965000D02*
X143510000Y-100330000D01*
X142875000Y-102235000D02*
X142875000Y-100965000D01*
X154940000Y-105410000D02*
X157480000Y-105410000D01*
X154305000Y-104775000D02*
X154940000Y-105410000D01*
X142875000Y-102235000D02*
X140970000Y-104140000D01*
X158115000Y-106045000D02*
X157480000Y-105410000D01*
X161290000Y-106045000D02*
X158115000Y-106045000D01*
X163195000Y-104140000D02*
X161290000Y-106045000D01*
X167640000Y-119380000D02*
X167640000Y-121920000D01*
X167640000Y-111125000D02*
X167640000Y-119380000D01*
X167640000Y-121920000D02*
X167640000Y-125730000D01*
X167640000Y-125730000D02*
X168275000Y-126365000D01*
X168275000Y-126365000D02*
X175895000Y-126365000D01*
X175895000Y-126365000D02*
X179070000Y-129540000D01*
X190500000Y-109220000D02*
X190500000Y-110490000D01*
X190500000Y-92075000D02*
X190500000Y-109220000D01*
X182245000Y-113030000D02*
X172085000Y-113030000D01*
X183515000Y-114300000D02*
X182245000Y-113030000D01*
X189230000Y-111125000D02*
X186055000Y-114300000D01*
X189865000Y-111125000D02*
X189230000Y-111125000D01*
X190500000Y-110490000D02*
X189865000Y-111125000D01*
X132715000Y-119380000D02*
X133350000Y-119380000D01*
X133350000Y-119380000D02*
X133985000Y-118745000D01*
X138430000Y-114935000D02*
X138430000Y-106680000D01*
X138430000Y-106680000D02*
X139065000Y-106045000D01*
X139065000Y-106045000D02*
X139065000Y-104775000D01*
X139065000Y-104775000D02*
X139700000Y-104140000D01*
X139700000Y-104140000D02*
X140970000Y-104140000D01*
X133985000Y-118745000D02*
X133985000Y-118110000D01*
X133985000Y-118110000D02*
X135890000Y-116205000D01*
X135890000Y-116205000D02*
X136525000Y-115570000D01*
X136525000Y-115570000D02*
X137795000Y-115570000D01*
X137795000Y-115570000D02*
X138430000Y-114935000D01*
X183515000Y-126365000D02*
X183515000Y-123825000D01*
X189230000Y-110490000D02*
X188595000Y-110490000D01*
X188595000Y-110490000D02*
X186055000Y-113030000D01*
X189865000Y-89535000D02*
X189230000Y-88900000D01*
X187960000Y-88900000D02*
X189230000Y-88900000D01*
X189865000Y-109855000D02*
X189865000Y-109220000D01*
X189865000Y-109220000D02*
X189865000Y-89535000D01*
X183515000Y-115570000D02*
X183515000Y-120650000D01*
X186055000Y-113030000D02*
X183515000Y-115570000D01*
X189230000Y-110490000D02*
X189865000Y-109855000D01*
X183515000Y-123825000D02*
X183515000Y-120650000D01*
X164465000Y-106680000D02*
X163830000Y-107315000D01*
X159385000Y-107315000D02*
X158115000Y-107315000D01*
X163830000Y-107315000D02*
X159385000Y-107315000D01*
X167005000Y-122555000D02*
X167005000Y-118745000D01*
X167005000Y-118745000D02*
X167005000Y-110490000D01*
X177165000Y-128905000D02*
X175260000Y-127000000D01*
X167005000Y-126365000D02*
X167005000Y-122555000D01*
X167640000Y-127000000D02*
X167005000Y-126365000D01*
X175260000Y-127000000D02*
X167640000Y-127000000D01*
X158115000Y-107315000D02*
X157480000Y-107950000D01*
X142240000Y-106680000D02*
X142875000Y-107315000D01*
X154305000Y-107315000D02*
X154940000Y-107950000D01*
X154940000Y-107950000D02*
X157480000Y-107950000D01*
X140970000Y-106680000D02*
X142240000Y-106680000D01*
X142875000Y-107315000D02*
X154305000Y-107315000D01*
X139065000Y-115570000D02*
X138430000Y-116205000D01*
X133985000Y-121285000D02*
X133350000Y-121920000D01*
X133985000Y-120015000D02*
X133985000Y-121285000D01*
X134620000Y-119380000D02*
X133985000Y-120015000D01*
X134620000Y-118745000D02*
X134620000Y-119380000D01*
X137160000Y-116205000D02*
X134620000Y-118745000D01*
X138430000Y-116205000D02*
X137160000Y-116205000D01*
X133350000Y-121920000D02*
X132715000Y-121920000D01*
X140970000Y-106680000D02*
X139700000Y-106680000D01*
X139065000Y-107315000D02*
X139065000Y-115570000D01*
X139700000Y-106680000D02*
X139065000Y-107315000D01*
X106045000Y-90170000D02*
X106045000Y-85725000D01*
X106045000Y-85725000D02*
X106680000Y-85090000D01*
X106680000Y-85090000D02*
X113030000Y-85090000D01*
X106045000Y-90170000D02*
X104775000Y-91440000D01*
X114300000Y-85090000D02*
X113030000Y-85090000D01*
X114300000Y-62230000D02*
X114300000Y-64770000D01*
X121920000Y-80645000D02*
X122555000Y-81280000D01*
X113665000Y-80645000D02*
X121920000Y-80645000D01*
X113030000Y-80010000D02*
X113665000Y-80645000D01*
X113030000Y-66040000D02*
X113030000Y-80010000D01*
X114300000Y-64770000D02*
X113030000Y-66040000D01*
X117475000Y-83820000D02*
X118110000Y-83820000D01*
X118110000Y-83820000D02*
X118745000Y-84455000D01*
X118745000Y-84455000D02*
X121920000Y-84455000D01*
X121920000Y-84455000D02*
X122555000Y-85090000D01*
X122555000Y-82550000D02*
X122555000Y-83820000D01*
X122555000Y-83820000D02*
X122555000Y-85090000D01*
X122555000Y-82550000D02*
X122555000Y-81280000D01*
X122555000Y-81280000D02*
X122555000Y-78105000D01*
X127635000Y-73025000D02*
X122555000Y-78105000D01*
X139700000Y-71755000D02*
X138430000Y-73025000D01*
X134620000Y-73025000D02*
X138430000Y-73025000D01*
X124460000Y-95250000D02*
X123190000Y-93980000D01*
X147320000Y-146050000D02*
X147320000Y-143510000D01*
X124460000Y-118110000D02*
X124460000Y-100330000D01*
X126365000Y-120015000D02*
X124460000Y-118110000D01*
X126365000Y-134620000D02*
X126365000Y-120015000D01*
X127000000Y-135255000D02*
X126365000Y-134620000D01*
X129540000Y-135255000D02*
X127000000Y-135255000D01*
X131445000Y-137160000D02*
X129540000Y-135255000D01*
X133350000Y-139700000D02*
X132080000Y-139700000D01*
X134620000Y-138430000D02*
X133350000Y-139700000D01*
X141605000Y-138430000D02*
X134620000Y-138430000D01*
X142875000Y-139700000D02*
X141605000Y-138430000D01*
X142875000Y-140970000D02*
X142875000Y-139700000D01*
X143510000Y-141605000D02*
X142875000Y-140970000D01*
X145415000Y-141605000D02*
X143510000Y-141605000D01*
X147320000Y-143510000D02*
X145415000Y-141605000D01*
X124460000Y-100330000D02*
X124460000Y-97790000D01*
X123190000Y-93980000D02*
X123190000Y-85725000D01*
X123190000Y-85725000D02*
X122555000Y-85090000D01*
X147955000Y-78105000D02*
X145415000Y-80645000D01*
X154940000Y-76835000D02*
X148590000Y-76835000D01*
X157480000Y-74930000D02*
X157480000Y-75565000D01*
X156210000Y-76835000D02*
X154940000Y-76835000D01*
X157480000Y-75565000D02*
X156210000Y-76835000D01*
X132715000Y-93980000D02*
X135255000Y-93980000D01*
X137795000Y-81280000D02*
X138430000Y-80645000D01*
X137795000Y-88900000D02*
X137795000Y-81280000D01*
X137160000Y-89535000D02*
X137795000Y-88900000D01*
X137160000Y-90805000D02*
X137160000Y-89535000D01*
X136525000Y-91440000D02*
X137160000Y-90805000D01*
X136525000Y-92710000D02*
X136525000Y-91440000D01*
X135890000Y-93345000D02*
X136525000Y-92710000D01*
X135255000Y-93980000D02*
X135890000Y-93345000D01*
X145415000Y-80645000D02*
X138430000Y-80645000D01*
X123825000Y-95885000D02*
X130810000Y-95885000D01*
X130810000Y-95885000D02*
X132715000Y-93980000D01*
X123825000Y-100330000D02*
X123825000Y-97155000D01*
X125730000Y-135255000D02*
X125730000Y-120650000D01*
X125730000Y-120650000D02*
X123825000Y-118745000D01*
X123825000Y-118745000D02*
X123825000Y-100330000D01*
X130175000Y-137160000D02*
X128905000Y-135890000D01*
X128905000Y-135890000D02*
X126365000Y-135890000D01*
X140970000Y-142240000D02*
X132715000Y-142240000D01*
X132715000Y-142240000D02*
X132080000Y-142240000D01*
X132080000Y-142240000D02*
X131445000Y-141605000D01*
X131445000Y-141605000D02*
X131445000Y-140335000D01*
X131445000Y-140335000D02*
X130810000Y-139700000D01*
X130810000Y-137795000D02*
X130175000Y-137160000D01*
X126365000Y-135890000D02*
X125730000Y-135255000D01*
X140970000Y-139700000D02*
X140970000Y-141605000D01*
X140970000Y-141605000D02*
X140970000Y-142240000D01*
X144780000Y-142875000D02*
X144145000Y-142240000D01*
X144145000Y-142240000D02*
X140970000Y-142240000D01*
X144780000Y-142875000D02*
X144780000Y-146050000D01*
X189865000Y-59055000D02*
X189865000Y-57785000D01*
X193675000Y-57785000D02*
X193675000Y-60960000D01*
X193040000Y-57150000D02*
X193675000Y-57785000D01*
X190500000Y-57150000D02*
X193040000Y-57150000D01*
X189865000Y-57785000D02*
X190500000Y-57150000D01*
X197485000Y-63500000D02*
X194945000Y-63500000D01*
X193675000Y-76835000D02*
X194310000Y-76200000D01*
X194310000Y-76200000D02*
X197485000Y-76200000D01*
X197485000Y-76200000D02*
X198120000Y-75565000D01*
X198120000Y-75565000D02*
X198120000Y-64135000D01*
X198120000Y-64135000D02*
X197485000Y-63500000D01*
X192405000Y-88265000D02*
X192405000Y-81915000D01*
X193675000Y-101600000D02*
X193675000Y-99695000D01*
X193040000Y-109855000D02*
X193675000Y-109220000D01*
X193675000Y-109220000D02*
X193675000Y-101600000D01*
X193040000Y-117475000D02*
X193040000Y-120650000D01*
X187960000Y-121920000D02*
X191770000Y-121920000D01*
X191770000Y-121920000D02*
X193040000Y-120650000D01*
X193040000Y-110490000D02*
X193040000Y-109855000D01*
X193040000Y-92710000D02*
X192405000Y-92075000D01*
X193040000Y-96520000D02*
X193040000Y-92710000D01*
X193675000Y-97155000D02*
X193040000Y-96520000D01*
X193675000Y-98425000D02*
X193675000Y-97155000D01*
X193040000Y-81280000D02*
X193040000Y-78740000D01*
X192405000Y-81915000D02*
X193040000Y-81280000D01*
X194310000Y-61595000D02*
X193675000Y-60960000D01*
X194310000Y-62865000D02*
X194310000Y-61595000D01*
X194945000Y-63500000D02*
X194310000Y-62865000D01*
X142875000Y-123825000D02*
X142875000Y-126365000D01*
X146685000Y-126365000D02*
X146685000Y-125095000D01*
X146050000Y-127000000D02*
X146685000Y-126365000D01*
X143510000Y-127000000D02*
X146050000Y-127000000D01*
X142875000Y-126365000D02*
X143510000Y-127000000D01*
X166370000Y-127000000D02*
X149860000Y-127000000D01*
X182245000Y-121920000D02*
X172085000Y-121920000D01*
X142875000Y-123825000D02*
X137160000Y-123825000D01*
X137160000Y-123825000D02*
X135890000Y-122555000D01*
X108585000Y-100330000D02*
X108585000Y-99060000D01*
X109220000Y-98425000D02*
X109855000Y-98425000D01*
X108585000Y-99060000D02*
X109220000Y-98425000D01*
X109855000Y-98425000D02*
X111125000Y-98425000D01*
X120650000Y-100330000D02*
X118745000Y-100330000D01*
X113665000Y-98425000D02*
X115570000Y-100330000D01*
X111125000Y-98425000D02*
X113665000Y-98425000D01*
X115570000Y-100330000D02*
X118745000Y-100330000D01*
X107315000Y-101600000D02*
X107950000Y-101600000D01*
X107950000Y-101600000D02*
X108585000Y-100965000D01*
X108585000Y-100965000D02*
X108585000Y-100330000D01*
X120650000Y-92075000D02*
X120650000Y-97155000D01*
X120650000Y-92075000D02*
X120015000Y-91440000D01*
X117475000Y-91440000D02*
X120015000Y-91440000D01*
X142240000Y-146050000D02*
X142240000Y-143510000D01*
X123190000Y-119380000D02*
X123190000Y-100965000D01*
X125095000Y-121285000D02*
X124460000Y-120650000D01*
X124460000Y-120650000D02*
X123190000Y-119380000D01*
X125095000Y-135890000D02*
X125095000Y-121285000D01*
X125730000Y-136525000D02*
X125095000Y-135890000D01*
X128270000Y-136525000D02*
X125730000Y-136525000D01*
X129540000Y-137795000D02*
X128270000Y-136525000D01*
X130810000Y-140970000D02*
X129540000Y-139700000D01*
X130810000Y-142240000D02*
X130810000Y-140970000D01*
X131445000Y-142875000D02*
X130810000Y-142240000D01*
X141605000Y-142875000D02*
X131445000Y-142875000D01*
X142240000Y-143510000D02*
X141605000Y-142875000D01*
X114935000Y-84455000D02*
X108585000Y-84455000D01*
X107950000Y-84455000D02*
X107315000Y-83820000D01*
X108585000Y-84455000D02*
X107950000Y-84455000D01*
X114935000Y-84455000D02*
X115570000Y-85090000D01*
X120015000Y-85090000D02*
X121285000Y-85090000D01*
X115570000Y-85090000D02*
X120015000Y-85090000D01*
X122555000Y-86360000D02*
X122555000Y-97155000D01*
X121285000Y-85090000D02*
X122555000Y-86360000D01*
X132715000Y-96520000D02*
X123190000Y-96520000D01*
X123190000Y-96520000D02*
X122555000Y-97155000D01*
X139700000Y-144145000D02*
X139065000Y-143510000D01*
X139065000Y-143510000D02*
X130810000Y-143510000D01*
X130810000Y-143510000D02*
X130175000Y-142875000D01*
X130175000Y-142875000D02*
X130175000Y-141605000D01*
X130175000Y-141605000D02*
X128270000Y-139700000D01*
X128270000Y-137795000D02*
X127635000Y-137160000D01*
X127635000Y-137160000D02*
X125095000Y-137160000D01*
X125095000Y-137160000D02*
X124460000Y-136525000D01*
X124460000Y-136525000D02*
X124460000Y-121920000D01*
X124460000Y-121920000D02*
X122555000Y-120015000D01*
X122555000Y-120015000D02*
X122555000Y-100330000D01*
X139700000Y-144145000D02*
X139700000Y-146050000D01*
X122555000Y-97155000D02*
X122555000Y-100330000D01*
X128905000Y-99060000D02*
X130175000Y-97790000D01*
X130175000Y-97790000D02*
X131445000Y-97790000D01*
X114935000Y-92710000D02*
X114935000Y-86995000D01*
X114300000Y-86360000D02*
X108585000Y-86360000D01*
X114935000Y-86995000D02*
X114300000Y-86360000D01*
X145415000Y-97790000D02*
X143510000Y-97790000D01*
X145415000Y-97790000D02*
X153035000Y-97790000D01*
X153670000Y-97790000D02*
X153035000Y-97790000D01*
X137160000Y-146050000D02*
X137160000Y-144780000D01*
X120650000Y-99060000D02*
X117475000Y-99060000D01*
X121920000Y-100330000D02*
X120650000Y-99060000D01*
X121920000Y-120650000D02*
X121920000Y-117475000D01*
X121920000Y-117475000D02*
X121920000Y-103505000D01*
X121920000Y-103505000D02*
X121920000Y-100330000D01*
X123825000Y-122555000D02*
X121920000Y-120650000D01*
X123825000Y-137160000D02*
X123825000Y-122555000D01*
X124460000Y-137795000D02*
X123825000Y-137160000D01*
X127000000Y-137795000D02*
X124460000Y-137795000D01*
X129540000Y-142240000D02*
X127000000Y-139700000D01*
X129540000Y-143510000D02*
X129540000Y-142240000D01*
X130175000Y-144145000D02*
X129540000Y-143510000D01*
X136525000Y-144145000D02*
X130175000Y-144145000D01*
X137160000Y-144780000D02*
X136525000Y-144145000D01*
X117475000Y-99060000D02*
X115570000Y-99060000D01*
X108585000Y-86360000D02*
X107315000Y-86360000D01*
X115570000Y-99060000D02*
X114935000Y-98425000D01*
X156210000Y-99060000D02*
X156845000Y-99060000D01*
X156845000Y-99060000D02*
X158750000Y-97155000D01*
X158750000Y-97155000D02*
X162560000Y-97155000D01*
X162560000Y-97155000D02*
X163195000Y-97790000D01*
X163195000Y-97790000D02*
X165735000Y-97790000D01*
X165735000Y-97790000D02*
X168275000Y-100330000D01*
X178435000Y-99060000D02*
X179705000Y-99060000D01*
X177165000Y-100330000D02*
X172085000Y-100330000D01*
X178435000Y-99060000D02*
X177165000Y-100330000D01*
X168275000Y-100330000D02*
X172085000Y-100330000D01*
X164465000Y-109220000D02*
X163830000Y-109220000D01*
X163830000Y-109220000D02*
X163195000Y-108585000D01*
X159385000Y-108585000D02*
X158750000Y-109220000D01*
X163195000Y-108585000D02*
X159385000Y-108585000D01*
X113030000Y-111125000D02*
X113665000Y-110490000D01*
X107315000Y-109220000D02*
X107950000Y-109220000D01*
X107950000Y-109220000D02*
X108585000Y-109855000D01*
X108585000Y-109855000D02*
X108585000Y-111125000D01*
X108585000Y-111125000D02*
X109220000Y-111760000D01*
X109220000Y-111760000D02*
X109220000Y-112395000D01*
X109220000Y-112395000D02*
X109855000Y-113030000D01*
X109855000Y-113030000D02*
X113030000Y-113030000D01*
X128905000Y-110490000D02*
X135255000Y-110490000D01*
X121285000Y-110490000D02*
X113665000Y-110490000D01*
X135890000Y-109855000D02*
X135255000Y-110490000D01*
X158750000Y-109220000D02*
X157480000Y-110490000D01*
X140970000Y-109220000D02*
X142240000Y-109220000D01*
X153670000Y-109220000D02*
X154940000Y-110490000D01*
X154940000Y-110490000D02*
X157480000Y-110490000D01*
X142240000Y-109220000D02*
X142875000Y-108585000D01*
X142875000Y-108585000D02*
X153035000Y-108585000D01*
X153035000Y-108585000D02*
X153670000Y-109220000D01*
X125730000Y-139700000D02*
X128270000Y-142240000D01*
X131445000Y-144780000D02*
X132080000Y-145415000D01*
X129540000Y-144780000D02*
X131445000Y-144780000D01*
X128270000Y-143510000D02*
X129540000Y-144780000D01*
X128270000Y-142240000D02*
X128270000Y-143510000D01*
X132080000Y-145415000D02*
X132080000Y-146050000D01*
X123190000Y-139700000D02*
X121285000Y-139700000D01*
X117475000Y-119380000D02*
X118745000Y-119380000D01*
X123825000Y-139700000D02*
X125730000Y-139700000D01*
X121285000Y-125095000D02*
X121285000Y-137795000D01*
X119380000Y-123190000D02*
X121285000Y-125095000D01*
X119380000Y-120015000D02*
X119380000Y-123190000D01*
X118745000Y-119380000D02*
X119380000Y-120015000D01*
X123825000Y-139700000D02*
X123190000Y-139700000D01*
X116840000Y-119380000D02*
X114935000Y-117475000D01*
X114935000Y-117475000D02*
X113665000Y-117475000D01*
X113665000Y-117475000D02*
X113030000Y-116840000D01*
X113030000Y-116840000D02*
X113030000Y-116205000D01*
X113030000Y-113030000D02*
X113030000Y-111125000D01*
X117475000Y-119380000D02*
X116840000Y-119380000D01*
X163195000Y-111760000D02*
X161925000Y-113030000D01*
X161925000Y-113030000D02*
X157480000Y-113030000D01*
X107315000Y-111760000D02*
X107950000Y-111760000D01*
X107950000Y-111760000D02*
X108585000Y-112395000D01*
X108585000Y-112395000D02*
X108585000Y-113030000D01*
X108585000Y-113030000D02*
X109220000Y-113665000D01*
X109220000Y-113665000D02*
X113665000Y-113665000D01*
X164465000Y-111760000D02*
X163195000Y-111760000D01*
X140970000Y-111760000D02*
X141605000Y-111760000D01*
X141605000Y-111760000D02*
X142240000Y-111125000D01*
X154305000Y-112395000D02*
X154940000Y-113030000D01*
X154940000Y-113030000D02*
X157480000Y-113030000D01*
X142240000Y-111125000D02*
X142240000Y-110490000D01*
X142240000Y-110490000D02*
X143510000Y-109220000D01*
X143510000Y-109220000D02*
X152400000Y-109220000D01*
X152400000Y-109220000D02*
X154305000Y-111125000D01*
X154305000Y-111125000D02*
X154305000Y-112395000D01*
X128270000Y-144780000D02*
X127000000Y-143510000D01*
X121920000Y-124460000D02*
X121920000Y-137160000D01*
X120015000Y-122555000D02*
X121920000Y-124460000D01*
X120015000Y-118745000D02*
X120015000Y-122555000D01*
X125095000Y-140335000D02*
X121920000Y-140335000D01*
X127000000Y-142240000D02*
X127000000Y-143510000D01*
X128270000Y-144780000D02*
X129540000Y-146050000D01*
X125095000Y-140335000D02*
X127000000Y-142240000D01*
X118745000Y-116840000D02*
X120015000Y-118110000D01*
X118745000Y-116840000D02*
X117475000Y-116840000D01*
X120015000Y-118110000D02*
X120015000Y-118745000D01*
X114300000Y-116840000D02*
X117475000Y-116840000D01*
X113665000Y-116205000D02*
X114300000Y-116840000D01*
X113665000Y-115570000D02*
X113665000Y-116205000D01*
X151765000Y-116205000D02*
X149860000Y-114300000D01*
X140970000Y-114300000D02*
X149860000Y-114300000D01*
X151765000Y-116205000D02*
X152400000Y-116840000D01*
X157480000Y-115570000D02*
X158750000Y-114300000D01*
X154940000Y-115570000D02*
X154305000Y-115570000D01*
X154305000Y-115570000D02*
X153035000Y-116840000D01*
X154940000Y-115570000D02*
X157480000Y-115570000D01*
X153035000Y-116840000D02*
X152400000Y-116840000D01*
X158750000Y-114300000D02*
X164465000Y-114300000D01*
X139700000Y-115570000D02*
X140970000Y-114300000D01*
X139700000Y-116205000D02*
X139700000Y-115570000D01*
X139065000Y-116840000D02*
X139700000Y-116205000D01*
X137795000Y-116840000D02*
X139065000Y-116840000D01*
X136525000Y-118110000D02*
X137795000Y-116840000D01*
X124460000Y-140970000D02*
X125730000Y-142240000D01*
X122555000Y-140970000D02*
X124460000Y-140970000D01*
X122555000Y-123825000D02*
X122555000Y-136525000D01*
X120650000Y-121920000D02*
X122555000Y-123825000D01*
X120650000Y-119380000D02*
X120650000Y-121920000D01*
X122555000Y-136525000D02*
X122555000Y-137795000D01*
X125730000Y-142240000D02*
X125730000Y-144145000D01*
X125730000Y-144145000D02*
X127000000Y-145415000D01*
X127000000Y-145415000D02*
X127000000Y-146050000D01*
X119380000Y-114300000D02*
X120650000Y-115570000D01*
X117475000Y-114300000D02*
X119380000Y-114300000D01*
X120650000Y-115570000D02*
X120650000Y-119380000D01*
X117475000Y-114300000D02*
X114300000Y-114300000D01*
X114300000Y-114300000D02*
X107315000Y-114300000D01*
X163195000Y-115570000D02*
X162560000Y-114935000D01*
X159385000Y-114935000D02*
X158750000Y-115570000D01*
X162560000Y-114935000D02*
X159385000Y-114935000D01*
X179705000Y-116840000D02*
X179070000Y-116840000D01*
X179070000Y-116840000D02*
X177165000Y-114935000D01*
X172085000Y-114935000D02*
X171450000Y-115570000D01*
X177165000Y-114935000D02*
X172085000Y-114935000D01*
X151130000Y-116840000D02*
X151765000Y-117475000D01*
X149860000Y-115570000D02*
X151130000Y-116840000D01*
X142875000Y-115570000D02*
X149860000Y-115570000D01*
X165735000Y-115570000D02*
X166370000Y-115570000D01*
X157480000Y-116840000D02*
X158750000Y-115570000D01*
X156210000Y-116840000D02*
X157480000Y-116840000D01*
X163195000Y-115570000D02*
X165735000Y-115570000D01*
X154305000Y-116840000D02*
X153670000Y-117475000D01*
X156210000Y-116840000D02*
X154305000Y-116840000D01*
X153670000Y-117475000D02*
X151765000Y-117475000D01*
X128270000Y-113030000D02*
X128270000Y-114300000D01*
X128270000Y-114300000D02*
X129540000Y-115570000D01*
X129540000Y-115570000D02*
X133985000Y-115570000D01*
X121285000Y-111760000D02*
X120015000Y-111760000D01*
X124460000Y-146050000D02*
X124460000Y-142240000D01*
X121285000Y-113030000D02*
X121285000Y-121285000D01*
X121285000Y-121285000D02*
X123190000Y-123190000D01*
X123190000Y-123190000D02*
X123190000Y-133985000D01*
X120015000Y-111760000D02*
X121285000Y-113030000D01*
X123190000Y-133985000D02*
X123190000Y-136525000D01*
X123190000Y-137160000D02*
X123190000Y-136525000D01*
X123825000Y-141605000D02*
X123190000Y-141605000D01*
X124460000Y-142240000D02*
X123825000Y-141605000D01*
X120015000Y-111760000D02*
X117475000Y-111760000D01*
X107315000Y-116840000D02*
X107950000Y-116840000D01*
X107950000Y-116840000D02*
X108585000Y-116205000D01*
X109220000Y-114935000D02*
X114935000Y-114935000D01*
X108585000Y-115570000D02*
X109220000Y-114935000D01*
X108585000Y-116205000D02*
X108585000Y-115570000D01*
X114935000Y-112395000D02*
X115570000Y-111760000D01*
X117475000Y-111760000D02*
X115570000Y-111760000D01*
X114935000Y-113665000D02*
X114935000Y-112395000D01*
X163195000Y-113030000D02*
X162560000Y-113665000D01*
X162560000Y-113665000D02*
X158115000Y-113665000D01*
X151765000Y-113030000D02*
X151130000Y-112395000D01*
X144780000Y-110490000D02*
X142875000Y-112395000D01*
X150495000Y-110490000D02*
X144780000Y-110490000D01*
X151130000Y-111125000D02*
X150495000Y-110490000D01*
X151130000Y-112395000D02*
X151130000Y-111125000D01*
X128270000Y-111125000D02*
X128270000Y-111760000D01*
X128270000Y-111760000D02*
X129540000Y-113030000D01*
X129540000Y-113030000D02*
X131445000Y-113030000D01*
X131445000Y-113030000D02*
X135255000Y-113030000D01*
X121285000Y-109220000D02*
X117475000Y-109220000D01*
X128270000Y-109855000D02*
X128270000Y-111125000D01*
X154940000Y-114300000D02*
X154305000Y-113665000D01*
X156210000Y-114300000D02*
X154940000Y-114300000D01*
X151765000Y-113030000D02*
X152400000Y-113665000D01*
X179705000Y-114300000D02*
X179070000Y-113665000D01*
X157480000Y-114300000D02*
X158115000Y-113665000D01*
X156210000Y-114300000D02*
X157480000Y-114300000D01*
X163195000Y-113030000D02*
X166370000Y-113030000D01*
X179070000Y-113665000D02*
X178435000Y-113665000D01*
X177800000Y-113665000D02*
X172720000Y-113665000D01*
X177800000Y-113665000D02*
X178435000Y-113665000D01*
X112395000Y-120650000D02*
X112395000Y-116840000D01*
X112395000Y-116840000D02*
X112395000Y-115570000D01*
X112395000Y-133985000D02*
X112395000Y-120650000D01*
X114300000Y-135890000D02*
X112395000Y-133985000D01*
X121920000Y-143510000D02*
X118110000Y-139700000D01*
X121920000Y-146050000D02*
X121920000Y-143510000D01*
X107315000Y-119380000D02*
X107950000Y-119380000D01*
X107950000Y-119380000D02*
X108585000Y-118745000D01*
X109855000Y-115570000D02*
X112395000Y-115570000D01*
X109220000Y-116205000D02*
X109855000Y-115570000D01*
X109220000Y-116840000D02*
X109220000Y-116205000D01*
X108585000Y-117475000D02*
X109220000Y-116840000D01*
X108585000Y-118745000D02*
X108585000Y-117475000D01*
X113665000Y-109220000D02*
X117475000Y-109220000D01*
X161290000Y-112395000D02*
X163195000Y-110490000D01*
X163195000Y-110490000D02*
X165735000Y-110490000D01*
X179705000Y-111760000D02*
X178435000Y-110490000D01*
X157480000Y-111760000D02*
X156210000Y-111760000D01*
X166370000Y-109855000D02*
X177800000Y-109855000D01*
X177800000Y-109855000D02*
X178435000Y-110490000D01*
X165735000Y-110490000D02*
X166370000Y-109855000D01*
X161290000Y-112395000D02*
X158115000Y-112395000D01*
X158115000Y-112395000D02*
X157480000Y-111760000D01*
X150495000Y-109855000D02*
X151130000Y-109855000D01*
X151765000Y-110490000D02*
X151765000Y-111125000D01*
X151130000Y-109855000D02*
X151765000Y-110490000D01*
X143510000Y-110490000D02*
X144145000Y-109855000D01*
X151765000Y-111125000D02*
X151765000Y-111760000D01*
X151765000Y-111760000D02*
X152400000Y-112395000D01*
X128270000Y-106680000D02*
X130175000Y-106680000D01*
X121285000Y-106680000D02*
X117475000Y-106680000D01*
X130175000Y-106680000D02*
X131445000Y-107950000D01*
X131445000Y-107950000D02*
X133985000Y-107950000D01*
X144145000Y-109855000D02*
X150495000Y-109855000D01*
X117475000Y-106680000D02*
X111760000Y-106680000D01*
X111760000Y-118110000D02*
X111125000Y-117475000D01*
X111125000Y-117475000D02*
X111125000Y-116205000D01*
X111760000Y-118110000D02*
X111760000Y-121920000D01*
X111760000Y-121920000D02*
X111760000Y-126365000D01*
X111125000Y-107315000D02*
X111125000Y-107950000D01*
X111760000Y-106680000D02*
X111125000Y-107315000D01*
X119380000Y-146050000D02*
X119380000Y-142240000D01*
X111760000Y-134620000D02*
X111760000Y-126365000D01*
X113030000Y-135890000D02*
X111760000Y-134620000D01*
X119380000Y-142240000D02*
X116840000Y-139700000D01*
X156210000Y-109220000D02*
X154940000Y-109220000D01*
X120015000Y-104140000D02*
X120650000Y-104775000D01*
X120015000Y-104140000D02*
X117475000Y-104140000D01*
X130810000Y-104775000D02*
X128905000Y-104775000D01*
X131445000Y-105410000D02*
X130810000Y-104775000D01*
X153670000Y-107950000D02*
X139700000Y-107950000D01*
X154940000Y-109220000D02*
X153670000Y-107950000D01*
X156210000Y-109220000D02*
X157480000Y-109220000D01*
X167005000Y-109220000D02*
X179705000Y-109220000D01*
X165735000Y-107950000D02*
X167005000Y-109220000D01*
X158750000Y-107950000D02*
X165735000Y-107950000D01*
X157480000Y-109220000D02*
X158750000Y-107950000D01*
X117475000Y-104140000D02*
X115570000Y-106045000D01*
X110490000Y-106680000D02*
X110490000Y-108585000D01*
X110490000Y-118110000D02*
X110490000Y-116840000D01*
X111125000Y-118745000D02*
X110490000Y-118110000D01*
X111125000Y-125095000D02*
X111125000Y-118745000D01*
X115570000Y-106045000D02*
X111125000Y-106045000D01*
X111125000Y-106045000D02*
X110490000Y-106680000D01*
X107315000Y-124460000D02*
X107950000Y-124460000D01*
X107950000Y-124460000D02*
X108585000Y-125095000D01*
X110490000Y-126365000D02*
X111125000Y-127000000D01*
X109220000Y-126365000D02*
X110490000Y-126365000D01*
X108585000Y-125730000D02*
X109220000Y-126365000D01*
X108585000Y-125095000D02*
X108585000Y-125730000D01*
X116840000Y-146050000D02*
X116840000Y-142240000D01*
X116840000Y-142240000D02*
X116840000Y-140970000D01*
X111125000Y-135255000D02*
X111125000Y-127000000D01*
X111760000Y-135890000D02*
X111125000Y-135255000D01*
X116840000Y-140970000D02*
X115570000Y-139700000D01*
X157480000Y-106680000D02*
X161925000Y-106680000D01*
X161925000Y-106680000D02*
X163195000Y-105410000D01*
X110490000Y-135890000D02*
X110490000Y-127635000D01*
X142240000Y-105410000D02*
X139700000Y-105410000D01*
X117475000Y-101600000D02*
X120015000Y-101600000D01*
X120650000Y-103505000D02*
X120650000Y-102235000D01*
X120650000Y-102235000D02*
X120015000Y-101600000D01*
X121285000Y-104140000D02*
X120650000Y-103505000D01*
X143510000Y-106680000D02*
X142240000Y-105410000D01*
X143510000Y-106680000D02*
X156210000Y-106680000D01*
X130175000Y-104140000D02*
X128270000Y-104140000D01*
X131445000Y-102870000D02*
X130175000Y-104140000D01*
X109855000Y-106045000D02*
X110490000Y-105410000D01*
X115570000Y-102235000D02*
X116205000Y-101600000D01*
X115570000Y-104775000D02*
X115570000Y-102235000D01*
X114935000Y-105410000D02*
X115570000Y-104775000D01*
X110490000Y-105410000D02*
X114935000Y-105410000D01*
X117475000Y-101600000D02*
X116205000Y-101600000D01*
X110490000Y-124460000D02*
X110490000Y-120650000D01*
X110490000Y-120650000D02*
X110490000Y-119380000D01*
X110490000Y-119380000D02*
X109855000Y-118745000D01*
X109855000Y-118745000D02*
X109855000Y-117475000D01*
X109855000Y-106045000D02*
X109855000Y-107950000D01*
X114300000Y-146050000D02*
X114300000Y-139700000D01*
X109855000Y-127000000D02*
X107315000Y-127000000D01*
X110490000Y-127635000D02*
X109855000Y-127000000D01*
X156210000Y-106680000D02*
X157480000Y-106680000D01*
X163195000Y-105410000D02*
X165735000Y-105410000D01*
X165735000Y-105410000D02*
X166370000Y-106045000D01*
X166370000Y-106045000D02*
X166370000Y-107315000D01*
X166370000Y-107315000D02*
X167640000Y-108585000D01*
X167640000Y-108585000D02*
X177800000Y-108585000D01*
X177800000Y-108585000D02*
X179705000Y-106680000D01*
X117475000Y-129540000D02*
X118110000Y-129540000D01*
X118110000Y-129540000D02*
X119380000Y-130810000D01*
X118745000Y-136525000D02*
X113665000Y-136525000D01*
X119380000Y-135890000D02*
X118745000Y-136525000D01*
X119380000Y-130810000D02*
X119380000Y-135890000D01*
X101600000Y-146050000D02*
X101600000Y-144780000D01*
X102235000Y-136525000D02*
X113665000Y-136525000D01*
X100965000Y-137795000D02*
X102235000Y-136525000D01*
X100965000Y-144145000D02*
X100965000Y-137795000D01*
X101600000Y-144780000D02*
X100965000Y-144145000D01*
X120015000Y-127635000D02*
X120015000Y-126365000D01*
X118110000Y-126365000D02*
X117475000Y-127000000D01*
X118745000Y-125730000D02*
X118110000Y-126365000D01*
X119380000Y-125730000D02*
X118745000Y-125730000D01*
X120015000Y-126365000D02*
X119380000Y-125730000D01*
X120015000Y-128270000D02*
X120015000Y-127635000D01*
X118745000Y-137160000D02*
X119380000Y-137160000D01*
X120015000Y-136525000D02*
X120015000Y-128270000D01*
X119380000Y-137160000D02*
X120015000Y-136525000D01*
X101600000Y-143510000D02*
X101600000Y-138430000D01*
X101600000Y-138430000D02*
X102870000Y-137160000D01*
X102870000Y-137160000D02*
X113665000Y-137160000D01*
X101600000Y-143510000D02*
X104140000Y-146050000D01*
X118745000Y-137160000D02*
X113665000Y-137160000D01*
X148590000Y-127000000D02*
X148590000Y-127635000D01*
X137795000Y-128270000D02*
X137160000Y-128905000D01*
X147955000Y-128270000D02*
X137795000Y-128270000D01*
X148590000Y-127635000D02*
X147955000Y-128270000D01*
X149225000Y-118110000D02*
X151765000Y-118110000D01*
X148590000Y-118745000D02*
X149225000Y-118110000D01*
X148590000Y-127000000D02*
X148590000Y-118745000D01*
X153035000Y-97155000D02*
X153035000Y-92075000D01*
X153035000Y-92075000D02*
X152400000Y-91440000D01*
X149225000Y-75565000D02*
X149860000Y-74930000D01*
X149860000Y-74930000D02*
X149860000Y-70485000D01*
X149860000Y-68580000D02*
X148590000Y-67310000D01*
X148590000Y-67310000D02*
X148590000Y-66040000D01*
X151765000Y-83820000D02*
X151130000Y-83185000D01*
X151765000Y-87630000D02*
X151765000Y-83820000D01*
X149225000Y-76200000D02*
X149225000Y-75565000D01*
X153035000Y-114935000D02*
X153035000Y-115570000D01*
X153035000Y-111125000D02*
X153035000Y-114935000D01*
X153035000Y-102235000D02*
X153035000Y-106045000D01*
X137160000Y-128905000D02*
X137160000Y-133985000D01*
X132080000Y-138430000D02*
X133350000Y-137160000D01*
X145415000Y-139700000D02*
X145415000Y-137795000D01*
X111760000Y-139065000D02*
X112395000Y-138430000D01*
X112395000Y-138430000D02*
X132080000Y-138430000D01*
X111760000Y-139065000D02*
X111760000Y-146050000D01*
X144780000Y-137160000D02*
X145415000Y-137795000D01*
X144145000Y-137160000D02*
X144780000Y-137160000D01*
X133350000Y-137160000D02*
X137160000Y-137160000D01*
X137160000Y-137160000D02*
X144145000Y-137160000D01*
X193675000Y-116205000D02*
X188595000Y-116205000D01*
X188595000Y-116205000D02*
X187960000Y-116840000D01*
X197485000Y-106680000D02*
X197485000Y-86995000D01*
X197485000Y-86995000D02*
X196850000Y-86360000D01*
X196850000Y-86360000D02*
X195580000Y-86360000D01*
X185420000Y-130810000D02*
X185420000Y-134620000D01*
X178435000Y-133985000D02*
X177800000Y-133350000D01*
X178435000Y-134620000D02*
X178435000Y-133985000D01*
X179705000Y-135890000D02*
X178435000Y-134620000D01*
X184150000Y-135890000D02*
X179705000Y-135890000D01*
X185420000Y-134620000D02*
X184150000Y-135890000D01*
X172085000Y-134620000D02*
X173990000Y-134620000D01*
X175260000Y-133350000D02*
X177800000Y-133350000D01*
X173990000Y-134620000D02*
X175260000Y-133350000D01*
X186055000Y-116840000D02*
X187960000Y-116840000D01*
X185420000Y-117475000D02*
X186055000Y-116840000D01*
X185420000Y-130810000D02*
X185420000Y-117475000D01*
X179705000Y-91440000D02*
X172720000Y-91440000D01*
X160020000Y-91440000D02*
X156210000Y-91440000D01*
X160655000Y-90805000D02*
X160020000Y-91440000D01*
X162560000Y-90805000D02*
X160655000Y-90805000D01*
X163195000Y-90170000D02*
X162560000Y-90805000D01*
X170180000Y-90170000D02*
X163195000Y-90170000D01*
X185420000Y-88900000D02*
X183515000Y-90805000D01*
X182880000Y-90805000D02*
X183515000Y-90805000D01*
X186690000Y-86360000D02*
X187960000Y-86360000D01*
X185420000Y-87630000D02*
X186690000Y-86360000D01*
X185420000Y-88900000D02*
X185420000Y-87630000D01*
X172085000Y-106680000D02*
X172085000Y-107315000D01*
X172085000Y-96520000D02*
X172085000Y-99060000D01*
X171450000Y-86360000D02*
X172085000Y-86995000D01*
X172085000Y-89535000D02*
X172085000Y-96520000D01*
X164465000Y-86360000D02*
X171450000Y-86360000D01*
X172085000Y-103505000D02*
X172085000Y-104775000D01*
X172085000Y-104775000D02*
X172085000Y-106045000D01*
X180975000Y-107950000D02*
X187325000Y-107950000D01*
X187325000Y-107950000D02*
X189230000Y-107950000D01*
X172085000Y-106045000D02*
X172085000Y-106680000D01*
X172085000Y-107315000D02*
X172720000Y-107950000D01*
X172720000Y-107950000D02*
X177165000Y-107950000D01*
X142240000Y-86995000D02*
X143510000Y-88265000D01*
X142240000Y-86995000D02*
X141605000Y-86360000D01*
X141605000Y-86360000D02*
X140970000Y-86360000D01*
X154940000Y-85090000D02*
X154305000Y-85725000D01*
X162560000Y-85090000D02*
X154940000Y-85090000D01*
X163830000Y-86360000D02*
X162560000Y-85090000D01*
X154305000Y-87630000D02*
X153670000Y-88265000D01*
X154305000Y-85725000D02*
X154305000Y-87630000D01*
X164465000Y-86360000D02*
X163830000Y-86360000D01*
X143510000Y-88265000D02*
X153670000Y-88265000D01*
X160020000Y-94615000D02*
X160655000Y-94615000D01*
X160655000Y-94615000D02*
X162560000Y-92710000D01*
X156210000Y-93980000D02*
X156845000Y-93980000D01*
X156845000Y-93980000D02*
X157480000Y-94615000D01*
X157480000Y-94615000D02*
X160020000Y-94615000D01*
X172720000Y-92710000D02*
X176530000Y-92710000D01*
X176530000Y-92710000D02*
X177800000Y-93980000D01*
X179705000Y-93980000D02*
X177800000Y-93980000D01*
X162560000Y-92710000D02*
X170180000Y-92710000D01*
X182880000Y-93980000D02*
X187960000Y-93980000D01*
X189865000Y-88265000D02*
X190500000Y-88900000D01*
X180975000Y-88900000D02*
X182245000Y-87630000D01*
X186055000Y-85725000D02*
X186690000Y-85090000D01*
X186690000Y-85090000D02*
X189230000Y-85090000D01*
X189230000Y-85090000D02*
X189865000Y-85725000D01*
X189865000Y-85725000D02*
X189865000Y-88265000D01*
X179705000Y-88900000D02*
X180975000Y-88900000D01*
X194310000Y-96520000D02*
X195580000Y-96520000D01*
X193675000Y-95885000D02*
X194310000Y-96520000D01*
X193675000Y-92075000D02*
X193675000Y-95885000D01*
X193040000Y-91440000D02*
X193675000Y-92075000D01*
X191135000Y-91440000D02*
X193040000Y-91440000D01*
X190500000Y-90805000D02*
X191135000Y-91440000D01*
X190500000Y-88900000D02*
X190500000Y-90805000D01*
X161925000Y-87630000D02*
X165100000Y-87630000D01*
X179705000Y-88900000D02*
X178435000Y-88900000D01*
X177800000Y-88265000D02*
X170180000Y-88265000D01*
X178435000Y-88900000D02*
X177800000Y-88265000D01*
X167005000Y-88265000D02*
X170180000Y-88265000D01*
X157480000Y-87630000D02*
X161925000Y-87630000D01*
X157480000Y-87630000D02*
X156210000Y-88900000D01*
X165735000Y-88265000D02*
X167005000Y-88265000D01*
X165100000Y-87630000D02*
X165735000Y-88265000D01*
X185420000Y-101600000D02*
X182245000Y-101600000D01*
X186690000Y-97155000D02*
X187325000Y-96520000D01*
X186690000Y-100330000D02*
X186690000Y-97155000D01*
X185420000Y-101600000D02*
X186690000Y-100330000D01*
X187325000Y-96520000D02*
X187960000Y-96520000D01*
X179705000Y-101600000D02*
X167005000Y-101600000D01*
X167005000Y-101600000D02*
X165735000Y-100330000D01*
X156210000Y-101600000D02*
X161925000Y-101600000D01*
X163195000Y-100330000D02*
X165735000Y-100330000D01*
X161925000Y-101600000D02*
X163195000Y-100330000D01*
X175260000Y-86995000D02*
X173355000Y-86995000D01*
X176530000Y-88900000D02*
X176530000Y-90805000D01*
X186690000Y-90170000D02*
X184785000Y-92075000D01*
X184150000Y-92075000D02*
X184785000Y-92075000D01*
X182245000Y-92075000D02*
X184150000Y-92075000D01*
X181610000Y-92710000D02*
X182245000Y-92075000D01*
X177800000Y-92710000D02*
X181610000Y-92710000D01*
X193040000Y-90170000D02*
X194310000Y-91440000D01*
X194310000Y-91440000D02*
X194310000Y-93345000D01*
X194945000Y-93980000D02*
X194310000Y-93345000D01*
X191135000Y-90170000D02*
X193040000Y-90170000D01*
X166370000Y-85725000D02*
X164465000Y-83820000D01*
X172085000Y-85725000D02*
X166370000Y-85725000D01*
X173355000Y-86995000D02*
X172085000Y-85725000D01*
X161290000Y-81915000D02*
X157480000Y-81915000D01*
X161290000Y-81915000D02*
X163830000Y-81915000D01*
X163830000Y-81915000D02*
X164465000Y-82550000D01*
X164465000Y-83820000D02*
X164465000Y-82550000D01*
X142240000Y-82550000D02*
X154305000Y-82550000D01*
X142240000Y-82550000D02*
X140970000Y-83820000D01*
X154305000Y-82550000D02*
X154940000Y-81915000D01*
X194945000Y-93980000D02*
X195580000Y-93980000D01*
X156210000Y-96520000D02*
X156845000Y-96520000D01*
X156845000Y-96520000D02*
X157480000Y-95885000D01*
X157480000Y-95885000D02*
X161925000Y-95885000D01*
X161925000Y-95885000D02*
X162560000Y-95250000D01*
X162560000Y-95250000D02*
X168910000Y-95250000D01*
X168910000Y-95250000D02*
X169545000Y-95885000D01*
X173355000Y-95885000D02*
X177800000Y-95885000D01*
X177800000Y-95885000D02*
X178435000Y-95885000D01*
X178435000Y-95885000D02*
X179070000Y-96520000D01*
X179070000Y-96520000D02*
X179705000Y-96520000D01*
X187960000Y-104140000D02*
X186055000Y-104140000D01*
X184785000Y-96520000D02*
X179705000Y-96520000D01*
X185420000Y-97155000D02*
X184785000Y-96520000D01*
X185420000Y-100330000D02*
X185420000Y-97155000D01*
X186055000Y-104140000D02*
X185420000Y-103505000D01*
X186055000Y-131445000D02*
X186055000Y-135255000D01*
X178435000Y-136525000D02*
X176530000Y-134620000D01*
X184785000Y-136525000D02*
X178435000Y-136525000D01*
X186055000Y-135255000D02*
X184785000Y-136525000D01*
X187960000Y-119380000D02*
X186690000Y-119380000D01*
X186055000Y-120015000D02*
X186055000Y-131445000D01*
X186690000Y-119380000D02*
X186055000Y-120015000D01*
X179705000Y-86360000D02*
X183515000Y-86360000D01*
X175260000Y-104140000D02*
X173990000Y-104140000D01*
X172085000Y-121285000D02*
X172720000Y-121285000D01*
X171450000Y-120650000D02*
X172085000Y-121285000D01*
X171450000Y-116840000D02*
X171450000Y-120650000D01*
X172720000Y-115570000D02*
X171450000Y-116840000D01*
X172720000Y-105410000D02*
X172720000Y-106680000D01*
X173355000Y-104775000D02*
X172720000Y-105410000D01*
X173990000Y-104140000D02*
X173355000Y-104775000D01*
X175260000Y-104140000D02*
X179705000Y-104140000D01*
X149225000Y-127000000D02*
X149225000Y-127635000D01*
X149860000Y-128270000D02*
X170180000Y-128270000D01*
X149225000Y-127635000D02*
X149860000Y-128270000D01*
X153670000Y-114935000D02*
X153670000Y-111760000D01*
X152400000Y-118745000D02*
X153035000Y-118110000D01*
X149860000Y-118745000D02*
X152400000Y-118745000D01*
X149225000Y-119380000D02*
X149860000Y-118745000D01*
X149225000Y-127000000D02*
X149225000Y-119380000D01*
X172085000Y-132080000D02*
X176530000Y-132080000D01*
X156210000Y-86360000D02*
X160020000Y-86360000D01*
X121920000Y-57785000D02*
X122555000Y-58420000D01*
X127635000Y-58420000D02*
X128270000Y-59055000D01*
X122555000Y-58420000D02*
X127635000Y-58420000D01*
X129540000Y-60325000D02*
X128270000Y-59055000D01*
X168275000Y-64770000D02*
X168275000Y-60960000D01*
X167640000Y-60325000D02*
X129540000Y-60325000D01*
X168275000Y-60960000D02*
X167640000Y-60325000D01*
X121920000Y-57785000D02*
X121920000Y-53340000D01*
X171450000Y-64770000D02*
X171450000Y-60325000D01*
X129540000Y-59055000D02*
X129540000Y-53340000D01*
X130175000Y-59690000D02*
X129540000Y-59055000D01*
X170815000Y-59690000D02*
X130175000Y-59690000D01*
X171450000Y-60325000D02*
X170815000Y-59690000D01*
X174625000Y-64770000D02*
X174625000Y-59690000D01*
X137160000Y-58420000D02*
X137160000Y-53340000D01*
X137795000Y-59055000D02*
X137160000Y-58420000D01*
X173990000Y-59055000D02*
X137795000Y-59055000D01*
X174625000Y-59690000D02*
X173990000Y-59055000D01*
X177800000Y-64770000D02*
X177800000Y-59055000D01*
X144780000Y-57785000D02*
X144780000Y-53340000D01*
X145415000Y-58420000D02*
X144780000Y-57785000D01*
X177165000Y-58420000D02*
X145415000Y-58420000D01*
X177800000Y-59055000D02*
X177165000Y-58420000D01*
X180975000Y-64770000D02*
X180975000Y-58420000D01*
X154940000Y-57150000D02*
X154940000Y-53340000D01*
X155575000Y-57785000D02*
X154940000Y-57150000D01*
X180340000Y-57785000D02*
X155575000Y-57785000D01*
X180975000Y-58420000D02*
X180340000Y-57785000D01*
X184150000Y-64770000D02*
X184150000Y-63500000D01*
X163195000Y-57150000D02*
X162560000Y-56515000D01*
X162560000Y-56515000D02*
X162560000Y-53340000D01*
X180975000Y-57150000D02*
X163195000Y-57150000D01*
X181610000Y-57785000D02*
X180975000Y-57150000D01*
X181610000Y-60960000D02*
X181610000Y-57785000D01*
X183515000Y-62865000D02*
X181610000Y-60960000D01*
X184150000Y-63500000D02*
X183515000Y-62865000D01*
X170815000Y-56515000D02*
X181610000Y-56515000D01*
X170815000Y-56515000D02*
X170180000Y-55880000D01*
X170180000Y-53340000D02*
X170180000Y-55880000D01*
X187325000Y-63500000D02*
X187325000Y-64770000D01*
X186690000Y-62865000D02*
X187325000Y-63500000D01*
X184785000Y-62865000D02*
X186690000Y-62865000D01*
X182060002Y-60140002D02*
X184785000Y-62865000D01*
X182060002Y-56965002D02*
X182060002Y-60140002D01*
X181610000Y-56515000D02*
X182060002Y-56965002D01*
X178435000Y-55880000D02*
X182245000Y-55880000D01*
X177800000Y-55245000D02*
X178435000Y-55880000D01*
X177800000Y-53340000D02*
X177800000Y-55245000D01*
X190500000Y-62865000D02*
X190500000Y-64770000D01*
X189865000Y-62230000D02*
X190500000Y-62865000D01*
X185420000Y-62230000D02*
X189865000Y-62230000D01*
X182880000Y-59690000D02*
X185420000Y-62230000D01*
X182880000Y-56515000D02*
X182880000Y-59690000D01*
X182245000Y-55880000D02*
X182880000Y-56515000D01*
X140970000Y-73660000D02*
X143510000Y-76200000D01*
X143510000Y-76200000D02*
X143510000Y-77470000D01*
X140970000Y-73660000D02*
X140970000Y-68580000D01*
X140970000Y-68580000D02*
X143510000Y-66040000D01*
X168275000Y-74930000D02*
X168275000Y-69850000D01*
X146050000Y-68580000D02*
X146050000Y-66040000D01*
X146685000Y-69215000D02*
X146050000Y-68580000D01*
X167640000Y-69215000D02*
X146685000Y-69215000D01*
X168275000Y-69850000D02*
X167640000Y-69215000D01*
X171450000Y-74930000D02*
X171450000Y-69215000D01*
X151130000Y-67945000D02*
X151130000Y-66040000D01*
X151765000Y-68580000D02*
X151130000Y-67945000D01*
X170815000Y-68580000D02*
X151765000Y-68580000D01*
X171450000Y-69215000D02*
X170815000Y-68580000D01*
X174625000Y-74930000D02*
X174625000Y-68580000D01*
X156210000Y-67310000D02*
X156210000Y-66040000D01*
X156845000Y-67945000D02*
X156210000Y-67310000D01*
X173990000Y-67945000D02*
X156845000Y-67945000D01*
X174625000Y-68580000D02*
X173990000Y-67945000D01*
X161290000Y-66040000D02*
X161290000Y-66675000D01*
X161290000Y-66675000D02*
X161925000Y-67310000D01*
X161925000Y-67310000D02*
X177165000Y-67310000D01*
X177165000Y-67310000D02*
X177800000Y-67945000D01*
X177800000Y-67945000D02*
X177800000Y-74930000D01*
X180975000Y-74930000D02*
X180975000Y-72390000D01*
X161290000Y-72390000D02*
X161290000Y-73660000D01*
X161925000Y-71755000D02*
X161290000Y-72390000D01*
X167640000Y-71755000D02*
X161925000Y-71755000D01*
X180340000Y-71755000D02*
X179070000Y-71755000D01*
X180975000Y-72390000D02*
X180340000Y-71755000D01*
X184150000Y-74930000D02*
X184150000Y-71755000D01*
X156210000Y-71755000D02*
X156210000Y-73660000D01*
X156845000Y-71120000D02*
X156210000Y-71755000D01*
X167005000Y-71120000D02*
X156845000Y-71120000D01*
X183515000Y-71120000D02*
X178435000Y-71120000D01*
X184150000Y-71755000D02*
X183515000Y-71120000D01*
X151130000Y-73660000D02*
X151130000Y-71120000D01*
X187325000Y-71120000D02*
X187325000Y-74930000D01*
X186690000Y-70485000D02*
X187325000Y-71120000D01*
X179070000Y-70485000D02*
X186690000Y-70485000D01*
X151765000Y-70485000D02*
X167640000Y-70485000D01*
X151130000Y-71120000D02*
X151765000Y-70485000D01*
X146050000Y-73660000D02*
X146050000Y-70485000D01*
X190500000Y-70485000D02*
X190500000Y-74930000D01*
X189865000Y-69850000D02*
X190500000Y-70485000D01*
X178435000Y-69850000D02*
X189865000Y-69850000D01*
X146685000Y-69850000D02*
X167005000Y-69850000D01*
X146050000Y-70485000D02*
X146685000Y-69850000D01*
X110490000Y-88900000D02*
X111125000Y-88265000D01*
X108585000Y-106045000D02*
X109220000Y-105410000D01*
X109855000Y-104775000D02*
X109855000Y-104140000D01*
X109220000Y-105410000D02*
X109855000Y-104775000D01*
X107950000Y-106680000D02*
X108585000Y-106045000D01*
X109855000Y-104140000D02*
X109855000Y-99060000D01*
X110490000Y-90805000D02*
X110490000Y-88900000D01*
X110490000Y-95250000D02*
X109855000Y-95885000D01*
X110490000Y-90805000D02*
X110490000Y-95250000D01*
X111125000Y-88265000D02*
X112395000Y-88265000D01*
X130175000Y-125730000D02*
X129540000Y-126365000D01*
X129540000Y-126365000D02*
X129540000Y-128905000D01*
X138430000Y-132715000D02*
X138430000Y-128905000D01*
X152400000Y-140335000D02*
X152400000Y-137795000D01*
X152400000Y-133985000D02*
X151765000Y-133350000D01*
X151765000Y-133350000D02*
X139065000Y-133350000D01*
X139065000Y-133350000D02*
X138430000Y-132715000D01*
X115570000Y-132080000D02*
X114935000Y-131445000D01*
X114935000Y-131445000D02*
X114935000Y-130810000D01*
X108585000Y-106680000D02*
X107315000Y-106680000D01*
X109855000Y-120015000D02*
X109855000Y-121285000D01*
X109220000Y-119380000D02*
X109855000Y-120015000D01*
X109220000Y-118110000D02*
X109220000Y-119380000D01*
X109220000Y-107315000D02*
X109220000Y-110490000D01*
X108585000Y-106680000D02*
X109220000Y-107315000D01*
X109855000Y-121285000D02*
X109855000Y-125730000D01*
X117475000Y-133985000D02*
X118745000Y-133985000D01*
X115570000Y-132080000D02*
X117475000Y-133985000D01*
X134620000Y-125730000D02*
X130175000Y-125730000D01*
X114935000Y-129540000D02*
X114935000Y-130810000D01*
X114300000Y-128905000D02*
X114935000Y-129540000D01*
X107315000Y-106680000D02*
X107950000Y-106680000D01*
X109855000Y-90170000D02*
X109855000Y-94615000D01*
X109855000Y-94615000D02*
X109220000Y-95250000D01*
X114300000Y-131445000D02*
X114300000Y-130175000D01*
X114300000Y-130175000D02*
X113665000Y-129540000D01*
X151765000Y-140970000D02*
X151765000Y-137160000D01*
X151130000Y-133985000D02*
X139065000Y-133985000D01*
X139065000Y-133985000D02*
X138430000Y-133985000D01*
X138430000Y-133985000D02*
X137795000Y-133350000D01*
X137795000Y-133350000D02*
X137795000Y-131445000D01*
X137795000Y-131445000D02*
X137795000Y-129540000D01*
X118110000Y-134804998D02*
X117925002Y-134620000D01*
X118110000Y-134620000D02*
X118110000Y-134804998D01*
X114935000Y-132715000D02*
X114300000Y-132080000D01*
X116840000Y-134620000D02*
X114935000Y-132715000D01*
X108585000Y-120650000D02*
X109220000Y-121285000D01*
X106045000Y-105410000D02*
X106045000Y-120015000D01*
X106045000Y-120015000D02*
X106680000Y-120650000D01*
X106680000Y-120650000D02*
X108585000Y-120650000D01*
X106045000Y-105410000D02*
X107315000Y-104140000D01*
X109220000Y-121285000D02*
X109220000Y-125095000D01*
X114300000Y-132080000D02*
X114300000Y-131445000D01*
X117925002Y-134620000D02*
X116840000Y-134620000D01*
X116205000Y-86360000D02*
X115570000Y-85725000D01*
X115570000Y-85725000D02*
X110490000Y-85725000D01*
X117475000Y-86360000D02*
X116205000Y-86360000D01*
X108585000Y-104140000D02*
X107315000Y-104140000D01*
X109220000Y-99695000D02*
X109220000Y-102870000D01*
X109220000Y-102870000D02*
X109220000Y-103505000D01*
X109220000Y-103505000D02*
X108585000Y-104140000D01*
X109855000Y-88900000D02*
X109855000Y-90170000D01*
X176530000Y-86360000D02*
X173990000Y-86360000D01*
X173990000Y-86360000D02*
X172720000Y-85090000D01*
X172720000Y-85090000D02*
X167640000Y-85090000D01*
X167640000Y-85090000D02*
X166370000Y-83820000D01*
X166370000Y-83820000D02*
X166370000Y-81915000D01*
X166370000Y-81915000D02*
X165735000Y-81280000D01*
X165735000Y-81280000D02*
X158115000Y-81280000D01*
X154305000Y-81280000D02*
X153670000Y-81915000D01*
X153670000Y-81915000D02*
X144145000Y-81915000D01*
X136525000Y-85090000D02*
X135890000Y-85090000D01*
X114300000Y-81280000D02*
X121285000Y-81280000D01*
X107315000Y-81280000D02*
X114300000Y-81280000D01*
X100965000Y-84455000D02*
X100965000Y-108585000D01*
X102235000Y-135255000D02*
X101600000Y-134620000D01*
X101600000Y-134620000D02*
X101600000Y-132080000D01*
X101600000Y-132080000D02*
X100965000Y-131445000D01*
X100965000Y-131445000D02*
X100965000Y-108585000D01*
X109855000Y-132715000D02*
X109855000Y-133985000D01*
X108585000Y-129540000D02*
X109855000Y-130810000D01*
X109855000Y-130810000D02*
X109855000Y-132715000D01*
X107315000Y-129540000D02*
X108585000Y-129540000D01*
X109855000Y-133985000D02*
X108585000Y-135255000D01*
X108585000Y-135255000D02*
X102235000Y-135255000D01*
X100965000Y-84455000D02*
X100965000Y-81915000D01*
X131445000Y-85090000D02*
X135890000Y-85090000D01*
X130810000Y-84455000D02*
X131445000Y-85090000D01*
X130810000Y-82550000D02*
X130810000Y-84455000D01*
X130175000Y-81915000D02*
X130810000Y-82550000D01*
X124460000Y-81915000D02*
X130175000Y-81915000D01*
X121285000Y-81280000D02*
X121920000Y-81915000D01*
X176530000Y-86360000D02*
X177165000Y-86995000D01*
X101600000Y-81280000D02*
X100965000Y-81915000D01*
X103505000Y-81280000D02*
X101600000Y-81280000D01*
X185420000Y-86360000D02*
X185420000Y-85725000D01*
X184785000Y-88265000D02*
X184785000Y-86995000D01*
X184785000Y-86995000D02*
X185420000Y-86360000D01*
X184150000Y-88900000D02*
X184785000Y-88265000D01*
X177800000Y-86360000D02*
X177165000Y-86995000D01*
X177165000Y-86995000D02*
X176530000Y-87630000D01*
X177800000Y-85725000D02*
X177800000Y-86360000D01*
X178435000Y-85090000D02*
X177800000Y-85725000D01*
X184785000Y-85090000D02*
X178435000Y-85090000D01*
X185420000Y-85725000D02*
X184785000Y-85090000D01*
X183515000Y-88900000D02*
X184150000Y-88900000D01*
X166370000Y-87630000D02*
X176530000Y-87630000D01*
X115570000Y-67310000D02*
X120650000Y-67310000D01*
X121920000Y-66040000D02*
X121920000Y-62230000D01*
X120650000Y-67310000D02*
X121920000Y-66040000D01*
X147955000Y-123190000D02*
X147955000Y-119380000D01*
X144145000Y-119380000D02*
X144145000Y-120650000D01*
X144780000Y-118745000D02*
X144145000Y-119380000D01*
X147320000Y-118745000D02*
X144780000Y-118745000D01*
X147955000Y-119380000D02*
X147320000Y-118745000D01*
X154940000Y-120650000D02*
X154940000Y-121920000D01*
X156210000Y-125095000D02*
X158750000Y-125095000D01*
X155575000Y-124460000D02*
X156210000Y-125095000D01*
X155575000Y-122555000D02*
X155575000Y-124460000D01*
X154940000Y-121920000D02*
X155575000Y-122555000D01*
X154940000Y-120650000D02*
X154940000Y-121285000D01*
X142240000Y-127635000D02*
X137160000Y-127635000D01*
X137160000Y-127635000D02*
X136525000Y-128270000D01*
X181610000Y-122555000D02*
X173990000Y-122555000D01*
X173990000Y-122555000D02*
X172720000Y-122555000D01*
X141605000Y-127000000D02*
X141605000Y-125095000D01*
X142240000Y-127635000D02*
X141605000Y-127000000D01*
X147320000Y-127635000D02*
X142240000Y-127635000D01*
X171450000Y-127635000D02*
X150495000Y-127635000D01*
X102235000Y-102870000D02*
X102235000Y-122555000D01*
X102235000Y-123825000D02*
X102235000Y-130175000D01*
X104775000Y-101600000D02*
X103505000Y-101600000D01*
X103505000Y-101600000D02*
X102235000Y-102870000D01*
X102870000Y-134620000D02*
X102235000Y-133985000D01*
X102235000Y-133985000D02*
X102235000Y-132715000D01*
X107950000Y-134620000D02*
X102870000Y-134620000D01*
X118745000Y-135255000D02*
X116205000Y-135255000D01*
X114300000Y-133350000D02*
X113665000Y-132715000D01*
X114300000Y-133350000D02*
X116205000Y-135255000D01*
X136525000Y-130175000D02*
X136525000Y-128270000D01*
X131445000Y-130810000D02*
X129540000Y-130810000D01*
X113665000Y-132715000D02*
X113665000Y-132715000D01*
X197485000Y-114935000D02*
X197485000Y-127635000D01*
X197485000Y-127635000D02*
X196850000Y-128270000D01*
X196850000Y-128270000D02*
X189230000Y-128270000D01*
X187960000Y-127000000D02*
X189230000Y-128270000D01*
X198120000Y-107315000D02*
X198120000Y-88265000D01*
X198120000Y-88265000D02*
X198120000Y-78740000D01*
X198120000Y-62865000D02*
X197485000Y-62865000D01*
X198755000Y-63500000D02*
X198120000Y-62865000D01*
X198755000Y-76200000D02*
X198755000Y-63500000D01*
X198120000Y-76835000D02*
X198755000Y-76200000D01*
X195580000Y-62865000D02*
X197485000Y-62865000D01*
X194945000Y-62230000D02*
X195580000Y-62865000D01*
X194945000Y-60960000D02*
X194945000Y-62230000D01*
X194945000Y-59690000D02*
X194945000Y-60960000D01*
X194945000Y-59055000D02*
X194945000Y-59690000D01*
X156845000Y-122555000D02*
X160655000Y-122555000D01*
X160655000Y-122555000D02*
X161290000Y-123190000D01*
X161290000Y-123190000D02*
X161290000Y-125095000D01*
X161290000Y-125095000D02*
X161925000Y-125730000D01*
X161925000Y-125730000D02*
X166370000Y-125730000D01*
X173990000Y-120015000D02*
X172720000Y-120015000D01*
X179705000Y-120650000D02*
X175260000Y-120650000D01*
X175260000Y-120650000D02*
X174625000Y-120650000D01*
X174625000Y-120650000D02*
X173990000Y-120015000D01*
X180340000Y-121285000D02*
X179705000Y-120650000D01*
X158750000Y-118745000D02*
X159385000Y-119380000D01*
X160020000Y-121920000D02*
X160655000Y-121920000D01*
X159385000Y-121285000D02*
X160020000Y-121920000D01*
X159385000Y-119380000D02*
X159385000Y-121285000D01*
X192405000Y-79375000D02*
X192405000Y-78105000D01*
X191770000Y-81280000D02*
X192405000Y-80645000D01*
X192405000Y-80645000D02*
X192405000Y-79375000D01*
X193040000Y-101600000D02*
X193040000Y-100330000D01*
X192405000Y-109220000D02*
X193040000Y-108585000D01*
X193040000Y-108585000D02*
X193040000Y-101600000D01*
X189230000Y-120650000D02*
X189865000Y-121285000D01*
X180340000Y-120015000D02*
X181610000Y-121285000D01*
X175260000Y-120015000D02*
X179705000Y-120015000D01*
X174625000Y-119380000D02*
X175260000Y-120015000D01*
X173990000Y-119380000D02*
X174625000Y-119380000D01*
X172085000Y-119380000D02*
X173990000Y-119380000D01*
X162560000Y-125095000D02*
X165735000Y-125095000D01*
X161925000Y-124460000D02*
X162560000Y-125095000D01*
X161925000Y-122555000D02*
X161925000Y-124460000D01*
X161290000Y-121920000D02*
X161925000Y-122555000D01*
X160655000Y-121920000D02*
X161290000Y-121920000D01*
X179705000Y-120015000D02*
X180340000Y-120015000D01*
X192405000Y-120015000D02*
X192405000Y-116840000D01*
X191135000Y-121285000D02*
X192405000Y-120015000D01*
X189865000Y-121285000D02*
X191135000Y-121285000D01*
X192405000Y-111125000D02*
X192405000Y-109220000D01*
X192405000Y-97155000D02*
X192405000Y-93345000D01*
X192405000Y-93345000D02*
X191770000Y-92710000D01*
X193040000Y-97790000D02*
X192405000Y-97155000D01*
X191770000Y-87630000D02*
X191770000Y-81280000D01*
X192405000Y-66040000D02*
X192405000Y-59055000D01*
X191135000Y-67310000D02*
X192405000Y-66040000D01*
X191135000Y-73025000D02*
X191135000Y-67310000D01*
X192405000Y-74295000D02*
X191135000Y-73025000D01*
X192405000Y-76835000D02*
X192405000Y-74295000D01*
X157480000Y-118745000D02*
X158750000Y-118745000D01*
X153670000Y-118745000D02*
X157480000Y-118745000D01*
X144145000Y-123825000D02*
X143510000Y-123190000D01*
X143510000Y-123190000D02*
X140335000Y-123190000D01*
X140335000Y-123190000D02*
X139700000Y-122555000D01*
X139700000Y-122555000D02*
X139700000Y-119380000D01*
X139700000Y-119380000D02*
X140335000Y-118745000D01*
X140335000Y-118745000D02*
X143510000Y-118745000D01*
X143510000Y-118745000D02*
X144145000Y-118110000D01*
X144145000Y-118110000D02*
X147955000Y-118110000D01*
X147955000Y-118110000D02*
X148590000Y-117475000D01*
X144145000Y-125095000D02*
X144145000Y-123825000D01*
X148590000Y-117475000D02*
X149860000Y-117475000D01*
X156210000Y-123190000D02*
X160020000Y-123190000D01*
X173355000Y-120650000D02*
X173990000Y-121285000D01*
X173990000Y-121285000D02*
X178435000Y-121285000D01*
X142875000Y-122555000D02*
X141605000Y-121285000D01*
X142875000Y-122555000D02*
X147320000Y-122555000D01*
X161290000Y-126365000D02*
X165735000Y-126365000D01*
X160655000Y-125730000D02*
X161290000Y-126365000D01*
X160655000Y-123825000D02*
X160655000Y-125730000D01*
X160020000Y-123190000D02*
X160655000Y-123825000D01*
X141605000Y-120650000D02*
X141605000Y-121285000D01*
X109220000Y-91440000D02*
X109220000Y-92075000D01*
X106045000Y-92710000D02*
X108585000Y-92710000D01*
X108585000Y-92710000D02*
X109220000Y-92075000D01*
X104775000Y-93980000D02*
X106045000Y-92710000D01*
X109220000Y-91440000D02*
X109220000Y-90805000D01*
X113665000Y-79375000D02*
X113665000Y-67945000D01*
X116840000Y-62230000D02*
X116840000Y-63500000D01*
X114935000Y-69215000D02*
X128270000Y-69215000D01*
X113665000Y-67945000D02*
X114935000Y-69215000D01*
X113665000Y-66675000D02*
X113665000Y-67945000D01*
X116840000Y-63500000D02*
X113665000Y-66675000D01*
M02*
