M48
;DRILL file {KiCad 4.0.7} date 08/07/18 23:13:54
;FORMAT={2:4/ absolute / inch / suppress leading zeros}
FMAT,2
INCH,TZ
T1C0.016
T2C0.031
T3C0.035
T4C0.039
T5C0.120
%
G90
G05
M72
T1
X39750Y-31500
X40250Y-32000
X42750Y-48500
X43250Y-42500
X43250Y-46250
X43250Y-54500
X43500Y-42750
X43500Y-46000
X43500Y-49000
X43500Y-50250
X43500Y-53500
X43750Y-42500
X43750Y-45750
X43750Y-49250
X43750Y-50000
X44000Y-41250
X44000Y-53500
X44250Y-45500
X44500Y-38000
X44500Y-43750
X44500Y-45750
X44500Y-46500
X44500Y-52500
X44500Y-53500
X44750Y-37000
X44750Y-39250
X44750Y-43000
X44750Y-44750
X44750Y-45500
X45000Y-36750
X45000Y-39500
X45000Y-41250
X45000Y-46500
X45000Y-48500
X45000Y-53500
X45000Y-55000
X45250Y-32750
X45250Y-33750
X45250Y-36500
X45250Y-38750
X45250Y-44750
X45250Y-45250
X45500Y-53500
X45500Y-55000
X45750Y-35500
X46000Y-55000
X46500Y-55000
X46750Y-54750
X47250Y-46750
X47500Y-38250
X47500Y-39500
X47500Y-41250
X47500Y-47000
X47750Y-35500
X47750Y-38000
X47750Y-41000
X47750Y-42000
X47750Y-43000
X47750Y-43500
X47750Y-44000
X47750Y-54250
X47750Y-55000
X48000Y-34250
X48000Y-39000
X48000Y-40750
X48000Y-54000
X48000Y-55250
X48250Y-54250
X48250Y-55500
X48500Y-33250
X48500Y-39750
X48500Y-54000
X48500Y-55750
X48750Y-37750
X48750Y-38250
X49000Y-35500
X49000Y-37000
X49000Y-37500
X49000Y-38500
X49250Y-39500
X49750Y-40000
X50000Y-39750
X50000Y-48750
X50000Y-54250
X50000Y-55000
X50250Y-28750
X50250Y-39500
X50250Y-48000
X50500Y-40000
X50500Y-41000
X50500Y-42000
X50500Y-43250
X50500Y-44500
X50500Y-48250
X50500Y-48750
X50500Y-52000
X50500Y-54250
X50500Y-55000
X50750Y-41250
X50750Y-43500
X50750Y-48000
X50750Y-49000
X50750Y-52500
X51000Y-48250
X51000Y-48750
X51000Y-54250
X51000Y-55000
X51500Y-54250
X51500Y-55000
X51750Y-40500
X51750Y-41500
X51750Y-54000
X52000Y-53250
X52000Y-53750
X52000Y-55000
X52000Y-55500
X52250Y-55750
X52500Y-25000
X52750Y-25250
X52750Y-42500
X52750Y-45500
X53000Y-28750
X53000Y-52750
X53000Y-53500
X53000Y-55500
X53250Y-44500
X53250Y-53000
X53250Y-55750
X53500Y-25000
X53500Y-43250
X53500Y-53500
X53750Y-25250
X53750Y-46500
X53750Y-50750
X54000Y-31750
X54500Y-31250
X54750Y-26500
X54750Y-27750
X54750Y-29000
X55000Y-28250
X55000Y-41500
X55000Y-42500
X56000Y-32000
X56250Y-44250
X56250Y-45500
X56500Y-38500
X56500Y-43500
X56750Y-31250
X57750Y-55750
X58000Y-56000
X58250Y-30750
X58250Y-56250
X58500Y-30250
X58500Y-56500
X58750Y-30000
X59000Y-27000
X59000Y-27750
X59000Y-30750
X59500Y-32750
X59750Y-30000
X59750Y-34500
X59750Y-35750
X59750Y-38250
X59750Y-39750
X60000Y-44250
X60000Y-44750
X60250Y-41750
X60250Y-43750
X60250Y-45500
X60250Y-46500
X60250Y-53750
X60500Y-38500
X60500Y-44000
X60500Y-45250
X60500Y-46750
X60750Y-44750
X61000Y-32250
X61250Y-53750
X61250Y-56750
X61750Y-52500
X61750Y-54250
X61750Y-55500
X62000Y-29500
X62000Y-32250
X62750Y-25000
X63250Y-36250
X64750Y-53250
X65000Y-54000
X65250Y-53250
X65500Y-34500
X65500Y-44500
X65500Y-45500
X65750Y-27500
X65750Y-28000
X65750Y-43500
X66000Y-27750
X66000Y-28250
X66000Y-43750
X66250Y-43500
X66500Y-39750
X66500Y-40500
X66500Y-42500
X66500Y-43750
X66750Y-37750
X66750Y-39000
X66750Y-40750
X66750Y-42250
X66750Y-44000
X67000Y-35500
X67000Y-36500
X67000Y-39250
X67000Y-41000
X67000Y-42500
X67000Y-43750
X67000Y-50500
X67250Y-37500
X67250Y-39000
X67250Y-40750
X67250Y-42250
X67250Y-43500
X67500Y-39250
X67500Y-40500
X67500Y-42500
X67500Y-43750
X67500Y-45500
X67750Y-34250
X67750Y-35250
X67750Y-39000
X67750Y-40750
X67750Y-44500
X68000Y-36000
X68000Y-36500
X68000Y-37500
X68000Y-40250
X68000Y-41500
X68000Y-44250
X68000Y-44750
X68250Y-37750
X68250Y-39250
X69000Y-35000
X69000Y-41000
X69500Y-34000
X69500Y-35000
X69500Y-35750
X69500Y-42250
X69750Y-41500
X69750Y-50750
X70000Y-35500
X70000Y-36500
X70000Y-44250
X70250Y-27500
X70250Y-28000
X70500Y-27750
X70500Y-28250
X70500Y-51000
X70750Y-51250
X71000Y-51000
X71250Y-42500
X71250Y-50750
X71500Y-41500
X71500Y-50500
X71750Y-34500
X71750Y-40000
X71750Y-50250
X72000Y-35750
X72000Y-37000
X72000Y-50000
X72250Y-45000
X72250Y-48750
X72750Y-38500
X73000Y-39500
X73000Y-40750
X73250Y-33750
X73250Y-45000
X73500Y-34500
X73500Y-35500
X73500Y-53500
X74000Y-44750
X74500Y-36500
X74500Y-41500
X74500Y-42500
X75000Y-34500
X75000Y-36250
X75250Y-35500
X75250Y-41000
X75500Y-53750
X75500Y-54750
X76250Y-45750
X77750Y-42000
X78000Y-29750
X78000Y-31250
X78000Y-42250
X78000Y-43250
X78000Y-44250
X78250Y-44000
T2
X45500Y-26500
X45500Y-29500
X46250Y-33000
X46250Y-34000
X46250Y-35000
X46250Y-36000
X46250Y-37000
X46250Y-38000
X46250Y-39000
X46250Y-40000
X46250Y-41000
X46250Y-42000
X46250Y-43000
X46250Y-44000
X46250Y-45000
X46250Y-46000
X46250Y-47000
X46250Y-48000
X46250Y-49000
X46250Y-50000
X46250Y-51000
X46250Y-52000
X50281Y-31500
X51500Y-26500
X51500Y-29500
X52250Y-31500
X52250Y-33000
X52250Y-34000
X52250Y-35000
X52250Y-36000
X52250Y-37000
X52250Y-38000
X52250Y-39000
X52250Y-40000
X52250Y-41000
X52250Y-42000
X52250Y-43000
X52250Y-44000
X52250Y-45000
X52250Y-46000
X52250Y-47000
X52250Y-48000
X52250Y-49000
X52250Y-50000
X52250Y-51000
X52250Y-52000
X54000Y-26000
X54000Y-27969
X55500Y-26000
X55500Y-29000
X55500Y-33000
X55500Y-34000
X55500Y-35000
X55500Y-36000
X55500Y-37000
X55500Y-38000
X55500Y-39000
X55500Y-40000
X55500Y-41000
X55500Y-42000
X55500Y-43000
X55500Y-44000
X55500Y-45000
X55500Y-46000
X55500Y-51000
X55500Y-55000
X56500Y-26000
X56500Y-29000
X57250Y-51000
X57250Y-55000
X57500Y-26000
X57500Y-29000
X58500Y-26000
X58500Y-29000
X59000Y-51000
X59000Y-55000
X59500Y-26000
X59500Y-29000
X59531Y-31500
X60500Y-26000
X60500Y-29000
X60750Y-51000
X60750Y-55000
X61500Y-26000
X61500Y-29000
X61500Y-31500
X61500Y-33000
X61500Y-34000
X61500Y-35000
X61500Y-36000
X61500Y-37000
X61500Y-38000
X61500Y-39000
X61500Y-40000
X61500Y-41000
X61500Y-42000
X61500Y-43000
X61500Y-44000
X61500Y-45000
X61500Y-46000
X62500Y-26000
X62500Y-29000
X62500Y-51000
X62500Y-55000
X63500Y-26000
X63500Y-29000
X64250Y-51000
X64250Y-55000
X64500Y-26000
X64500Y-29000
X64750Y-33000
X64750Y-34000
X64750Y-35000
X64750Y-36000
X64750Y-37000
X64750Y-38000
X64750Y-39000
X64750Y-40000
X64750Y-41000
X64750Y-42000
X64750Y-43000
X64750Y-44000
X64750Y-45000
X64750Y-46000
X66000Y-51000
X66000Y-55000
X66250Y-25500
X66250Y-29500
X67500Y-25500
X67500Y-29500
X68750Y-25500
X68750Y-29500
X68781Y-31500
X70000Y-25500
X70000Y-29500
X70750Y-31500
X70750Y-33000
X70750Y-34000
X70750Y-35000
X70750Y-36000
X70750Y-37000
X70750Y-38000
X70750Y-39000
X70750Y-40000
X70750Y-41000
X70750Y-42000
X70750Y-43000
X70750Y-44000
X70750Y-45000
X70750Y-46000
X71250Y-25500
X71250Y-29500
X72500Y-25500
X72500Y-29500
X73750Y-25500
X73750Y-29500
X74000Y-33000
X74000Y-34000
X74000Y-35000
X74000Y-36000
X74000Y-37000
X74000Y-38000
X74000Y-39000
X74000Y-40000
X74000Y-41000
X74000Y-42000
X74000Y-46000
X74000Y-47000
X74000Y-48000
X74000Y-49000
X74000Y-50000
X74000Y-51000
X74000Y-52000
X75000Y-25500
X75000Y-29500
X75031Y-31500
X75031Y-44500
X77000Y-31500
X77000Y-33000
X77000Y-34000
X77000Y-35000
X77000Y-36000
X77000Y-37000
X77000Y-38000
X77000Y-39000
X77000Y-40000
X77000Y-41000
X77000Y-42000
X77000Y-44500
X77000Y-46000
X77000Y-47000
X77000Y-48000
X77000Y-49000
X77000Y-50000
X77000Y-51000
X77000Y-52000
T3
X48000Y-20000
X48000Y-21000
X51000Y-20000
X51000Y-21000
X54000Y-20000
X54000Y-21000
X57000Y-20000
X57000Y-21000
X61000Y-20000
X61000Y-21000
X64000Y-20000
X64000Y-21000
X67000Y-20000
X67000Y-21000
X70000Y-20000
X70000Y-21000
T4
X40000Y-57500
X41000Y-57500
X41250Y-33000
X41250Y-34000
X41250Y-35000
X41250Y-36000
X41250Y-37000
X41250Y-38000
X41250Y-39000
X41250Y-40000
X41250Y-41000
X41250Y-42000
X41250Y-43000
X41250Y-44000
X41250Y-45000
X41250Y-46000
X41250Y-47000
X41250Y-48000
X41250Y-49000
X41250Y-50000
X41250Y-51000
X41250Y-52000
X42000Y-57500
X42250Y-33000
X42250Y-34000
X42250Y-35000
X42250Y-36000
X42250Y-37000
X42250Y-38000
X42250Y-39000
X42250Y-40000
X42250Y-41000
X42250Y-42000
X42250Y-43000
X42250Y-44000
X42250Y-45000
X42250Y-46000
X42250Y-47000
X42250Y-48000
X42250Y-49000
X42250Y-50000
X42250Y-51000
X42250Y-52000
X43000Y-57500
X43250Y-26000
X43250Y-27000
X43250Y-28000
X43250Y-29000
X43250Y-30000
X44000Y-57500
X45000Y-57500
X46000Y-57500
X47000Y-57500
X48000Y-57500
X49000Y-57500
X50000Y-57500
X51000Y-57500
X52000Y-57500
X53000Y-57500
X54000Y-57500
X55000Y-57500
X55500Y-30500
X56000Y-57500
X56500Y-30500
X57000Y-57500
X57500Y-30500
X58000Y-57500
X59000Y-57500
X60000Y-57500
X61000Y-57500
X62000Y-57500
X63000Y-33000
X63000Y-34000
X63000Y-35000
X63000Y-57500
X64000Y-57500
X65000Y-57500
X66000Y-57500
X67000Y-57500
X67750Y-52000
X67750Y-53000
X67750Y-54000
X68000Y-57500
X69000Y-57500
X69500Y-52000
X69500Y-53000
X69500Y-54000
X70000Y-57500
X71000Y-57500
X72000Y-57500
X72250Y-33000
X72250Y-34000
X72250Y-35000
X73000Y-57500
X73750Y-23250
X74000Y-57500
X74750Y-23250
X75000Y-57500
X75750Y-23250
X76000Y-57500
X76750Y-23250
X77000Y-57500
X78000Y-57500
T5
X41250Y-28250
X41250Y-55750
X76750Y-28250
X76750Y-55750
T4
X41138Y-20606G85X41138Y-21394
G05
X41925Y-22850G85X42713Y-22850
G05
X43500Y-20606G85X43500Y-21394
G05
T0
M30
