G04 #@! TF.GenerationSoftware,KiCad,Pcbnew,(5.1.5)-3*
G04 #@! TF.CreationDate,2020-04-10T18:54:41+02:00*
G04 #@! TF.ProjectId,RC1802 CPU,52433138-3032-4204-9350-552e6b696361,rev?*
G04 #@! TF.SameCoordinates,Original*
G04 #@! TF.FileFunction,Legend,Top*
G04 #@! TF.FilePolarity,Positive*
%FSLAX46Y46*%
G04 Gerber Fmt 4.6, Leading zero omitted, Abs format (unit mm)*
G04 Created by KiCad (PCBNEW (5.1.5)-3) date 2020-04-10 18:54:41*
%MOMM*%
%LPD*%
G04 APERTURE LIST*
%ADD10C,0.300000*%
%ADD11C,0.200000*%
%ADD12C,0.120000*%
%ADD13C,0.150000*%
G04 APERTURE END LIST*
D10*
X120797142Y-73068571D02*
X119940000Y-73068571D01*
X120368571Y-73068571D02*
X120368571Y-71568571D01*
X120225714Y-71782857D01*
X120082857Y-71925714D01*
X119940000Y-71997142D01*
X122582857Y-73068571D02*
X122582857Y-71568571D01*
X123082857Y-72640000D01*
X123582857Y-71568571D01*
X123582857Y-73068571D01*
X124297142Y-73068571D02*
X124297142Y-71568571D01*
X124297142Y-72282857D02*
X125154285Y-72282857D01*
X125154285Y-73068571D02*
X125154285Y-71568571D01*
X125725714Y-72068571D02*
X126511428Y-72068571D01*
X125725714Y-73068571D01*
X126511428Y-73068571D01*
X162532142Y-118093571D02*
X162603571Y-117879285D01*
X162603571Y-117522142D01*
X162532142Y-117379285D01*
X162460714Y-117307857D01*
X162317857Y-117236428D01*
X162175000Y-117236428D01*
X162032142Y-117307857D01*
X161960714Y-117379285D01*
X161889285Y-117522142D01*
X161817857Y-117807857D01*
X161746428Y-117950714D01*
X161675000Y-118022142D01*
X161532142Y-118093571D01*
X161389285Y-118093571D01*
X161246428Y-118022142D01*
X161175000Y-117950714D01*
X161103571Y-117807857D01*
X161103571Y-117450714D01*
X161175000Y-117236428D01*
X162603571Y-115879285D02*
X162603571Y-116593571D01*
X161103571Y-116593571D01*
X161103571Y-115093571D02*
X161103571Y-114807857D01*
X161175000Y-114665000D01*
X161317857Y-114522142D01*
X161603571Y-114450714D01*
X162103571Y-114450714D01*
X162389285Y-114522142D01*
X162532142Y-114665000D01*
X162603571Y-114807857D01*
X162603571Y-115093571D01*
X162532142Y-115236428D01*
X162389285Y-115379285D01*
X162103571Y-115450714D01*
X161603571Y-115450714D01*
X161317857Y-115379285D01*
X161175000Y-115236428D01*
X161103571Y-115093571D01*
X161103571Y-114022142D02*
X161103571Y-113165000D01*
X162603571Y-113593571D02*
X161103571Y-113593571D01*
X161603571Y-111593571D02*
X161603571Y-110522142D01*
X160960714Y-111165000D02*
X162889285Y-111593571D01*
X162246428Y-110665000D02*
X162246428Y-111736428D01*
X162889285Y-111093571D02*
X160960714Y-110665000D01*
X161246428Y-110093571D02*
X161175000Y-110022142D01*
X161103571Y-109879285D01*
X161103571Y-109522142D01*
X161175000Y-109379285D01*
X161246428Y-109307857D01*
X161389285Y-109236428D01*
X161532142Y-109236428D01*
X161746428Y-109307857D01*
X162603571Y-110165000D01*
X162603571Y-109236428D01*
X139037142Y-118093571D02*
X139108571Y-117879285D01*
X139108571Y-117522142D01*
X139037142Y-117379285D01*
X138965714Y-117307857D01*
X138822857Y-117236428D01*
X138680000Y-117236428D01*
X138537142Y-117307857D01*
X138465714Y-117379285D01*
X138394285Y-117522142D01*
X138322857Y-117807857D01*
X138251428Y-117950714D01*
X138180000Y-118022142D01*
X138037142Y-118093571D01*
X137894285Y-118093571D01*
X137751428Y-118022142D01*
X137680000Y-117950714D01*
X137608571Y-117807857D01*
X137608571Y-117450714D01*
X137680000Y-117236428D01*
X139108571Y-115879285D02*
X139108571Y-116593571D01*
X137608571Y-116593571D01*
X137608571Y-115093571D02*
X137608571Y-114807857D01*
X137680000Y-114665000D01*
X137822857Y-114522142D01*
X138108571Y-114450714D01*
X138608571Y-114450714D01*
X138894285Y-114522142D01*
X139037142Y-114665000D01*
X139108571Y-114807857D01*
X139108571Y-115093571D01*
X139037142Y-115236428D01*
X138894285Y-115379285D01*
X138608571Y-115450714D01*
X138108571Y-115450714D01*
X137822857Y-115379285D01*
X137680000Y-115236428D01*
X137608571Y-115093571D01*
X137608571Y-114022142D02*
X137608571Y-113165000D01*
X139108571Y-113593571D02*
X137608571Y-113593571D01*
X138108571Y-111593571D02*
X138108571Y-110522142D01*
X137465714Y-111165000D02*
X139394285Y-111593571D01*
X138751428Y-110665000D02*
X138751428Y-111736428D01*
X139394285Y-111093571D02*
X137465714Y-110665000D01*
X139108571Y-109236428D02*
X139108571Y-110093571D01*
X139108571Y-109665000D02*
X137608571Y-109665000D01*
X137822857Y-109807857D01*
X137965714Y-109950714D01*
X138037142Y-110093571D01*
D11*
X174244000Y-139700000D02*
X178308000Y-139700000D01*
X174244000Y-129540000D02*
X170180000Y-129540000D01*
D10*
X180685428Y-136838571D02*
X181756857Y-136838571D01*
X181114000Y-136195714D02*
X180685428Y-138124285D01*
X181614000Y-137481428D02*
X180542571Y-137481428D01*
X181185428Y-138124285D02*
X181614000Y-136195714D01*
X182185428Y-136481428D02*
X182256857Y-136410000D01*
X182399714Y-136338571D01*
X182756857Y-136338571D01*
X182899714Y-136410000D01*
X182971142Y-136481428D01*
X183042571Y-136624285D01*
X183042571Y-136767142D01*
X182971142Y-136981428D01*
X182114000Y-137838571D01*
X183042571Y-137838571D01*
X180939428Y-131758571D02*
X182010857Y-131758571D01*
X181368000Y-131115714D02*
X180939428Y-133044285D01*
X181868000Y-132401428D02*
X180796571Y-132401428D01*
X181439428Y-133044285D02*
X181868000Y-131115714D01*
X183296571Y-132758571D02*
X182439428Y-132758571D01*
X182868000Y-132758571D02*
X182868000Y-131258571D01*
X182725142Y-131472857D01*
X182582285Y-131615714D01*
X182439428Y-131687142D01*
D11*
X179578000Y-130302000D02*
X179578000Y-135890000D01*
X179070000Y-139192000D02*
X179070000Y-133350000D01*
X174244000Y-138684000D02*
X174244000Y-130556000D01*
X170180000Y-139065000D02*
X170180000Y-130175000D01*
X178435000Y-139065000D02*
X170180000Y-139065000D01*
X178435000Y-130175000D02*
X178435000Y-139065000D01*
X170180000Y-130175000D02*
X178435000Y-130175000D01*
D10*
X174208571Y-141643571D02*
X174208571Y-140143571D01*
X174208571Y-140857857D02*
X175065714Y-140857857D01*
X175065714Y-141643571D02*
X175065714Y-140143571D01*
X175780000Y-141643571D02*
X175780000Y-140143571D01*
X177280000Y-140215000D02*
X177137142Y-140143571D01*
X176922857Y-140143571D01*
X176708571Y-140215000D01*
X176565714Y-140357857D01*
X176494285Y-140500714D01*
X176422857Y-140786428D01*
X176422857Y-141000714D01*
X176494285Y-141286428D01*
X176565714Y-141429285D01*
X176708571Y-141572142D01*
X176922857Y-141643571D01*
X177065714Y-141643571D01*
X177280000Y-141572142D01*
X177351428Y-141500714D01*
X177351428Y-141000714D01*
X177065714Y-141000714D01*
X177994285Y-141643571D02*
X177994285Y-140143571D01*
X177994285Y-140857857D02*
X178851428Y-140857857D01*
X178851428Y-141643571D02*
X178851428Y-140143571D01*
X174494285Y-144193571D02*
X174494285Y-142693571D01*
X174994285Y-143765000D01*
X175494285Y-142693571D01*
X175494285Y-144193571D01*
X176208571Y-143407857D02*
X176708571Y-143407857D01*
X176922857Y-144193571D02*
X176208571Y-144193571D01*
X176208571Y-142693571D01*
X176922857Y-142693571D01*
X177565714Y-144193571D02*
X177565714Y-142693571D01*
X178065714Y-143765000D01*
X178565714Y-142693571D01*
X178565714Y-144193571D01*
X170906428Y-126403571D02*
X170192142Y-126403571D01*
X170192142Y-124903571D01*
X171692142Y-124903571D02*
X171977857Y-124903571D01*
X172120714Y-124975000D01*
X172263571Y-125117857D01*
X172335000Y-125403571D01*
X172335000Y-125903571D01*
X172263571Y-126189285D01*
X172120714Y-126332142D01*
X171977857Y-126403571D01*
X171692142Y-126403571D01*
X171549285Y-126332142D01*
X171406428Y-126189285D01*
X171335000Y-125903571D01*
X171335000Y-125403571D01*
X171406428Y-125117857D01*
X171549285Y-124975000D01*
X171692142Y-124903571D01*
X172835000Y-124903571D02*
X173192142Y-126403571D01*
X173477857Y-125332142D01*
X173763571Y-126403571D01*
X174120714Y-124903571D01*
X170049285Y-128953571D02*
X170049285Y-127453571D01*
X170549285Y-128525000D01*
X171049285Y-127453571D01*
X171049285Y-128953571D01*
X171763571Y-128167857D02*
X172263571Y-128167857D01*
X172477857Y-128953571D02*
X171763571Y-128953571D01*
X171763571Y-127453571D01*
X172477857Y-127453571D01*
X173120714Y-128953571D02*
X173120714Y-127453571D01*
X173620714Y-128525000D01*
X174120714Y-127453571D01*
X174120714Y-128953571D01*
X175907142Y-58458571D02*
X175907142Y-56958571D01*
X176264285Y-56958571D01*
X176478571Y-57030000D01*
X176621428Y-57172857D01*
X176692857Y-57315714D01*
X176764285Y-57601428D01*
X176764285Y-57815714D01*
X176692857Y-58101428D01*
X176621428Y-58244285D01*
X176478571Y-58387142D01*
X176264285Y-58458571D01*
X175907142Y-58458571D01*
X177407142Y-58458571D02*
X177407142Y-56958571D01*
X177907142Y-58030000D01*
X178407142Y-56958571D01*
X178407142Y-58458571D01*
X179050000Y-58030000D02*
X179764285Y-58030000D01*
X178907142Y-58458571D02*
X179407142Y-56958571D01*
X179907142Y-58458571D01*
X176300000Y-59508571D02*
X176585714Y-59508571D01*
X176728571Y-59580000D01*
X176871428Y-59722857D01*
X176942857Y-60008571D01*
X176942857Y-60508571D01*
X176871428Y-60794285D01*
X176728571Y-60937142D01*
X176585714Y-61008571D01*
X176300000Y-61008571D01*
X176157142Y-60937142D01*
X176014285Y-60794285D01*
X175942857Y-60508571D01*
X175942857Y-60008571D01*
X176014285Y-59722857D01*
X176157142Y-59580000D01*
X176300000Y-59508571D01*
X177585714Y-59508571D02*
X177585714Y-60722857D01*
X177657142Y-60865714D01*
X177728571Y-60937142D01*
X177871428Y-61008571D01*
X178157142Y-61008571D01*
X178300000Y-60937142D01*
X178371428Y-60865714D01*
X178442857Y-60722857D01*
X178442857Y-59508571D01*
X178942857Y-59508571D02*
X179800000Y-59508571D01*
X179371428Y-61008571D02*
X179371428Y-59508571D01*
X168287142Y-58458571D02*
X168287142Y-56958571D01*
X168644285Y-56958571D01*
X168858571Y-57030000D01*
X169001428Y-57172857D01*
X169072857Y-57315714D01*
X169144285Y-57601428D01*
X169144285Y-57815714D01*
X169072857Y-58101428D01*
X169001428Y-58244285D01*
X168858571Y-58387142D01*
X168644285Y-58458571D01*
X168287142Y-58458571D01*
X169787142Y-58458571D02*
X169787142Y-56958571D01*
X170287142Y-58030000D01*
X170787142Y-56958571D01*
X170787142Y-58458571D01*
X171430000Y-58030000D02*
X172144285Y-58030000D01*
X171287142Y-58458571D02*
X171787142Y-56958571D01*
X172287142Y-58458571D01*
X169394285Y-61008571D02*
X169394285Y-59508571D01*
X170108571Y-61008571D02*
X170108571Y-59508571D01*
X170965714Y-61008571D01*
X170965714Y-59508571D01*
X161202857Y-59733571D02*
X161202857Y-58233571D01*
X161917142Y-59733571D02*
X161917142Y-58233571D01*
X162774285Y-59733571D01*
X162774285Y-58233571D01*
X163274285Y-58233571D02*
X164131428Y-58233571D01*
X163702857Y-59733571D02*
X163702857Y-58233571D01*
X153047142Y-59662142D02*
X153261428Y-59733571D01*
X153618571Y-59733571D01*
X153761428Y-59662142D01*
X153832857Y-59590714D01*
X153904285Y-59447857D01*
X153904285Y-59305000D01*
X153832857Y-59162142D01*
X153761428Y-59090714D01*
X153618571Y-59019285D01*
X153332857Y-58947857D01*
X153190000Y-58876428D01*
X153118571Y-58805000D01*
X153047142Y-58662142D01*
X153047142Y-58519285D01*
X153118571Y-58376428D01*
X153190000Y-58305000D01*
X153332857Y-58233571D01*
X153690000Y-58233571D01*
X153904285Y-58305000D01*
X155404285Y-59590714D02*
X155332857Y-59662142D01*
X155118571Y-59733571D01*
X154975714Y-59733571D01*
X154761428Y-59662142D01*
X154618571Y-59519285D01*
X154547142Y-59376428D01*
X154475714Y-59090714D01*
X154475714Y-58876428D01*
X154547142Y-58590714D01*
X154618571Y-58447857D01*
X154761428Y-58305000D01*
X154975714Y-58233571D01*
X155118571Y-58233571D01*
X155332857Y-58305000D01*
X155404285Y-58376428D01*
X156832857Y-59733571D02*
X155975714Y-59733571D01*
X156404285Y-59733571D02*
X156404285Y-58233571D01*
X156261428Y-58447857D01*
X156118571Y-58590714D01*
X155975714Y-58662142D01*
X142887142Y-59662142D02*
X143101428Y-59733571D01*
X143458571Y-59733571D01*
X143601428Y-59662142D01*
X143672857Y-59590714D01*
X143744285Y-59447857D01*
X143744285Y-59305000D01*
X143672857Y-59162142D01*
X143601428Y-59090714D01*
X143458571Y-59019285D01*
X143172857Y-58947857D01*
X143030000Y-58876428D01*
X142958571Y-58805000D01*
X142887142Y-58662142D01*
X142887142Y-58519285D01*
X142958571Y-58376428D01*
X143030000Y-58305000D01*
X143172857Y-58233571D01*
X143530000Y-58233571D01*
X143744285Y-58305000D01*
X145244285Y-59590714D02*
X145172857Y-59662142D01*
X144958571Y-59733571D01*
X144815714Y-59733571D01*
X144601428Y-59662142D01*
X144458571Y-59519285D01*
X144387142Y-59376428D01*
X144315714Y-59090714D01*
X144315714Y-58876428D01*
X144387142Y-58590714D01*
X144458571Y-58447857D01*
X144601428Y-58305000D01*
X144815714Y-58233571D01*
X144958571Y-58233571D01*
X145172857Y-58305000D01*
X145244285Y-58376428D01*
X146172857Y-58233571D02*
X146315714Y-58233571D01*
X146458571Y-58305000D01*
X146530000Y-58376428D01*
X146601428Y-58519285D01*
X146672857Y-58805000D01*
X146672857Y-59162142D01*
X146601428Y-59447857D01*
X146530000Y-59590714D01*
X146458571Y-59662142D01*
X146315714Y-59733571D01*
X146172857Y-59733571D01*
X146030000Y-59662142D01*
X145958571Y-59590714D01*
X145887142Y-59447857D01*
X145815714Y-59162142D01*
X145815714Y-58805000D01*
X145887142Y-58519285D01*
X145958571Y-58376428D01*
X146030000Y-58305000D01*
X146172857Y-58233571D01*
X135231428Y-58233571D02*
X136088571Y-58233571D01*
X135660000Y-59733571D02*
X135660000Y-58233571D01*
X136588571Y-59733571D02*
X136588571Y-58233571D01*
X137160000Y-58233571D01*
X137302857Y-58305000D01*
X137374285Y-58376428D01*
X137445714Y-58519285D01*
X137445714Y-58733571D01*
X137374285Y-58876428D01*
X137302857Y-58947857D01*
X137160000Y-59019285D01*
X136588571Y-59019285D01*
X138588571Y-58947857D02*
X138802857Y-59019285D01*
X138874285Y-59090714D01*
X138945714Y-59233571D01*
X138945714Y-59447857D01*
X138874285Y-59590714D01*
X138802857Y-59662142D01*
X138660000Y-59733571D01*
X138088571Y-59733571D01*
X138088571Y-58233571D01*
X138588571Y-58233571D01*
X138731428Y-58305000D01*
X138802857Y-58376428D01*
X138874285Y-58519285D01*
X138874285Y-58662142D01*
X138802857Y-58805000D01*
X138731428Y-58876428D01*
X138588571Y-58947857D01*
X138088571Y-58947857D01*
X127718571Y-58233571D02*
X128575714Y-58233571D01*
X128147142Y-59733571D02*
X128147142Y-58233571D01*
X129075714Y-59733571D02*
X129075714Y-58233571D01*
X129647142Y-58233571D01*
X129790000Y-58305000D01*
X129861428Y-58376428D01*
X129932857Y-58519285D01*
X129932857Y-58733571D01*
X129861428Y-58876428D01*
X129790000Y-58947857D01*
X129647142Y-59019285D01*
X129075714Y-59019285D01*
X130504285Y-59305000D02*
X131218571Y-59305000D01*
X130361428Y-59733571D02*
X130861428Y-58233571D01*
X131361428Y-59733571D01*
X121027142Y-59590714D02*
X120955714Y-59662142D01*
X120741428Y-59733571D01*
X120598571Y-59733571D01*
X120384285Y-59662142D01*
X120241428Y-59519285D01*
X120170000Y-59376428D01*
X120098571Y-59090714D01*
X120098571Y-58876428D01*
X120170000Y-58590714D01*
X120241428Y-58447857D01*
X120384285Y-58305000D01*
X120598571Y-58233571D01*
X120741428Y-58233571D01*
X120955714Y-58305000D01*
X121027142Y-58376428D01*
X122384285Y-59733571D02*
X121670000Y-59733571D01*
X121670000Y-58233571D01*
X122884285Y-59733571D02*
X122884285Y-58233571D01*
X123741428Y-59733571D02*
X123098571Y-58876428D01*
X123741428Y-58233571D02*
X122884285Y-59090714D01*
X110629285Y-138336571D02*
X110129285Y-137622285D01*
X109772142Y-138336571D02*
X109772142Y-136836571D01*
X110343571Y-136836571D01*
X110486428Y-136908000D01*
X110557857Y-136979428D01*
X110629285Y-137122285D01*
X110629285Y-137336571D01*
X110557857Y-137479428D01*
X110486428Y-137550857D01*
X110343571Y-137622285D01*
X109772142Y-137622285D01*
X112129285Y-138193714D02*
X112057857Y-138265142D01*
X111843571Y-138336571D01*
X111700714Y-138336571D01*
X111486428Y-138265142D01*
X111343571Y-138122285D01*
X111272142Y-137979428D01*
X111200714Y-137693714D01*
X111200714Y-137479428D01*
X111272142Y-137193714D01*
X111343571Y-137050857D01*
X111486428Y-136908000D01*
X111700714Y-136836571D01*
X111843571Y-136836571D01*
X112057857Y-136908000D01*
X112129285Y-136979428D01*
X113557857Y-138336571D02*
X112700714Y-138336571D01*
X113129285Y-138336571D02*
X113129285Y-136836571D01*
X112986428Y-137050857D01*
X112843571Y-137193714D01*
X112700714Y-137265142D01*
X114415000Y-137479428D02*
X114272142Y-137408000D01*
X114200714Y-137336571D01*
X114129285Y-137193714D01*
X114129285Y-137122285D01*
X114200714Y-136979428D01*
X114272142Y-136908000D01*
X114415000Y-136836571D01*
X114700714Y-136836571D01*
X114843571Y-136908000D01*
X114915000Y-136979428D01*
X114986428Y-137122285D01*
X114986428Y-137193714D01*
X114915000Y-137336571D01*
X114843571Y-137408000D01*
X114700714Y-137479428D01*
X114415000Y-137479428D01*
X114272142Y-137550857D01*
X114200714Y-137622285D01*
X114129285Y-137765142D01*
X114129285Y-138050857D01*
X114200714Y-138193714D01*
X114272142Y-138265142D01*
X114415000Y-138336571D01*
X114700714Y-138336571D01*
X114843571Y-138265142D01*
X114915000Y-138193714D01*
X114986428Y-138050857D01*
X114986428Y-137765142D01*
X114915000Y-137622285D01*
X114843571Y-137550857D01*
X114700714Y-137479428D01*
X115915000Y-136836571D02*
X116057857Y-136836571D01*
X116200714Y-136908000D01*
X116272142Y-136979428D01*
X116343571Y-137122285D01*
X116415000Y-137408000D01*
X116415000Y-137765142D01*
X116343571Y-138050857D01*
X116272142Y-138193714D01*
X116200714Y-138265142D01*
X116057857Y-138336571D01*
X115915000Y-138336571D01*
X115772142Y-138265142D01*
X115700714Y-138193714D01*
X115629285Y-138050857D01*
X115557857Y-137765142D01*
X115557857Y-137408000D01*
X115629285Y-137122285D01*
X115700714Y-136979428D01*
X115772142Y-136908000D01*
X115915000Y-136836571D01*
X116986428Y-136979428D02*
X117057857Y-136908000D01*
X117200714Y-136836571D01*
X117557857Y-136836571D01*
X117700714Y-136908000D01*
X117772142Y-136979428D01*
X117843571Y-137122285D01*
X117843571Y-137265142D01*
X117772142Y-137479428D01*
X116915000Y-138336571D01*
X117843571Y-138336571D01*
X120486428Y-138193714D02*
X120415000Y-138265142D01*
X120200714Y-138336571D01*
X120057857Y-138336571D01*
X119843571Y-138265142D01*
X119700714Y-138122285D01*
X119629285Y-137979428D01*
X119557857Y-137693714D01*
X119557857Y-137479428D01*
X119629285Y-137193714D01*
X119700714Y-137050857D01*
X119843571Y-136908000D01*
X120057857Y-136836571D01*
X120200714Y-136836571D01*
X120415000Y-136908000D01*
X120486428Y-136979428D01*
X121343571Y-138336571D02*
X121200714Y-138265142D01*
X121129285Y-138193714D01*
X121057857Y-138050857D01*
X121057857Y-137622285D01*
X121129285Y-137479428D01*
X121200714Y-137408000D01*
X121343571Y-137336571D01*
X121557857Y-137336571D01*
X121700714Y-137408000D01*
X121772142Y-137479428D01*
X121843571Y-137622285D01*
X121843571Y-138050857D01*
X121772142Y-138193714D01*
X121700714Y-138265142D01*
X121557857Y-138336571D01*
X121343571Y-138336571D01*
X122415000Y-138265142D02*
X122557857Y-138336571D01*
X122843571Y-138336571D01*
X122986428Y-138265142D01*
X123057857Y-138122285D01*
X123057857Y-138050857D01*
X122986428Y-137908000D01*
X122843571Y-137836571D01*
X122629285Y-137836571D01*
X122486428Y-137765142D01*
X122415000Y-137622285D01*
X122415000Y-137550857D01*
X122486428Y-137408000D01*
X122629285Y-137336571D01*
X122843571Y-137336571D01*
X122986428Y-137408000D01*
X123700714Y-138336571D02*
X123700714Y-137336571D01*
X123700714Y-137479428D02*
X123772142Y-137408000D01*
X123915000Y-137336571D01*
X124129285Y-137336571D01*
X124272142Y-137408000D01*
X124343571Y-137550857D01*
X124343571Y-138336571D01*
X124343571Y-137550857D02*
X124415000Y-137408000D01*
X124557857Y-137336571D01*
X124772142Y-137336571D01*
X124915000Y-137408000D01*
X124986428Y-137550857D01*
X124986428Y-138336571D01*
X126343571Y-138336571D02*
X126343571Y-137550857D01*
X126272142Y-137408000D01*
X126129285Y-137336571D01*
X125843571Y-137336571D01*
X125700714Y-137408000D01*
X126343571Y-138265142D02*
X126200714Y-138336571D01*
X125843571Y-138336571D01*
X125700714Y-138265142D01*
X125629285Y-138122285D01*
X125629285Y-137979428D01*
X125700714Y-137836571D01*
X125843571Y-137765142D01*
X126200714Y-137765142D01*
X126343571Y-137693714D01*
X127700714Y-138265142D02*
X127557857Y-138336571D01*
X127272142Y-138336571D01*
X127129285Y-138265142D01*
X127057857Y-138193714D01*
X126986428Y-138050857D01*
X126986428Y-137622285D01*
X127057857Y-137479428D01*
X127129285Y-137408000D01*
X127272142Y-137336571D01*
X127557857Y-137336571D01*
X127700714Y-137408000D01*
X129486428Y-137550857D02*
X129986428Y-137550857D01*
X130200714Y-138336571D02*
X129486428Y-138336571D01*
X129486428Y-136836571D01*
X130200714Y-136836571D01*
X131557857Y-138336571D02*
X130843571Y-138336571D01*
X130843571Y-136836571D01*
X132557857Y-137550857D02*
X132057857Y-137550857D01*
X132057857Y-138336571D02*
X132057857Y-136836571D01*
X132772142Y-136836571D01*
X110629285Y-140743714D02*
X110557857Y-140815142D01*
X110343571Y-140886571D01*
X110200714Y-140886571D01*
X109986428Y-140815142D01*
X109843571Y-140672285D01*
X109772142Y-140529428D01*
X109700714Y-140243714D01*
X109700714Y-140029428D01*
X109772142Y-139743714D01*
X109843571Y-139600857D01*
X109986428Y-139458000D01*
X110200714Y-139386571D01*
X110343571Y-139386571D01*
X110557857Y-139458000D01*
X110629285Y-139529428D01*
X111272142Y-140886571D02*
X111272142Y-139386571D01*
X111843571Y-139386571D01*
X111986428Y-139458000D01*
X112057857Y-139529428D01*
X112129285Y-139672285D01*
X112129285Y-139886571D01*
X112057857Y-140029428D01*
X111986428Y-140100857D01*
X111843571Y-140172285D01*
X111272142Y-140172285D01*
X112772142Y-139386571D02*
X112772142Y-140600857D01*
X112843571Y-140743714D01*
X112915000Y-140815142D01*
X113057857Y-140886571D01*
X113343571Y-140886571D01*
X113486428Y-140815142D01*
X113557857Y-140743714D01*
X113629285Y-140600857D01*
X113629285Y-139386571D01*
X115986428Y-140100857D02*
X116200714Y-140172285D01*
X116272142Y-140243714D01*
X116343571Y-140386571D01*
X116343571Y-140600857D01*
X116272142Y-140743714D01*
X116200714Y-140815142D01*
X116057857Y-140886571D01*
X115486428Y-140886571D01*
X115486428Y-139386571D01*
X115986428Y-139386571D01*
X116129285Y-139458000D01*
X116200714Y-139529428D01*
X116272142Y-139672285D01*
X116272142Y-139815142D01*
X116200714Y-139958000D01*
X116129285Y-140029428D01*
X115986428Y-140100857D01*
X115486428Y-140100857D01*
X117200714Y-140886571D02*
X117057857Y-140815142D01*
X116986428Y-140743714D01*
X116915000Y-140600857D01*
X116915000Y-140172285D01*
X116986428Y-140029428D01*
X117057857Y-139958000D01*
X117200714Y-139886571D01*
X117415000Y-139886571D01*
X117557857Y-139958000D01*
X117629285Y-140029428D01*
X117700714Y-140172285D01*
X117700714Y-140600857D01*
X117629285Y-140743714D01*
X117557857Y-140815142D01*
X117415000Y-140886571D01*
X117200714Y-140886571D01*
X118986428Y-140886571D02*
X118986428Y-140100857D01*
X118915000Y-139958000D01*
X118772142Y-139886571D01*
X118486428Y-139886571D01*
X118343571Y-139958000D01*
X118986428Y-140815142D02*
X118843571Y-140886571D01*
X118486428Y-140886571D01*
X118343571Y-140815142D01*
X118272142Y-140672285D01*
X118272142Y-140529428D01*
X118343571Y-140386571D01*
X118486428Y-140315142D01*
X118843571Y-140315142D01*
X118986428Y-140243714D01*
X119700714Y-140886571D02*
X119700714Y-139886571D01*
X119700714Y-140172285D02*
X119772142Y-140029428D01*
X119843571Y-139958000D01*
X119986428Y-139886571D01*
X120129285Y-139886571D01*
X121272142Y-140886571D02*
X121272142Y-139386571D01*
X121272142Y-140815142D02*
X121129285Y-140886571D01*
X120843571Y-140886571D01*
X120700714Y-140815142D01*
X120629285Y-140743714D01*
X120557857Y-140600857D01*
X120557857Y-140172285D01*
X120629285Y-140029428D01*
X120700714Y-139958000D01*
X120843571Y-139886571D01*
X121129285Y-139886571D01*
X121272142Y-139958000D01*
X123986428Y-140886571D02*
X123486428Y-140172285D01*
X123129285Y-140886571D02*
X123129285Y-139386571D01*
X123700714Y-139386571D01*
X123843571Y-139458000D01*
X123915000Y-139529428D01*
X123986428Y-139672285D01*
X123986428Y-139886571D01*
X123915000Y-140029428D01*
X123843571Y-140100857D01*
X123700714Y-140172285D01*
X123129285Y-140172285D01*
X125200714Y-140815142D02*
X125057857Y-140886571D01*
X124772142Y-140886571D01*
X124629285Y-140815142D01*
X124557857Y-140672285D01*
X124557857Y-140100857D01*
X124629285Y-139958000D01*
X124772142Y-139886571D01*
X125057857Y-139886571D01*
X125200714Y-139958000D01*
X125272142Y-140100857D01*
X125272142Y-140243714D01*
X124557857Y-140386571D01*
X125772142Y-139886571D02*
X126129285Y-140886571D01*
X126486428Y-139886571D01*
X127057857Y-140886571D02*
X127057857Y-139886571D01*
X127057857Y-139386571D02*
X126986428Y-139458000D01*
X127057857Y-139529428D01*
X127129285Y-139458000D01*
X127057857Y-139386571D01*
X127057857Y-139529428D01*
X127700714Y-140815142D02*
X127843571Y-140886571D01*
X128129285Y-140886571D01*
X128272142Y-140815142D01*
X128343571Y-140672285D01*
X128343571Y-140600857D01*
X128272142Y-140458000D01*
X128129285Y-140386571D01*
X127915000Y-140386571D01*
X127772142Y-140315142D01*
X127700714Y-140172285D01*
X127700714Y-140100857D01*
X127772142Y-139958000D01*
X127915000Y-139886571D01*
X128129285Y-139886571D01*
X128272142Y-139958000D01*
X128986428Y-140886571D02*
X128986428Y-139886571D01*
X128986428Y-139386571D02*
X128915000Y-139458000D01*
X128986428Y-139529428D01*
X129057857Y-139458000D01*
X128986428Y-139386571D01*
X128986428Y-139529428D01*
X129915000Y-140886571D02*
X129772142Y-140815142D01*
X129700714Y-140743714D01*
X129629285Y-140600857D01*
X129629285Y-140172285D01*
X129700714Y-140029428D01*
X129772142Y-139958000D01*
X129915000Y-139886571D01*
X130129285Y-139886571D01*
X130272142Y-139958000D01*
X130343571Y-140029428D01*
X130415000Y-140172285D01*
X130415000Y-140600857D01*
X130343571Y-140743714D01*
X130272142Y-140815142D01*
X130129285Y-140886571D01*
X129915000Y-140886571D01*
X131057857Y-139886571D02*
X131057857Y-140886571D01*
X131057857Y-140029428D02*
X131129285Y-139958000D01*
X131272142Y-139886571D01*
X131486428Y-139886571D01*
X131629285Y-139958000D01*
X131700714Y-140100857D01*
X131700714Y-140886571D01*
X134057857Y-140100857D02*
X133557857Y-140100857D01*
X133557857Y-140886571D02*
X133557857Y-139386571D01*
X134272142Y-139386571D01*
X110415000Y-142436571D02*
X110415000Y-143650857D01*
X110343571Y-143793714D01*
X110272142Y-143865142D01*
X110129285Y-143936571D01*
X109915000Y-143936571D01*
X109772142Y-143865142D01*
X110415000Y-143365142D02*
X110272142Y-143436571D01*
X109986428Y-143436571D01*
X109843571Y-143365142D01*
X109772142Y-143293714D01*
X109700714Y-143150857D01*
X109700714Y-142722285D01*
X109772142Y-142579428D01*
X109843571Y-142508000D01*
X109986428Y-142436571D01*
X110272142Y-142436571D01*
X110415000Y-142508000D01*
X111129285Y-143436571D02*
X111129285Y-142436571D01*
X111129285Y-141936571D02*
X111057857Y-142008000D01*
X111129285Y-142079428D01*
X111200714Y-142008000D01*
X111129285Y-141936571D01*
X111129285Y-142079428D01*
X111629285Y-142436571D02*
X112200714Y-142436571D01*
X111843571Y-141936571D02*
X111843571Y-143222285D01*
X111915000Y-143365142D01*
X112057857Y-143436571D01*
X112200714Y-143436571D01*
X112700714Y-143436571D02*
X112700714Y-141936571D01*
X113343571Y-143436571D02*
X113343571Y-142650857D01*
X113272142Y-142508000D01*
X113129285Y-142436571D01*
X112915000Y-142436571D01*
X112772142Y-142508000D01*
X112700714Y-142579428D01*
X114700714Y-142436571D02*
X114700714Y-143436571D01*
X114057857Y-142436571D02*
X114057857Y-143222285D01*
X114129285Y-143365142D01*
X114272142Y-143436571D01*
X114486428Y-143436571D01*
X114629285Y-143365142D01*
X114700714Y-143293714D01*
X115415000Y-143436571D02*
X115415000Y-141936571D01*
X115415000Y-142508000D02*
X115557857Y-142436571D01*
X115843571Y-142436571D01*
X115986428Y-142508000D01*
X116057857Y-142579428D01*
X116129285Y-142722285D01*
X116129285Y-143150857D01*
X116057857Y-143293714D01*
X115986428Y-143365142D01*
X115843571Y-143436571D01*
X115557857Y-143436571D01*
X115415000Y-143365142D01*
X116772142Y-143293714D02*
X116843571Y-143365142D01*
X116772142Y-143436571D01*
X116700714Y-143365142D01*
X116772142Y-143293714D01*
X116772142Y-143436571D01*
X118129285Y-143365142D02*
X117986428Y-143436571D01*
X117700714Y-143436571D01*
X117557857Y-143365142D01*
X117486428Y-143293714D01*
X117415000Y-143150857D01*
X117415000Y-142722285D01*
X117486428Y-142579428D01*
X117557857Y-142508000D01*
X117700714Y-142436571D01*
X117986428Y-142436571D01*
X118129285Y-142508000D01*
X118986428Y-143436571D02*
X118843571Y-143365142D01*
X118772142Y-143293714D01*
X118700714Y-143150857D01*
X118700714Y-142722285D01*
X118772142Y-142579428D01*
X118843571Y-142508000D01*
X118986428Y-142436571D01*
X119200714Y-142436571D01*
X119343571Y-142508000D01*
X119415000Y-142579428D01*
X119486428Y-142722285D01*
X119486428Y-143150857D01*
X119415000Y-143293714D01*
X119343571Y-143365142D01*
X119200714Y-143436571D01*
X118986428Y-143436571D01*
X120129285Y-143436571D02*
X120129285Y-142436571D01*
X120129285Y-142579428D02*
X120200714Y-142508000D01*
X120343571Y-142436571D01*
X120557857Y-142436571D01*
X120700714Y-142508000D01*
X120772142Y-142650857D01*
X120772142Y-143436571D01*
X120772142Y-142650857D02*
X120843571Y-142508000D01*
X120986428Y-142436571D01*
X121200714Y-142436571D01*
X121343571Y-142508000D01*
X121415000Y-142650857D01*
X121415000Y-143436571D01*
X123200714Y-141865142D02*
X121915000Y-143793714D01*
X123486428Y-142436571D02*
X124057857Y-142436571D01*
X123700714Y-141936571D02*
X123700714Y-143222285D01*
X123772142Y-143365142D01*
X123915000Y-143436571D01*
X124057857Y-143436571D01*
X125129285Y-143365142D02*
X124986428Y-143436571D01*
X124700714Y-143436571D01*
X124557857Y-143365142D01*
X124486428Y-143222285D01*
X124486428Y-142650857D01*
X124557857Y-142508000D01*
X124700714Y-142436571D01*
X124986428Y-142436571D01*
X125129285Y-142508000D01*
X125200714Y-142650857D01*
X125200714Y-142793714D01*
X124486428Y-142936571D01*
X125843571Y-143436571D02*
X125843571Y-141936571D01*
X125843571Y-142508000D02*
X125986428Y-142436571D01*
X126272142Y-142436571D01*
X126415000Y-142508000D01*
X126486428Y-142579428D01*
X126557857Y-142722285D01*
X126557857Y-143150857D01*
X126486428Y-143293714D01*
X126415000Y-143365142D01*
X126272142Y-143436571D01*
X125986428Y-143436571D01*
X125843571Y-143365142D01*
X127415000Y-143436571D02*
X127272142Y-143365142D01*
X127200714Y-143222285D01*
X127200714Y-141936571D01*
D12*
X112740000Y-65420000D02*
X112740000Y-77570000D01*
X132890000Y-64670000D02*
X113490000Y-64670000D01*
X133640000Y-76820000D02*
X133640000Y-65420000D01*
X112740000Y-77570000D02*
X132890000Y-77570000D01*
X132890000Y-77570000D02*
G75*
G03X133640000Y-76820000I0J750000D01*
G01*
X133640000Y-65420000D02*
G75*
G03X132890000Y-64670000I-750000J0D01*
G01*
X113490000Y-64670000D02*
G75*
G03X112740000Y-65420000I0J-750000D01*
G01*
X195490000Y-114340000D02*
X190670000Y-114340000D01*
X195490000Y-111720000D02*
X190670000Y-111720000D01*
X195490000Y-114340000D02*
X195490000Y-114026000D01*
X195490000Y-112034000D02*
X195490000Y-111720000D01*
X190670000Y-114340000D02*
X190670000Y-114026000D01*
X190670000Y-112034000D02*
X190670000Y-111720000D01*
X132625000Y-81320000D02*
X127805000Y-81320000D01*
X132625000Y-78700000D02*
X127805000Y-78700000D01*
X132625000Y-81320000D02*
X132625000Y-81006000D01*
X132625000Y-79014000D02*
X132625000Y-78700000D01*
X127805000Y-81320000D02*
X127805000Y-81006000D01*
X127805000Y-79014000D02*
X127805000Y-78700000D01*
X138470000Y-66130000D02*
X138470000Y-70950000D01*
X135850000Y-66130000D02*
X135850000Y-70950000D01*
X138470000Y-66130000D02*
X138156000Y-66130000D01*
X136164000Y-66130000D02*
X135850000Y-66130000D01*
X138470000Y-70950000D02*
X138156000Y-70950000D01*
X136164000Y-70950000D02*
X135850000Y-70950000D01*
X195490000Y-81320000D02*
X190670000Y-81320000D01*
X195490000Y-78700000D02*
X190670000Y-78700000D01*
X195490000Y-81320000D02*
X195490000Y-81006000D01*
X195490000Y-79014000D02*
X195490000Y-78700000D01*
X190670000Y-81320000D02*
X190670000Y-81006000D01*
X190670000Y-79014000D02*
X190670000Y-78700000D01*
X156120000Y-81320000D02*
X151300000Y-81320000D01*
X156120000Y-78700000D02*
X151300000Y-78700000D01*
X156120000Y-81320000D02*
X156120000Y-81006000D01*
X156120000Y-79014000D02*
X156120000Y-78700000D01*
X151300000Y-81320000D02*
X151300000Y-81006000D01*
X151300000Y-79014000D02*
X151300000Y-78700000D01*
X107061000Y-141605000D02*
G75*
G03X107061000Y-141605000I-2286000J0D01*
G01*
X107061000Y-71755000D02*
G75*
G03X107061000Y-71755000I-2286000J0D01*
G01*
X170755000Y-133350000D02*
X170755000Y-138490000D01*
X170755000Y-138490000D02*
X173415000Y-138490000D01*
X173415000Y-138490000D02*
X173415000Y-133350000D01*
X173415000Y-133350000D02*
X170755000Y-133350000D01*
X170755000Y-132080000D02*
X170755000Y-130750000D01*
X170755000Y-130750000D02*
X172085000Y-130750000D01*
X182185000Y-85090000D02*
X182185000Y-90230000D01*
X182185000Y-90230000D02*
X184845000Y-90230000D01*
X184845000Y-90230000D02*
X184845000Y-85090000D01*
X184845000Y-85090000D02*
X182185000Y-85090000D01*
X182185000Y-83820000D02*
X182185000Y-82490000D01*
X182185000Y-82490000D02*
X183515000Y-82490000D01*
X139660000Y-137830000D02*
X142280000Y-137830000D01*
X142280000Y-137830000D02*
X142280000Y-131410000D01*
X142280000Y-131410000D02*
X139660000Y-131410000D01*
X139660000Y-131410000D02*
X139660000Y-137830000D01*
X140970000Y-138720000D02*
X140970000Y-137830000D01*
X140970000Y-130520000D02*
X140970000Y-131410000D01*
X144105000Y-137830000D02*
X146725000Y-137830000D01*
X146725000Y-137830000D02*
X146725000Y-131410000D01*
X146725000Y-131410000D02*
X144105000Y-131410000D01*
X144105000Y-131410000D02*
X144105000Y-137830000D01*
X145415000Y-138720000D02*
X145415000Y-137830000D01*
X145415000Y-130520000D02*
X145415000Y-131410000D01*
X148550000Y-137830000D02*
X151170000Y-137830000D01*
X151170000Y-137830000D02*
X151170000Y-131410000D01*
X151170000Y-131410000D02*
X148550000Y-131410000D01*
X148550000Y-131410000D02*
X148550000Y-137830000D01*
X149860000Y-138720000D02*
X149860000Y-137830000D01*
X149860000Y-130520000D02*
X149860000Y-131410000D01*
X152995000Y-137830000D02*
X155615000Y-137830000D01*
X155615000Y-137830000D02*
X155615000Y-131410000D01*
X155615000Y-131410000D02*
X152995000Y-131410000D01*
X152995000Y-131410000D02*
X152995000Y-137830000D01*
X154305000Y-138720000D02*
X154305000Y-137830000D01*
X154305000Y-130520000D02*
X154305000Y-131410000D01*
X157440000Y-137830000D02*
X160060000Y-137830000D01*
X160060000Y-137830000D02*
X160060000Y-131410000D01*
X160060000Y-131410000D02*
X157440000Y-131410000D01*
X157440000Y-131410000D02*
X157440000Y-137830000D01*
X158750000Y-138720000D02*
X158750000Y-137830000D01*
X158750000Y-130520000D02*
X158750000Y-131410000D01*
X161885000Y-137830000D02*
X164505000Y-137830000D01*
X164505000Y-137830000D02*
X164505000Y-131410000D01*
X164505000Y-131410000D02*
X161885000Y-131410000D01*
X161885000Y-131410000D02*
X161885000Y-137830000D01*
X163195000Y-138720000D02*
X163195000Y-137830000D01*
X163195000Y-130520000D02*
X163195000Y-131410000D01*
X166330000Y-137830000D02*
X168950000Y-137830000D01*
X168950000Y-137830000D02*
X168950000Y-131410000D01*
X168950000Y-131410000D02*
X166330000Y-131410000D01*
X166330000Y-131410000D02*
X166330000Y-137830000D01*
X167640000Y-138720000D02*
X167640000Y-137830000D01*
X167640000Y-130520000D02*
X167640000Y-131410000D01*
X197231000Y-141605000D02*
G75*
G03X197231000Y-141605000I-2286000J0D01*
G01*
X197231000Y-71755000D02*
G75*
G03X197231000Y-71755000I-2286000J0D01*
G01*
X199450000Y-147490000D02*
X100270000Y-147490000D01*
X100270000Y-147490000D02*
X100270000Y-150150000D01*
X100270000Y-150150000D02*
X199450000Y-150150000D01*
X199450000Y-150150000D02*
X199450000Y-147490000D01*
X198500000Y-150150000D02*
X198500000Y-156150000D01*
X198500000Y-156150000D02*
X197740000Y-156150000D01*
X197740000Y-156150000D02*
X197740000Y-150150000D01*
X198440000Y-150150000D02*
X198440000Y-156150000D01*
X198320000Y-150150000D02*
X198320000Y-156150000D01*
X198200000Y-150150000D02*
X198200000Y-156150000D01*
X198080000Y-150150000D02*
X198080000Y-156150000D01*
X197960000Y-150150000D02*
X197960000Y-156150000D01*
X197840000Y-150150000D02*
X197840000Y-156150000D01*
X198500000Y-147160000D02*
X198500000Y-147490000D01*
X197740000Y-147160000D02*
X197740000Y-147490000D01*
X196850000Y-147490000D02*
X196850000Y-150150000D01*
X195960000Y-150150000D02*
X195960000Y-156150000D01*
X195960000Y-156150000D02*
X195200000Y-156150000D01*
X195200000Y-156150000D02*
X195200000Y-150150000D01*
X195960000Y-147092929D02*
X195960000Y-147490000D01*
X195200000Y-147092929D02*
X195200000Y-147490000D01*
X194310000Y-147490000D02*
X194310000Y-150150000D01*
X193420000Y-150150000D02*
X193420000Y-156150000D01*
X193420000Y-156150000D02*
X192660000Y-156150000D01*
X192660000Y-156150000D02*
X192660000Y-150150000D01*
X193420000Y-147092929D02*
X193420000Y-147490000D01*
X192660000Y-147092929D02*
X192660000Y-147490000D01*
X191770000Y-147490000D02*
X191770000Y-150150000D01*
X190880000Y-150150000D02*
X190880000Y-156150000D01*
X190880000Y-156150000D02*
X190120000Y-156150000D01*
X190120000Y-156150000D02*
X190120000Y-150150000D01*
X190880000Y-147092929D02*
X190880000Y-147490000D01*
X190120000Y-147092929D02*
X190120000Y-147490000D01*
X189230000Y-147490000D02*
X189230000Y-150150000D01*
X188340000Y-150150000D02*
X188340000Y-156150000D01*
X188340000Y-156150000D02*
X187580000Y-156150000D01*
X187580000Y-156150000D02*
X187580000Y-150150000D01*
X188340000Y-147092929D02*
X188340000Y-147490000D01*
X187580000Y-147092929D02*
X187580000Y-147490000D01*
X186690000Y-147490000D02*
X186690000Y-150150000D01*
X185800000Y-150150000D02*
X185800000Y-156150000D01*
X185800000Y-156150000D02*
X185040000Y-156150000D01*
X185040000Y-156150000D02*
X185040000Y-150150000D01*
X185800000Y-147092929D02*
X185800000Y-147490000D01*
X185040000Y-147092929D02*
X185040000Y-147490000D01*
X184150000Y-147490000D02*
X184150000Y-150150000D01*
X183260000Y-150150000D02*
X183260000Y-156150000D01*
X183260000Y-156150000D02*
X182500000Y-156150000D01*
X182500000Y-156150000D02*
X182500000Y-150150000D01*
X183260000Y-147092929D02*
X183260000Y-147490000D01*
X182500000Y-147092929D02*
X182500000Y-147490000D01*
X181610000Y-147490000D02*
X181610000Y-150150000D01*
X180720000Y-150150000D02*
X180720000Y-156150000D01*
X180720000Y-156150000D02*
X179960000Y-156150000D01*
X179960000Y-156150000D02*
X179960000Y-150150000D01*
X180720000Y-147092929D02*
X180720000Y-147490000D01*
X179960000Y-147092929D02*
X179960000Y-147490000D01*
X179070000Y-147490000D02*
X179070000Y-150150000D01*
X178180000Y-150150000D02*
X178180000Y-156150000D01*
X178180000Y-156150000D02*
X177420000Y-156150000D01*
X177420000Y-156150000D02*
X177420000Y-150150000D01*
X178180000Y-147092929D02*
X178180000Y-147490000D01*
X177420000Y-147092929D02*
X177420000Y-147490000D01*
X176530000Y-147490000D02*
X176530000Y-150150000D01*
X175640000Y-150150000D02*
X175640000Y-156150000D01*
X175640000Y-156150000D02*
X174880000Y-156150000D01*
X174880000Y-156150000D02*
X174880000Y-150150000D01*
X175640000Y-147092929D02*
X175640000Y-147490000D01*
X174880000Y-147092929D02*
X174880000Y-147490000D01*
X173990000Y-147490000D02*
X173990000Y-150150000D01*
X173100000Y-150150000D02*
X173100000Y-156150000D01*
X173100000Y-156150000D02*
X172340000Y-156150000D01*
X172340000Y-156150000D02*
X172340000Y-150150000D01*
X173100000Y-147092929D02*
X173100000Y-147490000D01*
X172340000Y-147092929D02*
X172340000Y-147490000D01*
X171450000Y-147490000D02*
X171450000Y-150150000D01*
X170560000Y-150150000D02*
X170560000Y-156150000D01*
X170560000Y-156150000D02*
X169800000Y-156150000D01*
X169800000Y-156150000D02*
X169800000Y-150150000D01*
X170560000Y-147092929D02*
X170560000Y-147490000D01*
X169800000Y-147092929D02*
X169800000Y-147490000D01*
X168910000Y-147490000D02*
X168910000Y-150150000D01*
X168020000Y-150150000D02*
X168020000Y-156150000D01*
X168020000Y-156150000D02*
X167260000Y-156150000D01*
X167260000Y-156150000D02*
X167260000Y-150150000D01*
X168020000Y-147092929D02*
X168020000Y-147490000D01*
X167260000Y-147092929D02*
X167260000Y-147490000D01*
X166370000Y-147490000D02*
X166370000Y-150150000D01*
X165480000Y-150150000D02*
X165480000Y-156150000D01*
X165480000Y-156150000D02*
X164720000Y-156150000D01*
X164720000Y-156150000D02*
X164720000Y-150150000D01*
X165480000Y-147092929D02*
X165480000Y-147490000D01*
X164720000Y-147092929D02*
X164720000Y-147490000D01*
X163830000Y-147490000D02*
X163830000Y-150150000D01*
X162940000Y-150150000D02*
X162940000Y-156150000D01*
X162940000Y-156150000D02*
X162180000Y-156150000D01*
X162180000Y-156150000D02*
X162180000Y-150150000D01*
X162940000Y-147092929D02*
X162940000Y-147490000D01*
X162180000Y-147092929D02*
X162180000Y-147490000D01*
X161290000Y-147490000D02*
X161290000Y-150150000D01*
X160400000Y-150150000D02*
X160400000Y-156150000D01*
X160400000Y-156150000D02*
X159640000Y-156150000D01*
X159640000Y-156150000D02*
X159640000Y-150150000D01*
X160400000Y-147092929D02*
X160400000Y-147490000D01*
X159640000Y-147092929D02*
X159640000Y-147490000D01*
X158750000Y-147490000D02*
X158750000Y-150150000D01*
X157860000Y-150150000D02*
X157860000Y-156150000D01*
X157860000Y-156150000D02*
X157100000Y-156150000D01*
X157100000Y-156150000D02*
X157100000Y-150150000D01*
X157860000Y-147092929D02*
X157860000Y-147490000D01*
X157100000Y-147092929D02*
X157100000Y-147490000D01*
X156210000Y-147490000D02*
X156210000Y-150150000D01*
X155320000Y-150150000D02*
X155320000Y-156150000D01*
X155320000Y-156150000D02*
X154560000Y-156150000D01*
X154560000Y-156150000D02*
X154560000Y-150150000D01*
X155320000Y-147092929D02*
X155320000Y-147490000D01*
X154560000Y-147092929D02*
X154560000Y-147490000D01*
X153670000Y-147490000D02*
X153670000Y-150150000D01*
X152780000Y-150150000D02*
X152780000Y-156150000D01*
X152780000Y-156150000D02*
X152020000Y-156150000D01*
X152020000Y-156150000D02*
X152020000Y-150150000D01*
X152780000Y-147092929D02*
X152780000Y-147490000D01*
X152020000Y-147092929D02*
X152020000Y-147490000D01*
X151130000Y-147490000D02*
X151130000Y-150150000D01*
X150240000Y-150150000D02*
X150240000Y-156150000D01*
X150240000Y-156150000D02*
X149480000Y-156150000D01*
X149480000Y-156150000D02*
X149480000Y-150150000D01*
X150240000Y-147092929D02*
X150240000Y-147490000D01*
X149480000Y-147092929D02*
X149480000Y-147490000D01*
X148590000Y-147490000D02*
X148590000Y-150150000D01*
X147700000Y-150150000D02*
X147700000Y-156150000D01*
X147700000Y-156150000D02*
X146940000Y-156150000D01*
X146940000Y-156150000D02*
X146940000Y-150150000D01*
X147700000Y-147092929D02*
X147700000Y-147490000D01*
X146940000Y-147092929D02*
X146940000Y-147490000D01*
X146050000Y-147490000D02*
X146050000Y-150150000D01*
X145160000Y-150150000D02*
X145160000Y-156150000D01*
X145160000Y-156150000D02*
X144400000Y-156150000D01*
X144400000Y-156150000D02*
X144400000Y-150150000D01*
X145160000Y-147092929D02*
X145160000Y-147490000D01*
X144400000Y-147092929D02*
X144400000Y-147490000D01*
X143510000Y-147490000D02*
X143510000Y-150150000D01*
X142620000Y-150150000D02*
X142620000Y-156150000D01*
X142620000Y-156150000D02*
X141860000Y-156150000D01*
X141860000Y-156150000D02*
X141860000Y-150150000D01*
X142620000Y-147092929D02*
X142620000Y-147490000D01*
X141860000Y-147092929D02*
X141860000Y-147490000D01*
X140970000Y-147490000D02*
X140970000Y-150150000D01*
X140080000Y-150150000D02*
X140080000Y-156150000D01*
X140080000Y-156150000D02*
X139320000Y-156150000D01*
X139320000Y-156150000D02*
X139320000Y-150150000D01*
X140080000Y-147092929D02*
X140080000Y-147490000D01*
X139320000Y-147092929D02*
X139320000Y-147490000D01*
X138430000Y-147490000D02*
X138430000Y-150150000D01*
X137540000Y-150150000D02*
X137540000Y-156150000D01*
X137540000Y-156150000D02*
X136780000Y-156150000D01*
X136780000Y-156150000D02*
X136780000Y-150150000D01*
X137540000Y-147092929D02*
X137540000Y-147490000D01*
X136780000Y-147092929D02*
X136780000Y-147490000D01*
X135890000Y-147490000D02*
X135890000Y-150150000D01*
X135000000Y-150150000D02*
X135000000Y-156150000D01*
X135000000Y-156150000D02*
X134240000Y-156150000D01*
X134240000Y-156150000D02*
X134240000Y-150150000D01*
X135000000Y-147092929D02*
X135000000Y-147490000D01*
X134240000Y-147092929D02*
X134240000Y-147490000D01*
X133350000Y-147490000D02*
X133350000Y-150150000D01*
X132460000Y-150150000D02*
X132460000Y-156150000D01*
X132460000Y-156150000D02*
X131700000Y-156150000D01*
X131700000Y-156150000D02*
X131700000Y-150150000D01*
X132460000Y-147092929D02*
X132460000Y-147490000D01*
X131700000Y-147092929D02*
X131700000Y-147490000D01*
X130810000Y-147490000D02*
X130810000Y-150150000D01*
X129920000Y-150150000D02*
X129920000Y-156150000D01*
X129920000Y-156150000D02*
X129160000Y-156150000D01*
X129160000Y-156150000D02*
X129160000Y-150150000D01*
X129920000Y-147092929D02*
X129920000Y-147490000D01*
X129160000Y-147092929D02*
X129160000Y-147490000D01*
X128270000Y-147490000D02*
X128270000Y-150150000D01*
X127380000Y-150150000D02*
X127380000Y-156150000D01*
X127380000Y-156150000D02*
X126620000Y-156150000D01*
X126620000Y-156150000D02*
X126620000Y-150150000D01*
X127380000Y-147092929D02*
X127380000Y-147490000D01*
X126620000Y-147092929D02*
X126620000Y-147490000D01*
X125730000Y-147490000D02*
X125730000Y-150150000D01*
X124840000Y-150150000D02*
X124840000Y-156150000D01*
X124840000Y-156150000D02*
X124080000Y-156150000D01*
X124080000Y-156150000D02*
X124080000Y-150150000D01*
X124840000Y-147092929D02*
X124840000Y-147490000D01*
X124080000Y-147092929D02*
X124080000Y-147490000D01*
X123190000Y-147490000D02*
X123190000Y-150150000D01*
X122300000Y-150150000D02*
X122300000Y-156150000D01*
X122300000Y-156150000D02*
X121540000Y-156150000D01*
X121540000Y-156150000D02*
X121540000Y-150150000D01*
X122300000Y-147092929D02*
X122300000Y-147490000D01*
X121540000Y-147092929D02*
X121540000Y-147490000D01*
X120650000Y-147490000D02*
X120650000Y-150150000D01*
X119760000Y-150150000D02*
X119760000Y-156150000D01*
X119760000Y-156150000D02*
X119000000Y-156150000D01*
X119000000Y-156150000D02*
X119000000Y-150150000D01*
X119760000Y-147092929D02*
X119760000Y-147490000D01*
X119000000Y-147092929D02*
X119000000Y-147490000D01*
X118110000Y-147490000D02*
X118110000Y-150150000D01*
X117220000Y-150150000D02*
X117220000Y-156150000D01*
X117220000Y-156150000D02*
X116460000Y-156150000D01*
X116460000Y-156150000D02*
X116460000Y-150150000D01*
X117220000Y-147092929D02*
X117220000Y-147490000D01*
X116460000Y-147092929D02*
X116460000Y-147490000D01*
X115570000Y-147490000D02*
X115570000Y-150150000D01*
X114680000Y-150150000D02*
X114680000Y-156150000D01*
X114680000Y-156150000D02*
X113920000Y-156150000D01*
X113920000Y-156150000D02*
X113920000Y-150150000D01*
X114680000Y-147092929D02*
X114680000Y-147490000D01*
X113920000Y-147092929D02*
X113920000Y-147490000D01*
X113030000Y-147490000D02*
X113030000Y-150150000D01*
X112140000Y-150150000D02*
X112140000Y-156150000D01*
X112140000Y-156150000D02*
X111380000Y-156150000D01*
X111380000Y-156150000D02*
X111380000Y-150150000D01*
X112140000Y-147092929D02*
X112140000Y-147490000D01*
X111380000Y-147092929D02*
X111380000Y-147490000D01*
X110490000Y-147490000D02*
X110490000Y-150150000D01*
X109600000Y-150150000D02*
X109600000Y-156150000D01*
X109600000Y-156150000D02*
X108840000Y-156150000D01*
X108840000Y-156150000D02*
X108840000Y-150150000D01*
X109600000Y-147092929D02*
X109600000Y-147490000D01*
X108840000Y-147092929D02*
X108840000Y-147490000D01*
X107950000Y-147490000D02*
X107950000Y-150150000D01*
X107060000Y-150150000D02*
X107060000Y-156150000D01*
X107060000Y-156150000D02*
X106300000Y-156150000D01*
X106300000Y-156150000D02*
X106300000Y-150150000D01*
X107060000Y-147092929D02*
X107060000Y-147490000D01*
X106300000Y-147092929D02*
X106300000Y-147490000D01*
X105410000Y-147490000D02*
X105410000Y-150150000D01*
X104520000Y-150150000D02*
X104520000Y-156150000D01*
X104520000Y-156150000D02*
X103760000Y-156150000D01*
X103760000Y-156150000D02*
X103760000Y-150150000D01*
X104520000Y-147092929D02*
X104520000Y-147490000D01*
X103760000Y-147092929D02*
X103760000Y-147490000D01*
X102870000Y-147490000D02*
X102870000Y-150150000D01*
X101980000Y-150150000D02*
X101980000Y-156150000D01*
X101980000Y-156150000D02*
X101220000Y-156150000D01*
X101220000Y-156150000D02*
X101220000Y-150150000D01*
X101980000Y-147092929D02*
X101980000Y-147490000D01*
X101220000Y-147092929D02*
X101220000Y-147490000D01*
X198120000Y-144780000D02*
X199390000Y-144780000D01*
X199390000Y-144780000D02*
X199390000Y-146050000D01*
X105490000Y-57940000D02*
X96690000Y-57940000D01*
X96690000Y-57940000D02*
X96690000Y-48740000D01*
X111390000Y-55240000D02*
X111390000Y-57940000D01*
X111390000Y-57940000D02*
X109490000Y-57940000D01*
X96690000Y-48740000D02*
X111390000Y-48740000D01*
X111390000Y-48740000D02*
X111390000Y-51340000D01*
X175200000Y-138490000D02*
X177860000Y-138490000D01*
X175200000Y-133350000D02*
X175200000Y-138490000D01*
X177860000Y-133350000D02*
X177860000Y-138490000D01*
X175200000Y-133350000D02*
X177860000Y-133350000D01*
X175200000Y-132080000D02*
X175200000Y-130750000D01*
X175200000Y-130750000D02*
X176530000Y-130750000D01*
X192770000Y-115510000D02*
G75*
G02X190770000Y-115510000I-1000000J0D01*
G01*
X190770000Y-115510000D02*
X189120000Y-115510000D01*
X189120000Y-115510000D02*
X189120000Y-133410000D01*
X189120000Y-133410000D02*
X194420000Y-133410000D01*
X194420000Y-133410000D02*
X194420000Y-115510000D01*
X194420000Y-115510000D02*
X192770000Y-115510000D01*
X186630000Y-115450000D02*
X186630000Y-133470000D01*
X186630000Y-133470000D02*
X196910000Y-133470000D01*
X196910000Y-133470000D02*
X196910000Y-115450000D01*
X196910000Y-115450000D02*
X186630000Y-115450000D01*
X126095000Y-82490000D02*
G75*
G02X124095000Y-82490000I-1000000J0D01*
G01*
X124095000Y-82490000D02*
X118635000Y-82490000D01*
X118635000Y-82490000D02*
X118635000Y-133410000D01*
X118635000Y-133410000D02*
X131555000Y-133410000D01*
X131555000Y-133410000D02*
X131555000Y-82490000D01*
X131555000Y-82490000D02*
X126095000Y-82490000D01*
X116145000Y-82430000D02*
X116145000Y-133470000D01*
X116145000Y-133470000D02*
X134045000Y-133470000D01*
X134045000Y-133470000D02*
X134045000Y-82430000D01*
X134045000Y-82430000D02*
X116145000Y-82430000D01*
X192770000Y-82490000D02*
G75*
G02X190770000Y-82490000I-1000000J0D01*
G01*
X190770000Y-82490000D02*
X189120000Y-82490000D01*
X189120000Y-82490000D02*
X189120000Y-108010000D01*
X189120000Y-108010000D02*
X194420000Y-108010000D01*
X194420000Y-108010000D02*
X194420000Y-82490000D01*
X194420000Y-82490000D02*
X192770000Y-82490000D01*
X186630000Y-82430000D02*
X186630000Y-108070000D01*
X186630000Y-108070000D02*
X196910000Y-108070000D01*
X196910000Y-108070000D02*
X196910000Y-82430000D01*
X196910000Y-82430000D02*
X186630000Y-82430000D01*
X108645000Y-82490000D02*
X103445000Y-82490000D01*
X108645000Y-130810000D02*
X108645000Y-82490000D01*
X103445000Y-133410000D02*
X103445000Y-82490000D01*
X108645000Y-130810000D02*
X106045000Y-130810000D01*
X106045000Y-130810000D02*
X106045000Y-133410000D01*
X106045000Y-133410000D02*
X103445000Y-133410000D01*
X108645000Y-132080000D02*
X108645000Y-133410000D01*
X108645000Y-133410000D02*
X107315000Y-133410000D01*
X158690000Y-90230000D02*
X161350000Y-90230000D01*
X158690000Y-85090000D02*
X158690000Y-90230000D01*
X161350000Y-85090000D02*
X161350000Y-90230000D01*
X158690000Y-85090000D02*
X161350000Y-85090000D01*
X158690000Y-83820000D02*
X158690000Y-82490000D01*
X158690000Y-82490000D02*
X160020000Y-82490000D01*
X121919538Y-55060000D02*
G75*
G03X123464830Y-49510000I462J2990000D01*
G01*
X121920462Y-55060000D02*
G75*
G02X120375170Y-49510000I-462J2990000D01*
G01*
X124420000Y-52070000D02*
G75*
G03X124420000Y-52070000I-2500000J0D01*
G01*
X123465000Y-49510000D02*
X120375000Y-49510000D01*
X129539538Y-55060000D02*
G75*
G03X131084830Y-49510000I462J2990000D01*
G01*
X129540462Y-55060000D02*
G75*
G02X127995170Y-49510000I-462J2990000D01*
G01*
X132040000Y-52070000D02*
G75*
G03X132040000Y-52070000I-2500000J0D01*
G01*
X131085000Y-49510000D02*
X127995000Y-49510000D01*
X137159538Y-55060000D02*
G75*
G03X138704830Y-49510000I462J2990000D01*
G01*
X137160462Y-55060000D02*
G75*
G02X135615170Y-49510000I-462J2990000D01*
G01*
X139660000Y-52070000D02*
G75*
G03X139660000Y-52070000I-2500000J0D01*
G01*
X138705000Y-49510000D02*
X135615000Y-49510000D01*
X144779538Y-55060000D02*
G75*
G03X146324830Y-49510000I462J2990000D01*
G01*
X144780462Y-55060000D02*
G75*
G02X143235170Y-49510000I-462J2990000D01*
G01*
X147280000Y-52070000D02*
G75*
G03X147280000Y-52070000I-2500000J0D01*
G01*
X146325000Y-49510000D02*
X143235000Y-49510000D01*
X154939538Y-55060000D02*
G75*
G03X156484830Y-49510000I462J2990000D01*
G01*
X154940462Y-55060000D02*
G75*
G02X153395170Y-49510000I-462J2990000D01*
G01*
X157440000Y-52070000D02*
G75*
G03X157440000Y-52070000I-2500000J0D01*
G01*
X156485000Y-49510000D02*
X153395000Y-49510000D01*
X162559538Y-55060000D02*
G75*
G03X164104830Y-49510000I462J2990000D01*
G01*
X162560462Y-55060000D02*
G75*
G02X161015170Y-49510000I-462J2990000D01*
G01*
X165060000Y-52070000D02*
G75*
G03X165060000Y-52070000I-2500000J0D01*
G01*
X164105000Y-49510000D02*
X161015000Y-49510000D01*
X170179538Y-55060000D02*
G75*
G03X171724830Y-49510000I462J2990000D01*
G01*
X170180462Y-55060000D02*
G75*
G02X168635170Y-49510000I-462J2990000D01*
G01*
X172680000Y-52070000D02*
G75*
G03X172680000Y-52070000I-2500000J0D01*
G01*
X171725000Y-49510000D02*
X168635000Y-49510000D01*
X177799538Y-55060000D02*
G75*
G03X179344830Y-49510000I462J2990000D01*
G01*
X177800462Y-55060000D02*
G75*
G02X176255170Y-49510000I-462J2990000D01*
G01*
X180300000Y-52070000D02*
G75*
G03X180300000Y-52070000I-2500000J0D01*
G01*
X179345000Y-49510000D02*
X176255000Y-49510000D01*
X147380000Y-78800000D02*
X147380000Y-76140000D01*
X142240000Y-78800000D02*
X147380000Y-78800000D01*
X142240000Y-76140000D02*
X147380000Y-76140000D01*
X142240000Y-78800000D02*
X142240000Y-76140000D01*
X140970000Y-78800000D02*
X139640000Y-78800000D01*
X139640000Y-78800000D02*
X139640000Y-77470000D01*
X166965000Y-73060000D02*
X169585000Y-73060000D01*
X169585000Y-73060000D02*
X169585000Y-66640000D01*
X169585000Y-66640000D02*
X166965000Y-66640000D01*
X166965000Y-66640000D02*
X166965000Y-73060000D01*
X168275000Y-73950000D02*
X168275000Y-73060000D01*
X168275000Y-65750000D02*
X168275000Y-66640000D01*
X170140000Y-73060000D02*
X172760000Y-73060000D01*
X172760000Y-73060000D02*
X172760000Y-66640000D01*
X172760000Y-66640000D02*
X170140000Y-66640000D01*
X170140000Y-66640000D02*
X170140000Y-73060000D01*
X171450000Y-73950000D02*
X171450000Y-73060000D01*
X171450000Y-65750000D02*
X171450000Y-66640000D01*
X173315000Y-73060000D02*
X175935000Y-73060000D01*
X175935000Y-73060000D02*
X175935000Y-66640000D01*
X175935000Y-66640000D02*
X173315000Y-66640000D01*
X173315000Y-66640000D02*
X173315000Y-73060000D01*
X174625000Y-73950000D02*
X174625000Y-73060000D01*
X174625000Y-65750000D02*
X174625000Y-66640000D01*
X176490000Y-73060000D02*
X179110000Y-73060000D01*
X179110000Y-73060000D02*
X179110000Y-66640000D01*
X179110000Y-66640000D02*
X176490000Y-66640000D01*
X176490000Y-66640000D02*
X176490000Y-73060000D01*
X177800000Y-73950000D02*
X177800000Y-73060000D01*
X177800000Y-65750000D02*
X177800000Y-66640000D01*
X179665000Y-73060000D02*
X182285000Y-73060000D01*
X182285000Y-73060000D02*
X182285000Y-66640000D01*
X182285000Y-66640000D02*
X179665000Y-66640000D01*
X179665000Y-66640000D02*
X179665000Y-73060000D01*
X180975000Y-73950000D02*
X180975000Y-73060000D01*
X180975000Y-65750000D02*
X180975000Y-66640000D01*
X182840000Y-73060000D02*
X185460000Y-73060000D01*
X185460000Y-73060000D02*
X185460000Y-66640000D01*
X185460000Y-66640000D02*
X182840000Y-66640000D01*
X182840000Y-66640000D02*
X182840000Y-73060000D01*
X184150000Y-73950000D02*
X184150000Y-73060000D01*
X184150000Y-65750000D02*
X184150000Y-66640000D01*
X186015000Y-73060000D02*
X188635000Y-73060000D01*
X188635000Y-73060000D02*
X188635000Y-66640000D01*
X188635000Y-66640000D02*
X186015000Y-66640000D01*
X186015000Y-66640000D02*
X186015000Y-73060000D01*
X187325000Y-73950000D02*
X187325000Y-73060000D01*
X187325000Y-65750000D02*
X187325000Y-66640000D01*
X189190000Y-73060000D02*
X191810000Y-73060000D01*
X191810000Y-73060000D02*
X191810000Y-66640000D01*
X191810000Y-66640000D02*
X189190000Y-66640000D01*
X189190000Y-66640000D02*
X189190000Y-73060000D01*
X190500000Y-73950000D02*
X190500000Y-73060000D01*
X190500000Y-65750000D02*
X190500000Y-66640000D01*
X139640000Y-68850000D02*
G75*
G02X139640000Y-70850000I0J-1000000D01*
G01*
X139640000Y-70850000D02*
X139640000Y-72500000D01*
X139640000Y-72500000D02*
X165160000Y-72500000D01*
X165160000Y-72500000D02*
X165160000Y-67200000D01*
X165160000Y-67200000D02*
X139640000Y-67200000D01*
X139640000Y-67200000D02*
X139640000Y-68850000D01*
X139580000Y-74990000D02*
X165220000Y-74990000D01*
X165220000Y-74990000D02*
X165220000Y-64710000D01*
X165220000Y-64710000D02*
X139580000Y-64710000D01*
X139580000Y-64710000D02*
X139580000Y-74990000D01*
X179615000Y-81320000D02*
X174795000Y-81320000D01*
X179615000Y-78700000D02*
X174795000Y-78700000D01*
X179615000Y-81320000D02*
X179615000Y-81006000D01*
X179615000Y-79014000D02*
X179615000Y-78700000D01*
X174795000Y-81320000D02*
X174795000Y-81006000D01*
X174795000Y-79014000D02*
X174795000Y-78700000D01*
X149590000Y-82490000D02*
G75*
G02X147590000Y-82490000I-1000000J0D01*
G01*
X147590000Y-82490000D02*
X142130000Y-82490000D01*
X142130000Y-82490000D02*
X142130000Y-118170000D01*
X142130000Y-118170000D02*
X155050000Y-118170000D01*
X155050000Y-118170000D02*
X155050000Y-82490000D01*
X155050000Y-82490000D02*
X149590000Y-82490000D01*
X139640000Y-82430000D02*
X139640000Y-118230000D01*
X139640000Y-118230000D02*
X157540000Y-118230000D01*
X157540000Y-118230000D02*
X157540000Y-82430000D01*
X157540000Y-82430000D02*
X139640000Y-82430000D01*
X173085000Y-82490000D02*
G75*
G02X171085000Y-82490000I-1000000J0D01*
G01*
X171085000Y-82490000D02*
X165625000Y-82490000D01*
X165625000Y-82490000D02*
X165625000Y-118170000D01*
X165625000Y-118170000D02*
X178545000Y-118170000D01*
X178545000Y-118170000D02*
X178545000Y-82490000D01*
X178545000Y-82490000D02*
X173085000Y-82490000D01*
X163135000Y-82430000D02*
X163135000Y-118230000D01*
X163135000Y-118230000D02*
X181035000Y-118230000D01*
X181035000Y-118230000D02*
X181035000Y-82430000D01*
X181035000Y-82430000D02*
X163135000Y-82430000D01*
X125790000Y-63560000D02*
X125790000Y-60900000D01*
X115570000Y-63560000D02*
X125790000Y-63560000D01*
X115570000Y-60900000D02*
X125790000Y-60900000D01*
X115570000Y-63560000D02*
X115570000Y-60900000D01*
X114300000Y-63560000D02*
X112970000Y-63560000D01*
X112970000Y-63560000D02*
X112970000Y-62230000D01*
X152880000Y-124035000D02*
X152880000Y-126155000D01*
X152880000Y-126155000D02*
X157000000Y-126155000D01*
X157000000Y-126155000D02*
X157000000Y-124035000D01*
X157000000Y-124035000D02*
X152880000Y-124035000D01*
X152110000Y-125095000D02*
X152880000Y-125095000D01*
X157770000Y-125095000D02*
X157000000Y-125095000D01*
X153540000Y-124035000D02*
X153540000Y-126155000D01*
X158810000Y-121980000D02*
X158810000Y-119320000D01*
X153670000Y-121980000D02*
X158810000Y-121980000D01*
X153670000Y-119320000D02*
X158810000Y-119320000D01*
X153670000Y-121980000D02*
X153670000Y-119320000D01*
X152400000Y-121980000D02*
X151070000Y-121980000D01*
X151070000Y-121980000D02*
X151070000Y-120650000D01*
X148015000Y-121980000D02*
X148015000Y-119320000D01*
X142875000Y-121980000D02*
X148015000Y-121980000D01*
X142875000Y-119320000D02*
X148015000Y-119320000D01*
X142875000Y-121980000D02*
X142875000Y-119320000D01*
X141605000Y-121980000D02*
X140275000Y-121980000D01*
X140275000Y-121980000D02*
X140275000Y-120650000D01*
X148015000Y-126425000D02*
X148015000Y-123765000D01*
X142875000Y-126425000D02*
X148015000Y-126425000D01*
X142875000Y-123765000D02*
X148015000Y-123765000D01*
X142875000Y-126425000D02*
X142875000Y-123765000D01*
X141605000Y-126425000D02*
X140275000Y-126425000D01*
X140275000Y-126425000D02*
X140275000Y-125095000D01*
X185995000Y-57615000D02*
X198815000Y-57615000D01*
X198815000Y-57615000D02*
X198815000Y-54955000D01*
X198815000Y-54955000D02*
X185995000Y-54955000D01*
X185995000Y-54955000D02*
X185995000Y-57615000D01*
X186945000Y-54955000D02*
X186945000Y-48955000D01*
X186945000Y-48955000D02*
X187705000Y-48955000D01*
X187705000Y-48955000D02*
X187705000Y-54955000D01*
X187005000Y-54955000D02*
X187005000Y-48955000D01*
X187125000Y-54955000D02*
X187125000Y-48955000D01*
X187245000Y-54955000D02*
X187245000Y-48955000D01*
X187365000Y-54955000D02*
X187365000Y-48955000D01*
X187485000Y-54955000D02*
X187485000Y-48955000D01*
X187605000Y-54955000D02*
X187605000Y-48955000D01*
X186945000Y-57945000D02*
X186945000Y-57615000D01*
X187705000Y-57945000D02*
X187705000Y-57615000D01*
X188595000Y-57615000D02*
X188595000Y-54955000D01*
X189485000Y-54955000D02*
X189485000Y-48955000D01*
X189485000Y-48955000D02*
X190245000Y-48955000D01*
X190245000Y-48955000D02*
X190245000Y-54955000D01*
X189485000Y-58012071D02*
X189485000Y-57615000D01*
X190245000Y-58012071D02*
X190245000Y-57615000D01*
X191135000Y-57615000D02*
X191135000Y-54955000D01*
X192025000Y-54955000D02*
X192025000Y-48955000D01*
X192025000Y-48955000D02*
X192785000Y-48955000D01*
X192785000Y-48955000D02*
X192785000Y-54955000D01*
X192025000Y-58012071D02*
X192025000Y-57615000D01*
X192785000Y-58012071D02*
X192785000Y-57615000D01*
X193675000Y-57615000D02*
X193675000Y-54955000D01*
X194565000Y-54955000D02*
X194565000Y-48955000D01*
X194565000Y-48955000D02*
X195325000Y-48955000D01*
X195325000Y-48955000D02*
X195325000Y-54955000D01*
X194565000Y-58012071D02*
X194565000Y-57615000D01*
X195325000Y-58012071D02*
X195325000Y-57615000D01*
X196215000Y-57615000D02*
X196215000Y-54955000D01*
X197105000Y-54955000D02*
X197105000Y-48955000D01*
X197105000Y-48955000D02*
X197865000Y-48955000D01*
X197865000Y-48955000D02*
X197865000Y-54955000D01*
X197105000Y-58012071D02*
X197105000Y-57615000D01*
X197865000Y-58012071D02*
X197865000Y-57615000D01*
X187325000Y-60325000D02*
X186055000Y-60325000D01*
X186055000Y-60325000D02*
X186055000Y-59055000D01*
D13*
X122380476Y-69302380D02*
X123047142Y-70302380D01*
X123047142Y-69302380D02*
X122380476Y-70302380D01*
X123951904Y-70302380D02*
X123380476Y-70302380D01*
X123666190Y-70302380D02*
X123666190Y-69302380D01*
X123570952Y-69445238D01*
X123475714Y-69540476D01*
X123380476Y-69588095D01*
X192873333Y-113387142D02*
X192825714Y-113434761D01*
X192682857Y-113482380D01*
X192587619Y-113482380D01*
X192444761Y-113434761D01*
X192349523Y-113339523D01*
X192301904Y-113244285D01*
X192254285Y-113053809D01*
X192254285Y-112910952D01*
X192301904Y-112720476D01*
X192349523Y-112625238D01*
X192444761Y-112530000D01*
X192587619Y-112482380D01*
X192682857Y-112482380D01*
X192825714Y-112530000D01*
X192873333Y-112577619D01*
X193825714Y-113482380D02*
X193254285Y-113482380D01*
X193540000Y-113482380D02*
X193540000Y-112482380D01*
X193444761Y-112625238D01*
X193349523Y-112720476D01*
X193254285Y-112768095D01*
X130135333Y-80367142D02*
X130087714Y-80414761D01*
X129944857Y-80462380D01*
X129849619Y-80462380D01*
X129706761Y-80414761D01*
X129611523Y-80319523D01*
X129563904Y-80224285D01*
X129516285Y-80033809D01*
X129516285Y-79890952D01*
X129563904Y-79700476D01*
X129611523Y-79605238D01*
X129706761Y-79510000D01*
X129849619Y-79462380D01*
X129944857Y-79462380D01*
X130087714Y-79510000D01*
X130135333Y-79557619D01*
X130516285Y-79557619D02*
X130563904Y-79510000D01*
X130659142Y-79462380D01*
X130897238Y-79462380D01*
X130992476Y-79510000D01*
X131040095Y-79557619D01*
X131087714Y-79652857D01*
X131087714Y-79748095D01*
X131040095Y-79890952D01*
X130468666Y-80462380D01*
X131087714Y-80462380D01*
X136993333Y-68937142D02*
X136945714Y-68984761D01*
X136802857Y-69032380D01*
X136707619Y-69032380D01*
X136564761Y-68984761D01*
X136469523Y-68889523D01*
X136421904Y-68794285D01*
X136374285Y-68603809D01*
X136374285Y-68460952D01*
X136421904Y-68270476D01*
X136469523Y-68175238D01*
X136564761Y-68080000D01*
X136707619Y-68032380D01*
X136802857Y-68032380D01*
X136945714Y-68080000D01*
X136993333Y-68127619D01*
X137326666Y-68032380D02*
X137945714Y-68032380D01*
X137612380Y-68413333D01*
X137755238Y-68413333D01*
X137850476Y-68460952D01*
X137898095Y-68508571D01*
X137945714Y-68603809D01*
X137945714Y-68841904D01*
X137898095Y-68937142D01*
X137850476Y-68984761D01*
X137755238Y-69032380D01*
X137469523Y-69032380D01*
X137374285Y-68984761D01*
X137326666Y-68937142D01*
X192873333Y-80367142D02*
X192825714Y-80414761D01*
X192682857Y-80462380D01*
X192587619Y-80462380D01*
X192444761Y-80414761D01*
X192349523Y-80319523D01*
X192301904Y-80224285D01*
X192254285Y-80033809D01*
X192254285Y-79890952D01*
X192301904Y-79700476D01*
X192349523Y-79605238D01*
X192444761Y-79510000D01*
X192587619Y-79462380D01*
X192682857Y-79462380D01*
X192825714Y-79510000D01*
X192873333Y-79557619D01*
X193730476Y-79795714D02*
X193730476Y-80462380D01*
X193492380Y-79414761D02*
X193254285Y-80129047D01*
X193873333Y-80129047D01*
X153503333Y-80367142D02*
X153455714Y-80414761D01*
X153312857Y-80462380D01*
X153217619Y-80462380D01*
X153074761Y-80414761D01*
X152979523Y-80319523D01*
X152931904Y-80224285D01*
X152884285Y-80033809D01*
X152884285Y-79890952D01*
X152931904Y-79700476D01*
X152979523Y-79605238D01*
X153074761Y-79510000D01*
X153217619Y-79462380D01*
X153312857Y-79462380D01*
X153455714Y-79510000D01*
X153503333Y-79557619D01*
X154408095Y-79462380D02*
X153931904Y-79462380D01*
X153884285Y-79938571D01*
X153931904Y-79890952D01*
X154027142Y-79843333D01*
X154265238Y-79843333D01*
X154360476Y-79890952D01*
X154408095Y-79938571D01*
X154455714Y-80033809D01*
X154455714Y-80271904D01*
X154408095Y-80367142D01*
X154360476Y-80414761D01*
X154265238Y-80462380D01*
X154027142Y-80462380D01*
X153931904Y-80414761D01*
X153884285Y-80367142D01*
X182681666Y-80942380D02*
X182681666Y-81656666D01*
X182634047Y-81799523D01*
X182538809Y-81894761D01*
X182395952Y-81942380D01*
X182300714Y-81942380D01*
X183157857Y-81942380D02*
X183157857Y-80942380D01*
X183538809Y-80942380D01*
X183634047Y-80990000D01*
X183681666Y-81037619D01*
X183729285Y-81132857D01*
X183729285Y-81275714D01*
X183681666Y-81370952D01*
X183634047Y-81418571D01*
X183538809Y-81466190D01*
X183157857Y-81466190D01*
X184586428Y-81275714D02*
X184586428Y-81942380D01*
X184348333Y-80894761D02*
X184110238Y-81609047D01*
X184729285Y-81609047D01*
X140803333Y-133167380D02*
X140470000Y-132691190D01*
X140231904Y-133167380D02*
X140231904Y-132167380D01*
X140612857Y-132167380D01*
X140708095Y-132215000D01*
X140755714Y-132262619D01*
X140803333Y-132357857D01*
X140803333Y-132500714D01*
X140755714Y-132595952D01*
X140708095Y-132643571D01*
X140612857Y-132691190D01*
X140231904Y-132691190D01*
X141755714Y-133167380D02*
X141184285Y-133167380D01*
X141470000Y-133167380D02*
X141470000Y-132167380D01*
X141374761Y-132310238D01*
X141279523Y-132405476D01*
X141184285Y-132453095D01*
X140755714Y-136580476D02*
X141422380Y-136580476D01*
X140374761Y-136818571D02*
X141089047Y-137056666D01*
X141089047Y-136437619D01*
X140422380Y-136151904D02*
X140422380Y-135485238D01*
X141422380Y-135913809D01*
X141422380Y-135104285D02*
X140422380Y-135104285D01*
X141041428Y-135009047D02*
X141422380Y-134723333D01*
X140755714Y-134723333D02*
X141136666Y-135104285D01*
X145248333Y-133167380D02*
X144915000Y-132691190D01*
X144676904Y-133167380D02*
X144676904Y-132167380D01*
X145057857Y-132167380D01*
X145153095Y-132215000D01*
X145200714Y-132262619D01*
X145248333Y-132357857D01*
X145248333Y-132500714D01*
X145200714Y-132595952D01*
X145153095Y-132643571D01*
X145057857Y-132691190D01*
X144676904Y-132691190D01*
X145629285Y-132262619D02*
X145676904Y-132215000D01*
X145772142Y-132167380D01*
X146010238Y-132167380D01*
X146105476Y-132215000D01*
X146153095Y-132262619D01*
X146200714Y-132357857D01*
X146200714Y-132453095D01*
X146153095Y-132595952D01*
X145581666Y-133167380D01*
X146200714Y-133167380D01*
X145200714Y-136580476D02*
X145867380Y-136580476D01*
X144819761Y-136818571D02*
X145534047Y-137056666D01*
X145534047Y-136437619D01*
X144867380Y-136151904D02*
X144867380Y-135485238D01*
X145867380Y-135913809D01*
X145867380Y-135104285D02*
X144867380Y-135104285D01*
X145486428Y-135009047D02*
X145867380Y-134723333D01*
X145200714Y-134723333D02*
X145581666Y-135104285D01*
X149693333Y-133167380D02*
X149360000Y-132691190D01*
X149121904Y-133167380D02*
X149121904Y-132167380D01*
X149502857Y-132167380D01*
X149598095Y-132215000D01*
X149645714Y-132262619D01*
X149693333Y-132357857D01*
X149693333Y-132500714D01*
X149645714Y-132595952D01*
X149598095Y-132643571D01*
X149502857Y-132691190D01*
X149121904Y-132691190D01*
X150026666Y-132167380D02*
X150645714Y-132167380D01*
X150312380Y-132548333D01*
X150455238Y-132548333D01*
X150550476Y-132595952D01*
X150598095Y-132643571D01*
X150645714Y-132738809D01*
X150645714Y-132976904D01*
X150598095Y-133072142D01*
X150550476Y-133119761D01*
X150455238Y-133167380D01*
X150169523Y-133167380D01*
X150074285Y-133119761D01*
X150026666Y-133072142D01*
X149645714Y-136580476D02*
X150312380Y-136580476D01*
X149264761Y-136818571D02*
X149979047Y-137056666D01*
X149979047Y-136437619D01*
X149312380Y-136151904D02*
X149312380Y-135485238D01*
X150312380Y-135913809D01*
X150312380Y-135104285D02*
X149312380Y-135104285D01*
X149931428Y-135009047D02*
X150312380Y-134723333D01*
X149645714Y-134723333D02*
X150026666Y-135104285D01*
X154138333Y-133167380D02*
X153805000Y-132691190D01*
X153566904Y-133167380D02*
X153566904Y-132167380D01*
X153947857Y-132167380D01*
X154043095Y-132215000D01*
X154090714Y-132262619D01*
X154138333Y-132357857D01*
X154138333Y-132500714D01*
X154090714Y-132595952D01*
X154043095Y-132643571D01*
X153947857Y-132691190D01*
X153566904Y-132691190D01*
X154995476Y-132500714D02*
X154995476Y-133167380D01*
X154757380Y-132119761D02*
X154519285Y-132834047D01*
X155138333Y-132834047D01*
X154090714Y-136580476D02*
X154757380Y-136580476D01*
X153709761Y-136818571D02*
X154424047Y-137056666D01*
X154424047Y-136437619D01*
X153757380Y-136151904D02*
X153757380Y-135485238D01*
X154757380Y-135913809D01*
X154757380Y-135104285D02*
X153757380Y-135104285D01*
X154376428Y-135009047D02*
X154757380Y-134723333D01*
X154090714Y-134723333D02*
X154471666Y-135104285D01*
X158583333Y-133167380D02*
X158250000Y-132691190D01*
X158011904Y-133167380D02*
X158011904Y-132167380D01*
X158392857Y-132167380D01*
X158488095Y-132215000D01*
X158535714Y-132262619D01*
X158583333Y-132357857D01*
X158583333Y-132500714D01*
X158535714Y-132595952D01*
X158488095Y-132643571D01*
X158392857Y-132691190D01*
X158011904Y-132691190D01*
X159488095Y-132167380D02*
X159011904Y-132167380D01*
X158964285Y-132643571D01*
X159011904Y-132595952D01*
X159107142Y-132548333D01*
X159345238Y-132548333D01*
X159440476Y-132595952D01*
X159488095Y-132643571D01*
X159535714Y-132738809D01*
X159535714Y-132976904D01*
X159488095Y-133072142D01*
X159440476Y-133119761D01*
X159345238Y-133167380D01*
X159107142Y-133167380D01*
X159011904Y-133119761D01*
X158964285Y-133072142D01*
X158535714Y-136580476D02*
X159202380Y-136580476D01*
X158154761Y-136818571D02*
X158869047Y-137056666D01*
X158869047Y-136437619D01*
X158202380Y-136151904D02*
X158202380Y-135485238D01*
X159202380Y-135913809D01*
X159202380Y-135104285D02*
X158202380Y-135104285D01*
X158821428Y-135009047D02*
X159202380Y-134723333D01*
X158535714Y-134723333D02*
X158916666Y-135104285D01*
X163028333Y-133167380D02*
X162695000Y-132691190D01*
X162456904Y-133167380D02*
X162456904Y-132167380D01*
X162837857Y-132167380D01*
X162933095Y-132215000D01*
X162980714Y-132262619D01*
X163028333Y-132357857D01*
X163028333Y-132500714D01*
X162980714Y-132595952D01*
X162933095Y-132643571D01*
X162837857Y-132691190D01*
X162456904Y-132691190D01*
X163885476Y-132167380D02*
X163695000Y-132167380D01*
X163599761Y-132215000D01*
X163552142Y-132262619D01*
X163456904Y-132405476D01*
X163409285Y-132595952D01*
X163409285Y-132976904D01*
X163456904Y-133072142D01*
X163504523Y-133119761D01*
X163599761Y-133167380D01*
X163790238Y-133167380D01*
X163885476Y-133119761D01*
X163933095Y-133072142D01*
X163980714Y-132976904D01*
X163980714Y-132738809D01*
X163933095Y-132643571D01*
X163885476Y-132595952D01*
X163790238Y-132548333D01*
X163599761Y-132548333D01*
X163504523Y-132595952D01*
X163456904Y-132643571D01*
X163409285Y-132738809D01*
X162980714Y-136580476D02*
X163647380Y-136580476D01*
X162599761Y-136818571D02*
X163314047Y-137056666D01*
X163314047Y-136437619D01*
X162647380Y-136151904D02*
X162647380Y-135485238D01*
X163647380Y-135913809D01*
X163647380Y-135104285D02*
X162647380Y-135104285D01*
X163266428Y-135009047D02*
X163647380Y-134723333D01*
X162980714Y-134723333D02*
X163361666Y-135104285D01*
X167473333Y-133167380D02*
X167140000Y-132691190D01*
X166901904Y-133167380D02*
X166901904Y-132167380D01*
X167282857Y-132167380D01*
X167378095Y-132215000D01*
X167425714Y-132262619D01*
X167473333Y-132357857D01*
X167473333Y-132500714D01*
X167425714Y-132595952D01*
X167378095Y-132643571D01*
X167282857Y-132691190D01*
X166901904Y-132691190D01*
X167806666Y-132167380D02*
X168473333Y-132167380D01*
X168044761Y-133167380D01*
X167425714Y-136580476D02*
X168092380Y-136580476D01*
X167044761Y-136818571D02*
X167759047Y-137056666D01*
X167759047Y-136437619D01*
X167092380Y-136151904D02*
X167092380Y-135485238D01*
X168092380Y-135913809D01*
X168092380Y-135104285D02*
X167092380Y-135104285D01*
X167711428Y-135009047D02*
X168092380Y-134723333D01*
X167425714Y-134723333D02*
X167806666Y-135104285D01*
X199842380Y-150768333D02*
X200556666Y-150768333D01*
X200699523Y-150815952D01*
X200794761Y-150911190D01*
X200842380Y-151054047D01*
X200842380Y-151149285D01*
X199842380Y-149815952D02*
X199842380Y-150292142D01*
X200318571Y-150339761D01*
X200270952Y-150292142D01*
X200223333Y-150196904D01*
X200223333Y-149958809D01*
X200270952Y-149863571D01*
X200318571Y-149815952D01*
X200413809Y-149768333D01*
X200651904Y-149768333D01*
X200747142Y-149815952D01*
X200794761Y-149863571D01*
X200842380Y-149958809D01*
X200842380Y-150196904D01*
X200794761Y-150292142D01*
X200747142Y-150339761D01*
X109521666Y-46442380D02*
X109521666Y-47156666D01*
X109474047Y-47299523D01*
X109378809Y-47394761D01*
X109235952Y-47442380D01*
X109140714Y-47442380D01*
X109902619Y-46442380D02*
X110569285Y-46442380D01*
X110140714Y-47442380D01*
X191008095Y-118832380D02*
X191008095Y-119641904D01*
X191055714Y-119737142D01*
X191103333Y-119784761D01*
X191198571Y-119832380D01*
X191389047Y-119832380D01*
X191484285Y-119784761D01*
X191531904Y-119737142D01*
X191579523Y-119641904D01*
X191579523Y-118832380D01*
X192579523Y-119832380D02*
X192008095Y-119832380D01*
X192293809Y-119832380D02*
X192293809Y-118832380D01*
X192198571Y-118975238D01*
X192103333Y-119070476D01*
X192008095Y-119118095D01*
X191222380Y-127102857D02*
X191222380Y-126436190D01*
X192222380Y-126864761D01*
X191555714Y-125626666D02*
X192222380Y-125626666D01*
X191174761Y-125864761D02*
X191889047Y-126102857D01*
X191889047Y-125483809D01*
X192222380Y-124626666D02*
X192222380Y-125102857D01*
X191222380Y-125102857D01*
X192174761Y-124340952D02*
X192222380Y-124198095D01*
X192222380Y-123960000D01*
X192174761Y-123864761D01*
X192127142Y-123817142D01*
X192031904Y-123769523D01*
X191936666Y-123769523D01*
X191841428Y-123817142D01*
X191793809Y-123864761D01*
X191746190Y-123960000D01*
X191698571Y-124150476D01*
X191650952Y-124245714D01*
X191603333Y-124293333D01*
X191508095Y-124340952D01*
X191412857Y-124340952D01*
X191317619Y-124293333D01*
X191270000Y-124245714D01*
X191222380Y-124150476D01*
X191222380Y-123912380D01*
X191270000Y-123769523D01*
X191222380Y-123150476D02*
X191222380Y-123055238D01*
X191270000Y-122960000D01*
X191317619Y-122912380D01*
X191412857Y-122864761D01*
X191603333Y-122817142D01*
X191841428Y-122817142D01*
X192031904Y-122864761D01*
X192127142Y-122912380D01*
X192174761Y-122960000D01*
X192222380Y-123055238D01*
X192222380Y-123150476D01*
X192174761Y-123245714D01*
X192127142Y-123293333D01*
X192031904Y-123340952D01*
X191841428Y-123388571D01*
X191603333Y-123388571D01*
X191412857Y-123340952D01*
X191317619Y-123293333D01*
X191270000Y-123245714D01*
X191222380Y-123150476D01*
X191555714Y-121960000D02*
X192222380Y-121960000D01*
X191174761Y-122198095D02*
X191889047Y-122436190D01*
X191889047Y-121817142D01*
X124333095Y-85812380D02*
X124333095Y-86621904D01*
X124380714Y-86717142D01*
X124428333Y-86764761D01*
X124523571Y-86812380D01*
X124714047Y-86812380D01*
X124809285Y-86764761D01*
X124856904Y-86717142D01*
X124904523Y-86621904D01*
X124904523Y-85812380D01*
X125333095Y-85907619D02*
X125380714Y-85860000D01*
X125475952Y-85812380D01*
X125714047Y-85812380D01*
X125809285Y-85860000D01*
X125856904Y-85907619D01*
X125904523Y-86002857D01*
X125904523Y-86098095D01*
X125856904Y-86240952D01*
X125285476Y-86812380D01*
X125904523Y-86812380D01*
X124817142Y-110545238D02*
X124864761Y-110592857D01*
X124912380Y-110735714D01*
X124912380Y-110830952D01*
X124864761Y-110973809D01*
X124769523Y-111069047D01*
X124674285Y-111116666D01*
X124483809Y-111164285D01*
X124340952Y-111164285D01*
X124150476Y-111116666D01*
X124055238Y-111069047D01*
X123960000Y-110973809D01*
X123912380Y-110830952D01*
X123912380Y-110735714D01*
X123960000Y-110592857D01*
X124007619Y-110545238D01*
X124912380Y-110116666D02*
X123912380Y-110116666D01*
X123912380Y-109878571D01*
X123960000Y-109735714D01*
X124055238Y-109640476D01*
X124150476Y-109592857D01*
X124340952Y-109545238D01*
X124483809Y-109545238D01*
X124674285Y-109592857D01*
X124769523Y-109640476D01*
X124864761Y-109735714D01*
X124912380Y-109878571D01*
X124912380Y-110116666D01*
X124912380Y-109116666D02*
X123912380Y-109116666D01*
X123912380Y-108735714D01*
X123960000Y-108640476D01*
X124007619Y-108592857D01*
X124102857Y-108545238D01*
X124245714Y-108545238D01*
X124340952Y-108592857D01*
X124388571Y-108640476D01*
X124436190Y-108735714D01*
X124436190Y-109116666D01*
X124912380Y-107592857D02*
X124912380Y-108164285D01*
X124912380Y-107878571D02*
X123912380Y-107878571D01*
X124055238Y-107973809D01*
X124150476Y-108069047D01*
X124198095Y-108164285D01*
X124340952Y-107021428D02*
X124293333Y-107116666D01*
X124245714Y-107164285D01*
X124150476Y-107211904D01*
X124102857Y-107211904D01*
X124007619Y-107164285D01*
X123960000Y-107116666D01*
X123912380Y-107021428D01*
X123912380Y-106830952D01*
X123960000Y-106735714D01*
X124007619Y-106688095D01*
X124102857Y-106640476D01*
X124150476Y-106640476D01*
X124245714Y-106688095D01*
X124293333Y-106735714D01*
X124340952Y-106830952D01*
X124340952Y-107021428D01*
X124388571Y-107116666D01*
X124436190Y-107164285D01*
X124531428Y-107211904D01*
X124721904Y-107211904D01*
X124817142Y-107164285D01*
X124864761Y-107116666D01*
X124912380Y-107021428D01*
X124912380Y-106830952D01*
X124864761Y-106735714D01*
X124817142Y-106688095D01*
X124721904Y-106640476D01*
X124531428Y-106640476D01*
X124436190Y-106688095D01*
X124388571Y-106735714D01*
X124340952Y-106830952D01*
X123912380Y-106021428D02*
X123912380Y-105926190D01*
X123960000Y-105830952D01*
X124007619Y-105783333D01*
X124102857Y-105735714D01*
X124293333Y-105688095D01*
X124531428Y-105688095D01*
X124721904Y-105735714D01*
X124817142Y-105783333D01*
X124864761Y-105830952D01*
X124912380Y-105926190D01*
X124912380Y-106021428D01*
X124864761Y-106116666D01*
X124817142Y-106164285D01*
X124721904Y-106211904D01*
X124531428Y-106259523D01*
X124293333Y-106259523D01*
X124102857Y-106211904D01*
X124007619Y-106164285D01*
X123960000Y-106116666D01*
X123912380Y-106021428D01*
X124007619Y-105307142D02*
X123960000Y-105259523D01*
X123912380Y-105164285D01*
X123912380Y-104926190D01*
X123960000Y-104830952D01*
X124007619Y-104783333D01*
X124102857Y-104735714D01*
X124198095Y-104735714D01*
X124340952Y-104783333D01*
X124912380Y-105354761D01*
X124912380Y-104735714D01*
X191008095Y-85812380D02*
X191008095Y-86621904D01*
X191055714Y-86717142D01*
X191103333Y-86764761D01*
X191198571Y-86812380D01*
X191389047Y-86812380D01*
X191484285Y-86764761D01*
X191531904Y-86717142D01*
X191579523Y-86621904D01*
X191579523Y-85812380D01*
X192484285Y-86145714D02*
X192484285Y-86812380D01*
X192246190Y-85764761D02*
X192008095Y-86479047D01*
X192627142Y-86479047D01*
X191222380Y-98369047D02*
X191222380Y-97702380D01*
X192222380Y-98130952D01*
X191555714Y-96892857D02*
X192222380Y-96892857D01*
X191174761Y-97130952D02*
X191889047Y-97369047D01*
X191889047Y-96750000D01*
X192222380Y-95892857D02*
X192222380Y-96369047D01*
X191222380Y-96369047D01*
X192174761Y-95607142D02*
X192222380Y-95464285D01*
X192222380Y-95226190D01*
X192174761Y-95130952D01*
X192127142Y-95083333D01*
X192031904Y-95035714D01*
X191936666Y-95035714D01*
X191841428Y-95083333D01*
X191793809Y-95130952D01*
X191746190Y-95226190D01*
X191698571Y-95416666D01*
X191650952Y-95511904D01*
X191603333Y-95559523D01*
X191508095Y-95607142D01*
X191412857Y-95607142D01*
X191317619Y-95559523D01*
X191270000Y-95511904D01*
X191222380Y-95416666D01*
X191222380Y-95178571D01*
X191270000Y-95035714D01*
X191222380Y-94702380D02*
X191222380Y-94083333D01*
X191603333Y-94416666D01*
X191603333Y-94273809D01*
X191650952Y-94178571D01*
X191698571Y-94130952D01*
X191793809Y-94083333D01*
X192031904Y-94083333D01*
X192127142Y-94130952D01*
X192174761Y-94178571D01*
X192222380Y-94273809D01*
X192222380Y-94559523D01*
X192174761Y-94654761D01*
X192127142Y-94702380D01*
X191222380Y-93750000D02*
X191222380Y-93083333D01*
X192222380Y-93511904D01*
X191222380Y-92797619D02*
X191222380Y-92178571D01*
X191603333Y-92511904D01*
X191603333Y-92369047D01*
X191650952Y-92273809D01*
X191698571Y-92226190D01*
X191793809Y-92178571D01*
X192031904Y-92178571D01*
X192127142Y-92226190D01*
X192174761Y-92273809D01*
X192222380Y-92369047D01*
X192222380Y-92654761D01*
X192174761Y-92750000D01*
X192127142Y-92797619D01*
X159186666Y-80732380D02*
X159186666Y-81446666D01*
X159139047Y-81589523D01*
X159043809Y-81684761D01*
X158900952Y-81732380D01*
X158805714Y-81732380D01*
X159662857Y-81732380D02*
X159662857Y-80732380D01*
X160043809Y-80732380D01*
X160139047Y-80780000D01*
X160186666Y-80827619D01*
X160234285Y-80922857D01*
X160234285Y-81065714D01*
X160186666Y-81160952D01*
X160139047Y-81208571D01*
X160043809Y-81256190D01*
X159662857Y-81256190D01*
X161139047Y-80732380D02*
X160662857Y-80732380D01*
X160615238Y-81208571D01*
X160662857Y-81160952D01*
X160758095Y-81113333D01*
X160996190Y-81113333D01*
X161091428Y-81160952D01*
X161139047Y-81208571D01*
X161186666Y-81303809D01*
X161186666Y-81541904D01*
X161139047Y-81637142D01*
X161091428Y-81684761D01*
X160996190Y-81732380D01*
X160758095Y-81732380D01*
X160662857Y-81684761D01*
X160615238Y-81637142D01*
X121181904Y-47442380D02*
X121181904Y-46442380D01*
X121420000Y-46442380D01*
X121562857Y-46490000D01*
X121658095Y-46585238D01*
X121705714Y-46680476D01*
X121753333Y-46870952D01*
X121753333Y-47013809D01*
X121705714Y-47204285D01*
X121658095Y-47299523D01*
X121562857Y-47394761D01*
X121420000Y-47442380D01*
X121181904Y-47442380D01*
X122705714Y-47442380D02*
X122134285Y-47442380D01*
X122420000Y-47442380D02*
X122420000Y-46442380D01*
X122324761Y-46585238D01*
X122229523Y-46680476D01*
X122134285Y-46728095D01*
X128801904Y-47442380D02*
X128801904Y-46442380D01*
X129040000Y-46442380D01*
X129182857Y-46490000D01*
X129278095Y-46585238D01*
X129325714Y-46680476D01*
X129373333Y-46870952D01*
X129373333Y-47013809D01*
X129325714Y-47204285D01*
X129278095Y-47299523D01*
X129182857Y-47394761D01*
X129040000Y-47442380D01*
X128801904Y-47442380D01*
X129754285Y-46537619D02*
X129801904Y-46490000D01*
X129897142Y-46442380D01*
X130135238Y-46442380D01*
X130230476Y-46490000D01*
X130278095Y-46537619D01*
X130325714Y-46632857D01*
X130325714Y-46728095D01*
X130278095Y-46870952D01*
X129706666Y-47442380D01*
X130325714Y-47442380D01*
X136421904Y-47442380D02*
X136421904Y-46442380D01*
X136660000Y-46442380D01*
X136802857Y-46490000D01*
X136898095Y-46585238D01*
X136945714Y-46680476D01*
X136993333Y-46870952D01*
X136993333Y-47013809D01*
X136945714Y-47204285D01*
X136898095Y-47299523D01*
X136802857Y-47394761D01*
X136660000Y-47442380D01*
X136421904Y-47442380D01*
X137326666Y-46442380D02*
X137945714Y-46442380D01*
X137612380Y-46823333D01*
X137755238Y-46823333D01*
X137850476Y-46870952D01*
X137898095Y-46918571D01*
X137945714Y-47013809D01*
X137945714Y-47251904D01*
X137898095Y-47347142D01*
X137850476Y-47394761D01*
X137755238Y-47442380D01*
X137469523Y-47442380D01*
X137374285Y-47394761D01*
X137326666Y-47347142D01*
X144041904Y-47442380D02*
X144041904Y-46442380D01*
X144280000Y-46442380D01*
X144422857Y-46490000D01*
X144518095Y-46585238D01*
X144565714Y-46680476D01*
X144613333Y-46870952D01*
X144613333Y-47013809D01*
X144565714Y-47204285D01*
X144518095Y-47299523D01*
X144422857Y-47394761D01*
X144280000Y-47442380D01*
X144041904Y-47442380D01*
X145470476Y-46775714D02*
X145470476Y-47442380D01*
X145232380Y-46394761D02*
X144994285Y-47109047D01*
X145613333Y-47109047D01*
X154201904Y-47442380D02*
X154201904Y-46442380D01*
X154440000Y-46442380D01*
X154582857Y-46490000D01*
X154678095Y-46585238D01*
X154725714Y-46680476D01*
X154773333Y-46870952D01*
X154773333Y-47013809D01*
X154725714Y-47204285D01*
X154678095Y-47299523D01*
X154582857Y-47394761D01*
X154440000Y-47442380D01*
X154201904Y-47442380D01*
X155678095Y-46442380D02*
X155201904Y-46442380D01*
X155154285Y-46918571D01*
X155201904Y-46870952D01*
X155297142Y-46823333D01*
X155535238Y-46823333D01*
X155630476Y-46870952D01*
X155678095Y-46918571D01*
X155725714Y-47013809D01*
X155725714Y-47251904D01*
X155678095Y-47347142D01*
X155630476Y-47394761D01*
X155535238Y-47442380D01*
X155297142Y-47442380D01*
X155201904Y-47394761D01*
X155154285Y-47347142D01*
X161821904Y-47442380D02*
X161821904Y-46442380D01*
X162060000Y-46442380D01*
X162202857Y-46490000D01*
X162298095Y-46585238D01*
X162345714Y-46680476D01*
X162393333Y-46870952D01*
X162393333Y-47013809D01*
X162345714Y-47204285D01*
X162298095Y-47299523D01*
X162202857Y-47394761D01*
X162060000Y-47442380D01*
X161821904Y-47442380D01*
X163250476Y-46442380D02*
X163060000Y-46442380D01*
X162964761Y-46490000D01*
X162917142Y-46537619D01*
X162821904Y-46680476D01*
X162774285Y-46870952D01*
X162774285Y-47251904D01*
X162821904Y-47347142D01*
X162869523Y-47394761D01*
X162964761Y-47442380D01*
X163155238Y-47442380D01*
X163250476Y-47394761D01*
X163298095Y-47347142D01*
X163345714Y-47251904D01*
X163345714Y-47013809D01*
X163298095Y-46918571D01*
X163250476Y-46870952D01*
X163155238Y-46823333D01*
X162964761Y-46823333D01*
X162869523Y-46870952D01*
X162821904Y-46918571D01*
X162774285Y-47013809D01*
X169441904Y-47442380D02*
X169441904Y-46442380D01*
X169680000Y-46442380D01*
X169822857Y-46490000D01*
X169918095Y-46585238D01*
X169965714Y-46680476D01*
X170013333Y-46870952D01*
X170013333Y-47013809D01*
X169965714Y-47204285D01*
X169918095Y-47299523D01*
X169822857Y-47394761D01*
X169680000Y-47442380D01*
X169441904Y-47442380D01*
X170346666Y-46442380D02*
X171013333Y-46442380D01*
X170584761Y-47442380D01*
X177061904Y-47442380D02*
X177061904Y-46442380D01*
X177300000Y-46442380D01*
X177442857Y-46490000D01*
X177538095Y-46585238D01*
X177585714Y-46680476D01*
X177633333Y-46870952D01*
X177633333Y-47013809D01*
X177585714Y-47204285D01*
X177538095Y-47299523D01*
X177442857Y-47394761D01*
X177300000Y-47442380D01*
X177061904Y-47442380D01*
X178204761Y-46870952D02*
X178109523Y-46823333D01*
X178061904Y-46775714D01*
X178014285Y-46680476D01*
X178014285Y-46632857D01*
X178061904Y-46537619D01*
X178109523Y-46490000D01*
X178204761Y-46442380D01*
X178395238Y-46442380D01*
X178490476Y-46490000D01*
X178538095Y-46537619D01*
X178585714Y-46632857D01*
X178585714Y-46680476D01*
X178538095Y-46775714D01*
X178490476Y-46823333D01*
X178395238Y-46870952D01*
X178204761Y-46870952D01*
X178109523Y-46918571D01*
X178061904Y-46966190D01*
X178014285Y-47061428D01*
X178014285Y-47251904D01*
X178061904Y-47347142D01*
X178109523Y-47394761D01*
X178204761Y-47442380D01*
X178395238Y-47442380D01*
X178490476Y-47394761D01*
X178538095Y-47347142D01*
X178585714Y-47251904D01*
X178585714Y-47061428D01*
X178538095Y-46966190D01*
X178490476Y-46918571D01*
X178395238Y-46870952D01*
X168141666Y-68397380D02*
X167875000Y-67921190D01*
X167684523Y-68397380D02*
X167684523Y-67397380D01*
X167989285Y-67397380D01*
X168065476Y-67445000D01*
X168103571Y-67492619D01*
X168141666Y-67587857D01*
X168141666Y-67730714D01*
X168103571Y-67825952D01*
X168065476Y-67873571D01*
X167989285Y-67921190D01*
X167684523Y-67921190D01*
X168598809Y-67825952D02*
X168522619Y-67778333D01*
X168484523Y-67730714D01*
X168446428Y-67635476D01*
X168446428Y-67587857D01*
X168484523Y-67492619D01*
X168522619Y-67445000D01*
X168598809Y-67397380D01*
X168751190Y-67397380D01*
X168827380Y-67445000D01*
X168865476Y-67492619D01*
X168903571Y-67587857D01*
X168903571Y-67635476D01*
X168865476Y-67730714D01*
X168827380Y-67778333D01*
X168751190Y-67825952D01*
X168598809Y-67825952D01*
X168522619Y-67873571D01*
X168484523Y-67921190D01*
X168446428Y-68016428D01*
X168446428Y-68206904D01*
X168484523Y-68302142D01*
X168522619Y-68349761D01*
X168598809Y-68397380D01*
X168751190Y-68397380D01*
X168827380Y-68349761D01*
X168865476Y-68302142D01*
X168903571Y-68206904D01*
X168903571Y-68016428D01*
X168865476Y-67921190D01*
X168827380Y-67873571D01*
X168751190Y-67825952D01*
X167822619Y-72358095D02*
X167775000Y-72310476D01*
X167727380Y-72215238D01*
X167727380Y-71977142D01*
X167775000Y-71881904D01*
X167822619Y-71834285D01*
X167917857Y-71786666D01*
X168013095Y-71786666D01*
X168155952Y-71834285D01*
X168727380Y-72405714D01*
X168727380Y-71786666D01*
X167822619Y-71405714D02*
X167775000Y-71358095D01*
X167727380Y-71262857D01*
X167727380Y-71024761D01*
X167775000Y-70929523D01*
X167822619Y-70881904D01*
X167917857Y-70834285D01*
X168013095Y-70834285D01*
X168155952Y-70881904D01*
X168727380Y-71453333D01*
X168727380Y-70834285D01*
X167727380Y-70215238D02*
X167727380Y-70120000D01*
X167775000Y-70024761D01*
X167822619Y-69977142D01*
X167917857Y-69929523D01*
X168108333Y-69881904D01*
X168346428Y-69881904D01*
X168536904Y-69929523D01*
X168632142Y-69977142D01*
X168679761Y-70024761D01*
X168727380Y-70120000D01*
X168727380Y-70215238D01*
X168679761Y-70310476D01*
X168632142Y-70358095D01*
X168536904Y-70405714D01*
X168346428Y-70453333D01*
X168108333Y-70453333D01*
X167917857Y-70405714D01*
X167822619Y-70358095D01*
X167775000Y-70310476D01*
X167727380Y-70215238D01*
X171316666Y-68397380D02*
X171050000Y-67921190D01*
X170859523Y-68397380D02*
X170859523Y-67397380D01*
X171164285Y-67397380D01*
X171240476Y-67445000D01*
X171278571Y-67492619D01*
X171316666Y-67587857D01*
X171316666Y-67730714D01*
X171278571Y-67825952D01*
X171240476Y-67873571D01*
X171164285Y-67921190D01*
X170859523Y-67921190D01*
X171697619Y-68397380D02*
X171850000Y-68397380D01*
X171926190Y-68349761D01*
X171964285Y-68302142D01*
X172040476Y-68159285D01*
X172078571Y-67968809D01*
X172078571Y-67587857D01*
X172040476Y-67492619D01*
X172002380Y-67445000D01*
X171926190Y-67397380D01*
X171773809Y-67397380D01*
X171697619Y-67445000D01*
X171659523Y-67492619D01*
X171621428Y-67587857D01*
X171621428Y-67825952D01*
X171659523Y-67921190D01*
X171697619Y-67968809D01*
X171773809Y-68016428D01*
X171926190Y-68016428D01*
X172002380Y-67968809D01*
X172040476Y-67921190D01*
X172078571Y-67825952D01*
X170997619Y-72358095D02*
X170950000Y-72310476D01*
X170902380Y-72215238D01*
X170902380Y-71977142D01*
X170950000Y-71881904D01*
X170997619Y-71834285D01*
X171092857Y-71786666D01*
X171188095Y-71786666D01*
X171330952Y-71834285D01*
X171902380Y-72405714D01*
X171902380Y-71786666D01*
X170997619Y-71405714D02*
X170950000Y-71358095D01*
X170902380Y-71262857D01*
X170902380Y-71024761D01*
X170950000Y-70929523D01*
X170997619Y-70881904D01*
X171092857Y-70834285D01*
X171188095Y-70834285D01*
X171330952Y-70881904D01*
X171902380Y-71453333D01*
X171902380Y-70834285D01*
X170902380Y-70215238D02*
X170902380Y-70120000D01*
X170950000Y-70024761D01*
X170997619Y-69977142D01*
X171092857Y-69929523D01*
X171283333Y-69881904D01*
X171521428Y-69881904D01*
X171711904Y-69929523D01*
X171807142Y-69977142D01*
X171854761Y-70024761D01*
X171902380Y-70120000D01*
X171902380Y-70215238D01*
X171854761Y-70310476D01*
X171807142Y-70358095D01*
X171711904Y-70405714D01*
X171521428Y-70453333D01*
X171283333Y-70453333D01*
X171092857Y-70405714D01*
X170997619Y-70358095D01*
X170950000Y-70310476D01*
X170902380Y-70215238D01*
X174110714Y-68397380D02*
X173844047Y-67921190D01*
X173653571Y-68397380D02*
X173653571Y-67397380D01*
X173958333Y-67397380D01*
X174034523Y-67445000D01*
X174072619Y-67492619D01*
X174110714Y-67587857D01*
X174110714Y-67730714D01*
X174072619Y-67825952D01*
X174034523Y-67873571D01*
X173958333Y-67921190D01*
X173653571Y-67921190D01*
X174872619Y-68397380D02*
X174415476Y-68397380D01*
X174644047Y-68397380D02*
X174644047Y-67397380D01*
X174567857Y-67540238D01*
X174491666Y-67635476D01*
X174415476Y-67683095D01*
X175367857Y-67397380D02*
X175444047Y-67397380D01*
X175520238Y-67445000D01*
X175558333Y-67492619D01*
X175596428Y-67587857D01*
X175634523Y-67778333D01*
X175634523Y-68016428D01*
X175596428Y-68206904D01*
X175558333Y-68302142D01*
X175520238Y-68349761D01*
X175444047Y-68397380D01*
X175367857Y-68397380D01*
X175291666Y-68349761D01*
X175253571Y-68302142D01*
X175215476Y-68206904D01*
X175177380Y-68016428D01*
X175177380Y-67778333D01*
X175215476Y-67587857D01*
X175253571Y-67492619D01*
X175291666Y-67445000D01*
X175367857Y-67397380D01*
X174172619Y-72358095D02*
X174125000Y-72310476D01*
X174077380Y-72215238D01*
X174077380Y-71977142D01*
X174125000Y-71881904D01*
X174172619Y-71834285D01*
X174267857Y-71786666D01*
X174363095Y-71786666D01*
X174505952Y-71834285D01*
X175077380Y-72405714D01*
X175077380Y-71786666D01*
X174172619Y-71405714D02*
X174125000Y-71358095D01*
X174077380Y-71262857D01*
X174077380Y-71024761D01*
X174125000Y-70929523D01*
X174172619Y-70881904D01*
X174267857Y-70834285D01*
X174363095Y-70834285D01*
X174505952Y-70881904D01*
X175077380Y-71453333D01*
X175077380Y-70834285D01*
X174077380Y-70215238D02*
X174077380Y-70120000D01*
X174125000Y-70024761D01*
X174172619Y-69977142D01*
X174267857Y-69929523D01*
X174458333Y-69881904D01*
X174696428Y-69881904D01*
X174886904Y-69929523D01*
X174982142Y-69977142D01*
X175029761Y-70024761D01*
X175077380Y-70120000D01*
X175077380Y-70215238D01*
X175029761Y-70310476D01*
X174982142Y-70358095D01*
X174886904Y-70405714D01*
X174696428Y-70453333D01*
X174458333Y-70453333D01*
X174267857Y-70405714D01*
X174172619Y-70358095D01*
X174125000Y-70310476D01*
X174077380Y-70215238D01*
X177285714Y-68397380D02*
X177019047Y-67921190D01*
X176828571Y-68397380D02*
X176828571Y-67397380D01*
X177133333Y-67397380D01*
X177209523Y-67445000D01*
X177247619Y-67492619D01*
X177285714Y-67587857D01*
X177285714Y-67730714D01*
X177247619Y-67825952D01*
X177209523Y-67873571D01*
X177133333Y-67921190D01*
X176828571Y-67921190D01*
X178047619Y-68397380D02*
X177590476Y-68397380D01*
X177819047Y-68397380D02*
X177819047Y-67397380D01*
X177742857Y-67540238D01*
X177666666Y-67635476D01*
X177590476Y-67683095D01*
X178809523Y-68397380D02*
X178352380Y-68397380D01*
X178580952Y-68397380D02*
X178580952Y-67397380D01*
X178504761Y-67540238D01*
X178428571Y-67635476D01*
X178352380Y-67683095D01*
X177347619Y-72358095D02*
X177300000Y-72310476D01*
X177252380Y-72215238D01*
X177252380Y-71977142D01*
X177300000Y-71881904D01*
X177347619Y-71834285D01*
X177442857Y-71786666D01*
X177538095Y-71786666D01*
X177680952Y-71834285D01*
X178252380Y-72405714D01*
X178252380Y-71786666D01*
X177347619Y-71405714D02*
X177300000Y-71358095D01*
X177252380Y-71262857D01*
X177252380Y-71024761D01*
X177300000Y-70929523D01*
X177347619Y-70881904D01*
X177442857Y-70834285D01*
X177538095Y-70834285D01*
X177680952Y-70881904D01*
X178252380Y-71453333D01*
X178252380Y-70834285D01*
X177252380Y-70215238D02*
X177252380Y-70120000D01*
X177300000Y-70024761D01*
X177347619Y-69977142D01*
X177442857Y-69929523D01*
X177633333Y-69881904D01*
X177871428Y-69881904D01*
X178061904Y-69929523D01*
X178157142Y-69977142D01*
X178204761Y-70024761D01*
X178252380Y-70120000D01*
X178252380Y-70215238D01*
X178204761Y-70310476D01*
X178157142Y-70358095D01*
X178061904Y-70405714D01*
X177871428Y-70453333D01*
X177633333Y-70453333D01*
X177442857Y-70405714D01*
X177347619Y-70358095D01*
X177300000Y-70310476D01*
X177252380Y-70215238D01*
X180460714Y-68397380D02*
X180194047Y-67921190D01*
X180003571Y-68397380D02*
X180003571Y-67397380D01*
X180308333Y-67397380D01*
X180384523Y-67445000D01*
X180422619Y-67492619D01*
X180460714Y-67587857D01*
X180460714Y-67730714D01*
X180422619Y-67825952D01*
X180384523Y-67873571D01*
X180308333Y-67921190D01*
X180003571Y-67921190D01*
X181222619Y-68397380D02*
X180765476Y-68397380D01*
X180994047Y-68397380D02*
X180994047Y-67397380D01*
X180917857Y-67540238D01*
X180841666Y-67635476D01*
X180765476Y-67683095D01*
X181527380Y-67492619D02*
X181565476Y-67445000D01*
X181641666Y-67397380D01*
X181832142Y-67397380D01*
X181908333Y-67445000D01*
X181946428Y-67492619D01*
X181984523Y-67587857D01*
X181984523Y-67683095D01*
X181946428Y-67825952D01*
X181489285Y-68397380D01*
X181984523Y-68397380D01*
X180522619Y-72358095D02*
X180475000Y-72310476D01*
X180427380Y-72215238D01*
X180427380Y-71977142D01*
X180475000Y-71881904D01*
X180522619Y-71834285D01*
X180617857Y-71786666D01*
X180713095Y-71786666D01*
X180855952Y-71834285D01*
X181427380Y-72405714D01*
X181427380Y-71786666D01*
X180522619Y-71405714D02*
X180475000Y-71358095D01*
X180427380Y-71262857D01*
X180427380Y-71024761D01*
X180475000Y-70929523D01*
X180522619Y-70881904D01*
X180617857Y-70834285D01*
X180713095Y-70834285D01*
X180855952Y-70881904D01*
X181427380Y-71453333D01*
X181427380Y-70834285D01*
X180427380Y-70215238D02*
X180427380Y-70120000D01*
X180475000Y-70024761D01*
X180522619Y-69977142D01*
X180617857Y-69929523D01*
X180808333Y-69881904D01*
X181046428Y-69881904D01*
X181236904Y-69929523D01*
X181332142Y-69977142D01*
X181379761Y-70024761D01*
X181427380Y-70120000D01*
X181427380Y-70215238D01*
X181379761Y-70310476D01*
X181332142Y-70358095D01*
X181236904Y-70405714D01*
X181046428Y-70453333D01*
X180808333Y-70453333D01*
X180617857Y-70405714D01*
X180522619Y-70358095D01*
X180475000Y-70310476D01*
X180427380Y-70215238D01*
X183635714Y-68397380D02*
X183369047Y-67921190D01*
X183178571Y-68397380D02*
X183178571Y-67397380D01*
X183483333Y-67397380D01*
X183559523Y-67445000D01*
X183597619Y-67492619D01*
X183635714Y-67587857D01*
X183635714Y-67730714D01*
X183597619Y-67825952D01*
X183559523Y-67873571D01*
X183483333Y-67921190D01*
X183178571Y-67921190D01*
X184397619Y-68397380D02*
X183940476Y-68397380D01*
X184169047Y-68397380D02*
X184169047Y-67397380D01*
X184092857Y-67540238D01*
X184016666Y-67635476D01*
X183940476Y-67683095D01*
X184664285Y-67397380D02*
X185159523Y-67397380D01*
X184892857Y-67778333D01*
X185007142Y-67778333D01*
X185083333Y-67825952D01*
X185121428Y-67873571D01*
X185159523Y-67968809D01*
X185159523Y-68206904D01*
X185121428Y-68302142D01*
X185083333Y-68349761D01*
X185007142Y-68397380D01*
X184778571Y-68397380D01*
X184702380Y-68349761D01*
X184664285Y-68302142D01*
X183697619Y-72358095D02*
X183650000Y-72310476D01*
X183602380Y-72215238D01*
X183602380Y-71977142D01*
X183650000Y-71881904D01*
X183697619Y-71834285D01*
X183792857Y-71786666D01*
X183888095Y-71786666D01*
X184030952Y-71834285D01*
X184602380Y-72405714D01*
X184602380Y-71786666D01*
X183697619Y-71405714D02*
X183650000Y-71358095D01*
X183602380Y-71262857D01*
X183602380Y-71024761D01*
X183650000Y-70929523D01*
X183697619Y-70881904D01*
X183792857Y-70834285D01*
X183888095Y-70834285D01*
X184030952Y-70881904D01*
X184602380Y-71453333D01*
X184602380Y-70834285D01*
X183602380Y-70215238D02*
X183602380Y-70120000D01*
X183650000Y-70024761D01*
X183697619Y-69977142D01*
X183792857Y-69929523D01*
X183983333Y-69881904D01*
X184221428Y-69881904D01*
X184411904Y-69929523D01*
X184507142Y-69977142D01*
X184554761Y-70024761D01*
X184602380Y-70120000D01*
X184602380Y-70215238D01*
X184554761Y-70310476D01*
X184507142Y-70358095D01*
X184411904Y-70405714D01*
X184221428Y-70453333D01*
X183983333Y-70453333D01*
X183792857Y-70405714D01*
X183697619Y-70358095D01*
X183650000Y-70310476D01*
X183602380Y-70215238D01*
X186810714Y-68397380D02*
X186544047Y-67921190D01*
X186353571Y-68397380D02*
X186353571Y-67397380D01*
X186658333Y-67397380D01*
X186734523Y-67445000D01*
X186772619Y-67492619D01*
X186810714Y-67587857D01*
X186810714Y-67730714D01*
X186772619Y-67825952D01*
X186734523Y-67873571D01*
X186658333Y-67921190D01*
X186353571Y-67921190D01*
X187572619Y-68397380D02*
X187115476Y-68397380D01*
X187344047Y-68397380D02*
X187344047Y-67397380D01*
X187267857Y-67540238D01*
X187191666Y-67635476D01*
X187115476Y-67683095D01*
X188258333Y-67730714D02*
X188258333Y-68397380D01*
X188067857Y-67349761D02*
X187877380Y-68064047D01*
X188372619Y-68064047D01*
X186872619Y-72358095D02*
X186825000Y-72310476D01*
X186777380Y-72215238D01*
X186777380Y-71977142D01*
X186825000Y-71881904D01*
X186872619Y-71834285D01*
X186967857Y-71786666D01*
X187063095Y-71786666D01*
X187205952Y-71834285D01*
X187777380Y-72405714D01*
X187777380Y-71786666D01*
X186872619Y-71405714D02*
X186825000Y-71358095D01*
X186777380Y-71262857D01*
X186777380Y-71024761D01*
X186825000Y-70929523D01*
X186872619Y-70881904D01*
X186967857Y-70834285D01*
X187063095Y-70834285D01*
X187205952Y-70881904D01*
X187777380Y-71453333D01*
X187777380Y-70834285D01*
X186777380Y-70215238D02*
X186777380Y-70120000D01*
X186825000Y-70024761D01*
X186872619Y-69977142D01*
X186967857Y-69929523D01*
X187158333Y-69881904D01*
X187396428Y-69881904D01*
X187586904Y-69929523D01*
X187682142Y-69977142D01*
X187729761Y-70024761D01*
X187777380Y-70120000D01*
X187777380Y-70215238D01*
X187729761Y-70310476D01*
X187682142Y-70358095D01*
X187586904Y-70405714D01*
X187396428Y-70453333D01*
X187158333Y-70453333D01*
X186967857Y-70405714D01*
X186872619Y-70358095D01*
X186825000Y-70310476D01*
X186777380Y-70215238D01*
X189985714Y-68397380D02*
X189719047Y-67921190D01*
X189528571Y-68397380D02*
X189528571Y-67397380D01*
X189833333Y-67397380D01*
X189909523Y-67445000D01*
X189947619Y-67492619D01*
X189985714Y-67587857D01*
X189985714Y-67730714D01*
X189947619Y-67825952D01*
X189909523Y-67873571D01*
X189833333Y-67921190D01*
X189528571Y-67921190D01*
X190747619Y-68397380D02*
X190290476Y-68397380D01*
X190519047Y-68397380D02*
X190519047Y-67397380D01*
X190442857Y-67540238D01*
X190366666Y-67635476D01*
X190290476Y-67683095D01*
X191471428Y-67397380D02*
X191090476Y-67397380D01*
X191052380Y-67873571D01*
X191090476Y-67825952D01*
X191166666Y-67778333D01*
X191357142Y-67778333D01*
X191433333Y-67825952D01*
X191471428Y-67873571D01*
X191509523Y-67968809D01*
X191509523Y-68206904D01*
X191471428Y-68302142D01*
X191433333Y-68349761D01*
X191357142Y-68397380D01*
X191166666Y-68397380D01*
X191090476Y-68349761D01*
X191052380Y-68302142D01*
X190047619Y-72358095D02*
X190000000Y-72310476D01*
X189952380Y-72215238D01*
X189952380Y-71977142D01*
X190000000Y-71881904D01*
X190047619Y-71834285D01*
X190142857Y-71786666D01*
X190238095Y-71786666D01*
X190380952Y-71834285D01*
X190952380Y-72405714D01*
X190952380Y-71786666D01*
X190047619Y-71405714D02*
X190000000Y-71358095D01*
X189952380Y-71262857D01*
X189952380Y-71024761D01*
X190000000Y-70929523D01*
X190047619Y-70881904D01*
X190142857Y-70834285D01*
X190238095Y-70834285D01*
X190380952Y-70881904D01*
X190952380Y-71453333D01*
X190952380Y-70834285D01*
X189952380Y-70215238D02*
X189952380Y-70120000D01*
X190000000Y-70024761D01*
X190047619Y-69977142D01*
X190142857Y-69929523D01*
X190333333Y-69881904D01*
X190571428Y-69881904D01*
X190761904Y-69929523D01*
X190857142Y-69977142D01*
X190904761Y-70024761D01*
X190952380Y-70120000D01*
X190952380Y-70215238D01*
X190904761Y-70310476D01*
X190857142Y-70358095D01*
X190761904Y-70405714D01*
X190571428Y-70453333D01*
X190333333Y-70453333D01*
X190142857Y-70405714D01*
X190047619Y-70358095D01*
X190000000Y-70310476D01*
X189952380Y-70215238D01*
X142748095Y-69302380D02*
X142748095Y-70111904D01*
X142795714Y-70207142D01*
X142843333Y-70254761D01*
X142938571Y-70302380D01*
X143129047Y-70302380D01*
X143224285Y-70254761D01*
X143271904Y-70207142D01*
X143319523Y-70111904D01*
X143319523Y-69302380D01*
X143700476Y-69302380D02*
X144319523Y-69302380D01*
X143986190Y-69683333D01*
X144129047Y-69683333D01*
X144224285Y-69730952D01*
X144271904Y-69778571D01*
X144319523Y-69873809D01*
X144319523Y-70111904D01*
X144271904Y-70207142D01*
X144224285Y-70254761D01*
X144129047Y-70302380D01*
X143843333Y-70302380D01*
X143748095Y-70254761D01*
X143700476Y-70207142D01*
X149280952Y-69302380D02*
X149947619Y-69302380D01*
X149519047Y-70302380D01*
X150757142Y-69635714D02*
X150757142Y-70302380D01*
X150519047Y-69254761D02*
X150280952Y-69969047D01*
X150900000Y-69969047D01*
X151757142Y-70302380D02*
X151280952Y-70302380D01*
X151280952Y-69302380D01*
X152042857Y-70254761D02*
X152185714Y-70302380D01*
X152423809Y-70302380D01*
X152519047Y-70254761D01*
X152566666Y-70207142D01*
X152614285Y-70111904D01*
X152614285Y-70016666D01*
X152566666Y-69921428D01*
X152519047Y-69873809D01*
X152423809Y-69826190D01*
X152233333Y-69778571D01*
X152138095Y-69730952D01*
X152090476Y-69683333D01*
X152042857Y-69588095D01*
X152042857Y-69492857D01*
X152090476Y-69397619D01*
X152138095Y-69350000D01*
X152233333Y-69302380D01*
X152471428Y-69302380D01*
X152614285Y-69350000D01*
X152995238Y-69397619D02*
X153042857Y-69350000D01*
X153138095Y-69302380D01*
X153376190Y-69302380D01*
X153471428Y-69350000D01*
X153519047Y-69397619D01*
X153566666Y-69492857D01*
X153566666Y-69588095D01*
X153519047Y-69730952D01*
X152947619Y-70302380D01*
X153566666Y-70302380D01*
X154423809Y-69635714D02*
X154423809Y-70302380D01*
X154185714Y-69254761D02*
X153947619Y-69969047D01*
X154566666Y-69969047D01*
X155138095Y-69302380D02*
X155233333Y-69302380D01*
X155328571Y-69350000D01*
X155376190Y-69397619D01*
X155423809Y-69492857D01*
X155471428Y-69683333D01*
X155471428Y-69921428D01*
X155423809Y-70111904D01*
X155376190Y-70207142D01*
X155328571Y-70254761D01*
X155233333Y-70302380D01*
X155138095Y-70302380D01*
X155042857Y-70254761D01*
X154995238Y-70207142D01*
X154947619Y-70111904D01*
X154900000Y-69921428D01*
X154900000Y-69683333D01*
X154947619Y-69492857D01*
X154995238Y-69397619D01*
X155042857Y-69350000D01*
X155138095Y-69302380D01*
X176998333Y-80367142D02*
X176950714Y-80414761D01*
X176807857Y-80462380D01*
X176712619Y-80462380D01*
X176569761Y-80414761D01*
X176474523Y-80319523D01*
X176426904Y-80224285D01*
X176379285Y-80033809D01*
X176379285Y-79890952D01*
X176426904Y-79700476D01*
X176474523Y-79605238D01*
X176569761Y-79510000D01*
X176712619Y-79462380D01*
X176807857Y-79462380D01*
X176950714Y-79510000D01*
X176998333Y-79557619D01*
X177855476Y-79462380D02*
X177665000Y-79462380D01*
X177569761Y-79510000D01*
X177522142Y-79557619D01*
X177426904Y-79700476D01*
X177379285Y-79890952D01*
X177379285Y-80271904D01*
X177426904Y-80367142D01*
X177474523Y-80414761D01*
X177569761Y-80462380D01*
X177760238Y-80462380D01*
X177855476Y-80414761D01*
X177903095Y-80367142D01*
X177950714Y-80271904D01*
X177950714Y-80033809D01*
X177903095Y-79938571D01*
X177855476Y-79890952D01*
X177760238Y-79843333D01*
X177569761Y-79843333D01*
X177474523Y-79890952D01*
X177426904Y-79938571D01*
X177379285Y-80033809D01*
X147828095Y-85812380D02*
X147828095Y-86621904D01*
X147875714Y-86717142D01*
X147923333Y-86764761D01*
X148018571Y-86812380D01*
X148209047Y-86812380D01*
X148304285Y-86764761D01*
X148351904Y-86717142D01*
X148399523Y-86621904D01*
X148399523Y-85812380D01*
X149351904Y-85812380D02*
X148875714Y-85812380D01*
X148828095Y-86288571D01*
X148875714Y-86240952D01*
X148970952Y-86193333D01*
X149209047Y-86193333D01*
X149304285Y-86240952D01*
X149351904Y-86288571D01*
X149399523Y-86383809D01*
X149399523Y-86621904D01*
X149351904Y-86717142D01*
X149304285Y-86764761D01*
X149209047Y-86812380D01*
X148970952Y-86812380D01*
X148875714Y-86764761D01*
X148828095Y-86717142D01*
X171323095Y-85812380D02*
X171323095Y-86621904D01*
X171370714Y-86717142D01*
X171418333Y-86764761D01*
X171513571Y-86812380D01*
X171704047Y-86812380D01*
X171799285Y-86764761D01*
X171846904Y-86717142D01*
X171894523Y-86621904D01*
X171894523Y-85812380D01*
X172799285Y-85812380D02*
X172608809Y-85812380D01*
X172513571Y-85860000D01*
X172465952Y-85907619D01*
X172370714Y-86050476D01*
X172323095Y-86240952D01*
X172323095Y-86621904D01*
X172370714Y-86717142D01*
X172418333Y-86764761D01*
X172513571Y-86812380D01*
X172704047Y-86812380D01*
X172799285Y-86764761D01*
X172846904Y-86717142D01*
X172894523Y-86621904D01*
X172894523Y-86383809D01*
X172846904Y-86288571D01*
X172799285Y-86240952D01*
X172704047Y-86193333D01*
X172513571Y-86193333D01*
X172418333Y-86240952D01*
X172370714Y-86288571D01*
X172323095Y-86383809D01*
X154201904Y-125547380D02*
X154201904Y-124547380D01*
X154440000Y-124547380D01*
X154582857Y-124595000D01*
X154678095Y-124690238D01*
X154725714Y-124785476D01*
X154773333Y-124975952D01*
X154773333Y-125118809D01*
X154725714Y-125309285D01*
X154678095Y-125404523D01*
X154582857Y-125499761D01*
X154440000Y-125547380D01*
X154201904Y-125547380D01*
X155249523Y-125547380D02*
X155440000Y-125547380D01*
X155535238Y-125499761D01*
X155582857Y-125452142D01*
X155678095Y-125309285D01*
X155725714Y-125118809D01*
X155725714Y-124737857D01*
X155678095Y-124642619D01*
X155630476Y-124595000D01*
X155535238Y-124547380D01*
X155344761Y-124547380D01*
X155249523Y-124595000D01*
X155201904Y-124642619D01*
X155154285Y-124737857D01*
X155154285Y-124975952D01*
X155201904Y-125071190D01*
X155249523Y-125118809D01*
X155344761Y-125166428D01*
X155535238Y-125166428D01*
X155630476Y-125118809D01*
X155678095Y-125071190D01*
X155725714Y-124975952D01*
X149522380Y-121483333D02*
X150236666Y-121483333D01*
X150379523Y-121530952D01*
X150474761Y-121626190D01*
X150522380Y-121769047D01*
X150522380Y-121864285D01*
X150522380Y-121007142D02*
X149522380Y-121007142D01*
X149522380Y-120626190D01*
X149570000Y-120530952D01*
X149617619Y-120483333D01*
X149712857Y-120435714D01*
X149855714Y-120435714D01*
X149950952Y-120483333D01*
X149998571Y-120530952D01*
X150046190Y-120626190D01*
X150046190Y-121007142D01*
X150522380Y-119483333D02*
X150522380Y-120054761D01*
X150522380Y-119769047D02*
X149522380Y-119769047D01*
X149665238Y-119864285D01*
X149760476Y-119959523D01*
X149808095Y-120054761D01*
X138727380Y-121483333D02*
X139441666Y-121483333D01*
X139584523Y-121530952D01*
X139679761Y-121626190D01*
X139727380Y-121769047D01*
X139727380Y-121864285D01*
X139727380Y-121007142D02*
X138727380Y-121007142D01*
X138727380Y-120626190D01*
X138775000Y-120530952D01*
X138822619Y-120483333D01*
X138917857Y-120435714D01*
X139060714Y-120435714D01*
X139155952Y-120483333D01*
X139203571Y-120530952D01*
X139251190Y-120626190D01*
X139251190Y-121007142D01*
X138727380Y-120102380D02*
X138727380Y-119435714D01*
X139727380Y-119864285D01*
X138727380Y-125928333D02*
X139441666Y-125928333D01*
X139584523Y-125975952D01*
X139679761Y-126071190D01*
X139727380Y-126214047D01*
X139727380Y-126309285D01*
X139727380Y-125452142D02*
X138727380Y-125452142D01*
X138727380Y-125071190D01*
X138775000Y-124975952D01*
X138822619Y-124928333D01*
X138917857Y-124880714D01*
X139060714Y-124880714D01*
X139155952Y-124928333D01*
X139203571Y-124975952D01*
X139251190Y-125071190D01*
X139251190Y-125452142D01*
X139155952Y-124309285D02*
X139108333Y-124404523D01*
X139060714Y-124452142D01*
X138965476Y-124499761D01*
X138917857Y-124499761D01*
X138822619Y-124452142D01*
X138775000Y-124404523D01*
X138727380Y-124309285D01*
X138727380Y-124118809D01*
X138775000Y-124023571D01*
X138822619Y-123975952D01*
X138917857Y-123928333D01*
X138965476Y-123928333D01*
X139060714Y-123975952D01*
X139108333Y-124023571D01*
X139155952Y-124118809D01*
X139155952Y-124309285D01*
X139203571Y-124404523D01*
X139251190Y-124452142D01*
X139346428Y-124499761D01*
X139536904Y-124499761D01*
X139632142Y-124452142D01*
X139679761Y-124404523D01*
X139727380Y-124309285D01*
X139727380Y-124118809D01*
X139679761Y-124023571D01*
X139632142Y-123975952D01*
X139536904Y-123928333D01*
X139346428Y-123928333D01*
X139251190Y-123975952D01*
X139203571Y-124023571D01*
X139155952Y-124118809D01*
X186991666Y-46442380D02*
X186991666Y-47156666D01*
X186944047Y-47299523D01*
X186848809Y-47394761D01*
X186705952Y-47442380D01*
X186610714Y-47442380D01*
X187515476Y-47442380D02*
X187705952Y-47442380D01*
X187801190Y-47394761D01*
X187848809Y-47347142D01*
X187944047Y-47204285D01*
X187991666Y-47013809D01*
X187991666Y-46632857D01*
X187944047Y-46537619D01*
X187896428Y-46490000D01*
X187801190Y-46442380D01*
X187610714Y-46442380D01*
X187515476Y-46490000D01*
X187467857Y-46537619D01*
X187420238Y-46632857D01*
X187420238Y-46870952D01*
X187467857Y-46966190D01*
X187515476Y-47013809D01*
X187610714Y-47061428D01*
X187801190Y-47061428D01*
X187896428Y-47013809D01*
X187944047Y-46966190D01*
X187991666Y-46870952D01*
M02*
