G04 #@! TF.FileFunction,Legend,Top*
%FSLAX46Y46*%
G04 Gerber Fmt 4.6, Leading zero omitted, Abs format (unit mm)*
G04 Created by KiCad (PCBNEW 4.0.7) date 09/10/18 19:12:51*
%MOMM*%
%LPD*%
G01*
G04 APERTURE LIST*
%ADD10C,0.100000*%
%ADD11C,0.300000*%
%ADD12C,0.200000*%
%ADD13C,0.120000*%
%ADD14C,0.150000*%
G04 APERTURE END LIST*
D10*
D11*
X167656429Y-120622143D02*
X167870715Y-120693571D01*
X168227858Y-120693571D01*
X168370715Y-120622143D01*
X168442144Y-120550714D01*
X168513572Y-120407857D01*
X168513572Y-120265000D01*
X168442144Y-120122143D01*
X168370715Y-120050714D01*
X168227858Y-119979286D01*
X167942144Y-119907857D01*
X167799286Y-119836429D01*
X167727858Y-119765000D01*
X167656429Y-119622143D01*
X167656429Y-119479286D01*
X167727858Y-119336429D01*
X167799286Y-119265000D01*
X167942144Y-119193571D01*
X168299286Y-119193571D01*
X168513572Y-119265000D01*
X169870715Y-120693571D02*
X169156429Y-120693571D01*
X169156429Y-119193571D01*
X170656429Y-119193571D02*
X170942143Y-119193571D01*
X171085001Y-119265000D01*
X171227858Y-119407857D01*
X171299286Y-119693571D01*
X171299286Y-120193571D01*
X171227858Y-120479286D01*
X171085001Y-120622143D01*
X170942143Y-120693571D01*
X170656429Y-120693571D01*
X170513572Y-120622143D01*
X170370715Y-120479286D01*
X170299286Y-120193571D01*
X170299286Y-119693571D01*
X170370715Y-119407857D01*
X170513572Y-119265000D01*
X170656429Y-119193571D01*
X171727858Y-119193571D02*
X172585001Y-119193571D01*
X172156430Y-120693571D02*
X172156430Y-119193571D01*
X174156429Y-119693571D02*
X175227858Y-119693571D01*
X174585001Y-119050714D02*
X174156429Y-120979286D01*
X175085001Y-120336429D02*
X174013572Y-120336429D01*
X174656429Y-120979286D02*
X175085001Y-119050714D01*
X175656429Y-119336429D02*
X175727858Y-119265000D01*
X175870715Y-119193571D01*
X176227858Y-119193571D01*
X176370715Y-119265000D01*
X176442144Y-119336429D01*
X176513572Y-119479286D01*
X176513572Y-119622143D01*
X176442144Y-119836429D01*
X175585001Y-120693571D01*
X176513572Y-120693571D01*
X143526429Y-120622143D02*
X143740715Y-120693571D01*
X144097858Y-120693571D01*
X144240715Y-120622143D01*
X144312144Y-120550714D01*
X144383572Y-120407857D01*
X144383572Y-120265000D01*
X144312144Y-120122143D01*
X144240715Y-120050714D01*
X144097858Y-119979286D01*
X143812144Y-119907857D01*
X143669286Y-119836429D01*
X143597858Y-119765000D01*
X143526429Y-119622143D01*
X143526429Y-119479286D01*
X143597858Y-119336429D01*
X143669286Y-119265000D01*
X143812144Y-119193571D01*
X144169286Y-119193571D01*
X144383572Y-119265000D01*
X145740715Y-120693571D02*
X145026429Y-120693571D01*
X145026429Y-119193571D01*
X146526429Y-119193571D02*
X146812143Y-119193571D01*
X146955001Y-119265000D01*
X147097858Y-119407857D01*
X147169286Y-119693571D01*
X147169286Y-120193571D01*
X147097858Y-120479286D01*
X146955001Y-120622143D01*
X146812143Y-120693571D01*
X146526429Y-120693571D01*
X146383572Y-120622143D01*
X146240715Y-120479286D01*
X146169286Y-120193571D01*
X146169286Y-119693571D01*
X146240715Y-119407857D01*
X146383572Y-119265000D01*
X146526429Y-119193571D01*
X147597858Y-119193571D02*
X148455001Y-119193571D01*
X148026430Y-120693571D02*
X148026430Y-119193571D01*
X150026429Y-119693571D02*
X151097858Y-119693571D01*
X150455001Y-119050714D02*
X150026429Y-120979286D01*
X150955001Y-120336429D02*
X149883572Y-120336429D01*
X150526429Y-120979286D02*
X150955001Y-119050714D01*
X152383572Y-120693571D02*
X151526429Y-120693571D01*
X151955001Y-120693571D02*
X151955001Y-119193571D01*
X151812144Y-119407857D01*
X151669286Y-119550714D01*
X151526429Y-119622143D01*
D12*
X174244000Y-139700000D02*
X178308000Y-139700000D01*
X174244000Y-129540000D02*
X170180000Y-129540000D01*
D11*
X180685429Y-136838571D02*
X181756858Y-136838571D01*
X181114001Y-136195714D02*
X180685429Y-138124286D01*
X181614001Y-137481429D02*
X180542572Y-137481429D01*
X181185429Y-138124286D02*
X181614001Y-136195714D01*
X182185429Y-136481429D02*
X182256858Y-136410000D01*
X182399715Y-136338571D01*
X182756858Y-136338571D01*
X182899715Y-136410000D01*
X182971144Y-136481429D01*
X183042572Y-136624286D01*
X183042572Y-136767143D01*
X182971144Y-136981429D01*
X182114001Y-137838571D01*
X183042572Y-137838571D01*
X180939429Y-131758571D02*
X182010858Y-131758571D01*
X181368001Y-131115714D02*
X180939429Y-133044286D01*
X181868001Y-132401429D02*
X180796572Y-132401429D01*
X181439429Y-133044286D02*
X181868001Y-131115714D01*
X183296572Y-132758571D02*
X182439429Y-132758571D01*
X182868001Y-132758571D02*
X182868001Y-131258571D01*
X182725144Y-131472857D01*
X182582286Y-131615714D01*
X182439429Y-131687143D01*
D12*
X179578000Y-130302000D02*
X179578000Y-135890000D01*
X179070000Y-139192000D02*
X179070000Y-133350000D01*
X174244000Y-138684000D02*
X174244000Y-130556000D01*
X170180000Y-139065000D02*
X170180000Y-130175000D01*
X178435000Y-139065000D02*
X170180000Y-139065000D01*
X178435000Y-130175000D02*
X178435000Y-139065000D01*
X170180000Y-130175000D02*
X178435000Y-130175000D01*
D11*
X174208571Y-141643571D02*
X174208571Y-140143571D01*
X174208571Y-140857857D02*
X175065714Y-140857857D01*
X175065714Y-141643571D02*
X175065714Y-140143571D01*
X175780000Y-141643571D02*
X175780000Y-140143571D01*
X177280000Y-140215000D02*
X177137143Y-140143571D01*
X176922857Y-140143571D01*
X176708572Y-140215000D01*
X176565714Y-140357857D01*
X176494286Y-140500714D01*
X176422857Y-140786429D01*
X176422857Y-141000714D01*
X176494286Y-141286429D01*
X176565714Y-141429286D01*
X176708572Y-141572143D01*
X176922857Y-141643571D01*
X177065714Y-141643571D01*
X177280000Y-141572143D01*
X177351429Y-141500714D01*
X177351429Y-141000714D01*
X177065714Y-141000714D01*
X177994286Y-141643571D02*
X177994286Y-140143571D01*
X177994286Y-140857857D02*
X178851429Y-140857857D01*
X178851429Y-141643571D02*
X178851429Y-140143571D01*
X174494286Y-144193571D02*
X174494286Y-142693571D01*
X174994286Y-143765000D01*
X175494286Y-142693571D01*
X175494286Y-144193571D01*
X176208572Y-143407857D02*
X176708572Y-143407857D01*
X176922858Y-144193571D02*
X176208572Y-144193571D01*
X176208572Y-142693571D01*
X176922858Y-142693571D01*
X177565715Y-144193571D02*
X177565715Y-142693571D01*
X178065715Y-143765000D01*
X178565715Y-142693571D01*
X178565715Y-144193571D01*
X170906429Y-126403571D02*
X170192143Y-126403571D01*
X170192143Y-124903571D01*
X171692143Y-124903571D02*
X171977857Y-124903571D01*
X172120715Y-124975000D01*
X172263572Y-125117857D01*
X172335000Y-125403571D01*
X172335000Y-125903571D01*
X172263572Y-126189286D01*
X172120715Y-126332143D01*
X171977857Y-126403571D01*
X171692143Y-126403571D01*
X171549286Y-126332143D01*
X171406429Y-126189286D01*
X171335000Y-125903571D01*
X171335000Y-125403571D01*
X171406429Y-125117857D01*
X171549286Y-124975000D01*
X171692143Y-124903571D01*
X172835001Y-124903571D02*
X173192144Y-126403571D01*
X173477858Y-125332143D01*
X173763572Y-126403571D01*
X174120715Y-124903571D01*
X170049286Y-128953571D02*
X170049286Y-127453571D01*
X170549286Y-128525000D01*
X171049286Y-127453571D01*
X171049286Y-128953571D01*
X171763572Y-128167857D02*
X172263572Y-128167857D01*
X172477858Y-128953571D02*
X171763572Y-128953571D01*
X171763572Y-127453571D01*
X172477858Y-127453571D01*
X173120715Y-128953571D02*
X173120715Y-127453571D01*
X173620715Y-128525000D01*
X174120715Y-127453571D01*
X174120715Y-128953571D01*
X175907143Y-58458571D02*
X175907143Y-56958571D01*
X176264286Y-56958571D01*
X176478571Y-57030000D01*
X176621429Y-57172857D01*
X176692857Y-57315714D01*
X176764286Y-57601429D01*
X176764286Y-57815714D01*
X176692857Y-58101429D01*
X176621429Y-58244286D01*
X176478571Y-58387143D01*
X176264286Y-58458571D01*
X175907143Y-58458571D01*
X177407143Y-58458571D02*
X177407143Y-56958571D01*
X177907143Y-58030000D01*
X178407143Y-56958571D01*
X178407143Y-58458571D01*
X179050000Y-58030000D02*
X179764286Y-58030000D01*
X178907143Y-58458571D02*
X179407143Y-56958571D01*
X179907143Y-58458571D01*
X176300000Y-59508571D02*
X176585714Y-59508571D01*
X176728572Y-59580000D01*
X176871429Y-59722857D01*
X176942857Y-60008571D01*
X176942857Y-60508571D01*
X176871429Y-60794286D01*
X176728572Y-60937143D01*
X176585714Y-61008571D01*
X176300000Y-61008571D01*
X176157143Y-60937143D01*
X176014286Y-60794286D01*
X175942857Y-60508571D01*
X175942857Y-60008571D01*
X176014286Y-59722857D01*
X176157143Y-59580000D01*
X176300000Y-59508571D01*
X177585715Y-59508571D02*
X177585715Y-60722857D01*
X177657143Y-60865714D01*
X177728572Y-60937143D01*
X177871429Y-61008571D01*
X178157143Y-61008571D01*
X178300001Y-60937143D01*
X178371429Y-60865714D01*
X178442858Y-60722857D01*
X178442858Y-59508571D01*
X178942858Y-59508571D02*
X179800001Y-59508571D01*
X179371430Y-61008571D02*
X179371430Y-59508571D01*
X168287143Y-58458571D02*
X168287143Y-56958571D01*
X168644286Y-56958571D01*
X168858571Y-57030000D01*
X169001429Y-57172857D01*
X169072857Y-57315714D01*
X169144286Y-57601429D01*
X169144286Y-57815714D01*
X169072857Y-58101429D01*
X169001429Y-58244286D01*
X168858571Y-58387143D01*
X168644286Y-58458571D01*
X168287143Y-58458571D01*
X169787143Y-58458571D02*
X169787143Y-56958571D01*
X170287143Y-58030000D01*
X170787143Y-56958571D01*
X170787143Y-58458571D01*
X171430000Y-58030000D02*
X172144286Y-58030000D01*
X171287143Y-58458571D02*
X171787143Y-56958571D01*
X172287143Y-58458571D01*
X169394286Y-61008571D02*
X169394286Y-59508571D01*
X170108572Y-61008571D02*
X170108572Y-59508571D01*
X170965715Y-61008571D01*
X170965715Y-59508571D01*
X161202857Y-59733571D02*
X161202857Y-58233571D01*
X161917143Y-59733571D02*
X161917143Y-58233571D01*
X162774286Y-59733571D01*
X162774286Y-58233571D01*
X163274286Y-58233571D02*
X164131429Y-58233571D01*
X163702858Y-59733571D02*
X163702858Y-58233571D01*
X153047143Y-59662143D02*
X153261429Y-59733571D01*
X153618572Y-59733571D01*
X153761429Y-59662143D01*
X153832858Y-59590714D01*
X153904286Y-59447857D01*
X153904286Y-59305000D01*
X153832858Y-59162143D01*
X153761429Y-59090714D01*
X153618572Y-59019286D01*
X153332858Y-58947857D01*
X153190000Y-58876429D01*
X153118572Y-58805000D01*
X153047143Y-58662143D01*
X153047143Y-58519286D01*
X153118572Y-58376429D01*
X153190000Y-58305000D01*
X153332858Y-58233571D01*
X153690000Y-58233571D01*
X153904286Y-58305000D01*
X155404286Y-59590714D02*
X155332857Y-59662143D01*
X155118571Y-59733571D01*
X154975714Y-59733571D01*
X154761429Y-59662143D01*
X154618571Y-59519286D01*
X154547143Y-59376429D01*
X154475714Y-59090714D01*
X154475714Y-58876429D01*
X154547143Y-58590714D01*
X154618571Y-58447857D01*
X154761429Y-58305000D01*
X154975714Y-58233571D01*
X155118571Y-58233571D01*
X155332857Y-58305000D01*
X155404286Y-58376429D01*
X156832857Y-59733571D02*
X155975714Y-59733571D01*
X156404286Y-59733571D02*
X156404286Y-58233571D01*
X156261429Y-58447857D01*
X156118571Y-58590714D01*
X155975714Y-58662143D01*
X142887143Y-59662143D02*
X143101429Y-59733571D01*
X143458572Y-59733571D01*
X143601429Y-59662143D01*
X143672858Y-59590714D01*
X143744286Y-59447857D01*
X143744286Y-59305000D01*
X143672858Y-59162143D01*
X143601429Y-59090714D01*
X143458572Y-59019286D01*
X143172858Y-58947857D01*
X143030000Y-58876429D01*
X142958572Y-58805000D01*
X142887143Y-58662143D01*
X142887143Y-58519286D01*
X142958572Y-58376429D01*
X143030000Y-58305000D01*
X143172858Y-58233571D01*
X143530000Y-58233571D01*
X143744286Y-58305000D01*
X145244286Y-59590714D02*
X145172857Y-59662143D01*
X144958571Y-59733571D01*
X144815714Y-59733571D01*
X144601429Y-59662143D01*
X144458571Y-59519286D01*
X144387143Y-59376429D01*
X144315714Y-59090714D01*
X144315714Y-58876429D01*
X144387143Y-58590714D01*
X144458571Y-58447857D01*
X144601429Y-58305000D01*
X144815714Y-58233571D01*
X144958571Y-58233571D01*
X145172857Y-58305000D01*
X145244286Y-58376429D01*
X146172857Y-58233571D02*
X146315714Y-58233571D01*
X146458571Y-58305000D01*
X146530000Y-58376429D01*
X146601429Y-58519286D01*
X146672857Y-58805000D01*
X146672857Y-59162143D01*
X146601429Y-59447857D01*
X146530000Y-59590714D01*
X146458571Y-59662143D01*
X146315714Y-59733571D01*
X146172857Y-59733571D01*
X146030000Y-59662143D01*
X145958571Y-59590714D01*
X145887143Y-59447857D01*
X145815714Y-59162143D01*
X145815714Y-58805000D01*
X145887143Y-58519286D01*
X145958571Y-58376429D01*
X146030000Y-58305000D01*
X146172857Y-58233571D01*
X135231429Y-58233571D02*
X136088572Y-58233571D01*
X135660001Y-59733571D02*
X135660001Y-58233571D01*
X136588572Y-59733571D02*
X136588572Y-58233571D01*
X137160000Y-58233571D01*
X137302858Y-58305000D01*
X137374286Y-58376429D01*
X137445715Y-58519286D01*
X137445715Y-58733571D01*
X137374286Y-58876429D01*
X137302858Y-58947857D01*
X137160000Y-59019286D01*
X136588572Y-59019286D01*
X138588572Y-58947857D02*
X138802858Y-59019286D01*
X138874286Y-59090714D01*
X138945715Y-59233571D01*
X138945715Y-59447857D01*
X138874286Y-59590714D01*
X138802858Y-59662143D01*
X138660000Y-59733571D01*
X138088572Y-59733571D01*
X138088572Y-58233571D01*
X138588572Y-58233571D01*
X138731429Y-58305000D01*
X138802858Y-58376429D01*
X138874286Y-58519286D01*
X138874286Y-58662143D01*
X138802858Y-58805000D01*
X138731429Y-58876429D01*
X138588572Y-58947857D01*
X138088572Y-58947857D01*
X127718572Y-58233571D02*
X128575715Y-58233571D01*
X128147144Y-59733571D02*
X128147144Y-58233571D01*
X129075715Y-59733571D02*
X129075715Y-58233571D01*
X129647143Y-58233571D01*
X129790001Y-58305000D01*
X129861429Y-58376429D01*
X129932858Y-58519286D01*
X129932858Y-58733571D01*
X129861429Y-58876429D01*
X129790001Y-58947857D01*
X129647143Y-59019286D01*
X129075715Y-59019286D01*
X130504286Y-59305000D02*
X131218572Y-59305000D01*
X130361429Y-59733571D02*
X130861429Y-58233571D01*
X131361429Y-59733571D01*
X121027143Y-59590714D02*
X120955714Y-59662143D01*
X120741428Y-59733571D01*
X120598571Y-59733571D01*
X120384286Y-59662143D01*
X120241428Y-59519286D01*
X120170000Y-59376429D01*
X120098571Y-59090714D01*
X120098571Y-58876429D01*
X120170000Y-58590714D01*
X120241428Y-58447857D01*
X120384286Y-58305000D01*
X120598571Y-58233571D01*
X120741428Y-58233571D01*
X120955714Y-58305000D01*
X121027143Y-58376429D01*
X122384286Y-59733571D02*
X121670000Y-59733571D01*
X121670000Y-58233571D01*
X122884286Y-59733571D02*
X122884286Y-58233571D01*
X123741429Y-59733571D02*
X123098572Y-58876429D01*
X123741429Y-58233571D02*
X122884286Y-59090714D01*
X110434286Y-138336571D02*
X109934286Y-137622286D01*
X109577143Y-138336571D02*
X109577143Y-136836571D01*
X110148571Y-136836571D01*
X110291429Y-136908000D01*
X110362857Y-136979429D01*
X110434286Y-137122286D01*
X110434286Y-137336571D01*
X110362857Y-137479429D01*
X110291429Y-137550857D01*
X110148571Y-137622286D01*
X109577143Y-137622286D01*
X111934286Y-138193714D02*
X111862857Y-138265143D01*
X111648571Y-138336571D01*
X111505714Y-138336571D01*
X111291429Y-138265143D01*
X111148571Y-138122286D01*
X111077143Y-137979429D01*
X111005714Y-137693714D01*
X111005714Y-137479429D01*
X111077143Y-137193714D01*
X111148571Y-137050857D01*
X111291429Y-136908000D01*
X111505714Y-136836571D01*
X111648571Y-136836571D01*
X111862857Y-136908000D01*
X111934286Y-136979429D01*
X113362857Y-138336571D02*
X112505714Y-138336571D01*
X112934286Y-138336571D02*
X112934286Y-136836571D01*
X112791429Y-137050857D01*
X112648571Y-137193714D01*
X112505714Y-137265143D01*
X114220000Y-137479429D02*
X114077142Y-137408000D01*
X114005714Y-137336571D01*
X113934285Y-137193714D01*
X113934285Y-137122286D01*
X114005714Y-136979429D01*
X114077142Y-136908000D01*
X114220000Y-136836571D01*
X114505714Y-136836571D01*
X114648571Y-136908000D01*
X114720000Y-136979429D01*
X114791428Y-137122286D01*
X114791428Y-137193714D01*
X114720000Y-137336571D01*
X114648571Y-137408000D01*
X114505714Y-137479429D01*
X114220000Y-137479429D01*
X114077142Y-137550857D01*
X114005714Y-137622286D01*
X113934285Y-137765143D01*
X113934285Y-138050857D01*
X114005714Y-138193714D01*
X114077142Y-138265143D01*
X114220000Y-138336571D01*
X114505714Y-138336571D01*
X114648571Y-138265143D01*
X114720000Y-138193714D01*
X114791428Y-138050857D01*
X114791428Y-137765143D01*
X114720000Y-137622286D01*
X114648571Y-137550857D01*
X114505714Y-137479429D01*
X115719999Y-136836571D02*
X115862856Y-136836571D01*
X116005713Y-136908000D01*
X116077142Y-136979429D01*
X116148571Y-137122286D01*
X116219999Y-137408000D01*
X116219999Y-137765143D01*
X116148571Y-138050857D01*
X116077142Y-138193714D01*
X116005713Y-138265143D01*
X115862856Y-138336571D01*
X115719999Y-138336571D01*
X115577142Y-138265143D01*
X115505713Y-138193714D01*
X115434285Y-138050857D01*
X115362856Y-137765143D01*
X115362856Y-137408000D01*
X115434285Y-137122286D01*
X115505713Y-136979429D01*
X115577142Y-136908000D01*
X115719999Y-136836571D01*
X116791427Y-136979429D02*
X116862856Y-136908000D01*
X117005713Y-136836571D01*
X117362856Y-136836571D01*
X117505713Y-136908000D01*
X117577142Y-136979429D01*
X117648570Y-137122286D01*
X117648570Y-137265143D01*
X117577142Y-137479429D01*
X116719999Y-138336571D01*
X117648570Y-138336571D01*
X120291427Y-138193714D02*
X120219998Y-138265143D01*
X120005712Y-138336571D01*
X119862855Y-138336571D01*
X119648570Y-138265143D01*
X119505712Y-138122286D01*
X119434284Y-137979429D01*
X119362855Y-137693714D01*
X119362855Y-137479429D01*
X119434284Y-137193714D01*
X119505712Y-137050857D01*
X119648570Y-136908000D01*
X119862855Y-136836571D01*
X120005712Y-136836571D01*
X120219998Y-136908000D01*
X120291427Y-136979429D01*
X121148570Y-138336571D02*
X121005712Y-138265143D01*
X120934284Y-138193714D01*
X120862855Y-138050857D01*
X120862855Y-137622286D01*
X120934284Y-137479429D01*
X121005712Y-137408000D01*
X121148570Y-137336571D01*
X121362855Y-137336571D01*
X121505712Y-137408000D01*
X121577141Y-137479429D01*
X121648570Y-137622286D01*
X121648570Y-138050857D01*
X121577141Y-138193714D01*
X121505712Y-138265143D01*
X121362855Y-138336571D01*
X121148570Y-138336571D01*
X122219998Y-138265143D02*
X122362855Y-138336571D01*
X122648570Y-138336571D01*
X122791427Y-138265143D01*
X122862855Y-138122286D01*
X122862855Y-138050857D01*
X122791427Y-137908000D01*
X122648570Y-137836571D01*
X122434284Y-137836571D01*
X122291427Y-137765143D01*
X122219998Y-137622286D01*
X122219998Y-137550857D01*
X122291427Y-137408000D01*
X122434284Y-137336571D01*
X122648570Y-137336571D01*
X122791427Y-137408000D01*
X123505713Y-138336571D02*
X123505713Y-137336571D01*
X123505713Y-137479429D02*
X123577141Y-137408000D01*
X123719999Y-137336571D01*
X123934284Y-137336571D01*
X124077141Y-137408000D01*
X124148570Y-137550857D01*
X124148570Y-138336571D01*
X124148570Y-137550857D02*
X124219999Y-137408000D01*
X124362856Y-137336571D01*
X124577141Y-137336571D01*
X124719999Y-137408000D01*
X124791427Y-137550857D01*
X124791427Y-138336571D01*
X126148570Y-138336571D02*
X126148570Y-137550857D01*
X126077141Y-137408000D01*
X125934284Y-137336571D01*
X125648570Y-137336571D01*
X125505713Y-137408000D01*
X126148570Y-138265143D02*
X126005713Y-138336571D01*
X125648570Y-138336571D01*
X125505713Y-138265143D01*
X125434284Y-138122286D01*
X125434284Y-137979429D01*
X125505713Y-137836571D01*
X125648570Y-137765143D01*
X126005713Y-137765143D01*
X126148570Y-137693714D01*
X127505713Y-138265143D02*
X127362856Y-138336571D01*
X127077142Y-138336571D01*
X126934284Y-138265143D01*
X126862856Y-138193714D01*
X126791427Y-138050857D01*
X126791427Y-137622286D01*
X126862856Y-137479429D01*
X126934284Y-137408000D01*
X127077142Y-137336571D01*
X127362856Y-137336571D01*
X127505713Y-137408000D01*
X129291427Y-137550857D02*
X129791427Y-137550857D01*
X130005713Y-138336571D02*
X129291427Y-138336571D01*
X129291427Y-136836571D01*
X130005713Y-136836571D01*
X131362856Y-138336571D02*
X130648570Y-138336571D01*
X130648570Y-136836571D01*
X132362856Y-137550857D02*
X131862856Y-137550857D01*
X131862856Y-138336571D02*
X131862856Y-136836571D01*
X132577142Y-136836571D01*
X110434286Y-140743714D02*
X110362857Y-140815143D01*
X110148571Y-140886571D01*
X110005714Y-140886571D01*
X109791429Y-140815143D01*
X109648571Y-140672286D01*
X109577143Y-140529429D01*
X109505714Y-140243714D01*
X109505714Y-140029429D01*
X109577143Y-139743714D01*
X109648571Y-139600857D01*
X109791429Y-139458000D01*
X110005714Y-139386571D01*
X110148571Y-139386571D01*
X110362857Y-139458000D01*
X110434286Y-139529429D01*
X111077143Y-140886571D02*
X111077143Y-139386571D01*
X111648571Y-139386571D01*
X111791429Y-139458000D01*
X111862857Y-139529429D01*
X111934286Y-139672286D01*
X111934286Y-139886571D01*
X111862857Y-140029429D01*
X111791429Y-140100857D01*
X111648571Y-140172286D01*
X111077143Y-140172286D01*
X112577143Y-139386571D02*
X112577143Y-140600857D01*
X112648571Y-140743714D01*
X112720000Y-140815143D01*
X112862857Y-140886571D01*
X113148571Y-140886571D01*
X113291429Y-140815143D01*
X113362857Y-140743714D01*
X113434286Y-140600857D01*
X113434286Y-139386571D01*
X115791429Y-140100857D02*
X116005715Y-140172286D01*
X116077143Y-140243714D01*
X116148572Y-140386571D01*
X116148572Y-140600857D01*
X116077143Y-140743714D01*
X116005715Y-140815143D01*
X115862857Y-140886571D01*
X115291429Y-140886571D01*
X115291429Y-139386571D01*
X115791429Y-139386571D01*
X115934286Y-139458000D01*
X116005715Y-139529429D01*
X116077143Y-139672286D01*
X116077143Y-139815143D01*
X116005715Y-139958000D01*
X115934286Y-140029429D01*
X115791429Y-140100857D01*
X115291429Y-140100857D01*
X117005715Y-140886571D02*
X116862857Y-140815143D01*
X116791429Y-140743714D01*
X116720000Y-140600857D01*
X116720000Y-140172286D01*
X116791429Y-140029429D01*
X116862857Y-139958000D01*
X117005715Y-139886571D01*
X117220000Y-139886571D01*
X117362857Y-139958000D01*
X117434286Y-140029429D01*
X117505715Y-140172286D01*
X117505715Y-140600857D01*
X117434286Y-140743714D01*
X117362857Y-140815143D01*
X117220000Y-140886571D01*
X117005715Y-140886571D01*
X118791429Y-140886571D02*
X118791429Y-140100857D01*
X118720000Y-139958000D01*
X118577143Y-139886571D01*
X118291429Y-139886571D01*
X118148572Y-139958000D01*
X118791429Y-140815143D02*
X118648572Y-140886571D01*
X118291429Y-140886571D01*
X118148572Y-140815143D01*
X118077143Y-140672286D01*
X118077143Y-140529429D01*
X118148572Y-140386571D01*
X118291429Y-140315143D01*
X118648572Y-140315143D01*
X118791429Y-140243714D01*
X119505715Y-140886571D02*
X119505715Y-139886571D01*
X119505715Y-140172286D02*
X119577143Y-140029429D01*
X119648572Y-139958000D01*
X119791429Y-139886571D01*
X119934286Y-139886571D01*
X121077143Y-140886571D02*
X121077143Y-139386571D01*
X121077143Y-140815143D02*
X120934286Y-140886571D01*
X120648572Y-140886571D01*
X120505714Y-140815143D01*
X120434286Y-140743714D01*
X120362857Y-140600857D01*
X120362857Y-140172286D01*
X120434286Y-140029429D01*
X120505714Y-139958000D01*
X120648572Y-139886571D01*
X120934286Y-139886571D01*
X121077143Y-139958000D01*
X123791429Y-140886571D02*
X123291429Y-140172286D01*
X122934286Y-140886571D02*
X122934286Y-139386571D01*
X123505714Y-139386571D01*
X123648572Y-139458000D01*
X123720000Y-139529429D01*
X123791429Y-139672286D01*
X123791429Y-139886571D01*
X123720000Y-140029429D01*
X123648572Y-140100857D01*
X123505714Y-140172286D01*
X122934286Y-140172286D01*
X125005714Y-140815143D02*
X124862857Y-140886571D01*
X124577143Y-140886571D01*
X124434286Y-140815143D01*
X124362857Y-140672286D01*
X124362857Y-140100857D01*
X124434286Y-139958000D01*
X124577143Y-139886571D01*
X124862857Y-139886571D01*
X125005714Y-139958000D01*
X125077143Y-140100857D01*
X125077143Y-140243714D01*
X124362857Y-140386571D01*
X125577143Y-139886571D02*
X125934286Y-140886571D01*
X126291428Y-139886571D01*
X126862857Y-140886571D02*
X126862857Y-139886571D01*
X126862857Y-139386571D02*
X126791428Y-139458000D01*
X126862857Y-139529429D01*
X126934285Y-139458000D01*
X126862857Y-139386571D01*
X126862857Y-139529429D01*
X127505714Y-140815143D02*
X127648571Y-140886571D01*
X127934286Y-140886571D01*
X128077143Y-140815143D01*
X128148571Y-140672286D01*
X128148571Y-140600857D01*
X128077143Y-140458000D01*
X127934286Y-140386571D01*
X127720000Y-140386571D01*
X127577143Y-140315143D01*
X127505714Y-140172286D01*
X127505714Y-140100857D01*
X127577143Y-139958000D01*
X127720000Y-139886571D01*
X127934286Y-139886571D01*
X128077143Y-139958000D01*
X128791429Y-140886571D02*
X128791429Y-139886571D01*
X128791429Y-139386571D02*
X128720000Y-139458000D01*
X128791429Y-139529429D01*
X128862857Y-139458000D01*
X128791429Y-139386571D01*
X128791429Y-139529429D01*
X129720001Y-140886571D02*
X129577143Y-140815143D01*
X129505715Y-140743714D01*
X129434286Y-140600857D01*
X129434286Y-140172286D01*
X129505715Y-140029429D01*
X129577143Y-139958000D01*
X129720001Y-139886571D01*
X129934286Y-139886571D01*
X130077143Y-139958000D01*
X130148572Y-140029429D01*
X130220001Y-140172286D01*
X130220001Y-140600857D01*
X130148572Y-140743714D01*
X130077143Y-140815143D01*
X129934286Y-140886571D01*
X129720001Y-140886571D01*
X130862858Y-139886571D02*
X130862858Y-140886571D01*
X130862858Y-140029429D02*
X130934286Y-139958000D01*
X131077144Y-139886571D01*
X131291429Y-139886571D01*
X131434286Y-139958000D01*
X131505715Y-140100857D01*
X131505715Y-140886571D01*
X134220001Y-140743714D02*
X134148572Y-140815143D01*
X133934286Y-140886571D01*
X133791429Y-140886571D01*
X133577144Y-140815143D01*
X133434286Y-140672286D01*
X133362858Y-140529429D01*
X133291429Y-140243714D01*
X133291429Y-140029429D01*
X133362858Y-139743714D01*
X133434286Y-139600857D01*
X133577144Y-139458000D01*
X133791429Y-139386571D01*
X133934286Y-139386571D01*
X134148572Y-139458000D01*
X134220001Y-139529429D01*
X109577143Y-143436571D02*
X109577143Y-141936571D01*
X110220000Y-143436571D02*
X110220000Y-142650857D01*
X110148571Y-142508000D01*
X110005714Y-142436571D01*
X109791429Y-142436571D01*
X109648571Y-142508000D01*
X109577143Y-142579429D01*
X110720000Y-142436571D02*
X111291429Y-142436571D01*
X110934286Y-141936571D02*
X110934286Y-143222286D01*
X111005714Y-143365143D01*
X111148572Y-143436571D01*
X111291429Y-143436571D01*
X111577143Y-142436571D02*
X112148572Y-142436571D01*
X111791429Y-141936571D02*
X111791429Y-143222286D01*
X111862857Y-143365143D01*
X112005715Y-143436571D01*
X112148572Y-143436571D01*
X112648572Y-142436571D02*
X112648572Y-143936571D01*
X112648572Y-142508000D02*
X112791429Y-142436571D01*
X113077143Y-142436571D01*
X113220000Y-142508000D01*
X113291429Y-142579429D01*
X113362858Y-142722286D01*
X113362858Y-143150857D01*
X113291429Y-143293714D01*
X113220000Y-143365143D01*
X113077143Y-143436571D01*
X112791429Y-143436571D01*
X112648572Y-143365143D01*
X113934286Y-143365143D02*
X114077143Y-143436571D01*
X114362858Y-143436571D01*
X114505715Y-143365143D01*
X114577143Y-143222286D01*
X114577143Y-143150857D01*
X114505715Y-143008000D01*
X114362858Y-142936571D01*
X114148572Y-142936571D01*
X114005715Y-142865143D01*
X113934286Y-142722286D01*
X113934286Y-142650857D01*
X114005715Y-142508000D01*
X114148572Y-142436571D01*
X114362858Y-142436571D01*
X114505715Y-142508000D01*
X115220001Y-143293714D02*
X115291429Y-143365143D01*
X115220001Y-143436571D01*
X115148572Y-143365143D01*
X115220001Y-143293714D01*
X115220001Y-143436571D01*
X115220001Y-142508000D02*
X115291429Y-142579429D01*
X115220001Y-142650857D01*
X115148572Y-142579429D01*
X115220001Y-142508000D01*
X115220001Y-142650857D01*
X117005715Y-141865143D02*
X115720001Y-143793714D01*
X118577144Y-141865143D02*
X117291430Y-143793714D01*
X119077145Y-143436571D02*
X119077145Y-141936571D01*
X119720002Y-143436571D02*
X119720002Y-142650857D01*
X119648573Y-142508000D01*
X119505716Y-142436571D01*
X119291431Y-142436571D01*
X119148573Y-142508000D01*
X119077145Y-142579429D01*
X120291431Y-142436571D02*
X120648574Y-143436571D01*
X121005716Y-142436571D01*
X122148573Y-143365143D02*
X122005716Y-143436571D01*
X121720002Y-143436571D01*
X121577145Y-143365143D01*
X121505716Y-143222286D01*
X121505716Y-142650857D01*
X121577145Y-142508000D01*
X121720002Y-142436571D01*
X122005716Y-142436571D01*
X122148573Y-142508000D01*
X122220002Y-142650857D01*
X122220002Y-142793714D01*
X121505716Y-142936571D01*
X122648573Y-142436571D02*
X123220002Y-142436571D01*
X122862859Y-141936571D02*
X122862859Y-143222286D01*
X122934287Y-143365143D01*
X123077145Y-143436571D01*
X123220002Y-143436571D01*
X124291430Y-143365143D02*
X124148573Y-143436571D01*
X123862859Y-143436571D01*
X123720002Y-143365143D01*
X123648573Y-143222286D01*
X123648573Y-142650857D01*
X123720002Y-142508000D01*
X123862859Y-142436571D01*
X124148573Y-142436571D01*
X124291430Y-142508000D01*
X124362859Y-142650857D01*
X124362859Y-142793714D01*
X123648573Y-142936571D01*
X125005716Y-143436571D02*
X125005716Y-141936571D01*
X125005716Y-142508000D02*
X125148573Y-142436571D01*
X125434287Y-142436571D01*
X125577144Y-142508000D01*
X125648573Y-142579429D01*
X125720002Y-142722286D01*
X125720002Y-143150857D01*
X125648573Y-143293714D01*
X125577144Y-143365143D01*
X125434287Y-143436571D01*
X125148573Y-143436571D01*
X125005716Y-143365143D01*
X126577145Y-143436571D02*
X126434287Y-143365143D01*
X126362859Y-143293714D01*
X126291430Y-143150857D01*
X126291430Y-142722286D01*
X126362859Y-142579429D01*
X126434287Y-142508000D01*
X126577145Y-142436571D01*
X126791430Y-142436571D01*
X126934287Y-142508000D01*
X127005716Y-142579429D01*
X127077145Y-142722286D01*
X127077145Y-143150857D01*
X127005716Y-143293714D01*
X126934287Y-143365143D01*
X126791430Y-143436571D01*
X126577145Y-143436571D01*
X127934288Y-143436571D02*
X127791430Y-143365143D01*
X127720002Y-143222286D01*
X127720002Y-141936571D01*
X128720002Y-143436571D02*
X128577144Y-143365143D01*
X128505716Y-143222286D01*
X128505716Y-141936571D01*
X129862858Y-143365143D02*
X129720001Y-143436571D01*
X129434287Y-143436571D01*
X129291430Y-143365143D01*
X129220001Y-143222286D01*
X129220001Y-142650857D01*
X129291430Y-142508000D01*
X129434287Y-142436571D01*
X129720001Y-142436571D01*
X129862858Y-142508000D01*
X129934287Y-142650857D01*
X129934287Y-142793714D01*
X129220001Y-142936571D01*
X130577144Y-143293714D02*
X130648572Y-143365143D01*
X130577144Y-143436571D01*
X130505715Y-143365143D01*
X130577144Y-143293714D01*
X130577144Y-143436571D01*
X131291430Y-143436571D02*
X131291430Y-141936571D01*
X131291430Y-142508000D02*
X131434287Y-142436571D01*
X131720001Y-142436571D01*
X131862858Y-142508000D01*
X131934287Y-142579429D01*
X132005716Y-142722286D01*
X132005716Y-143150857D01*
X131934287Y-143293714D01*
X131862858Y-143365143D01*
X131720001Y-143436571D01*
X131434287Y-143436571D01*
X131291430Y-143365143D01*
X132862859Y-143436571D02*
X132720001Y-143365143D01*
X132648573Y-143222286D01*
X132648573Y-141936571D01*
X133648573Y-143436571D02*
X133505715Y-143365143D01*
X133434287Y-143293714D01*
X133362858Y-143150857D01*
X133362858Y-142722286D01*
X133434287Y-142579429D01*
X133505715Y-142508000D01*
X133648573Y-142436571D01*
X133862858Y-142436571D01*
X134005715Y-142508000D01*
X134077144Y-142579429D01*
X134148573Y-142722286D01*
X134148573Y-143150857D01*
X134077144Y-143293714D01*
X134005715Y-143365143D01*
X133862858Y-143436571D01*
X133648573Y-143436571D01*
X135434287Y-142436571D02*
X135434287Y-143650857D01*
X135362858Y-143793714D01*
X135291430Y-143865143D01*
X135148573Y-143936571D01*
X134934287Y-143936571D01*
X134791430Y-143865143D01*
X135434287Y-143365143D02*
X135291430Y-143436571D01*
X135005716Y-143436571D01*
X134862858Y-143365143D01*
X134791430Y-143293714D01*
X134720001Y-143150857D01*
X134720001Y-142722286D01*
X134791430Y-142579429D01*
X134862858Y-142508000D01*
X135005716Y-142436571D01*
X135291430Y-142436571D01*
X135434287Y-142508000D01*
X136077144Y-143365143D02*
X136220001Y-143436571D01*
X136505716Y-143436571D01*
X136648573Y-143365143D01*
X136720001Y-143222286D01*
X136720001Y-143150857D01*
X136648573Y-143008000D01*
X136505716Y-142936571D01*
X136291430Y-142936571D01*
X136148573Y-142865143D01*
X136077144Y-142722286D01*
X136077144Y-142650857D01*
X136148573Y-142508000D01*
X136291430Y-142436571D01*
X136505716Y-142436571D01*
X136648573Y-142508000D01*
X137362859Y-142436571D02*
X137362859Y-143936571D01*
X137362859Y-142508000D02*
X137505716Y-142436571D01*
X137791430Y-142436571D01*
X137934287Y-142508000D01*
X138005716Y-142579429D01*
X138077145Y-142722286D01*
X138077145Y-143150857D01*
X138005716Y-143293714D01*
X137934287Y-143365143D01*
X137791430Y-143436571D01*
X137505716Y-143436571D01*
X137362859Y-143365143D01*
X138934288Y-143436571D02*
X138791430Y-143365143D01*
X138720002Y-143293714D01*
X138648573Y-143150857D01*
X138648573Y-142722286D01*
X138720002Y-142579429D01*
X138791430Y-142508000D01*
X138934288Y-142436571D01*
X139148573Y-142436571D01*
X139291430Y-142508000D01*
X139362859Y-142579429D01*
X139434288Y-142722286D01*
X139434288Y-143150857D01*
X139362859Y-143293714D01*
X139291430Y-143365143D01*
X139148573Y-143436571D01*
X138934288Y-143436571D01*
X139862859Y-142436571D02*
X140434288Y-142436571D01*
X140077145Y-141936571D02*
X140077145Y-143222286D01*
X140148573Y-143365143D01*
X140291431Y-143436571D01*
X140434288Y-143436571D01*
X140934288Y-143293714D02*
X141005716Y-143365143D01*
X140934288Y-143436571D01*
X140862859Y-143365143D01*
X140934288Y-143293714D01*
X140934288Y-143436571D01*
X142291431Y-143365143D02*
X142148574Y-143436571D01*
X141862860Y-143436571D01*
X141720002Y-143365143D01*
X141648574Y-143293714D01*
X141577145Y-143150857D01*
X141577145Y-142722286D01*
X141648574Y-142579429D01*
X141720002Y-142508000D01*
X141862860Y-142436571D01*
X142148574Y-142436571D01*
X142291431Y-142508000D01*
X143148574Y-143436571D02*
X143005716Y-143365143D01*
X142934288Y-143293714D01*
X142862859Y-143150857D01*
X142862859Y-142722286D01*
X142934288Y-142579429D01*
X143005716Y-142508000D01*
X143148574Y-142436571D01*
X143362859Y-142436571D01*
X143505716Y-142508000D01*
X143577145Y-142579429D01*
X143648574Y-142722286D01*
X143648574Y-143150857D01*
X143577145Y-143293714D01*
X143505716Y-143365143D01*
X143362859Y-143436571D01*
X143148574Y-143436571D01*
X144291431Y-143436571D02*
X144291431Y-142436571D01*
X144291431Y-142579429D02*
X144362859Y-142508000D01*
X144505717Y-142436571D01*
X144720002Y-142436571D01*
X144862859Y-142508000D01*
X144934288Y-142650857D01*
X144934288Y-143436571D01*
X144934288Y-142650857D02*
X145005717Y-142508000D01*
X145148574Y-142436571D01*
X145362859Y-142436571D01*
X145505717Y-142508000D01*
X145577145Y-142650857D01*
X145577145Y-143436571D01*
D13*
X195490000Y-114340000D02*
X190670000Y-114340000D01*
X195490000Y-111720000D02*
X190670000Y-111720000D01*
X195490000Y-114340000D02*
X195490000Y-114026000D01*
X195490000Y-112034000D02*
X195490000Y-111720000D01*
X190670000Y-114340000D02*
X190670000Y-114026000D01*
X190670000Y-112034000D02*
X190670000Y-111720000D01*
X132625000Y-81320000D02*
X127805000Y-81320000D01*
X132625000Y-78700000D02*
X127805000Y-78700000D01*
X132625000Y-81320000D02*
X132625000Y-81006000D01*
X132625000Y-79014000D02*
X132625000Y-78700000D01*
X127805000Y-81320000D02*
X127805000Y-81006000D01*
X127805000Y-79014000D02*
X127805000Y-78700000D01*
X138470000Y-66130000D02*
X138470000Y-70950000D01*
X135850000Y-66130000D02*
X135850000Y-70950000D01*
X138470000Y-66130000D02*
X138156000Y-66130000D01*
X136164000Y-66130000D02*
X135850000Y-66130000D01*
X138470000Y-70950000D02*
X138156000Y-70950000D01*
X136164000Y-70950000D02*
X135850000Y-70950000D01*
X195490000Y-81320000D02*
X190670000Y-81320000D01*
X195490000Y-78700000D02*
X190670000Y-78700000D01*
X195490000Y-81320000D02*
X195490000Y-81006000D01*
X195490000Y-79014000D02*
X195490000Y-78700000D01*
X190670000Y-81320000D02*
X190670000Y-81006000D01*
X190670000Y-79014000D02*
X190670000Y-78700000D01*
X156120000Y-81320000D02*
X151300000Y-81320000D01*
X156120000Y-78700000D02*
X151300000Y-78700000D01*
X156120000Y-81320000D02*
X156120000Y-81006000D01*
X156120000Y-79014000D02*
X156120000Y-78700000D01*
X151300000Y-81320000D02*
X151300000Y-81006000D01*
X151300000Y-79014000D02*
X151300000Y-78700000D01*
X107061000Y-141605000D02*
G75*
G03X107061000Y-141605000I-2286000J0D01*
G01*
X107061000Y-71755000D02*
G75*
G03X107061000Y-71755000I-2286000J0D01*
G01*
X170755000Y-133350000D02*
X170755000Y-138490000D01*
X170755000Y-138490000D02*
X173415000Y-138490000D01*
X173415000Y-138490000D02*
X173415000Y-133350000D01*
X173415000Y-133350000D02*
X170755000Y-133350000D01*
X170755000Y-132080000D02*
X170755000Y-130750000D01*
X170755000Y-130750000D02*
X172085000Y-130750000D01*
X182185000Y-85090000D02*
X182185000Y-90230000D01*
X182185000Y-90230000D02*
X184845000Y-90230000D01*
X184845000Y-90230000D02*
X184845000Y-85090000D01*
X184845000Y-85090000D02*
X182185000Y-85090000D01*
X182185000Y-83820000D02*
X182185000Y-82490000D01*
X182185000Y-82490000D02*
X183515000Y-82490000D01*
X139660000Y-137830000D02*
X142280000Y-137830000D01*
X142280000Y-137830000D02*
X142280000Y-131410000D01*
X142280000Y-131410000D02*
X139660000Y-131410000D01*
X139660000Y-131410000D02*
X139660000Y-137830000D01*
X140970000Y-138720000D02*
X140970000Y-137830000D01*
X140970000Y-130520000D02*
X140970000Y-131410000D01*
X144105000Y-137830000D02*
X146725000Y-137830000D01*
X146725000Y-137830000D02*
X146725000Y-131410000D01*
X146725000Y-131410000D02*
X144105000Y-131410000D01*
X144105000Y-131410000D02*
X144105000Y-137830000D01*
X145415000Y-138720000D02*
X145415000Y-137830000D01*
X145415000Y-130520000D02*
X145415000Y-131410000D01*
X148550000Y-137830000D02*
X151170000Y-137830000D01*
X151170000Y-137830000D02*
X151170000Y-131410000D01*
X151170000Y-131410000D02*
X148550000Y-131410000D01*
X148550000Y-131410000D02*
X148550000Y-137830000D01*
X149860000Y-138720000D02*
X149860000Y-137830000D01*
X149860000Y-130520000D02*
X149860000Y-131410000D01*
X152995000Y-137830000D02*
X155615000Y-137830000D01*
X155615000Y-137830000D02*
X155615000Y-131410000D01*
X155615000Y-131410000D02*
X152995000Y-131410000D01*
X152995000Y-131410000D02*
X152995000Y-137830000D01*
X154305000Y-138720000D02*
X154305000Y-137830000D01*
X154305000Y-130520000D02*
X154305000Y-131410000D01*
X157440000Y-137830000D02*
X160060000Y-137830000D01*
X160060000Y-137830000D02*
X160060000Y-131410000D01*
X160060000Y-131410000D02*
X157440000Y-131410000D01*
X157440000Y-131410000D02*
X157440000Y-137830000D01*
X158750000Y-138720000D02*
X158750000Y-137830000D01*
X158750000Y-130520000D02*
X158750000Y-131410000D01*
X161885000Y-137830000D02*
X164505000Y-137830000D01*
X164505000Y-137830000D02*
X164505000Y-131410000D01*
X164505000Y-131410000D02*
X161885000Y-131410000D01*
X161885000Y-131410000D02*
X161885000Y-137830000D01*
X163195000Y-138720000D02*
X163195000Y-137830000D01*
X163195000Y-130520000D02*
X163195000Y-131410000D01*
X166330000Y-137830000D02*
X168950000Y-137830000D01*
X168950000Y-137830000D02*
X168950000Y-131410000D01*
X168950000Y-131410000D02*
X166330000Y-131410000D01*
X166330000Y-131410000D02*
X166330000Y-137830000D01*
X167640000Y-138720000D02*
X167640000Y-137830000D01*
X167640000Y-130520000D02*
X167640000Y-131410000D01*
X112740000Y-65420000D02*
X112740000Y-77570000D01*
X132890000Y-64670000D02*
X113490000Y-64670000D01*
X133640000Y-76820000D02*
X133640000Y-65420000D01*
X112740000Y-77570000D02*
X132890000Y-77570000D01*
X132890000Y-77570000D02*
G75*
G03X133640000Y-76820000I0J750000D01*
G01*
X133640000Y-65420000D02*
G75*
G03X132890000Y-64670000I-750000J0D01*
G01*
X113490000Y-64670000D02*
G75*
G03X112740000Y-65420000I0J-750000D01*
G01*
X197231000Y-141605000D02*
G75*
G03X197231000Y-141605000I-2286000J0D01*
G01*
X197231000Y-71755000D02*
G75*
G03X197231000Y-71755000I-2286000J0D01*
G01*
X199450000Y-147490000D02*
X100270000Y-147490000D01*
X100270000Y-147490000D02*
X100270000Y-150150000D01*
X100270000Y-150150000D02*
X199450000Y-150150000D01*
X199450000Y-150150000D02*
X199450000Y-147490000D01*
X198500000Y-150150000D02*
X198500000Y-156150000D01*
X198500000Y-156150000D02*
X197740000Y-156150000D01*
X197740000Y-156150000D02*
X197740000Y-150150000D01*
X198440000Y-150150000D02*
X198440000Y-156150000D01*
X198320000Y-150150000D02*
X198320000Y-156150000D01*
X198200000Y-150150000D02*
X198200000Y-156150000D01*
X198080000Y-150150000D02*
X198080000Y-156150000D01*
X197960000Y-150150000D02*
X197960000Y-156150000D01*
X197840000Y-150150000D02*
X197840000Y-156150000D01*
X198500000Y-147160000D02*
X198500000Y-147490000D01*
X197740000Y-147160000D02*
X197740000Y-147490000D01*
X196850000Y-147490000D02*
X196850000Y-150150000D01*
X195960000Y-150150000D02*
X195960000Y-156150000D01*
X195960000Y-156150000D02*
X195200000Y-156150000D01*
X195200000Y-156150000D02*
X195200000Y-150150000D01*
X195960000Y-147092929D02*
X195960000Y-147490000D01*
X195200000Y-147092929D02*
X195200000Y-147490000D01*
X194310000Y-147490000D02*
X194310000Y-150150000D01*
X193420000Y-150150000D02*
X193420000Y-156150000D01*
X193420000Y-156150000D02*
X192660000Y-156150000D01*
X192660000Y-156150000D02*
X192660000Y-150150000D01*
X193420000Y-147092929D02*
X193420000Y-147490000D01*
X192660000Y-147092929D02*
X192660000Y-147490000D01*
X191770000Y-147490000D02*
X191770000Y-150150000D01*
X190880000Y-150150000D02*
X190880000Y-156150000D01*
X190880000Y-156150000D02*
X190120000Y-156150000D01*
X190120000Y-156150000D02*
X190120000Y-150150000D01*
X190880000Y-147092929D02*
X190880000Y-147490000D01*
X190120000Y-147092929D02*
X190120000Y-147490000D01*
X189230000Y-147490000D02*
X189230000Y-150150000D01*
X188340000Y-150150000D02*
X188340000Y-156150000D01*
X188340000Y-156150000D02*
X187580000Y-156150000D01*
X187580000Y-156150000D02*
X187580000Y-150150000D01*
X188340000Y-147092929D02*
X188340000Y-147490000D01*
X187580000Y-147092929D02*
X187580000Y-147490000D01*
X186690000Y-147490000D02*
X186690000Y-150150000D01*
X185800000Y-150150000D02*
X185800000Y-156150000D01*
X185800000Y-156150000D02*
X185040000Y-156150000D01*
X185040000Y-156150000D02*
X185040000Y-150150000D01*
X185800000Y-147092929D02*
X185800000Y-147490000D01*
X185040000Y-147092929D02*
X185040000Y-147490000D01*
X184150000Y-147490000D02*
X184150000Y-150150000D01*
X183260000Y-150150000D02*
X183260000Y-156150000D01*
X183260000Y-156150000D02*
X182500000Y-156150000D01*
X182500000Y-156150000D02*
X182500000Y-150150000D01*
X183260000Y-147092929D02*
X183260000Y-147490000D01*
X182500000Y-147092929D02*
X182500000Y-147490000D01*
X181610000Y-147490000D02*
X181610000Y-150150000D01*
X180720000Y-150150000D02*
X180720000Y-156150000D01*
X180720000Y-156150000D02*
X179960000Y-156150000D01*
X179960000Y-156150000D02*
X179960000Y-150150000D01*
X180720000Y-147092929D02*
X180720000Y-147490000D01*
X179960000Y-147092929D02*
X179960000Y-147490000D01*
X179070000Y-147490000D02*
X179070000Y-150150000D01*
X178180000Y-150150000D02*
X178180000Y-156150000D01*
X178180000Y-156150000D02*
X177420000Y-156150000D01*
X177420000Y-156150000D02*
X177420000Y-150150000D01*
X178180000Y-147092929D02*
X178180000Y-147490000D01*
X177420000Y-147092929D02*
X177420000Y-147490000D01*
X176530000Y-147490000D02*
X176530000Y-150150000D01*
X175640000Y-150150000D02*
X175640000Y-156150000D01*
X175640000Y-156150000D02*
X174880000Y-156150000D01*
X174880000Y-156150000D02*
X174880000Y-150150000D01*
X175640000Y-147092929D02*
X175640000Y-147490000D01*
X174880000Y-147092929D02*
X174880000Y-147490000D01*
X173990000Y-147490000D02*
X173990000Y-150150000D01*
X173100000Y-150150000D02*
X173100000Y-156150000D01*
X173100000Y-156150000D02*
X172340000Y-156150000D01*
X172340000Y-156150000D02*
X172340000Y-150150000D01*
X173100000Y-147092929D02*
X173100000Y-147490000D01*
X172340000Y-147092929D02*
X172340000Y-147490000D01*
X171450000Y-147490000D02*
X171450000Y-150150000D01*
X170560000Y-150150000D02*
X170560000Y-156150000D01*
X170560000Y-156150000D02*
X169800000Y-156150000D01*
X169800000Y-156150000D02*
X169800000Y-150150000D01*
X170560000Y-147092929D02*
X170560000Y-147490000D01*
X169800000Y-147092929D02*
X169800000Y-147490000D01*
X168910000Y-147490000D02*
X168910000Y-150150000D01*
X168020000Y-150150000D02*
X168020000Y-156150000D01*
X168020000Y-156150000D02*
X167260000Y-156150000D01*
X167260000Y-156150000D02*
X167260000Y-150150000D01*
X168020000Y-147092929D02*
X168020000Y-147490000D01*
X167260000Y-147092929D02*
X167260000Y-147490000D01*
X166370000Y-147490000D02*
X166370000Y-150150000D01*
X165480000Y-150150000D02*
X165480000Y-156150000D01*
X165480000Y-156150000D02*
X164720000Y-156150000D01*
X164720000Y-156150000D02*
X164720000Y-150150000D01*
X165480000Y-147092929D02*
X165480000Y-147490000D01*
X164720000Y-147092929D02*
X164720000Y-147490000D01*
X163830000Y-147490000D02*
X163830000Y-150150000D01*
X162940000Y-150150000D02*
X162940000Y-156150000D01*
X162940000Y-156150000D02*
X162180000Y-156150000D01*
X162180000Y-156150000D02*
X162180000Y-150150000D01*
X162940000Y-147092929D02*
X162940000Y-147490000D01*
X162180000Y-147092929D02*
X162180000Y-147490000D01*
X161290000Y-147490000D02*
X161290000Y-150150000D01*
X160400000Y-150150000D02*
X160400000Y-156150000D01*
X160400000Y-156150000D02*
X159640000Y-156150000D01*
X159640000Y-156150000D02*
X159640000Y-150150000D01*
X160400000Y-147092929D02*
X160400000Y-147490000D01*
X159640000Y-147092929D02*
X159640000Y-147490000D01*
X158750000Y-147490000D02*
X158750000Y-150150000D01*
X157860000Y-150150000D02*
X157860000Y-156150000D01*
X157860000Y-156150000D02*
X157100000Y-156150000D01*
X157100000Y-156150000D02*
X157100000Y-150150000D01*
X157860000Y-147092929D02*
X157860000Y-147490000D01*
X157100000Y-147092929D02*
X157100000Y-147490000D01*
X156210000Y-147490000D02*
X156210000Y-150150000D01*
X155320000Y-150150000D02*
X155320000Y-156150000D01*
X155320000Y-156150000D02*
X154560000Y-156150000D01*
X154560000Y-156150000D02*
X154560000Y-150150000D01*
X155320000Y-147092929D02*
X155320000Y-147490000D01*
X154560000Y-147092929D02*
X154560000Y-147490000D01*
X153670000Y-147490000D02*
X153670000Y-150150000D01*
X152780000Y-150150000D02*
X152780000Y-156150000D01*
X152780000Y-156150000D02*
X152020000Y-156150000D01*
X152020000Y-156150000D02*
X152020000Y-150150000D01*
X152780000Y-147092929D02*
X152780000Y-147490000D01*
X152020000Y-147092929D02*
X152020000Y-147490000D01*
X151130000Y-147490000D02*
X151130000Y-150150000D01*
X150240000Y-150150000D02*
X150240000Y-156150000D01*
X150240000Y-156150000D02*
X149480000Y-156150000D01*
X149480000Y-156150000D02*
X149480000Y-150150000D01*
X150240000Y-147092929D02*
X150240000Y-147490000D01*
X149480000Y-147092929D02*
X149480000Y-147490000D01*
X148590000Y-147490000D02*
X148590000Y-150150000D01*
X147700000Y-150150000D02*
X147700000Y-156150000D01*
X147700000Y-156150000D02*
X146940000Y-156150000D01*
X146940000Y-156150000D02*
X146940000Y-150150000D01*
X147700000Y-147092929D02*
X147700000Y-147490000D01*
X146940000Y-147092929D02*
X146940000Y-147490000D01*
X146050000Y-147490000D02*
X146050000Y-150150000D01*
X145160000Y-150150000D02*
X145160000Y-156150000D01*
X145160000Y-156150000D02*
X144400000Y-156150000D01*
X144400000Y-156150000D02*
X144400000Y-150150000D01*
X145160000Y-147092929D02*
X145160000Y-147490000D01*
X144400000Y-147092929D02*
X144400000Y-147490000D01*
X143510000Y-147490000D02*
X143510000Y-150150000D01*
X142620000Y-150150000D02*
X142620000Y-156150000D01*
X142620000Y-156150000D02*
X141860000Y-156150000D01*
X141860000Y-156150000D02*
X141860000Y-150150000D01*
X142620000Y-147092929D02*
X142620000Y-147490000D01*
X141860000Y-147092929D02*
X141860000Y-147490000D01*
X140970000Y-147490000D02*
X140970000Y-150150000D01*
X140080000Y-150150000D02*
X140080000Y-156150000D01*
X140080000Y-156150000D02*
X139320000Y-156150000D01*
X139320000Y-156150000D02*
X139320000Y-150150000D01*
X140080000Y-147092929D02*
X140080000Y-147490000D01*
X139320000Y-147092929D02*
X139320000Y-147490000D01*
X138430000Y-147490000D02*
X138430000Y-150150000D01*
X137540000Y-150150000D02*
X137540000Y-156150000D01*
X137540000Y-156150000D02*
X136780000Y-156150000D01*
X136780000Y-156150000D02*
X136780000Y-150150000D01*
X137540000Y-147092929D02*
X137540000Y-147490000D01*
X136780000Y-147092929D02*
X136780000Y-147490000D01*
X135890000Y-147490000D02*
X135890000Y-150150000D01*
X135000000Y-150150000D02*
X135000000Y-156150000D01*
X135000000Y-156150000D02*
X134240000Y-156150000D01*
X134240000Y-156150000D02*
X134240000Y-150150000D01*
X135000000Y-147092929D02*
X135000000Y-147490000D01*
X134240000Y-147092929D02*
X134240000Y-147490000D01*
X133350000Y-147490000D02*
X133350000Y-150150000D01*
X132460000Y-150150000D02*
X132460000Y-156150000D01*
X132460000Y-156150000D02*
X131700000Y-156150000D01*
X131700000Y-156150000D02*
X131700000Y-150150000D01*
X132460000Y-147092929D02*
X132460000Y-147490000D01*
X131700000Y-147092929D02*
X131700000Y-147490000D01*
X130810000Y-147490000D02*
X130810000Y-150150000D01*
X129920000Y-150150000D02*
X129920000Y-156150000D01*
X129920000Y-156150000D02*
X129160000Y-156150000D01*
X129160000Y-156150000D02*
X129160000Y-150150000D01*
X129920000Y-147092929D02*
X129920000Y-147490000D01*
X129160000Y-147092929D02*
X129160000Y-147490000D01*
X128270000Y-147490000D02*
X128270000Y-150150000D01*
X127380000Y-150150000D02*
X127380000Y-156150000D01*
X127380000Y-156150000D02*
X126620000Y-156150000D01*
X126620000Y-156150000D02*
X126620000Y-150150000D01*
X127380000Y-147092929D02*
X127380000Y-147490000D01*
X126620000Y-147092929D02*
X126620000Y-147490000D01*
X125730000Y-147490000D02*
X125730000Y-150150000D01*
X124840000Y-150150000D02*
X124840000Y-156150000D01*
X124840000Y-156150000D02*
X124080000Y-156150000D01*
X124080000Y-156150000D02*
X124080000Y-150150000D01*
X124840000Y-147092929D02*
X124840000Y-147490000D01*
X124080000Y-147092929D02*
X124080000Y-147490000D01*
X123190000Y-147490000D02*
X123190000Y-150150000D01*
X122300000Y-150150000D02*
X122300000Y-156150000D01*
X122300000Y-156150000D02*
X121540000Y-156150000D01*
X121540000Y-156150000D02*
X121540000Y-150150000D01*
X122300000Y-147092929D02*
X122300000Y-147490000D01*
X121540000Y-147092929D02*
X121540000Y-147490000D01*
X120650000Y-147490000D02*
X120650000Y-150150000D01*
X119760000Y-150150000D02*
X119760000Y-156150000D01*
X119760000Y-156150000D02*
X119000000Y-156150000D01*
X119000000Y-156150000D02*
X119000000Y-150150000D01*
X119760000Y-147092929D02*
X119760000Y-147490000D01*
X119000000Y-147092929D02*
X119000000Y-147490000D01*
X118110000Y-147490000D02*
X118110000Y-150150000D01*
X117220000Y-150150000D02*
X117220000Y-156150000D01*
X117220000Y-156150000D02*
X116460000Y-156150000D01*
X116460000Y-156150000D02*
X116460000Y-150150000D01*
X117220000Y-147092929D02*
X117220000Y-147490000D01*
X116460000Y-147092929D02*
X116460000Y-147490000D01*
X115570000Y-147490000D02*
X115570000Y-150150000D01*
X114680000Y-150150000D02*
X114680000Y-156150000D01*
X114680000Y-156150000D02*
X113920000Y-156150000D01*
X113920000Y-156150000D02*
X113920000Y-150150000D01*
X114680000Y-147092929D02*
X114680000Y-147490000D01*
X113920000Y-147092929D02*
X113920000Y-147490000D01*
X113030000Y-147490000D02*
X113030000Y-150150000D01*
X112140000Y-150150000D02*
X112140000Y-156150000D01*
X112140000Y-156150000D02*
X111380000Y-156150000D01*
X111380000Y-156150000D02*
X111380000Y-150150000D01*
X112140000Y-147092929D02*
X112140000Y-147490000D01*
X111380000Y-147092929D02*
X111380000Y-147490000D01*
X110490000Y-147490000D02*
X110490000Y-150150000D01*
X109600000Y-150150000D02*
X109600000Y-156150000D01*
X109600000Y-156150000D02*
X108840000Y-156150000D01*
X108840000Y-156150000D02*
X108840000Y-150150000D01*
X109600000Y-147092929D02*
X109600000Y-147490000D01*
X108840000Y-147092929D02*
X108840000Y-147490000D01*
X107950000Y-147490000D02*
X107950000Y-150150000D01*
X107060000Y-150150000D02*
X107060000Y-156150000D01*
X107060000Y-156150000D02*
X106300000Y-156150000D01*
X106300000Y-156150000D02*
X106300000Y-150150000D01*
X107060000Y-147092929D02*
X107060000Y-147490000D01*
X106300000Y-147092929D02*
X106300000Y-147490000D01*
X105410000Y-147490000D02*
X105410000Y-150150000D01*
X104520000Y-150150000D02*
X104520000Y-156150000D01*
X104520000Y-156150000D02*
X103760000Y-156150000D01*
X103760000Y-156150000D02*
X103760000Y-150150000D01*
X104520000Y-147092929D02*
X104520000Y-147490000D01*
X103760000Y-147092929D02*
X103760000Y-147490000D01*
X102870000Y-147490000D02*
X102870000Y-150150000D01*
X101980000Y-150150000D02*
X101980000Y-156150000D01*
X101980000Y-156150000D02*
X101220000Y-156150000D01*
X101220000Y-156150000D02*
X101220000Y-150150000D01*
X101980000Y-147092929D02*
X101980000Y-147490000D01*
X101220000Y-147092929D02*
X101220000Y-147490000D01*
X198120000Y-144780000D02*
X199390000Y-144780000D01*
X199390000Y-144780000D02*
X199390000Y-146050000D01*
X105490000Y-57940000D02*
X96690000Y-57940000D01*
X96690000Y-57940000D02*
X96690000Y-48740000D01*
X111390000Y-55240000D02*
X111390000Y-57940000D01*
X111390000Y-57940000D02*
X109490000Y-57940000D01*
X96690000Y-48740000D02*
X111390000Y-48740000D01*
X111390000Y-48740000D02*
X111390000Y-51340000D01*
X175200000Y-138490000D02*
X177860000Y-138490000D01*
X175200000Y-133350000D02*
X175200000Y-138490000D01*
X177860000Y-133350000D02*
X177860000Y-138490000D01*
X175200000Y-133350000D02*
X177860000Y-133350000D01*
X175200000Y-132080000D02*
X175200000Y-130750000D01*
X175200000Y-130750000D02*
X176530000Y-130750000D01*
X192770000Y-115510000D02*
G75*
G02X190770000Y-115510000I-1000000J0D01*
G01*
X190770000Y-115510000D02*
X189120000Y-115510000D01*
X189120000Y-115510000D02*
X189120000Y-133410000D01*
X189120000Y-133410000D02*
X194420000Y-133410000D01*
X194420000Y-133410000D02*
X194420000Y-115510000D01*
X194420000Y-115510000D02*
X192770000Y-115510000D01*
X186630000Y-115450000D02*
X186630000Y-133470000D01*
X186630000Y-133470000D02*
X196910000Y-133470000D01*
X196910000Y-133470000D02*
X196910000Y-115450000D01*
X196910000Y-115450000D02*
X186630000Y-115450000D01*
X126095000Y-82490000D02*
G75*
G02X124095000Y-82490000I-1000000J0D01*
G01*
X124095000Y-82490000D02*
X118635000Y-82490000D01*
X118635000Y-82490000D02*
X118635000Y-133410000D01*
X118635000Y-133410000D02*
X131555000Y-133410000D01*
X131555000Y-133410000D02*
X131555000Y-82490000D01*
X131555000Y-82490000D02*
X126095000Y-82490000D01*
X116145000Y-82430000D02*
X116145000Y-133470000D01*
X116145000Y-133470000D02*
X134045000Y-133470000D01*
X134045000Y-133470000D02*
X134045000Y-82430000D01*
X134045000Y-82430000D02*
X116145000Y-82430000D01*
X192770000Y-82490000D02*
G75*
G02X190770000Y-82490000I-1000000J0D01*
G01*
X190770000Y-82490000D02*
X189120000Y-82490000D01*
X189120000Y-82490000D02*
X189120000Y-108010000D01*
X189120000Y-108010000D02*
X194420000Y-108010000D01*
X194420000Y-108010000D02*
X194420000Y-82490000D01*
X194420000Y-82490000D02*
X192770000Y-82490000D01*
X186630000Y-82430000D02*
X186630000Y-108070000D01*
X186630000Y-108070000D02*
X196910000Y-108070000D01*
X196910000Y-108070000D02*
X196910000Y-82430000D01*
X196910000Y-82430000D02*
X186630000Y-82430000D01*
X108645000Y-82490000D02*
X103445000Y-82490000D01*
X108645000Y-130810000D02*
X108645000Y-82490000D01*
X103445000Y-133410000D02*
X103445000Y-82490000D01*
X108645000Y-130810000D02*
X106045000Y-130810000D01*
X106045000Y-130810000D02*
X106045000Y-133410000D01*
X106045000Y-133410000D02*
X103445000Y-133410000D01*
X108645000Y-132080000D02*
X108645000Y-133410000D01*
X108645000Y-133410000D02*
X107315000Y-133410000D01*
X158690000Y-90230000D02*
X161350000Y-90230000D01*
X158690000Y-85090000D02*
X158690000Y-90230000D01*
X161350000Y-85090000D02*
X161350000Y-90230000D01*
X158690000Y-85090000D02*
X161350000Y-85090000D01*
X158690000Y-83820000D02*
X158690000Y-82490000D01*
X158690000Y-82490000D02*
X160020000Y-82490000D01*
X121919538Y-55060000D02*
G75*
G03X123464830Y-49510000I462J2990000D01*
G01*
X121920462Y-55060000D02*
G75*
G02X120375170Y-49510000I-462J2990000D01*
G01*
X124420000Y-52070000D02*
G75*
G03X124420000Y-52070000I-2500000J0D01*
G01*
X123465000Y-49510000D02*
X120375000Y-49510000D01*
X129539538Y-55060000D02*
G75*
G03X131084830Y-49510000I462J2990000D01*
G01*
X129540462Y-55060000D02*
G75*
G02X127995170Y-49510000I-462J2990000D01*
G01*
X132040000Y-52070000D02*
G75*
G03X132040000Y-52070000I-2500000J0D01*
G01*
X131085000Y-49510000D02*
X127995000Y-49510000D01*
X137159538Y-55060000D02*
G75*
G03X138704830Y-49510000I462J2990000D01*
G01*
X137160462Y-55060000D02*
G75*
G02X135615170Y-49510000I-462J2990000D01*
G01*
X139660000Y-52070000D02*
G75*
G03X139660000Y-52070000I-2500000J0D01*
G01*
X138705000Y-49510000D02*
X135615000Y-49510000D01*
X144779538Y-55060000D02*
G75*
G03X146324830Y-49510000I462J2990000D01*
G01*
X144780462Y-55060000D02*
G75*
G02X143235170Y-49510000I-462J2990000D01*
G01*
X147280000Y-52070000D02*
G75*
G03X147280000Y-52070000I-2500000J0D01*
G01*
X146325000Y-49510000D02*
X143235000Y-49510000D01*
X154939538Y-55060000D02*
G75*
G03X156484830Y-49510000I462J2990000D01*
G01*
X154940462Y-55060000D02*
G75*
G02X153395170Y-49510000I-462J2990000D01*
G01*
X157440000Y-52070000D02*
G75*
G03X157440000Y-52070000I-2500000J0D01*
G01*
X156485000Y-49510000D02*
X153395000Y-49510000D01*
X162559538Y-55060000D02*
G75*
G03X164104830Y-49510000I462J2990000D01*
G01*
X162560462Y-55060000D02*
G75*
G02X161015170Y-49510000I-462J2990000D01*
G01*
X165060000Y-52070000D02*
G75*
G03X165060000Y-52070000I-2500000J0D01*
G01*
X164105000Y-49510000D02*
X161015000Y-49510000D01*
X170179538Y-55060000D02*
G75*
G03X171724830Y-49510000I462J2990000D01*
G01*
X170180462Y-55060000D02*
G75*
G02X168635170Y-49510000I-462J2990000D01*
G01*
X172680000Y-52070000D02*
G75*
G03X172680000Y-52070000I-2500000J0D01*
G01*
X171725000Y-49510000D02*
X168635000Y-49510000D01*
X177799538Y-55060000D02*
G75*
G03X179344830Y-49510000I462J2990000D01*
G01*
X177800462Y-55060000D02*
G75*
G02X176255170Y-49510000I-462J2990000D01*
G01*
X180300000Y-52070000D02*
G75*
G03X180300000Y-52070000I-2500000J0D01*
G01*
X179345000Y-49510000D02*
X176255000Y-49510000D01*
X147380000Y-78800000D02*
X147380000Y-76140000D01*
X142240000Y-78800000D02*
X147380000Y-78800000D01*
X142240000Y-76140000D02*
X147380000Y-76140000D01*
X142240000Y-78800000D02*
X142240000Y-76140000D01*
X140970000Y-78800000D02*
X139640000Y-78800000D01*
X139640000Y-78800000D02*
X139640000Y-77470000D01*
X166965000Y-73060000D02*
X169585000Y-73060000D01*
X169585000Y-73060000D02*
X169585000Y-66640000D01*
X169585000Y-66640000D02*
X166965000Y-66640000D01*
X166965000Y-66640000D02*
X166965000Y-73060000D01*
X168275000Y-73950000D02*
X168275000Y-73060000D01*
X168275000Y-65750000D02*
X168275000Y-66640000D01*
X170140000Y-73060000D02*
X172760000Y-73060000D01*
X172760000Y-73060000D02*
X172760000Y-66640000D01*
X172760000Y-66640000D02*
X170140000Y-66640000D01*
X170140000Y-66640000D02*
X170140000Y-73060000D01*
X171450000Y-73950000D02*
X171450000Y-73060000D01*
X171450000Y-65750000D02*
X171450000Y-66640000D01*
X173315000Y-73060000D02*
X175935000Y-73060000D01*
X175935000Y-73060000D02*
X175935000Y-66640000D01*
X175935000Y-66640000D02*
X173315000Y-66640000D01*
X173315000Y-66640000D02*
X173315000Y-73060000D01*
X174625000Y-73950000D02*
X174625000Y-73060000D01*
X174625000Y-65750000D02*
X174625000Y-66640000D01*
X176490000Y-73060000D02*
X179110000Y-73060000D01*
X179110000Y-73060000D02*
X179110000Y-66640000D01*
X179110000Y-66640000D02*
X176490000Y-66640000D01*
X176490000Y-66640000D02*
X176490000Y-73060000D01*
X177800000Y-73950000D02*
X177800000Y-73060000D01*
X177800000Y-65750000D02*
X177800000Y-66640000D01*
X179665000Y-73060000D02*
X182285000Y-73060000D01*
X182285000Y-73060000D02*
X182285000Y-66640000D01*
X182285000Y-66640000D02*
X179665000Y-66640000D01*
X179665000Y-66640000D02*
X179665000Y-73060000D01*
X180975000Y-73950000D02*
X180975000Y-73060000D01*
X180975000Y-65750000D02*
X180975000Y-66640000D01*
X182840000Y-73060000D02*
X185460000Y-73060000D01*
X185460000Y-73060000D02*
X185460000Y-66640000D01*
X185460000Y-66640000D02*
X182840000Y-66640000D01*
X182840000Y-66640000D02*
X182840000Y-73060000D01*
X184150000Y-73950000D02*
X184150000Y-73060000D01*
X184150000Y-65750000D02*
X184150000Y-66640000D01*
X186015000Y-73060000D02*
X188635000Y-73060000D01*
X188635000Y-73060000D02*
X188635000Y-66640000D01*
X188635000Y-66640000D02*
X186015000Y-66640000D01*
X186015000Y-66640000D02*
X186015000Y-73060000D01*
X187325000Y-73950000D02*
X187325000Y-73060000D01*
X187325000Y-65750000D02*
X187325000Y-66640000D01*
X189190000Y-73060000D02*
X191810000Y-73060000D01*
X191810000Y-73060000D02*
X191810000Y-66640000D01*
X191810000Y-66640000D02*
X189190000Y-66640000D01*
X189190000Y-66640000D02*
X189190000Y-73060000D01*
X190500000Y-73950000D02*
X190500000Y-73060000D01*
X190500000Y-65750000D02*
X190500000Y-66640000D01*
X139640000Y-68850000D02*
G75*
G02X139640000Y-70850000I0J-1000000D01*
G01*
X139640000Y-70850000D02*
X139640000Y-72500000D01*
X139640000Y-72500000D02*
X165160000Y-72500000D01*
X165160000Y-72500000D02*
X165160000Y-67200000D01*
X165160000Y-67200000D02*
X139640000Y-67200000D01*
X139640000Y-67200000D02*
X139640000Y-68850000D01*
X139580000Y-74990000D02*
X165220000Y-74990000D01*
X165220000Y-74990000D02*
X165220000Y-64710000D01*
X165220000Y-64710000D02*
X139580000Y-64710000D01*
X139580000Y-64710000D02*
X139580000Y-74990000D01*
X179615000Y-81320000D02*
X174795000Y-81320000D01*
X179615000Y-78700000D02*
X174795000Y-78700000D01*
X179615000Y-81320000D02*
X179615000Y-81006000D01*
X179615000Y-79014000D02*
X179615000Y-78700000D01*
X174795000Y-81320000D02*
X174795000Y-81006000D01*
X174795000Y-79014000D02*
X174795000Y-78700000D01*
X108525000Y-77530000D02*
X111185000Y-77530000D01*
X108525000Y-67310000D02*
X108525000Y-77530000D01*
X111185000Y-67310000D02*
X111185000Y-77530000D01*
X108525000Y-67310000D02*
X111185000Y-67310000D01*
X108525000Y-66040000D02*
X108525000Y-64710000D01*
X108525000Y-64710000D02*
X109855000Y-64710000D01*
X149590000Y-82490000D02*
G75*
G02X147590000Y-82490000I-1000000J0D01*
G01*
X147590000Y-82490000D02*
X142130000Y-82490000D01*
X142130000Y-82490000D02*
X142130000Y-118170000D01*
X142130000Y-118170000D02*
X155050000Y-118170000D01*
X155050000Y-118170000D02*
X155050000Y-82490000D01*
X155050000Y-82490000D02*
X149590000Y-82490000D01*
X139640000Y-82430000D02*
X139640000Y-118230000D01*
X139640000Y-118230000D02*
X157540000Y-118230000D01*
X157540000Y-118230000D02*
X157540000Y-82430000D01*
X157540000Y-82430000D02*
X139640000Y-82430000D01*
X173085000Y-82490000D02*
G75*
G02X171085000Y-82490000I-1000000J0D01*
G01*
X171085000Y-82490000D02*
X165625000Y-82490000D01*
X165625000Y-82490000D02*
X165625000Y-118170000D01*
X165625000Y-118170000D02*
X178545000Y-118170000D01*
X178545000Y-118170000D02*
X178545000Y-82490000D01*
X178545000Y-82490000D02*
X173085000Y-82490000D01*
X163135000Y-82430000D02*
X163135000Y-118230000D01*
X163135000Y-118230000D02*
X181035000Y-118230000D01*
X181035000Y-118230000D02*
X181035000Y-82430000D01*
X181035000Y-82430000D02*
X163135000Y-82430000D01*
X185995000Y-57615000D02*
X196275000Y-57615000D01*
X196275000Y-57615000D02*
X196275000Y-54955000D01*
X196275000Y-54955000D02*
X185995000Y-54955000D01*
X185995000Y-54955000D02*
X185995000Y-57615000D01*
X186945000Y-54955000D02*
X186945000Y-48955000D01*
X186945000Y-48955000D02*
X187705000Y-48955000D01*
X187705000Y-48955000D02*
X187705000Y-54955000D01*
X187005000Y-54955000D02*
X187005000Y-48955000D01*
X187125000Y-54955000D02*
X187125000Y-48955000D01*
X187245000Y-54955000D02*
X187245000Y-48955000D01*
X187365000Y-54955000D02*
X187365000Y-48955000D01*
X187485000Y-54955000D02*
X187485000Y-48955000D01*
X187605000Y-54955000D02*
X187605000Y-48955000D01*
X186945000Y-57945000D02*
X186945000Y-57615000D01*
X187705000Y-57945000D02*
X187705000Y-57615000D01*
X188595000Y-57615000D02*
X188595000Y-54955000D01*
X189485000Y-54955000D02*
X189485000Y-48955000D01*
X189485000Y-48955000D02*
X190245000Y-48955000D01*
X190245000Y-48955000D02*
X190245000Y-54955000D01*
X189485000Y-58012071D02*
X189485000Y-57615000D01*
X190245000Y-58012071D02*
X190245000Y-57615000D01*
X191135000Y-57615000D02*
X191135000Y-54955000D01*
X192025000Y-54955000D02*
X192025000Y-48955000D01*
X192025000Y-48955000D02*
X192785000Y-48955000D01*
X192785000Y-48955000D02*
X192785000Y-54955000D01*
X192025000Y-58012071D02*
X192025000Y-57615000D01*
X192785000Y-58012071D02*
X192785000Y-57615000D01*
X193675000Y-57615000D02*
X193675000Y-54955000D01*
X194565000Y-54955000D02*
X194565000Y-48955000D01*
X194565000Y-48955000D02*
X195325000Y-48955000D01*
X195325000Y-48955000D02*
X195325000Y-54955000D01*
X194565000Y-58012071D02*
X194565000Y-57615000D01*
X195325000Y-58012071D02*
X195325000Y-57615000D01*
X187325000Y-60325000D02*
X186055000Y-60325000D01*
X186055000Y-60325000D02*
X186055000Y-59055000D01*
D14*
X192873334Y-113387143D02*
X192825715Y-113434762D01*
X192682858Y-113482381D01*
X192587620Y-113482381D01*
X192444762Y-113434762D01*
X192349524Y-113339524D01*
X192301905Y-113244286D01*
X192254286Y-113053810D01*
X192254286Y-112910952D01*
X192301905Y-112720476D01*
X192349524Y-112625238D01*
X192444762Y-112530000D01*
X192587620Y-112482381D01*
X192682858Y-112482381D01*
X192825715Y-112530000D01*
X192873334Y-112577619D01*
X193825715Y-113482381D02*
X193254286Y-113482381D01*
X193540000Y-113482381D02*
X193540000Y-112482381D01*
X193444762Y-112625238D01*
X193349524Y-112720476D01*
X193254286Y-112768095D01*
X130135334Y-80367143D02*
X130087715Y-80414762D01*
X129944858Y-80462381D01*
X129849620Y-80462381D01*
X129706762Y-80414762D01*
X129611524Y-80319524D01*
X129563905Y-80224286D01*
X129516286Y-80033810D01*
X129516286Y-79890952D01*
X129563905Y-79700476D01*
X129611524Y-79605238D01*
X129706762Y-79510000D01*
X129849620Y-79462381D01*
X129944858Y-79462381D01*
X130087715Y-79510000D01*
X130135334Y-79557619D01*
X130516286Y-79557619D02*
X130563905Y-79510000D01*
X130659143Y-79462381D01*
X130897239Y-79462381D01*
X130992477Y-79510000D01*
X131040096Y-79557619D01*
X131087715Y-79652857D01*
X131087715Y-79748095D01*
X131040096Y-79890952D01*
X130468667Y-80462381D01*
X131087715Y-80462381D01*
X136993334Y-68937143D02*
X136945715Y-68984762D01*
X136802858Y-69032381D01*
X136707620Y-69032381D01*
X136564762Y-68984762D01*
X136469524Y-68889524D01*
X136421905Y-68794286D01*
X136374286Y-68603810D01*
X136374286Y-68460952D01*
X136421905Y-68270476D01*
X136469524Y-68175238D01*
X136564762Y-68080000D01*
X136707620Y-68032381D01*
X136802858Y-68032381D01*
X136945715Y-68080000D01*
X136993334Y-68127619D01*
X137326667Y-68032381D02*
X137945715Y-68032381D01*
X137612381Y-68413333D01*
X137755239Y-68413333D01*
X137850477Y-68460952D01*
X137898096Y-68508571D01*
X137945715Y-68603810D01*
X137945715Y-68841905D01*
X137898096Y-68937143D01*
X137850477Y-68984762D01*
X137755239Y-69032381D01*
X137469524Y-69032381D01*
X137374286Y-68984762D01*
X137326667Y-68937143D01*
X192873334Y-80367143D02*
X192825715Y-80414762D01*
X192682858Y-80462381D01*
X192587620Y-80462381D01*
X192444762Y-80414762D01*
X192349524Y-80319524D01*
X192301905Y-80224286D01*
X192254286Y-80033810D01*
X192254286Y-79890952D01*
X192301905Y-79700476D01*
X192349524Y-79605238D01*
X192444762Y-79510000D01*
X192587620Y-79462381D01*
X192682858Y-79462381D01*
X192825715Y-79510000D01*
X192873334Y-79557619D01*
X193730477Y-79795714D02*
X193730477Y-80462381D01*
X193492381Y-79414762D02*
X193254286Y-80129048D01*
X193873334Y-80129048D01*
X153503334Y-80367143D02*
X153455715Y-80414762D01*
X153312858Y-80462381D01*
X153217620Y-80462381D01*
X153074762Y-80414762D01*
X152979524Y-80319524D01*
X152931905Y-80224286D01*
X152884286Y-80033810D01*
X152884286Y-79890952D01*
X152931905Y-79700476D01*
X152979524Y-79605238D01*
X153074762Y-79510000D01*
X153217620Y-79462381D01*
X153312858Y-79462381D01*
X153455715Y-79510000D01*
X153503334Y-79557619D01*
X154408096Y-79462381D02*
X153931905Y-79462381D01*
X153884286Y-79938571D01*
X153931905Y-79890952D01*
X154027143Y-79843333D01*
X154265239Y-79843333D01*
X154360477Y-79890952D01*
X154408096Y-79938571D01*
X154455715Y-80033810D01*
X154455715Y-80271905D01*
X154408096Y-80367143D01*
X154360477Y-80414762D01*
X154265239Y-80462381D01*
X154027143Y-80462381D01*
X153931905Y-80414762D01*
X153884286Y-80367143D01*
X140803334Y-133167381D02*
X140470000Y-132691190D01*
X140231905Y-133167381D02*
X140231905Y-132167381D01*
X140612858Y-132167381D01*
X140708096Y-132215000D01*
X140755715Y-132262619D01*
X140803334Y-132357857D01*
X140803334Y-132500714D01*
X140755715Y-132595952D01*
X140708096Y-132643571D01*
X140612858Y-132691190D01*
X140231905Y-132691190D01*
X141755715Y-133167381D02*
X141184286Y-133167381D01*
X141470000Y-133167381D02*
X141470000Y-132167381D01*
X141374762Y-132310238D01*
X141279524Y-132405476D01*
X141184286Y-132453095D01*
X140755714Y-136580476D02*
X141422381Y-136580476D01*
X140374762Y-136818572D02*
X141089048Y-137056667D01*
X141089048Y-136437619D01*
X140422381Y-136151905D02*
X140422381Y-135485238D01*
X141422381Y-135913810D01*
X141422381Y-135104286D02*
X140422381Y-135104286D01*
X141041429Y-135009048D02*
X141422381Y-134723333D01*
X140755714Y-134723333D02*
X141136667Y-135104286D01*
X145248334Y-133167381D02*
X144915000Y-132691190D01*
X144676905Y-133167381D02*
X144676905Y-132167381D01*
X145057858Y-132167381D01*
X145153096Y-132215000D01*
X145200715Y-132262619D01*
X145248334Y-132357857D01*
X145248334Y-132500714D01*
X145200715Y-132595952D01*
X145153096Y-132643571D01*
X145057858Y-132691190D01*
X144676905Y-132691190D01*
X145629286Y-132262619D02*
X145676905Y-132215000D01*
X145772143Y-132167381D01*
X146010239Y-132167381D01*
X146105477Y-132215000D01*
X146153096Y-132262619D01*
X146200715Y-132357857D01*
X146200715Y-132453095D01*
X146153096Y-132595952D01*
X145581667Y-133167381D01*
X146200715Y-133167381D01*
X145200714Y-136580476D02*
X145867381Y-136580476D01*
X144819762Y-136818572D02*
X145534048Y-137056667D01*
X145534048Y-136437619D01*
X144867381Y-136151905D02*
X144867381Y-135485238D01*
X145867381Y-135913810D01*
X145867381Y-135104286D02*
X144867381Y-135104286D01*
X145486429Y-135009048D02*
X145867381Y-134723333D01*
X145200714Y-134723333D02*
X145581667Y-135104286D01*
X149693334Y-133167381D02*
X149360000Y-132691190D01*
X149121905Y-133167381D02*
X149121905Y-132167381D01*
X149502858Y-132167381D01*
X149598096Y-132215000D01*
X149645715Y-132262619D01*
X149693334Y-132357857D01*
X149693334Y-132500714D01*
X149645715Y-132595952D01*
X149598096Y-132643571D01*
X149502858Y-132691190D01*
X149121905Y-132691190D01*
X150026667Y-132167381D02*
X150645715Y-132167381D01*
X150312381Y-132548333D01*
X150455239Y-132548333D01*
X150550477Y-132595952D01*
X150598096Y-132643571D01*
X150645715Y-132738810D01*
X150645715Y-132976905D01*
X150598096Y-133072143D01*
X150550477Y-133119762D01*
X150455239Y-133167381D01*
X150169524Y-133167381D01*
X150074286Y-133119762D01*
X150026667Y-133072143D01*
X149645714Y-136580476D02*
X150312381Y-136580476D01*
X149264762Y-136818572D02*
X149979048Y-137056667D01*
X149979048Y-136437619D01*
X149312381Y-136151905D02*
X149312381Y-135485238D01*
X150312381Y-135913810D01*
X150312381Y-135104286D02*
X149312381Y-135104286D01*
X149931429Y-135009048D02*
X150312381Y-134723333D01*
X149645714Y-134723333D02*
X150026667Y-135104286D01*
X154138334Y-133167381D02*
X153805000Y-132691190D01*
X153566905Y-133167381D02*
X153566905Y-132167381D01*
X153947858Y-132167381D01*
X154043096Y-132215000D01*
X154090715Y-132262619D01*
X154138334Y-132357857D01*
X154138334Y-132500714D01*
X154090715Y-132595952D01*
X154043096Y-132643571D01*
X153947858Y-132691190D01*
X153566905Y-132691190D01*
X154995477Y-132500714D02*
X154995477Y-133167381D01*
X154757381Y-132119762D02*
X154519286Y-132834048D01*
X155138334Y-132834048D01*
X154090714Y-136580476D02*
X154757381Y-136580476D01*
X153709762Y-136818572D02*
X154424048Y-137056667D01*
X154424048Y-136437619D01*
X153757381Y-136151905D02*
X153757381Y-135485238D01*
X154757381Y-135913810D01*
X154757381Y-135104286D02*
X153757381Y-135104286D01*
X154376429Y-135009048D02*
X154757381Y-134723333D01*
X154090714Y-134723333D02*
X154471667Y-135104286D01*
X158583334Y-133167381D02*
X158250000Y-132691190D01*
X158011905Y-133167381D02*
X158011905Y-132167381D01*
X158392858Y-132167381D01*
X158488096Y-132215000D01*
X158535715Y-132262619D01*
X158583334Y-132357857D01*
X158583334Y-132500714D01*
X158535715Y-132595952D01*
X158488096Y-132643571D01*
X158392858Y-132691190D01*
X158011905Y-132691190D01*
X159488096Y-132167381D02*
X159011905Y-132167381D01*
X158964286Y-132643571D01*
X159011905Y-132595952D01*
X159107143Y-132548333D01*
X159345239Y-132548333D01*
X159440477Y-132595952D01*
X159488096Y-132643571D01*
X159535715Y-132738810D01*
X159535715Y-132976905D01*
X159488096Y-133072143D01*
X159440477Y-133119762D01*
X159345239Y-133167381D01*
X159107143Y-133167381D01*
X159011905Y-133119762D01*
X158964286Y-133072143D01*
X158535714Y-136580476D02*
X159202381Y-136580476D01*
X158154762Y-136818572D02*
X158869048Y-137056667D01*
X158869048Y-136437619D01*
X158202381Y-136151905D02*
X158202381Y-135485238D01*
X159202381Y-135913810D01*
X159202381Y-135104286D02*
X158202381Y-135104286D01*
X158821429Y-135009048D02*
X159202381Y-134723333D01*
X158535714Y-134723333D02*
X158916667Y-135104286D01*
X163028334Y-133167381D02*
X162695000Y-132691190D01*
X162456905Y-133167381D02*
X162456905Y-132167381D01*
X162837858Y-132167381D01*
X162933096Y-132215000D01*
X162980715Y-132262619D01*
X163028334Y-132357857D01*
X163028334Y-132500714D01*
X162980715Y-132595952D01*
X162933096Y-132643571D01*
X162837858Y-132691190D01*
X162456905Y-132691190D01*
X163885477Y-132167381D02*
X163695000Y-132167381D01*
X163599762Y-132215000D01*
X163552143Y-132262619D01*
X163456905Y-132405476D01*
X163409286Y-132595952D01*
X163409286Y-132976905D01*
X163456905Y-133072143D01*
X163504524Y-133119762D01*
X163599762Y-133167381D01*
X163790239Y-133167381D01*
X163885477Y-133119762D01*
X163933096Y-133072143D01*
X163980715Y-132976905D01*
X163980715Y-132738810D01*
X163933096Y-132643571D01*
X163885477Y-132595952D01*
X163790239Y-132548333D01*
X163599762Y-132548333D01*
X163504524Y-132595952D01*
X163456905Y-132643571D01*
X163409286Y-132738810D01*
X162980714Y-136580476D02*
X163647381Y-136580476D01*
X162599762Y-136818572D02*
X163314048Y-137056667D01*
X163314048Y-136437619D01*
X162647381Y-136151905D02*
X162647381Y-135485238D01*
X163647381Y-135913810D01*
X163647381Y-135104286D02*
X162647381Y-135104286D01*
X163266429Y-135009048D02*
X163647381Y-134723333D01*
X162980714Y-134723333D02*
X163361667Y-135104286D01*
X167473334Y-133167381D02*
X167140000Y-132691190D01*
X166901905Y-133167381D02*
X166901905Y-132167381D01*
X167282858Y-132167381D01*
X167378096Y-132215000D01*
X167425715Y-132262619D01*
X167473334Y-132357857D01*
X167473334Y-132500714D01*
X167425715Y-132595952D01*
X167378096Y-132643571D01*
X167282858Y-132691190D01*
X166901905Y-132691190D01*
X167806667Y-132167381D02*
X168473334Y-132167381D01*
X168044762Y-133167381D01*
X167425714Y-136580476D02*
X168092381Y-136580476D01*
X167044762Y-136818572D02*
X167759048Y-137056667D01*
X167759048Y-136437619D01*
X167092381Y-136151905D02*
X167092381Y-135485238D01*
X168092381Y-135913810D01*
X168092381Y-135104286D02*
X167092381Y-135104286D01*
X167711429Y-135009048D02*
X168092381Y-134723333D01*
X167425714Y-134723333D02*
X167806667Y-135104286D01*
X122380476Y-70572381D02*
X123047143Y-71572381D01*
X123047143Y-70572381D02*
X122380476Y-71572381D01*
X123951905Y-71572381D02*
X123380476Y-71572381D01*
X123666190Y-71572381D02*
X123666190Y-70572381D01*
X123570952Y-70715238D01*
X123475714Y-70810476D01*
X123380476Y-70858095D01*
X199842381Y-150768333D02*
X200556667Y-150768333D01*
X200699524Y-150815953D01*
X200794762Y-150911191D01*
X200842381Y-151054048D01*
X200842381Y-151149286D01*
X199842381Y-149815952D02*
X199842381Y-150292143D01*
X200318571Y-150339762D01*
X200270952Y-150292143D01*
X200223333Y-150196905D01*
X200223333Y-149958809D01*
X200270952Y-149863571D01*
X200318571Y-149815952D01*
X200413810Y-149768333D01*
X200651905Y-149768333D01*
X200747143Y-149815952D01*
X200794762Y-149863571D01*
X200842381Y-149958809D01*
X200842381Y-150196905D01*
X200794762Y-150292143D01*
X200747143Y-150339762D01*
X109521667Y-46442381D02*
X109521667Y-47156667D01*
X109474047Y-47299524D01*
X109378809Y-47394762D01*
X109235952Y-47442381D01*
X109140714Y-47442381D01*
X109902619Y-46442381D02*
X110569286Y-46442381D01*
X110140714Y-47442381D01*
X191008095Y-118832381D02*
X191008095Y-119641905D01*
X191055714Y-119737143D01*
X191103333Y-119784762D01*
X191198571Y-119832381D01*
X191389048Y-119832381D01*
X191484286Y-119784762D01*
X191531905Y-119737143D01*
X191579524Y-119641905D01*
X191579524Y-118832381D01*
X192579524Y-119832381D02*
X192008095Y-119832381D01*
X192293809Y-119832381D02*
X192293809Y-118832381D01*
X192198571Y-118975238D01*
X192103333Y-119070476D01*
X192008095Y-119118095D01*
X191222381Y-127102857D02*
X191222381Y-126436190D01*
X192222381Y-126864762D01*
X191555714Y-125626666D02*
X192222381Y-125626666D01*
X191174762Y-125864762D02*
X191889048Y-126102857D01*
X191889048Y-125483809D01*
X192222381Y-124626666D02*
X192222381Y-125102857D01*
X191222381Y-125102857D01*
X192174762Y-124340952D02*
X192222381Y-124198095D01*
X192222381Y-123959999D01*
X192174762Y-123864761D01*
X192127143Y-123817142D01*
X192031905Y-123769523D01*
X191936667Y-123769523D01*
X191841429Y-123817142D01*
X191793810Y-123864761D01*
X191746190Y-123959999D01*
X191698571Y-124150476D01*
X191650952Y-124245714D01*
X191603333Y-124293333D01*
X191508095Y-124340952D01*
X191412857Y-124340952D01*
X191317619Y-124293333D01*
X191270000Y-124245714D01*
X191222381Y-124150476D01*
X191222381Y-123912380D01*
X191270000Y-123769523D01*
X191222381Y-123150476D02*
X191222381Y-123055237D01*
X191270000Y-122959999D01*
X191317619Y-122912380D01*
X191412857Y-122864761D01*
X191603333Y-122817142D01*
X191841429Y-122817142D01*
X192031905Y-122864761D01*
X192127143Y-122912380D01*
X192174762Y-122959999D01*
X192222381Y-123055237D01*
X192222381Y-123150476D01*
X192174762Y-123245714D01*
X192127143Y-123293333D01*
X192031905Y-123340952D01*
X191841429Y-123388571D01*
X191603333Y-123388571D01*
X191412857Y-123340952D01*
X191317619Y-123293333D01*
X191270000Y-123245714D01*
X191222381Y-123150476D01*
X191555714Y-121959999D02*
X192222381Y-121959999D01*
X191174762Y-122198095D02*
X191889048Y-122436190D01*
X191889048Y-121817142D01*
X124333095Y-85812381D02*
X124333095Y-86621905D01*
X124380714Y-86717143D01*
X124428333Y-86764762D01*
X124523571Y-86812381D01*
X124714048Y-86812381D01*
X124809286Y-86764762D01*
X124856905Y-86717143D01*
X124904524Y-86621905D01*
X124904524Y-85812381D01*
X125333095Y-85907619D02*
X125380714Y-85860000D01*
X125475952Y-85812381D01*
X125714048Y-85812381D01*
X125809286Y-85860000D01*
X125856905Y-85907619D01*
X125904524Y-86002857D01*
X125904524Y-86098095D01*
X125856905Y-86240952D01*
X125285476Y-86812381D01*
X125904524Y-86812381D01*
X124817143Y-110545238D02*
X124864762Y-110592857D01*
X124912381Y-110735714D01*
X124912381Y-110830952D01*
X124864762Y-110973810D01*
X124769524Y-111069048D01*
X124674286Y-111116667D01*
X124483810Y-111164286D01*
X124340952Y-111164286D01*
X124150476Y-111116667D01*
X124055238Y-111069048D01*
X123960000Y-110973810D01*
X123912381Y-110830952D01*
X123912381Y-110735714D01*
X123960000Y-110592857D01*
X124007619Y-110545238D01*
X124912381Y-110116667D02*
X123912381Y-110116667D01*
X123912381Y-109878572D01*
X123960000Y-109735714D01*
X124055238Y-109640476D01*
X124150476Y-109592857D01*
X124340952Y-109545238D01*
X124483810Y-109545238D01*
X124674286Y-109592857D01*
X124769524Y-109640476D01*
X124864762Y-109735714D01*
X124912381Y-109878572D01*
X124912381Y-110116667D01*
X124912381Y-109116667D02*
X123912381Y-109116667D01*
X123912381Y-108735714D01*
X123960000Y-108640476D01*
X124007619Y-108592857D01*
X124102857Y-108545238D01*
X124245714Y-108545238D01*
X124340952Y-108592857D01*
X124388571Y-108640476D01*
X124436190Y-108735714D01*
X124436190Y-109116667D01*
X124912381Y-107592857D02*
X124912381Y-108164286D01*
X124912381Y-107878572D02*
X123912381Y-107878572D01*
X124055238Y-107973810D01*
X124150476Y-108069048D01*
X124198095Y-108164286D01*
X124340952Y-107021429D02*
X124293333Y-107116667D01*
X124245714Y-107164286D01*
X124150476Y-107211905D01*
X124102857Y-107211905D01*
X124007619Y-107164286D01*
X123960000Y-107116667D01*
X123912381Y-107021429D01*
X123912381Y-106830952D01*
X123960000Y-106735714D01*
X124007619Y-106688095D01*
X124102857Y-106640476D01*
X124150476Y-106640476D01*
X124245714Y-106688095D01*
X124293333Y-106735714D01*
X124340952Y-106830952D01*
X124340952Y-107021429D01*
X124388571Y-107116667D01*
X124436190Y-107164286D01*
X124531429Y-107211905D01*
X124721905Y-107211905D01*
X124817143Y-107164286D01*
X124864762Y-107116667D01*
X124912381Y-107021429D01*
X124912381Y-106830952D01*
X124864762Y-106735714D01*
X124817143Y-106688095D01*
X124721905Y-106640476D01*
X124531429Y-106640476D01*
X124436190Y-106688095D01*
X124388571Y-106735714D01*
X124340952Y-106830952D01*
X123912381Y-106021429D02*
X123912381Y-105926190D01*
X123960000Y-105830952D01*
X124007619Y-105783333D01*
X124102857Y-105735714D01*
X124293333Y-105688095D01*
X124531429Y-105688095D01*
X124721905Y-105735714D01*
X124817143Y-105783333D01*
X124864762Y-105830952D01*
X124912381Y-105926190D01*
X124912381Y-106021429D01*
X124864762Y-106116667D01*
X124817143Y-106164286D01*
X124721905Y-106211905D01*
X124531429Y-106259524D01*
X124293333Y-106259524D01*
X124102857Y-106211905D01*
X124007619Y-106164286D01*
X123960000Y-106116667D01*
X123912381Y-106021429D01*
X124007619Y-105307143D02*
X123960000Y-105259524D01*
X123912381Y-105164286D01*
X123912381Y-104926190D01*
X123960000Y-104830952D01*
X124007619Y-104783333D01*
X124102857Y-104735714D01*
X124198095Y-104735714D01*
X124340952Y-104783333D01*
X124912381Y-105354762D01*
X124912381Y-104735714D01*
X191008095Y-85812381D02*
X191008095Y-86621905D01*
X191055714Y-86717143D01*
X191103333Y-86764762D01*
X191198571Y-86812381D01*
X191389048Y-86812381D01*
X191484286Y-86764762D01*
X191531905Y-86717143D01*
X191579524Y-86621905D01*
X191579524Y-85812381D01*
X192484286Y-86145714D02*
X192484286Y-86812381D01*
X192246190Y-85764762D02*
X192008095Y-86479048D01*
X192627143Y-86479048D01*
X191222381Y-98369048D02*
X191222381Y-97702381D01*
X192222381Y-98130953D01*
X191555714Y-96892857D02*
X192222381Y-96892857D01*
X191174762Y-97130953D02*
X191889048Y-97369048D01*
X191889048Y-96750000D01*
X192222381Y-95892857D02*
X192222381Y-96369048D01*
X191222381Y-96369048D01*
X192174762Y-95607143D02*
X192222381Y-95464286D01*
X192222381Y-95226190D01*
X192174762Y-95130952D01*
X192127143Y-95083333D01*
X192031905Y-95035714D01*
X191936667Y-95035714D01*
X191841429Y-95083333D01*
X191793810Y-95130952D01*
X191746190Y-95226190D01*
X191698571Y-95416667D01*
X191650952Y-95511905D01*
X191603333Y-95559524D01*
X191508095Y-95607143D01*
X191412857Y-95607143D01*
X191317619Y-95559524D01*
X191270000Y-95511905D01*
X191222381Y-95416667D01*
X191222381Y-95178571D01*
X191270000Y-95035714D01*
X191222381Y-94702381D02*
X191222381Y-94083333D01*
X191603333Y-94416667D01*
X191603333Y-94273809D01*
X191650952Y-94178571D01*
X191698571Y-94130952D01*
X191793810Y-94083333D01*
X192031905Y-94083333D01*
X192127143Y-94130952D01*
X192174762Y-94178571D01*
X192222381Y-94273809D01*
X192222381Y-94559524D01*
X192174762Y-94654762D01*
X192127143Y-94702381D01*
X191222381Y-93750000D02*
X191222381Y-93083333D01*
X192222381Y-93511905D01*
X191222381Y-92797619D02*
X191222381Y-92178571D01*
X191603333Y-92511905D01*
X191603333Y-92369047D01*
X191650952Y-92273809D01*
X191698571Y-92226190D01*
X191793810Y-92178571D01*
X192031905Y-92178571D01*
X192127143Y-92226190D01*
X192174762Y-92273809D01*
X192222381Y-92369047D01*
X192222381Y-92654762D01*
X192174762Y-92750000D01*
X192127143Y-92797619D01*
X159186667Y-80732381D02*
X159186667Y-81446667D01*
X159139047Y-81589524D01*
X159043809Y-81684762D01*
X158900952Y-81732381D01*
X158805714Y-81732381D01*
X159662857Y-81732381D02*
X159662857Y-80732381D01*
X160043810Y-80732381D01*
X160139048Y-80780000D01*
X160186667Y-80827619D01*
X160234286Y-80922857D01*
X160234286Y-81065714D01*
X160186667Y-81160952D01*
X160139048Y-81208571D01*
X160043810Y-81256190D01*
X159662857Y-81256190D01*
X161139048Y-80732381D02*
X160662857Y-80732381D01*
X160615238Y-81208571D01*
X160662857Y-81160952D01*
X160758095Y-81113333D01*
X160996191Y-81113333D01*
X161091429Y-81160952D01*
X161139048Y-81208571D01*
X161186667Y-81303810D01*
X161186667Y-81541905D01*
X161139048Y-81637143D01*
X161091429Y-81684762D01*
X160996191Y-81732381D01*
X160758095Y-81732381D01*
X160662857Y-81684762D01*
X160615238Y-81637143D01*
X121181905Y-47442381D02*
X121181905Y-46442381D01*
X121420000Y-46442381D01*
X121562858Y-46490000D01*
X121658096Y-46585238D01*
X121705715Y-46680476D01*
X121753334Y-46870952D01*
X121753334Y-47013810D01*
X121705715Y-47204286D01*
X121658096Y-47299524D01*
X121562858Y-47394762D01*
X121420000Y-47442381D01*
X121181905Y-47442381D01*
X122705715Y-47442381D02*
X122134286Y-47442381D01*
X122420000Y-47442381D02*
X122420000Y-46442381D01*
X122324762Y-46585238D01*
X122229524Y-46680476D01*
X122134286Y-46728095D01*
X128801905Y-47442381D02*
X128801905Y-46442381D01*
X129040000Y-46442381D01*
X129182858Y-46490000D01*
X129278096Y-46585238D01*
X129325715Y-46680476D01*
X129373334Y-46870952D01*
X129373334Y-47013810D01*
X129325715Y-47204286D01*
X129278096Y-47299524D01*
X129182858Y-47394762D01*
X129040000Y-47442381D01*
X128801905Y-47442381D01*
X129754286Y-46537619D02*
X129801905Y-46490000D01*
X129897143Y-46442381D01*
X130135239Y-46442381D01*
X130230477Y-46490000D01*
X130278096Y-46537619D01*
X130325715Y-46632857D01*
X130325715Y-46728095D01*
X130278096Y-46870952D01*
X129706667Y-47442381D01*
X130325715Y-47442381D01*
X136421905Y-47442381D02*
X136421905Y-46442381D01*
X136660000Y-46442381D01*
X136802858Y-46490000D01*
X136898096Y-46585238D01*
X136945715Y-46680476D01*
X136993334Y-46870952D01*
X136993334Y-47013810D01*
X136945715Y-47204286D01*
X136898096Y-47299524D01*
X136802858Y-47394762D01*
X136660000Y-47442381D01*
X136421905Y-47442381D01*
X137326667Y-46442381D02*
X137945715Y-46442381D01*
X137612381Y-46823333D01*
X137755239Y-46823333D01*
X137850477Y-46870952D01*
X137898096Y-46918571D01*
X137945715Y-47013810D01*
X137945715Y-47251905D01*
X137898096Y-47347143D01*
X137850477Y-47394762D01*
X137755239Y-47442381D01*
X137469524Y-47442381D01*
X137374286Y-47394762D01*
X137326667Y-47347143D01*
X144041905Y-47442381D02*
X144041905Y-46442381D01*
X144280000Y-46442381D01*
X144422858Y-46490000D01*
X144518096Y-46585238D01*
X144565715Y-46680476D01*
X144613334Y-46870952D01*
X144613334Y-47013810D01*
X144565715Y-47204286D01*
X144518096Y-47299524D01*
X144422858Y-47394762D01*
X144280000Y-47442381D01*
X144041905Y-47442381D01*
X145470477Y-46775714D02*
X145470477Y-47442381D01*
X145232381Y-46394762D02*
X144994286Y-47109048D01*
X145613334Y-47109048D01*
X154201905Y-47442381D02*
X154201905Y-46442381D01*
X154440000Y-46442381D01*
X154582858Y-46490000D01*
X154678096Y-46585238D01*
X154725715Y-46680476D01*
X154773334Y-46870952D01*
X154773334Y-47013810D01*
X154725715Y-47204286D01*
X154678096Y-47299524D01*
X154582858Y-47394762D01*
X154440000Y-47442381D01*
X154201905Y-47442381D01*
X155678096Y-46442381D02*
X155201905Y-46442381D01*
X155154286Y-46918571D01*
X155201905Y-46870952D01*
X155297143Y-46823333D01*
X155535239Y-46823333D01*
X155630477Y-46870952D01*
X155678096Y-46918571D01*
X155725715Y-47013810D01*
X155725715Y-47251905D01*
X155678096Y-47347143D01*
X155630477Y-47394762D01*
X155535239Y-47442381D01*
X155297143Y-47442381D01*
X155201905Y-47394762D01*
X155154286Y-47347143D01*
X161821905Y-47442381D02*
X161821905Y-46442381D01*
X162060000Y-46442381D01*
X162202858Y-46490000D01*
X162298096Y-46585238D01*
X162345715Y-46680476D01*
X162393334Y-46870952D01*
X162393334Y-47013810D01*
X162345715Y-47204286D01*
X162298096Y-47299524D01*
X162202858Y-47394762D01*
X162060000Y-47442381D01*
X161821905Y-47442381D01*
X163250477Y-46442381D02*
X163060000Y-46442381D01*
X162964762Y-46490000D01*
X162917143Y-46537619D01*
X162821905Y-46680476D01*
X162774286Y-46870952D01*
X162774286Y-47251905D01*
X162821905Y-47347143D01*
X162869524Y-47394762D01*
X162964762Y-47442381D01*
X163155239Y-47442381D01*
X163250477Y-47394762D01*
X163298096Y-47347143D01*
X163345715Y-47251905D01*
X163345715Y-47013810D01*
X163298096Y-46918571D01*
X163250477Y-46870952D01*
X163155239Y-46823333D01*
X162964762Y-46823333D01*
X162869524Y-46870952D01*
X162821905Y-46918571D01*
X162774286Y-47013810D01*
X169441905Y-47442381D02*
X169441905Y-46442381D01*
X169680000Y-46442381D01*
X169822858Y-46490000D01*
X169918096Y-46585238D01*
X169965715Y-46680476D01*
X170013334Y-46870952D01*
X170013334Y-47013810D01*
X169965715Y-47204286D01*
X169918096Y-47299524D01*
X169822858Y-47394762D01*
X169680000Y-47442381D01*
X169441905Y-47442381D01*
X170346667Y-46442381D02*
X171013334Y-46442381D01*
X170584762Y-47442381D01*
X177061905Y-47442381D02*
X177061905Y-46442381D01*
X177300000Y-46442381D01*
X177442858Y-46490000D01*
X177538096Y-46585238D01*
X177585715Y-46680476D01*
X177633334Y-46870952D01*
X177633334Y-47013810D01*
X177585715Y-47204286D01*
X177538096Y-47299524D01*
X177442858Y-47394762D01*
X177300000Y-47442381D01*
X177061905Y-47442381D01*
X178204762Y-46870952D02*
X178109524Y-46823333D01*
X178061905Y-46775714D01*
X178014286Y-46680476D01*
X178014286Y-46632857D01*
X178061905Y-46537619D01*
X178109524Y-46490000D01*
X178204762Y-46442381D01*
X178395239Y-46442381D01*
X178490477Y-46490000D01*
X178538096Y-46537619D01*
X178585715Y-46632857D01*
X178585715Y-46680476D01*
X178538096Y-46775714D01*
X178490477Y-46823333D01*
X178395239Y-46870952D01*
X178204762Y-46870952D01*
X178109524Y-46918571D01*
X178061905Y-46966190D01*
X178014286Y-47061429D01*
X178014286Y-47251905D01*
X178061905Y-47347143D01*
X178109524Y-47394762D01*
X178204762Y-47442381D01*
X178395239Y-47442381D01*
X178490477Y-47394762D01*
X178538096Y-47347143D01*
X178585715Y-47251905D01*
X178585715Y-47061429D01*
X178538096Y-46966190D01*
X178490477Y-46918571D01*
X178395239Y-46870952D01*
X168141667Y-68397381D02*
X167875000Y-67921190D01*
X167684524Y-68397381D02*
X167684524Y-67397381D01*
X167989286Y-67397381D01*
X168065477Y-67445000D01*
X168103572Y-67492619D01*
X168141667Y-67587857D01*
X168141667Y-67730714D01*
X168103572Y-67825952D01*
X168065477Y-67873571D01*
X167989286Y-67921190D01*
X167684524Y-67921190D01*
X168598810Y-67825952D02*
X168522619Y-67778333D01*
X168484524Y-67730714D01*
X168446429Y-67635476D01*
X168446429Y-67587857D01*
X168484524Y-67492619D01*
X168522619Y-67445000D01*
X168598810Y-67397381D01*
X168751191Y-67397381D01*
X168827381Y-67445000D01*
X168865477Y-67492619D01*
X168903572Y-67587857D01*
X168903572Y-67635476D01*
X168865477Y-67730714D01*
X168827381Y-67778333D01*
X168751191Y-67825952D01*
X168598810Y-67825952D01*
X168522619Y-67873571D01*
X168484524Y-67921190D01*
X168446429Y-68016429D01*
X168446429Y-68206905D01*
X168484524Y-68302143D01*
X168522619Y-68349762D01*
X168598810Y-68397381D01*
X168751191Y-68397381D01*
X168827381Y-68349762D01*
X168865477Y-68302143D01*
X168903572Y-68206905D01*
X168903572Y-68016429D01*
X168865477Y-67921190D01*
X168827381Y-67873571D01*
X168751191Y-67825952D01*
X167822619Y-72358095D02*
X167775000Y-72310476D01*
X167727381Y-72215238D01*
X167727381Y-71977142D01*
X167775000Y-71881904D01*
X167822619Y-71834285D01*
X167917857Y-71786666D01*
X168013095Y-71786666D01*
X168155952Y-71834285D01*
X168727381Y-72405714D01*
X168727381Y-71786666D01*
X167822619Y-71405714D02*
X167775000Y-71358095D01*
X167727381Y-71262857D01*
X167727381Y-71024761D01*
X167775000Y-70929523D01*
X167822619Y-70881904D01*
X167917857Y-70834285D01*
X168013095Y-70834285D01*
X168155952Y-70881904D01*
X168727381Y-71453333D01*
X168727381Y-70834285D01*
X167727381Y-70215238D02*
X167727381Y-70119999D01*
X167775000Y-70024761D01*
X167822619Y-69977142D01*
X167917857Y-69929523D01*
X168108333Y-69881904D01*
X168346429Y-69881904D01*
X168536905Y-69929523D01*
X168632143Y-69977142D01*
X168679762Y-70024761D01*
X168727381Y-70119999D01*
X168727381Y-70215238D01*
X168679762Y-70310476D01*
X168632143Y-70358095D01*
X168536905Y-70405714D01*
X168346429Y-70453333D01*
X168108333Y-70453333D01*
X167917857Y-70405714D01*
X167822619Y-70358095D01*
X167775000Y-70310476D01*
X167727381Y-70215238D01*
X171316667Y-68397381D02*
X171050000Y-67921190D01*
X170859524Y-68397381D02*
X170859524Y-67397381D01*
X171164286Y-67397381D01*
X171240477Y-67445000D01*
X171278572Y-67492619D01*
X171316667Y-67587857D01*
X171316667Y-67730714D01*
X171278572Y-67825952D01*
X171240477Y-67873571D01*
X171164286Y-67921190D01*
X170859524Y-67921190D01*
X171697619Y-68397381D02*
X171850000Y-68397381D01*
X171926191Y-68349762D01*
X171964286Y-68302143D01*
X172040477Y-68159286D01*
X172078572Y-67968810D01*
X172078572Y-67587857D01*
X172040477Y-67492619D01*
X172002381Y-67445000D01*
X171926191Y-67397381D01*
X171773810Y-67397381D01*
X171697619Y-67445000D01*
X171659524Y-67492619D01*
X171621429Y-67587857D01*
X171621429Y-67825952D01*
X171659524Y-67921190D01*
X171697619Y-67968810D01*
X171773810Y-68016429D01*
X171926191Y-68016429D01*
X172002381Y-67968810D01*
X172040477Y-67921190D01*
X172078572Y-67825952D01*
X170997619Y-72358095D02*
X170950000Y-72310476D01*
X170902381Y-72215238D01*
X170902381Y-71977142D01*
X170950000Y-71881904D01*
X170997619Y-71834285D01*
X171092857Y-71786666D01*
X171188095Y-71786666D01*
X171330952Y-71834285D01*
X171902381Y-72405714D01*
X171902381Y-71786666D01*
X170997619Y-71405714D02*
X170950000Y-71358095D01*
X170902381Y-71262857D01*
X170902381Y-71024761D01*
X170950000Y-70929523D01*
X170997619Y-70881904D01*
X171092857Y-70834285D01*
X171188095Y-70834285D01*
X171330952Y-70881904D01*
X171902381Y-71453333D01*
X171902381Y-70834285D01*
X170902381Y-70215238D02*
X170902381Y-70119999D01*
X170950000Y-70024761D01*
X170997619Y-69977142D01*
X171092857Y-69929523D01*
X171283333Y-69881904D01*
X171521429Y-69881904D01*
X171711905Y-69929523D01*
X171807143Y-69977142D01*
X171854762Y-70024761D01*
X171902381Y-70119999D01*
X171902381Y-70215238D01*
X171854762Y-70310476D01*
X171807143Y-70358095D01*
X171711905Y-70405714D01*
X171521429Y-70453333D01*
X171283333Y-70453333D01*
X171092857Y-70405714D01*
X170997619Y-70358095D01*
X170950000Y-70310476D01*
X170902381Y-70215238D01*
X174110714Y-68397381D02*
X173844047Y-67921190D01*
X173653571Y-68397381D02*
X173653571Y-67397381D01*
X173958333Y-67397381D01*
X174034524Y-67445000D01*
X174072619Y-67492619D01*
X174110714Y-67587857D01*
X174110714Y-67730714D01*
X174072619Y-67825952D01*
X174034524Y-67873571D01*
X173958333Y-67921190D01*
X173653571Y-67921190D01*
X174872619Y-68397381D02*
X174415476Y-68397381D01*
X174644047Y-68397381D02*
X174644047Y-67397381D01*
X174567857Y-67540238D01*
X174491666Y-67635476D01*
X174415476Y-67683095D01*
X175367857Y-67397381D02*
X175444048Y-67397381D01*
X175520238Y-67445000D01*
X175558333Y-67492619D01*
X175596429Y-67587857D01*
X175634524Y-67778333D01*
X175634524Y-68016429D01*
X175596429Y-68206905D01*
X175558333Y-68302143D01*
X175520238Y-68349762D01*
X175444048Y-68397381D01*
X175367857Y-68397381D01*
X175291667Y-68349762D01*
X175253571Y-68302143D01*
X175215476Y-68206905D01*
X175177381Y-68016429D01*
X175177381Y-67778333D01*
X175215476Y-67587857D01*
X175253571Y-67492619D01*
X175291667Y-67445000D01*
X175367857Y-67397381D01*
X174172619Y-72358095D02*
X174125000Y-72310476D01*
X174077381Y-72215238D01*
X174077381Y-71977142D01*
X174125000Y-71881904D01*
X174172619Y-71834285D01*
X174267857Y-71786666D01*
X174363095Y-71786666D01*
X174505952Y-71834285D01*
X175077381Y-72405714D01*
X175077381Y-71786666D01*
X174172619Y-71405714D02*
X174125000Y-71358095D01*
X174077381Y-71262857D01*
X174077381Y-71024761D01*
X174125000Y-70929523D01*
X174172619Y-70881904D01*
X174267857Y-70834285D01*
X174363095Y-70834285D01*
X174505952Y-70881904D01*
X175077381Y-71453333D01*
X175077381Y-70834285D01*
X174077381Y-70215238D02*
X174077381Y-70119999D01*
X174125000Y-70024761D01*
X174172619Y-69977142D01*
X174267857Y-69929523D01*
X174458333Y-69881904D01*
X174696429Y-69881904D01*
X174886905Y-69929523D01*
X174982143Y-69977142D01*
X175029762Y-70024761D01*
X175077381Y-70119999D01*
X175077381Y-70215238D01*
X175029762Y-70310476D01*
X174982143Y-70358095D01*
X174886905Y-70405714D01*
X174696429Y-70453333D01*
X174458333Y-70453333D01*
X174267857Y-70405714D01*
X174172619Y-70358095D01*
X174125000Y-70310476D01*
X174077381Y-70215238D01*
X177285714Y-68397381D02*
X177019047Y-67921190D01*
X176828571Y-68397381D02*
X176828571Y-67397381D01*
X177133333Y-67397381D01*
X177209524Y-67445000D01*
X177247619Y-67492619D01*
X177285714Y-67587857D01*
X177285714Y-67730714D01*
X177247619Y-67825952D01*
X177209524Y-67873571D01*
X177133333Y-67921190D01*
X176828571Y-67921190D01*
X178047619Y-68397381D02*
X177590476Y-68397381D01*
X177819047Y-68397381D02*
X177819047Y-67397381D01*
X177742857Y-67540238D01*
X177666666Y-67635476D01*
X177590476Y-67683095D01*
X178809524Y-68397381D02*
X178352381Y-68397381D01*
X178580952Y-68397381D02*
X178580952Y-67397381D01*
X178504762Y-67540238D01*
X178428571Y-67635476D01*
X178352381Y-67683095D01*
X177347619Y-72358095D02*
X177300000Y-72310476D01*
X177252381Y-72215238D01*
X177252381Y-71977142D01*
X177300000Y-71881904D01*
X177347619Y-71834285D01*
X177442857Y-71786666D01*
X177538095Y-71786666D01*
X177680952Y-71834285D01*
X178252381Y-72405714D01*
X178252381Y-71786666D01*
X177347619Y-71405714D02*
X177300000Y-71358095D01*
X177252381Y-71262857D01*
X177252381Y-71024761D01*
X177300000Y-70929523D01*
X177347619Y-70881904D01*
X177442857Y-70834285D01*
X177538095Y-70834285D01*
X177680952Y-70881904D01*
X178252381Y-71453333D01*
X178252381Y-70834285D01*
X177252381Y-70215238D02*
X177252381Y-70119999D01*
X177300000Y-70024761D01*
X177347619Y-69977142D01*
X177442857Y-69929523D01*
X177633333Y-69881904D01*
X177871429Y-69881904D01*
X178061905Y-69929523D01*
X178157143Y-69977142D01*
X178204762Y-70024761D01*
X178252381Y-70119999D01*
X178252381Y-70215238D01*
X178204762Y-70310476D01*
X178157143Y-70358095D01*
X178061905Y-70405714D01*
X177871429Y-70453333D01*
X177633333Y-70453333D01*
X177442857Y-70405714D01*
X177347619Y-70358095D01*
X177300000Y-70310476D01*
X177252381Y-70215238D01*
X180460714Y-68397381D02*
X180194047Y-67921190D01*
X180003571Y-68397381D02*
X180003571Y-67397381D01*
X180308333Y-67397381D01*
X180384524Y-67445000D01*
X180422619Y-67492619D01*
X180460714Y-67587857D01*
X180460714Y-67730714D01*
X180422619Y-67825952D01*
X180384524Y-67873571D01*
X180308333Y-67921190D01*
X180003571Y-67921190D01*
X181222619Y-68397381D02*
X180765476Y-68397381D01*
X180994047Y-68397381D02*
X180994047Y-67397381D01*
X180917857Y-67540238D01*
X180841666Y-67635476D01*
X180765476Y-67683095D01*
X181527381Y-67492619D02*
X181565476Y-67445000D01*
X181641667Y-67397381D01*
X181832143Y-67397381D01*
X181908333Y-67445000D01*
X181946429Y-67492619D01*
X181984524Y-67587857D01*
X181984524Y-67683095D01*
X181946429Y-67825952D01*
X181489286Y-68397381D01*
X181984524Y-68397381D01*
X180522619Y-72358095D02*
X180475000Y-72310476D01*
X180427381Y-72215238D01*
X180427381Y-71977142D01*
X180475000Y-71881904D01*
X180522619Y-71834285D01*
X180617857Y-71786666D01*
X180713095Y-71786666D01*
X180855952Y-71834285D01*
X181427381Y-72405714D01*
X181427381Y-71786666D01*
X180522619Y-71405714D02*
X180475000Y-71358095D01*
X180427381Y-71262857D01*
X180427381Y-71024761D01*
X180475000Y-70929523D01*
X180522619Y-70881904D01*
X180617857Y-70834285D01*
X180713095Y-70834285D01*
X180855952Y-70881904D01*
X181427381Y-71453333D01*
X181427381Y-70834285D01*
X180427381Y-70215238D02*
X180427381Y-70119999D01*
X180475000Y-70024761D01*
X180522619Y-69977142D01*
X180617857Y-69929523D01*
X180808333Y-69881904D01*
X181046429Y-69881904D01*
X181236905Y-69929523D01*
X181332143Y-69977142D01*
X181379762Y-70024761D01*
X181427381Y-70119999D01*
X181427381Y-70215238D01*
X181379762Y-70310476D01*
X181332143Y-70358095D01*
X181236905Y-70405714D01*
X181046429Y-70453333D01*
X180808333Y-70453333D01*
X180617857Y-70405714D01*
X180522619Y-70358095D01*
X180475000Y-70310476D01*
X180427381Y-70215238D01*
X183635714Y-68397381D02*
X183369047Y-67921190D01*
X183178571Y-68397381D02*
X183178571Y-67397381D01*
X183483333Y-67397381D01*
X183559524Y-67445000D01*
X183597619Y-67492619D01*
X183635714Y-67587857D01*
X183635714Y-67730714D01*
X183597619Y-67825952D01*
X183559524Y-67873571D01*
X183483333Y-67921190D01*
X183178571Y-67921190D01*
X184397619Y-68397381D02*
X183940476Y-68397381D01*
X184169047Y-68397381D02*
X184169047Y-67397381D01*
X184092857Y-67540238D01*
X184016666Y-67635476D01*
X183940476Y-67683095D01*
X184664286Y-67397381D02*
X185159524Y-67397381D01*
X184892857Y-67778333D01*
X185007143Y-67778333D01*
X185083333Y-67825952D01*
X185121429Y-67873571D01*
X185159524Y-67968810D01*
X185159524Y-68206905D01*
X185121429Y-68302143D01*
X185083333Y-68349762D01*
X185007143Y-68397381D01*
X184778571Y-68397381D01*
X184702381Y-68349762D01*
X184664286Y-68302143D01*
X183697619Y-72358095D02*
X183650000Y-72310476D01*
X183602381Y-72215238D01*
X183602381Y-71977142D01*
X183650000Y-71881904D01*
X183697619Y-71834285D01*
X183792857Y-71786666D01*
X183888095Y-71786666D01*
X184030952Y-71834285D01*
X184602381Y-72405714D01*
X184602381Y-71786666D01*
X183697619Y-71405714D02*
X183650000Y-71358095D01*
X183602381Y-71262857D01*
X183602381Y-71024761D01*
X183650000Y-70929523D01*
X183697619Y-70881904D01*
X183792857Y-70834285D01*
X183888095Y-70834285D01*
X184030952Y-70881904D01*
X184602381Y-71453333D01*
X184602381Y-70834285D01*
X183602381Y-70215238D02*
X183602381Y-70119999D01*
X183650000Y-70024761D01*
X183697619Y-69977142D01*
X183792857Y-69929523D01*
X183983333Y-69881904D01*
X184221429Y-69881904D01*
X184411905Y-69929523D01*
X184507143Y-69977142D01*
X184554762Y-70024761D01*
X184602381Y-70119999D01*
X184602381Y-70215238D01*
X184554762Y-70310476D01*
X184507143Y-70358095D01*
X184411905Y-70405714D01*
X184221429Y-70453333D01*
X183983333Y-70453333D01*
X183792857Y-70405714D01*
X183697619Y-70358095D01*
X183650000Y-70310476D01*
X183602381Y-70215238D01*
X186810714Y-68397381D02*
X186544047Y-67921190D01*
X186353571Y-68397381D02*
X186353571Y-67397381D01*
X186658333Y-67397381D01*
X186734524Y-67445000D01*
X186772619Y-67492619D01*
X186810714Y-67587857D01*
X186810714Y-67730714D01*
X186772619Y-67825952D01*
X186734524Y-67873571D01*
X186658333Y-67921190D01*
X186353571Y-67921190D01*
X187572619Y-68397381D02*
X187115476Y-68397381D01*
X187344047Y-68397381D02*
X187344047Y-67397381D01*
X187267857Y-67540238D01*
X187191666Y-67635476D01*
X187115476Y-67683095D01*
X188258333Y-67730714D02*
X188258333Y-68397381D01*
X188067857Y-67349762D02*
X187877381Y-68064048D01*
X188372619Y-68064048D01*
X186872619Y-72358095D02*
X186825000Y-72310476D01*
X186777381Y-72215238D01*
X186777381Y-71977142D01*
X186825000Y-71881904D01*
X186872619Y-71834285D01*
X186967857Y-71786666D01*
X187063095Y-71786666D01*
X187205952Y-71834285D01*
X187777381Y-72405714D01*
X187777381Y-71786666D01*
X186872619Y-71405714D02*
X186825000Y-71358095D01*
X186777381Y-71262857D01*
X186777381Y-71024761D01*
X186825000Y-70929523D01*
X186872619Y-70881904D01*
X186967857Y-70834285D01*
X187063095Y-70834285D01*
X187205952Y-70881904D01*
X187777381Y-71453333D01*
X187777381Y-70834285D01*
X186777381Y-70215238D02*
X186777381Y-70119999D01*
X186825000Y-70024761D01*
X186872619Y-69977142D01*
X186967857Y-69929523D01*
X187158333Y-69881904D01*
X187396429Y-69881904D01*
X187586905Y-69929523D01*
X187682143Y-69977142D01*
X187729762Y-70024761D01*
X187777381Y-70119999D01*
X187777381Y-70215238D01*
X187729762Y-70310476D01*
X187682143Y-70358095D01*
X187586905Y-70405714D01*
X187396429Y-70453333D01*
X187158333Y-70453333D01*
X186967857Y-70405714D01*
X186872619Y-70358095D01*
X186825000Y-70310476D01*
X186777381Y-70215238D01*
X189985714Y-68397381D02*
X189719047Y-67921190D01*
X189528571Y-68397381D02*
X189528571Y-67397381D01*
X189833333Y-67397381D01*
X189909524Y-67445000D01*
X189947619Y-67492619D01*
X189985714Y-67587857D01*
X189985714Y-67730714D01*
X189947619Y-67825952D01*
X189909524Y-67873571D01*
X189833333Y-67921190D01*
X189528571Y-67921190D01*
X190747619Y-68397381D02*
X190290476Y-68397381D01*
X190519047Y-68397381D02*
X190519047Y-67397381D01*
X190442857Y-67540238D01*
X190366666Y-67635476D01*
X190290476Y-67683095D01*
X191471429Y-67397381D02*
X191090476Y-67397381D01*
X191052381Y-67873571D01*
X191090476Y-67825952D01*
X191166667Y-67778333D01*
X191357143Y-67778333D01*
X191433333Y-67825952D01*
X191471429Y-67873571D01*
X191509524Y-67968810D01*
X191509524Y-68206905D01*
X191471429Y-68302143D01*
X191433333Y-68349762D01*
X191357143Y-68397381D01*
X191166667Y-68397381D01*
X191090476Y-68349762D01*
X191052381Y-68302143D01*
X190047619Y-72358095D02*
X190000000Y-72310476D01*
X189952381Y-72215238D01*
X189952381Y-71977142D01*
X190000000Y-71881904D01*
X190047619Y-71834285D01*
X190142857Y-71786666D01*
X190238095Y-71786666D01*
X190380952Y-71834285D01*
X190952381Y-72405714D01*
X190952381Y-71786666D01*
X190047619Y-71405714D02*
X190000000Y-71358095D01*
X189952381Y-71262857D01*
X189952381Y-71024761D01*
X190000000Y-70929523D01*
X190047619Y-70881904D01*
X190142857Y-70834285D01*
X190238095Y-70834285D01*
X190380952Y-70881904D01*
X190952381Y-71453333D01*
X190952381Y-70834285D01*
X189952381Y-70215238D02*
X189952381Y-70119999D01*
X190000000Y-70024761D01*
X190047619Y-69977142D01*
X190142857Y-69929523D01*
X190333333Y-69881904D01*
X190571429Y-69881904D01*
X190761905Y-69929523D01*
X190857143Y-69977142D01*
X190904762Y-70024761D01*
X190952381Y-70119999D01*
X190952381Y-70215238D01*
X190904762Y-70310476D01*
X190857143Y-70358095D01*
X190761905Y-70405714D01*
X190571429Y-70453333D01*
X190333333Y-70453333D01*
X190142857Y-70405714D01*
X190047619Y-70358095D01*
X190000000Y-70310476D01*
X189952381Y-70215238D01*
X142748095Y-69302381D02*
X142748095Y-70111905D01*
X142795714Y-70207143D01*
X142843333Y-70254762D01*
X142938571Y-70302381D01*
X143129048Y-70302381D01*
X143224286Y-70254762D01*
X143271905Y-70207143D01*
X143319524Y-70111905D01*
X143319524Y-69302381D01*
X143700476Y-69302381D02*
X144319524Y-69302381D01*
X143986190Y-69683333D01*
X144129048Y-69683333D01*
X144224286Y-69730952D01*
X144271905Y-69778571D01*
X144319524Y-69873810D01*
X144319524Y-70111905D01*
X144271905Y-70207143D01*
X144224286Y-70254762D01*
X144129048Y-70302381D01*
X143843333Y-70302381D01*
X143748095Y-70254762D01*
X143700476Y-70207143D01*
X149280952Y-69302381D02*
X149947619Y-69302381D01*
X149519047Y-70302381D01*
X150757143Y-69635714D02*
X150757143Y-70302381D01*
X150519047Y-69254762D02*
X150280952Y-69969048D01*
X150900000Y-69969048D01*
X151757143Y-70302381D02*
X151280952Y-70302381D01*
X151280952Y-69302381D01*
X152042857Y-70254762D02*
X152185714Y-70302381D01*
X152423810Y-70302381D01*
X152519048Y-70254762D01*
X152566667Y-70207143D01*
X152614286Y-70111905D01*
X152614286Y-70016667D01*
X152566667Y-69921429D01*
X152519048Y-69873810D01*
X152423810Y-69826190D01*
X152233333Y-69778571D01*
X152138095Y-69730952D01*
X152090476Y-69683333D01*
X152042857Y-69588095D01*
X152042857Y-69492857D01*
X152090476Y-69397619D01*
X152138095Y-69350000D01*
X152233333Y-69302381D01*
X152471429Y-69302381D01*
X152614286Y-69350000D01*
X152995238Y-69397619D02*
X153042857Y-69350000D01*
X153138095Y-69302381D01*
X153376191Y-69302381D01*
X153471429Y-69350000D01*
X153519048Y-69397619D01*
X153566667Y-69492857D01*
X153566667Y-69588095D01*
X153519048Y-69730952D01*
X152947619Y-70302381D01*
X153566667Y-70302381D01*
X154423810Y-69635714D02*
X154423810Y-70302381D01*
X154185714Y-69254762D02*
X153947619Y-69969048D01*
X154566667Y-69969048D01*
X155138095Y-69302381D02*
X155233334Y-69302381D01*
X155328572Y-69350000D01*
X155376191Y-69397619D01*
X155423810Y-69492857D01*
X155471429Y-69683333D01*
X155471429Y-69921429D01*
X155423810Y-70111905D01*
X155376191Y-70207143D01*
X155328572Y-70254762D01*
X155233334Y-70302381D01*
X155138095Y-70302381D01*
X155042857Y-70254762D01*
X154995238Y-70207143D01*
X154947619Y-70111905D01*
X154900000Y-69921429D01*
X154900000Y-69683333D01*
X154947619Y-69492857D01*
X154995238Y-69397619D01*
X155042857Y-69350000D01*
X155138095Y-69302381D01*
X176998334Y-80367143D02*
X176950715Y-80414762D01*
X176807858Y-80462381D01*
X176712620Y-80462381D01*
X176569762Y-80414762D01*
X176474524Y-80319524D01*
X176426905Y-80224286D01*
X176379286Y-80033810D01*
X176379286Y-79890952D01*
X176426905Y-79700476D01*
X176474524Y-79605238D01*
X176569762Y-79510000D01*
X176712620Y-79462381D01*
X176807858Y-79462381D01*
X176950715Y-79510000D01*
X176998334Y-79557619D01*
X177855477Y-79462381D02*
X177665000Y-79462381D01*
X177569762Y-79510000D01*
X177522143Y-79557619D01*
X177426905Y-79700476D01*
X177379286Y-79890952D01*
X177379286Y-80271905D01*
X177426905Y-80367143D01*
X177474524Y-80414762D01*
X177569762Y-80462381D01*
X177760239Y-80462381D01*
X177855477Y-80414762D01*
X177903096Y-80367143D01*
X177950715Y-80271905D01*
X177950715Y-80033810D01*
X177903096Y-79938571D01*
X177855477Y-79890952D01*
X177760239Y-79843333D01*
X177569762Y-79843333D01*
X177474524Y-79890952D01*
X177426905Y-79938571D01*
X177379286Y-80033810D01*
X147828095Y-85812381D02*
X147828095Y-86621905D01*
X147875714Y-86717143D01*
X147923333Y-86764762D01*
X148018571Y-86812381D01*
X148209048Y-86812381D01*
X148304286Y-86764762D01*
X148351905Y-86717143D01*
X148399524Y-86621905D01*
X148399524Y-85812381D01*
X149351905Y-85812381D02*
X148875714Y-85812381D01*
X148828095Y-86288571D01*
X148875714Y-86240952D01*
X148970952Y-86193333D01*
X149209048Y-86193333D01*
X149304286Y-86240952D01*
X149351905Y-86288571D01*
X149399524Y-86383810D01*
X149399524Y-86621905D01*
X149351905Y-86717143D01*
X149304286Y-86764762D01*
X149209048Y-86812381D01*
X148970952Y-86812381D01*
X148875714Y-86764762D01*
X148828095Y-86717143D01*
X171323095Y-85812381D02*
X171323095Y-86621905D01*
X171370714Y-86717143D01*
X171418333Y-86764762D01*
X171513571Y-86812381D01*
X171704048Y-86812381D01*
X171799286Y-86764762D01*
X171846905Y-86717143D01*
X171894524Y-86621905D01*
X171894524Y-85812381D01*
X172799286Y-85812381D02*
X172608809Y-85812381D01*
X172513571Y-85860000D01*
X172465952Y-85907619D01*
X172370714Y-86050476D01*
X172323095Y-86240952D01*
X172323095Y-86621905D01*
X172370714Y-86717143D01*
X172418333Y-86764762D01*
X172513571Y-86812381D01*
X172704048Y-86812381D01*
X172799286Y-86764762D01*
X172846905Y-86717143D01*
X172894524Y-86621905D01*
X172894524Y-86383810D01*
X172846905Y-86288571D01*
X172799286Y-86240952D01*
X172704048Y-86193333D01*
X172513571Y-86193333D01*
X172418333Y-86240952D01*
X172370714Y-86288571D01*
X172323095Y-86383810D01*
X191436667Y-46442381D02*
X191436667Y-47156667D01*
X191389047Y-47299524D01*
X191293809Y-47394762D01*
X191150952Y-47442381D01*
X191055714Y-47442381D01*
X191960476Y-47442381D02*
X192150952Y-47442381D01*
X192246191Y-47394762D01*
X192293810Y-47347143D01*
X192389048Y-47204286D01*
X192436667Y-47013810D01*
X192436667Y-46632857D01*
X192389048Y-46537619D01*
X192341429Y-46490000D01*
X192246191Y-46442381D01*
X192055714Y-46442381D01*
X191960476Y-46490000D01*
X191912857Y-46537619D01*
X191865238Y-46632857D01*
X191865238Y-46870952D01*
X191912857Y-46966190D01*
X191960476Y-47013810D01*
X192055714Y-47061429D01*
X192246191Y-47061429D01*
X192341429Y-47013810D01*
X192389048Y-46966190D01*
X192436667Y-46870952D01*
M02*
