G04 #@! TF.FileFunction,Legend,Bot*
%FSLAX46Y46*%
G04 Gerber Fmt 4.6, Leading zero omitted, Abs format (unit mm)*
G04 Created by KiCad (PCBNEW 4.0.7) date 10/17/18 13:30:52*
%MOMM*%
%LPD*%
G01*
G04 APERTURE LIST*
%ADD10C,0.100000*%
%ADD11C,0.200000*%
%ADD12C,0.300000*%
%ADD13C,0.150000*%
G04 APERTURE END LIST*
D10*
D11*
X133985000Y-64135000D02*
X126365000Y-64135000D01*
X126365000Y-60325000D02*
X120650000Y-60325000D01*
X126365000Y-64135000D02*
X126365000Y-61595000D01*
X120650000Y-64135000D02*
X126365000Y-64135000D01*
X112395000Y-64135000D02*
X118110000Y-64135000D01*
X120650000Y-60325000D02*
X120650000Y-64135000D01*
X112395000Y-61595000D02*
X112395000Y-64135000D01*
X118110000Y-60325000D02*
X118110000Y-48260000D01*
X118110000Y-64135000D02*
X118110000Y-60325000D01*
X112395000Y-61595000D02*
X100330000Y-61595000D01*
X112395000Y-60325000D02*
X112395000Y-61595000D01*
X118110000Y-60325000D02*
X112395000Y-60325000D01*
X126365000Y-61595000D02*
X126365000Y-60325000D01*
X181610000Y-61595000D02*
X126365000Y-61595000D01*
D12*
X195623571Y-55435715D02*
X194909286Y-54935715D01*
X195623571Y-54578572D02*
X194123571Y-54578572D01*
X194123571Y-55150000D01*
X194195000Y-55292858D01*
X194266429Y-55364286D01*
X194409286Y-55435715D01*
X194623571Y-55435715D01*
X194766429Y-55364286D01*
X194837857Y-55292858D01*
X194909286Y-55150000D01*
X194909286Y-54578572D01*
X194123571Y-55935715D02*
X195623571Y-56935715D01*
X194123571Y-56935715D02*
X195623571Y-55935715D01*
X125618571Y-71655714D02*
X125690000Y-71727143D01*
X125904286Y-71798571D01*
X126047143Y-71798571D01*
X126261428Y-71727143D01*
X126404286Y-71584286D01*
X126475714Y-71441429D01*
X126547143Y-71155714D01*
X126547143Y-70941429D01*
X126475714Y-70655714D01*
X126404286Y-70512857D01*
X126261428Y-70370000D01*
X126047143Y-70298571D01*
X125904286Y-70298571D01*
X125690000Y-70370000D01*
X125618571Y-70441429D01*
X124261428Y-71798571D02*
X124975714Y-71798571D01*
X124975714Y-70298571D01*
X123475714Y-70298571D02*
X123190000Y-70298571D01*
X123047142Y-70370000D01*
X122904285Y-70512857D01*
X122832857Y-70798571D01*
X122832857Y-71298571D01*
X122904285Y-71584286D01*
X123047142Y-71727143D01*
X123190000Y-71798571D01*
X123475714Y-71798571D01*
X123618571Y-71727143D01*
X123761428Y-71584286D01*
X123832857Y-71298571D01*
X123832857Y-70798571D01*
X123761428Y-70512857D01*
X123618571Y-70370000D01*
X123475714Y-70298571D01*
X121332856Y-71655714D02*
X121404285Y-71727143D01*
X121618571Y-71798571D01*
X121761428Y-71798571D01*
X121975713Y-71727143D01*
X122118571Y-71584286D01*
X122189999Y-71441429D01*
X122261428Y-71155714D01*
X122261428Y-70941429D01*
X122189999Y-70655714D01*
X122118571Y-70512857D01*
X121975713Y-70370000D01*
X121761428Y-70298571D01*
X121618571Y-70298571D01*
X121404285Y-70370000D01*
X121332856Y-70441429D01*
X120689999Y-71798571D02*
X120689999Y-70298571D01*
X119832856Y-71798571D02*
X120475713Y-70941429D01*
X119832856Y-70298571D02*
X120689999Y-71155714D01*
D11*
X112395000Y-78105000D02*
X112395000Y-64135000D01*
D12*
X191583571Y-54721429D02*
X191583571Y-55578572D01*
X193083571Y-55150001D02*
X191583571Y-55150001D01*
X191583571Y-55935715D02*
X193083571Y-56935715D01*
X191583571Y-56935715D02*
X193083571Y-55935715D01*
X186503571Y-53007143D02*
X188003571Y-53507143D01*
X186503571Y-54007143D01*
X187860714Y-55364286D02*
X187932143Y-55292857D01*
X188003571Y-55078571D01*
X188003571Y-54935714D01*
X187932143Y-54721429D01*
X187789286Y-54578571D01*
X187646429Y-54507143D01*
X187360714Y-54435714D01*
X187146429Y-54435714D01*
X186860714Y-54507143D01*
X186717857Y-54578571D01*
X186575000Y-54721429D01*
X186503571Y-54935714D01*
X186503571Y-55078571D01*
X186575000Y-55292857D01*
X186646429Y-55364286D01*
X187860714Y-56864286D02*
X187932143Y-56792857D01*
X188003571Y-56578571D01*
X188003571Y-56435714D01*
X187932143Y-56221429D01*
X187789286Y-56078571D01*
X187646429Y-56007143D01*
X187360714Y-55935714D01*
X187146429Y-55935714D01*
X186860714Y-56007143D01*
X186717857Y-56078571D01*
X186575000Y-56221429D01*
X186503571Y-56435714D01*
X186503571Y-56578571D01*
X186575000Y-56792857D01*
X186646429Y-56864286D01*
X196735000Y-53721428D02*
X196663571Y-53578571D01*
X196663571Y-53364285D01*
X196735000Y-53150000D01*
X196877857Y-53007142D01*
X197020714Y-52935714D01*
X197306429Y-52864285D01*
X197520714Y-52864285D01*
X197806429Y-52935714D01*
X197949286Y-53007142D01*
X198092143Y-53150000D01*
X198163571Y-53364285D01*
X198163571Y-53507142D01*
X198092143Y-53721428D01*
X198020714Y-53792857D01*
X197520714Y-53792857D01*
X197520714Y-53507142D01*
X198163571Y-54435714D02*
X196663571Y-54435714D01*
X198163571Y-55292857D01*
X196663571Y-55292857D01*
X198163571Y-56007143D02*
X196663571Y-56007143D01*
X196663571Y-56364286D01*
X196735000Y-56578571D01*
X196877857Y-56721429D01*
X197020714Y-56792857D01*
X197306429Y-56864286D01*
X197520714Y-56864286D01*
X197806429Y-56792857D01*
X197949286Y-56721429D01*
X198092143Y-56578571D01*
X198163571Y-56364286D01*
X198163571Y-56007143D01*
X190686429Y-56935714D02*
X190615000Y-56792857D01*
X190472143Y-56650000D01*
X190257857Y-56435714D01*
X190186429Y-56292857D01*
X190186429Y-56150000D01*
X190543571Y-56221428D02*
X190472143Y-56078571D01*
X190329286Y-55935714D01*
X190043571Y-55864285D01*
X189543571Y-55864285D01*
X189257857Y-55935714D01*
X189115000Y-56078571D01*
X189043571Y-56221428D01*
X189043571Y-56507142D01*
X189115000Y-56650000D01*
X189257857Y-56792857D01*
X189543571Y-56864285D01*
X190043571Y-56864285D01*
X190329286Y-56792857D01*
X190472143Y-56650000D01*
X190543571Y-56507142D01*
X190543571Y-56221428D01*
X115149285Y-52513571D02*
X115863571Y-52513571D01*
X115935000Y-53227857D01*
X115863571Y-53156429D01*
X115720714Y-53085000D01*
X115363571Y-53085000D01*
X115220714Y-53156429D01*
X115149285Y-53227857D01*
X115077857Y-53370714D01*
X115077857Y-53727857D01*
X115149285Y-53870714D01*
X115220714Y-53942143D01*
X115363571Y-54013571D01*
X115720714Y-54013571D01*
X115863571Y-53942143D01*
X115935000Y-53870714D01*
X114577857Y-53013571D02*
X114220714Y-54013571D01*
X113863572Y-53013571D01*
X116077857Y-56563571D02*
X116077857Y-55063571D01*
X115720714Y-55063571D01*
X115506429Y-55135000D01*
X115363571Y-55277857D01*
X115292143Y-55420714D01*
X115220714Y-55706429D01*
X115220714Y-55920714D01*
X115292143Y-56206429D01*
X115363571Y-56349286D01*
X115506429Y-56492143D01*
X115720714Y-56563571D01*
X116077857Y-56563571D01*
X113720714Y-56420714D02*
X113792143Y-56492143D01*
X114006429Y-56563571D01*
X114149286Y-56563571D01*
X114363571Y-56492143D01*
X114506429Y-56349286D01*
X114577857Y-56206429D01*
X114649286Y-55920714D01*
X114649286Y-55706429D01*
X114577857Y-55420714D01*
X114506429Y-55277857D01*
X114363571Y-55135000D01*
X114149286Y-55063571D01*
X114006429Y-55063571D01*
X113792143Y-55135000D01*
X113720714Y-55206429D01*
D11*
X191770000Y-61595000D02*
X199390000Y-61595000D01*
X191770000Y-61595000D02*
X182880000Y-61595000D01*
X182880000Y-61595000D02*
X182880000Y-48260000D01*
X157480000Y-118110000D02*
X157480000Y-90805000D01*
X139700000Y-118110000D02*
X157480000Y-118110000D01*
X139700000Y-81915000D02*
X139700000Y-118110000D01*
X163195000Y-118110000D02*
X180975000Y-118110000D01*
X163195000Y-81915000D02*
X163195000Y-118110000D01*
X180975000Y-118110000D02*
X180975000Y-90170000D01*
X137160000Y-77470000D02*
X136525000Y-78105000D01*
X139065000Y-77470000D02*
X137160000Y-77470000D01*
X139065000Y-77470000D02*
X137795000Y-78740000D01*
X139065000Y-77470000D02*
X137795000Y-76200000D01*
X139700000Y-79375000D02*
X144780000Y-79375000D01*
X139700000Y-78740000D02*
X139700000Y-76200000D01*
X147320000Y-78740000D02*
X139700000Y-78740000D01*
X147320000Y-76200000D02*
X147320000Y-78740000D01*
X139700000Y-76200000D02*
X147320000Y-76200000D01*
X136525000Y-78105000D02*
X136525000Y-83185000D01*
D12*
X137132143Y-83868571D02*
X137203571Y-84082857D01*
X137203571Y-84440000D01*
X137132143Y-84582857D01*
X137060714Y-84654286D01*
X136917857Y-84725714D01*
X136775000Y-84725714D01*
X136632143Y-84654286D01*
X136560714Y-84582857D01*
X136489286Y-84440000D01*
X136417857Y-84154286D01*
X136346429Y-84011428D01*
X136275000Y-83940000D01*
X136132143Y-83868571D01*
X135989286Y-83868571D01*
X135846429Y-83940000D01*
X135775000Y-84011428D01*
X135703571Y-84154286D01*
X135703571Y-84511428D01*
X135775000Y-84725714D01*
X136203571Y-85154285D02*
X136203571Y-85725714D01*
X135703571Y-85368571D02*
X136989286Y-85368571D01*
X137132143Y-85439999D01*
X137203571Y-85582857D01*
X137203571Y-85725714D01*
X137203571Y-86868571D02*
X136417857Y-86868571D01*
X136275000Y-86797142D01*
X136203571Y-86654285D01*
X136203571Y-86368571D01*
X136275000Y-86225714D01*
X137132143Y-86868571D02*
X137203571Y-86725714D01*
X137203571Y-86368571D01*
X137132143Y-86225714D01*
X136989286Y-86154285D01*
X136846429Y-86154285D01*
X136703571Y-86225714D01*
X136632143Y-86368571D01*
X136632143Y-86725714D01*
X136560714Y-86868571D01*
X136203571Y-87368571D02*
X136203571Y-87940000D01*
X135703571Y-87582857D02*
X136989286Y-87582857D01*
X137132143Y-87654285D01*
X137203571Y-87797143D01*
X137203571Y-87940000D01*
X136203571Y-89082857D02*
X137203571Y-89082857D01*
X136203571Y-88440000D02*
X136989286Y-88440000D01*
X137132143Y-88511428D01*
X137203571Y-88654286D01*
X137203571Y-88868571D01*
X137132143Y-89011428D01*
X137060714Y-89082857D01*
X137132143Y-89725714D02*
X137203571Y-89868571D01*
X137203571Y-90154286D01*
X137132143Y-90297143D01*
X136989286Y-90368571D01*
X136917857Y-90368571D01*
X136775000Y-90297143D01*
X136703571Y-90154286D01*
X136703571Y-89940000D01*
X136632143Y-89797143D01*
X136489286Y-89725714D01*
X136417857Y-89725714D01*
X136275000Y-89797143D01*
X136203571Y-89940000D01*
X136203571Y-90154286D01*
X136275000Y-90297143D01*
X136417857Y-92154286D02*
X136417857Y-92654286D01*
X137203571Y-92868572D02*
X137203571Y-92154286D01*
X135703571Y-92154286D01*
X135703571Y-92868572D01*
X136203571Y-93511429D02*
X137203571Y-93511429D01*
X136346429Y-93511429D02*
X136275000Y-93582857D01*
X136203571Y-93725715D01*
X136203571Y-93940000D01*
X136275000Y-94082857D01*
X136417857Y-94154286D01*
X137203571Y-94154286D01*
X137203571Y-95511429D02*
X136417857Y-95511429D01*
X136275000Y-95440000D01*
X136203571Y-95297143D01*
X136203571Y-95011429D01*
X136275000Y-94868572D01*
X137132143Y-95511429D02*
X137203571Y-95368572D01*
X137203571Y-95011429D01*
X137132143Y-94868572D01*
X136989286Y-94797143D01*
X136846429Y-94797143D01*
X136703571Y-94868572D01*
X136632143Y-95011429D01*
X136632143Y-95368572D01*
X136560714Y-95511429D01*
X137203571Y-96225715D02*
X135703571Y-96225715D01*
X136275000Y-96225715D02*
X136203571Y-96368572D01*
X136203571Y-96654286D01*
X136275000Y-96797143D01*
X136346429Y-96868572D01*
X136489286Y-96940001D01*
X136917857Y-96940001D01*
X137060714Y-96868572D01*
X137132143Y-96797143D01*
X137203571Y-96654286D01*
X137203571Y-96368572D01*
X137132143Y-96225715D01*
X137203571Y-97797144D02*
X137132143Y-97654286D01*
X136989286Y-97582858D01*
X135703571Y-97582858D01*
X137132143Y-98940000D02*
X137203571Y-98797143D01*
X137203571Y-98511429D01*
X137132143Y-98368572D01*
X136989286Y-98297143D01*
X136417857Y-98297143D01*
X136275000Y-98368572D01*
X136203571Y-98511429D01*
X136203571Y-98797143D01*
X136275000Y-98940000D01*
X136417857Y-99011429D01*
X136560714Y-99011429D01*
X136703571Y-98297143D01*
D11*
X112395000Y-81915000D02*
X108585000Y-81915000D01*
X112395000Y-133477000D02*
X112395000Y-81915000D01*
X108585000Y-133477000D02*
X112395000Y-133477000D01*
X103505000Y-133477000D02*
X103505000Y-133223000D01*
X108585000Y-133477000D02*
X103505000Y-133477000D01*
X133985000Y-133477000D02*
X133985000Y-133223000D01*
X116205000Y-133477000D02*
X133985000Y-133477000D01*
X116205000Y-133223000D02*
X116205000Y-133477000D01*
D12*
X109795571Y-99077000D02*
X111009857Y-99077000D01*
X111152714Y-99148428D01*
X111224143Y-99219857D01*
X111295571Y-99362714D01*
X111295571Y-99648428D01*
X111224143Y-99791286D01*
X111152714Y-99862714D01*
X111009857Y-99934143D01*
X109795571Y-99934143D01*
X111224143Y-100577000D02*
X111295571Y-100791286D01*
X111295571Y-101148429D01*
X111224143Y-101291286D01*
X111152714Y-101362715D01*
X111009857Y-101434143D01*
X110867000Y-101434143D01*
X110724143Y-101362715D01*
X110652714Y-101291286D01*
X110581286Y-101148429D01*
X110509857Y-100862715D01*
X110438429Y-100719857D01*
X110367000Y-100648429D01*
X110224143Y-100577000D01*
X110081286Y-100577000D01*
X109938429Y-100648429D01*
X109867000Y-100719857D01*
X109795571Y-100862715D01*
X109795571Y-101219857D01*
X109867000Y-101434143D01*
X110509857Y-102077000D02*
X110509857Y-102577000D01*
X111295571Y-102791286D02*
X111295571Y-102077000D01*
X109795571Y-102077000D01*
X109795571Y-102791286D01*
X111295571Y-104291286D02*
X110581286Y-103791286D01*
X111295571Y-103434143D02*
X109795571Y-103434143D01*
X109795571Y-104005571D01*
X109867000Y-104148429D01*
X109938429Y-104219857D01*
X110081286Y-104291286D01*
X110295571Y-104291286D01*
X110438429Y-104219857D01*
X110509857Y-104148429D01*
X110581286Y-104005571D01*
X110581286Y-103434143D01*
X111295571Y-106077000D02*
X109795571Y-106077000D01*
X111295571Y-106791286D02*
X109795571Y-106791286D01*
X111295571Y-107648429D01*
X109795571Y-107648429D01*
X109795571Y-108148429D02*
X109795571Y-109005572D01*
X111295571Y-108577001D02*
X109795571Y-108577001D01*
X110509857Y-109505572D02*
X110509857Y-110005572D01*
X111295571Y-110219858D02*
X111295571Y-109505572D01*
X109795571Y-109505572D01*
X109795571Y-110219858D01*
X111295571Y-111719858D02*
X110581286Y-111219858D01*
X111295571Y-110862715D02*
X109795571Y-110862715D01*
X109795571Y-111434143D01*
X109867000Y-111577001D01*
X109938429Y-111648429D01*
X110081286Y-111719858D01*
X110295571Y-111719858D01*
X110438429Y-111648429D01*
X110509857Y-111577001D01*
X110581286Y-111434143D01*
X110581286Y-110862715D01*
X110509857Y-112862715D02*
X110509857Y-112362715D01*
X111295571Y-112362715D02*
X109795571Y-112362715D01*
X109795571Y-113077001D01*
X110867000Y-113577000D02*
X110867000Y-114291286D01*
X111295571Y-113434143D02*
X109795571Y-113934143D01*
X111295571Y-114434143D01*
X111152714Y-115791286D02*
X111224143Y-115719857D01*
X111295571Y-115505571D01*
X111295571Y-115362714D01*
X111224143Y-115148429D01*
X111081286Y-115005571D01*
X110938429Y-114934143D01*
X110652714Y-114862714D01*
X110438429Y-114862714D01*
X110152714Y-114934143D01*
X110009857Y-115005571D01*
X109867000Y-115148429D01*
X109795571Y-115362714D01*
X109795571Y-115505571D01*
X109867000Y-115719857D01*
X109938429Y-115791286D01*
X110509857Y-116434143D02*
X110509857Y-116934143D01*
X111295571Y-117148429D02*
X111295571Y-116434143D01*
X109795571Y-116434143D01*
X109795571Y-117148429D01*
D11*
X103505000Y-81915000D02*
X103505000Y-133350000D01*
X108585000Y-81915000D02*
X103505000Y-81915000D01*
D12*
X153574285Y-59027143D02*
X153359999Y-59098571D01*
X153002856Y-59098571D01*
X152859999Y-59027143D01*
X152788570Y-58955714D01*
X152717142Y-58812857D01*
X152717142Y-58670000D01*
X152788570Y-58527143D01*
X152859999Y-58455714D01*
X153002856Y-58384286D01*
X153288570Y-58312857D01*
X153431428Y-58241429D01*
X153502856Y-58170000D01*
X153574285Y-58027143D01*
X153574285Y-57884286D01*
X153502856Y-57741429D01*
X153431428Y-57670000D01*
X153288570Y-57598571D01*
X152931428Y-57598571D01*
X152717142Y-57670000D01*
X152288571Y-57598571D02*
X151431428Y-57598571D01*
X151859999Y-59098571D02*
X151859999Y-57598571D01*
X151002857Y-58670000D02*
X150288571Y-58670000D01*
X151145714Y-59098571D02*
X150645714Y-57598571D01*
X150145714Y-59098571D01*
X149860000Y-57598571D02*
X149002857Y-57598571D01*
X149431428Y-59098571D02*
X149431428Y-57598571D01*
X148502857Y-57598571D02*
X148502857Y-58812857D01*
X148431429Y-58955714D01*
X148360000Y-59027143D01*
X148217143Y-59098571D01*
X147931429Y-59098571D01*
X147788571Y-59027143D01*
X147717143Y-58955714D01*
X147645714Y-58812857D01*
X147645714Y-57598571D01*
X147002857Y-59027143D02*
X146788571Y-59098571D01*
X146431428Y-59098571D01*
X146288571Y-59027143D01*
X146217142Y-58955714D01*
X146145714Y-58812857D01*
X146145714Y-58670000D01*
X146217142Y-58527143D01*
X146288571Y-58455714D01*
X146431428Y-58384286D01*
X146717142Y-58312857D01*
X146860000Y-58241429D01*
X146931428Y-58170000D01*
X147002857Y-58027143D01*
X147002857Y-57884286D01*
X146931428Y-57741429D01*
X146860000Y-57670000D01*
X146717142Y-57598571D01*
X146360000Y-57598571D01*
X146145714Y-57670000D01*
D11*
X181610000Y-61595000D02*
X181610000Y-48260000D01*
D12*
X155792857Y-69742857D02*
X155578571Y-69814286D01*
X155507143Y-69885714D01*
X155435714Y-70028571D01*
X155435714Y-70242857D01*
X155507143Y-70385714D01*
X155578571Y-70457143D01*
X155721429Y-70528571D01*
X156292857Y-70528571D01*
X156292857Y-69028571D01*
X155792857Y-69028571D01*
X155650000Y-69100000D01*
X155578571Y-69171429D01*
X155507143Y-69314286D01*
X155507143Y-69457143D01*
X155578571Y-69600000D01*
X155650000Y-69671429D01*
X155792857Y-69742857D01*
X156292857Y-69742857D01*
X154792857Y-69028571D02*
X154792857Y-70242857D01*
X154721429Y-70385714D01*
X154650000Y-70457143D01*
X154507143Y-70528571D01*
X154221429Y-70528571D01*
X154078571Y-70457143D01*
X154007143Y-70385714D01*
X153935714Y-70242857D01*
X153935714Y-69028571D01*
X152721428Y-69742857D02*
X153221428Y-69742857D01*
X153221428Y-70528571D02*
X153221428Y-69028571D01*
X152507142Y-69028571D01*
X151435714Y-69742857D02*
X151935714Y-69742857D01*
X151935714Y-70528571D02*
X151935714Y-69028571D01*
X151221428Y-69028571D01*
X150650000Y-69742857D02*
X150150000Y-69742857D01*
X149935714Y-70528571D02*
X150650000Y-70528571D01*
X150650000Y-69028571D01*
X149935714Y-69028571D01*
X148435714Y-70528571D02*
X148935714Y-69814286D01*
X149292857Y-70528571D02*
X149292857Y-69028571D01*
X148721429Y-69028571D01*
X148578571Y-69100000D01*
X148507143Y-69171429D01*
X148435714Y-69314286D01*
X148435714Y-69528571D01*
X148507143Y-69671429D01*
X148578571Y-69742857D01*
X148721429Y-69814286D01*
X149292857Y-69814286D01*
X191535857Y-89928572D02*
X191607286Y-90142858D01*
X191678714Y-90214286D01*
X191821571Y-90285715D01*
X192035857Y-90285715D01*
X192178714Y-90214286D01*
X192250143Y-90142858D01*
X192321571Y-90000000D01*
X192321571Y-89428572D01*
X190821571Y-89428572D01*
X190821571Y-89928572D01*
X190893000Y-90071429D01*
X190964429Y-90142858D01*
X191107286Y-90214286D01*
X191250143Y-90214286D01*
X191393000Y-90142858D01*
X191464429Y-90071429D01*
X191535857Y-89928572D01*
X191535857Y-89428572D01*
X190821571Y-90928572D02*
X192035857Y-90928572D01*
X192178714Y-91000000D01*
X192250143Y-91071429D01*
X192321571Y-91214286D01*
X192321571Y-91500000D01*
X192250143Y-91642858D01*
X192178714Y-91714286D01*
X192035857Y-91785715D01*
X190821571Y-91785715D01*
X192250143Y-92428572D02*
X192321571Y-92642858D01*
X192321571Y-93000001D01*
X192250143Y-93142858D01*
X192178714Y-93214287D01*
X192035857Y-93285715D01*
X191893000Y-93285715D01*
X191750143Y-93214287D01*
X191678714Y-93142858D01*
X191607286Y-93000001D01*
X191535857Y-92714287D01*
X191464429Y-92571429D01*
X191393000Y-92500001D01*
X191250143Y-92428572D01*
X191107286Y-92428572D01*
X190964429Y-92500001D01*
X190893000Y-92571429D01*
X190821571Y-92714287D01*
X190821571Y-93071429D01*
X190893000Y-93285715D01*
X192321571Y-95785715D02*
X192321571Y-95071429D01*
X190821571Y-95071429D01*
X191893000Y-96214286D02*
X191893000Y-96928572D01*
X192321571Y-96071429D02*
X190821571Y-96571429D01*
X192321571Y-97071429D01*
X190821571Y-97357143D02*
X190821571Y-98214286D01*
X192321571Y-97785715D02*
X190821571Y-97785715D01*
X192178714Y-99571429D02*
X192250143Y-99500000D01*
X192321571Y-99285714D01*
X192321571Y-99142857D01*
X192250143Y-98928572D01*
X192107286Y-98785714D01*
X191964429Y-98714286D01*
X191678714Y-98642857D01*
X191464429Y-98642857D01*
X191178714Y-98714286D01*
X191035857Y-98785714D01*
X190893000Y-98928572D01*
X190821571Y-99142857D01*
X190821571Y-99285714D01*
X190893000Y-99500000D01*
X190964429Y-99571429D01*
X192321571Y-100214286D02*
X190821571Y-100214286D01*
X191535857Y-100214286D02*
X191535857Y-101071429D01*
X192321571Y-101071429D02*
X190821571Y-101071429D01*
X192448571Y-119602857D02*
X190948571Y-119602857D01*
X192448571Y-120317143D02*
X190948571Y-120317143D01*
X192448571Y-121174286D01*
X190948571Y-121174286D01*
X190948571Y-121674286D02*
X192448571Y-122174286D01*
X190948571Y-122674286D01*
X191662857Y-123174286D02*
X191662857Y-123674286D01*
X192448571Y-123888572D02*
X192448571Y-123174286D01*
X190948571Y-123174286D01*
X190948571Y-123888572D01*
X192448571Y-125388572D02*
X191734286Y-124888572D01*
X192448571Y-124531429D02*
X190948571Y-124531429D01*
X190948571Y-125102857D01*
X191020000Y-125245715D01*
X191091429Y-125317143D01*
X191234286Y-125388572D01*
X191448571Y-125388572D01*
X191591429Y-125317143D01*
X191662857Y-125245715D01*
X191734286Y-125102857D01*
X191734286Y-124531429D01*
X190948571Y-125817143D02*
X190948571Y-126674286D01*
X192448571Y-126245715D02*
X190948571Y-126245715D01*
X191662857Y-127174286D02*
X191662857Y-127674286D01*
X192448571Y-127888572D02*
X192448571Y-127174286D01*
X190948571Y-127174286D01*
X190948571Y-127888572D01*
X192448571Y-129388572D02*
X191734286Y-128888572D01*
X192448571Y-128531429D02*
X190948571Y-128531429D01*
X190948571Y-129102857D01*
X191020000Y-129245715D01*
X191091429Y-129317143D01*
X191234286Y-129388572D01*
X191448571Y-129388572D01*
X191591429Y-129317143D01*
X191662857Y-129245715D01*
X191734286Y-129102857D01*
X191734286Y-128531429D01*
D11*
X139700000Y-74930000D02*
X139700000Y-64135000D01*
X165100000Y-74930000D02*
X139700000Y-74930000D01*
X165100000Y-64135000D02*
X165100000Y-74930000D01*
X139700000Y-64135000D02*
X165100000Y-64135000D01*
X186690000Y-133350000D02*
X186690000Y-115570000D01*
X196850000Y-133350000D02*
X186690000Y-133350000D01*
X196850000Y-115570000D02*
X196850000Y-133350000D01*
X186690000Y-115570000D02*
X196850000Y-115570000D01*
X186690000Y-107950000D02*
X186690000Y-81915000D01*
X196850000Y-107950000D02*
X186690000Y-107950000D01*
X196850000Y-81915000D02*
X196850000Y-107950000D01*
X186690000Y-81915000D02*
X196850000Y-81915000D01*
D12*
X126023571Y-106718571D02*
X126523571Y-106004286D01*
X126880714Y-106718571D02*
X126880714Y-105218571D01*
X126309286Y-105218571D01*
X126166428Y-105290000D01*
X126095000Y-105361429D01*
X126023571Y-105504286D01*
X126023571Y-105718571D01*
X126095000Y-105861429D01*
X126166428Y-105932857D01*
X126309286Y-106004286D01*
X126880714Y-106004286D01*
X124523571Y-106575714D02*
X124595000Y-106647143D01*
X124809286Y-106718571D01*
X124952143Y-106718571D01*
X125166428Y-106647143D01*
X125309286Y-106504286D01*
X125380714Y-106361429D01*
X125452143Y-106075714D01*
X125452143Y-105861429D01*
X125380714Y-105575714D01*
X125309286Y-105432857D01*
X125166428Y-105290000D01*
X124952143Y-105218571D01*
X124809286Y-105218571D01*
X124595000Y-105290000D01*
X124523571Y-105361429D01*
X123952143Y-106290000D02*
X123237857Y-106290000D01*
X124095000Y-106718571D02*
X123595000Y-105218571D01*
X123095000Y-106718571D01*
X128987856Y-109125714D02*
X129059285Y-109197143D01*
X129273571Y-109268571D01*
X129416428Y-109268571D01*
X129630713Y-109197143D01*
X129773571Y-109054286D01*
X129844999Y-108911429D01*
X129916428Y-108625714D01*
X129916428Y-108411429D01*
X129844999Y-108125714D01*
X129773571Y-107982857D01*
X129630713Y-107840000D01*
X129416428Y-107768571D01*
X129273571Y-107768571D01*
X129059285Y-107840000D01*
X128987856Y-107911429D01*
X128344999Y-109268571D02*
X128344999Y-107768571D01*
X127987856Y-107768571D01*
X127773571Y-107840000D01*
X127630713Y-107982857D01*
X127559285Y-108125714D01*
X127487856Y-108411429D01*
X127487856Y-108625714D01*
X127559285Y-108911429D01*
X127630713Y-109054286D01*
X127773571Y-109197143D01*
X127987856Y-109268571D01*
X128344999Y-109268571D01*
X126844999Y-109268571D02*
X126844999Y-107768571D01*
X126273571Y-107768571D01*
X126130713Y-107840000D01*
X126059285Y-107911429D01*
X125987856Y-108054286D01*
X125987856Y-108268571D01*
X126059285Y-108411429D01*
X126130713Y-108482857D01*
X126273571Y-108554286D01*
X126844999Y-108554286D01*
X124559285Y-109268571D02*
X125416428Y-109268571D01*
X124987856Y-109268571D02*
X124987856Y-107768571D01*
X125130713Y-107982857D01*
X125273571Y-108125714D01*
X125416428Y-108197143D01*
X123702142Y-108411429D02*
X123845000Y-108340000D01*
X123916428Y-108268571D01*
X123987857Y-108125714D01*
X123987857Y-108054286D01*
X123916428Y-107911429D01*
X123845000Y-107840000D01*
X123702142Y-107768571D01*
X123416428Y-107768571D01*
X123273571Y-107840000D01*
X123202142Y-107911429D01*
X123130714Y-108054286D01*
X123130714Y-108125714D01*
X123202142Y-108268571D01*
X123273571Y-108340000D01*
X123416428Y-108411429D01*
X123702142Y-108411429D01*
X123845000Y-108482857D01*
X123916428Y-108554286D01*
X123987857Y-108697143D01*
X123987857Y-108982857D01*
X123916428Y-109125714D01*
X123845000Y-109197143D01*
X123702142Y-109268571D01*
X123416428Y-109268571D01*
X123273571Y-109197143D01*
X123202142Y-109125714D01*
X123130714Y-108982857D01*
X123130714Y-108697143D01*
X123202142Y-108554286D01*
X123273571Y-108482857D01*
X123416428Y-108411429D01*
X122202143Y-107768571D02*
X122059286Y-107768571D01*
X121916429Y-107840000D01*
X121845000Y-107911429D01*
X121773571Y-108054286D01*
X121702143Y-108340000D01*
X121702143Y-108697143D01*
X121773571Y-108982857D01*
X121845000Y-109125714D01*
X121916429Y-109197143D01*
X122059286Y-109268571D01*
X122202143Y-109268571D01*
X122345000Y-109197143D01*
X122416429Y-109125714D01*
X122487857Y-108982857D01*
X122559286Y-108697143D01*
X122559286Y-108340000D01*
X122487857Y-108054286D01*
X122416429Y-107911429D01*
X122345000Y-107840000D01*
X122202143Y-107768571D01*
X121130715Y-107911429D02*
X121059286Y-107840000D01*
X120916429Y-107768571D01*
X120559286Y-107768571D01*
X120416429Y-107840000D01*
X120345000Y-107911429D01*
X120273572Y-108054286D01*
X120273572Y-108197143D01*
X120345000Y-108411429D01*
X121202143Y-109268571D01*
X120273572Y-109268571D01*
D11*
X133985000Y-81915000D02*
X116205000Y-81915000D01*
X133985000Y-133223000D02*
X133985000Y-81915000D01*
X116205000Y-81915000D02*
X116205000Y-133223000D01*
X133985000Y-78105000D02*
X133985000Y-64135000D01*
X112395000Y-78105000D02*
X133985000Y-78105000D01*
X172085000Y-89535000D02*
X172085000Y-90170000D01*
X148590000Y-89535000D02*
X148590000Y-90170000D01*
X174371000Y-129667000D02*
X170180000Y-129667000D01*
X174371000Y-139573000D02*
X178435000Y-139573000D01*
D12*
X178851429Y-141643571D02*
X178851429Y-140143571D01*
X178851429Y-140857857D02*
X177994286Y-140857857D01*
X177994286Y-141643571D02*
X177994286Y-140143571D01*
X177280000Y-141643571D02*
X177280000Y-140143571D01*
X175780000Y-140215000D02*
X175922857Y-140143571D01*
X176137143Y-140143571D01*
X176351428Y-140215000D01*
X176494286Y-140357857D01*
X176565714Y-140500714D01*
X176637143Y-140786429D01*
X176637143Y-141000714D01*
X176565714Y-141286429D01*
X176494286Y-141429286D01*
X176351428Y-141572143D01*
X176137143Y-141643571D01*
X175994286Y-141643571D01*
X175780000Y-141572143D01*
X175708571Y-141500714D01*
X175708571Y-141000714D01*
X175994286Y-141000714D01*
X175065714Y-141643571D02*
X175065714Y-140143571D01*
X175065714Y-140857857D02*
X174208571Y-140857857D01*
X174208571Y-141643571D02*
X174208571Y-140143571D01*
X178565714Y-144193571D02*
X178565714Y-142693571D01*
X178065714Y-143765000D01*
X177565714Y-142693571D01*
X177565714Y-144193571D01*
X176851428Y-143407857D02*
X176351428Y-143407857D01*
X176137142Y-144193571D02*
X176851428Y-144193571D01*
X176851428Y-142693571D01*
X176137142Y-142693571D01*
X175494285Y-144193571D02*
X175494285Y-142693571D01*
X174994285Y-143765000D01*
X174494285Y-142693571D01*
X174494285Y-144193571D01*
X173263571Y-126403571D02*
X173977857Y-126403571D01*
X173977857Y-124903571D01*
X172477857Y-124903571D02*
X172192143Y-124903571D01*
X172049285Y-124975000D01*
X171906428Y-125117857D01*
X171835000Y-125403571D01*
X171835000Y-125903571D01*
X171906428Y-126189286D01*
X172049285Y-126332143D01*
X172192143Y-126403571D01*
X172477857Y-126403571D01*
X172620714Y-126332143D01*
X172763571Y-126189286D01*
X172835000Y-125903571D01*
X172835000Y-125403571D01*
X172763571Y-125117857D01*
X172620714Y-124975000D01*
X172477857Y-124903571D01*
X171334999Y-124903571D02*
X170977856Y-126403571D01*
X170692142Y-125332143D01*
X170406428Y-126403571D01*
X170049285Y-124903571D01*
X174120714Y-128953571D02*
X174120714Y-127453571D01*
X173620714Y-128525000D01*
X173120714Y-127453571D01*
X173120714Y-128953571D01*
X172406428Y-128167857D02*
X171906428Y-128167857D01*
X171692142Y-128953571D02*
X172406428Y-128953571D01*
X172406428Y-127453571D01*
X171692142Y-127453571D01*
X171049285Y-128953571D02*
X171049285Y-127453571D01*
X170549285Y-128525000D01*
X170049285Y-127453571D01*
X170049285Y-128953571D01*
X168624286Y-133957143D02*
X168410000Y-134028571D01*
X168052857Y-134028571D01*
X167910000Y-133957143D01*
X167838571Y-133885714D01*
X167767143Y-133742857D01*
X167767143Y-133600000D01*
X167838571Y-133457143D01*
X167910000Y-133385714D01*
X168052857Y-133314286D01*
X168338571Y-133242857D01*
X168481429Y-133171429D01*
X168552857Y-133100000D01*
X168624286Y-132957143D01*
X168624286Y-132814286D01*
X168552857Y-132671429D01*
X168481429Y-132600000D01*
X168338571Y-132528571D01*
X167981429Y-132528571D01*
X167767143Y-132600000D01*
X166410000Y-134028571D02*
X167124286Y-134028571D01*
X167124286Y-132528571D01*
X165624286Y-132528571D02*
X165338572Y-132528571D01*
X165195714Y-132600000D01*
X165052857Y-132742857D01*
X164981429Y-133028571D01*
X164981429Y-133528571D01*
X165052857Y-133814286D01*
X165195714Y-133957143D01*
X165338572Y-134028571D01*
X165624286Y-134028571D01*
X165767143Y-133957143D01*
X165910000Y-133814286D01*
X165981429Y-133528571D01*
X165981429Y-133028571D01*
X165910000Y-132742857D01*
X165767143Y-132600000D01*
X165624286Y-132528571D01*
X164552857Y-132528571D02*
X163695714Y-132528571D01*
X164124285Y-134028571D02*
X164124285Y-132528571D01*
X162124286Y-133028571D02*
X161052857Y-133028571D01*
X161695714Y-132385714D02*
X162124286Y-134314286D01*
X161195714Y-133671429D02*
X162267143Y-133671429D01*
X161624286Y-134314286D02*
X161195714Y-132385714D01*
X159767143Y-134028571D02*
X160624286Y-134028571D01*
X160195714Y-134028571D02*
X160195714Y-132528571D01*
X160338571Y-132742857D01*
X160481429Y-132885714D01*
X160624286Y-132957143D01*
X188847857Y-136497143D02*
X188633571Y-136568571D01*
X188276428Y-136568571D01*
X188133571Y-136497143D01*
X188062142Y-136425714D01*
X187990714Y-136282857D01*
X187990714Y-136140000D01*
X188062142Y-135997143D01*
X188133571Y-135925714D01*
X188276428Y-135854286D01*
X188562142Y-135782857D01*
X188705000Y-135711429D01*
X188776428Y-135640000D01*
X188847857Y-135497143D01*
X188847857Y-135354286D01*
X188776428Y-135211429D01*
X188705000Y-135140000D01*
X188562142Y-135068571D01*
X188205000Y-135068571D01*
X187990714Y-135140000D01*
X186633571Y-136568571D02*
X187347857Y-136568571D01*
X187347857Y-135068571D01*
X185847857Y-135068571D02*
X185562143Y-135068571D01*
X185419285Y-135140000D01*
X185276428Y-135282857D01*
X185205000Y-135568571D01*
X185205000Y-136068571D01*
X185276428Y-136354286D01*
X185419285Y-136497143D01*
X185562143Y-136568571D01*
X185847857Y-136568571D01*
X185990714Y-136497143D01*
X186133571Y-136354286D01*
X186205000Y-136068571D01*
X186205000Y-135568571D01*
X186133571Y-135282857D01*
X185990714Y-135140000D01*
X185847857Y-135068571D01*
X184776428Y-135068571D02*
X183919285Y-135068571D01*
X184347856Y-136568571D02*
X184347856Y-135068571D01*
X182347857Y-135568571D02*
X181276428Y-135568571D01*
X181919285Y-134925714D02*
X182347857Y-136854286D01*
X181419285Y-136211429D02*
X182490714Y-136211429D01*
X181847857Y-136854286D02*
X181419285Y-134925714D01*
X180847857Y-135211429D02*
X180776428Y-135140000D01*
X180633571Y-135068571D01*
X180276428Y-135068571D01*
X180133571Y-135140000D01*
X180062142Y-135211429D01*
X179990714Y-135354286D01*
X179990714Y-135497143D01*
X180062142Y-135711429D01*
X180919285Y-136568571D01*
X179990714Y-136568571D01*
D11*
X169545000Y-130175000D02*
X169545000Y-135890000D01*
X179070000Y-133350000D02*
X179070000Y-139065000D01*
X174371000Y-130175000D02*
X174371000Y-139065000D01*
X170180000Y-130175000D02*
X170180000Y-139065000D01*
X178435000Y-130175000D02*
X170180000Y-130175000D01*
X178435000Y-139065000D02*
X178435000Y-130175000D01*
X170180000Y-139065000D02*
X178435000Y-139065000D01*
X157480000Y-85090000D02*
X157480000Y-90170000D01*
X180975000Y-85725000D02*
X180975000Y-89535000D01*
D12*
X173406428Y-90618571D02*
X173049285Y-92118571D01*
X172763571Y-91047143D01*
X172477857Y-92118571D01*
X172120714Y-90618571D01*
X171549285Y-91332857D02*
X171049285Y-91332857D01*
X170834999Y-92118571D02*
X171549285Y-92118571D01*
X171549285Y-90618571D01*
X170834999Y-90618571D01*
X149911428Y-90618571D02*
X149554285Y-92118571D01*
X149268571Y-91047143D01*
X148982857Y-92118571D01*
X148625714Y-90618571D01*
X148054285Y-91332857D02*
X147554285Y-91332857D01*
X147339999Y-92118571D02*
X148054285Y-92118571D01*
X148054285Y-90618571D01*
X147339999Y-90618571D01*
D11*
X173990000Y-87630000D02*
X172085000Y-89535000D01*
X177800000Y-87630000D02*
X173990000Y-87630000D01*
X177800000Y-87630000D02*
X176530000Y-88900000D01*
X177800000Y-87630000D02*
X176530000Y-86360000D01*
X154305000Y-87630000D02*
X153035000Y-88900000D01*
X154305000Y-87630000D02*
X153035000Y-86360000D01*
X150495000Y-87630000D02*
X148590000Y-89535000D01*
X154305000Y-87630000D02*
X150495000Y-87630000D01*
X181610000Y-82550000D02*
X181610000Y-89535000D01*
X158115000Y-82550000D02*
X158115000Y-90170000D01*
D12*
X176513571Y-102842143D02*
X176299285Y-102913571D01*
X175942142Y-102913571D01*
X175799285Y-102842143D01*
X175727856Y-102770714D01*
X175656428Y-102627857D01*
X175656428Y-102485000D01*
X175727856Y-102342143D01*
X175799285Y-102270714D01*
X175942142Y-102199286D01*
X176227856Y-102127857D01*
X176370714Y-102056429D01*
X176442142Y-101985000D01*
X176513571Y-101842143D01*
X176513571Y-101699286D01*
X176442142Y-101556429D01*
X176370714Y-101485000D01*
X176227856Y-101413571D01*
X175870714Y-101413571D01*
X175656428Y-101485000D01*
X174299285Y-102913571D02*
X175013571Y-102913571D01*
X175013571Y-101413571D01*
X173513571Y-101413571D02*
X173227857Y-101413571D01*
X173084999Y-101485000D01*
X172942142Y-101627857D01*
X172870714Y-101913571D01*
X172870714Y-102413571D01*
X172942142Y-102699286D01*
X173084999Y-102842143D01*
X173227857Y-102913571D01*
X173513571Y-102913571D01*
X173656428Y-102842143D01*
X173799285Y-102699286D01*
X173870714Y-102413571D01*
X173870714Y-101913571D01*
X173799285Y-101627857D01*
X173656428Y-101485000D01*
X173513571Y-101413571D01*
X172442142Y-101413571D02*
X171584999Y-101413571D01*
X172013570Y-102913571D02*
X172013570Y-101413571D01*
X170013571Y-101913571D02*
X168942142Y-101913571D01*
X169584999Y-101270714D02*
X170013571Y-103199286D01*
X169084999Y-102556429D02*
X170156428Y-102556429D01*
X169513571Y-103199286D02*
X169084999Y-101270714D01*
X168513571Y-101556429D02*
X168442142Y-101485000D01*
X168299285Y-101413571D01*
X167942142Y-101413571D01*
X167799285Y-101485000D01*
X167727856Y-101556429D01*
X167656428Y-101699286D01*
X167656428Y-101842143D01*
X167727856Y-102056429D01*
X168584999Y-102913571D01*
X167656428Y-102913571D01*
X152383571Y-102842143D02*
X152169285Y-102913571D01*
X151812142Y-102913571D01*
X151669285Y-102842143D01*
X151597856Y-102770714D01*
X151526428Y-102627857D01*
X151526428Y-102485000D01*
X151597856Y-102342143D01*
X151669285Y-102270714D01*
X151812142Y-102199286D01*
X152097856Y-102127857D01*
X152240714Y-102056429D01*
X152312142Y-101985000D01*
X152383571Y-101842143D01*
X152383571Y-101699286D01*
X152312142Y-101556429D01*
X152240714Y-101485000D01*
X152097856Y-101413571D01*
X151740714Y-101413571D01*
X151526428Y-101485000D01*
X150169285Y-102913571D02*
X150883571Y-102913571D01*
X150883571Y-101413571D01*
X149383571Y-101413571D02*
X149097857Y-101413571D01*
X148954999Y-101485000D01*
X148812142Y-101627857D01*
X148740714Y-101913571D01*
X148740714Y-102413571D01*
X148812142Y-102699286D01*
X148954999Y-102842143D01*
X149097857Y-102913571D01*
X149383571Y-102913571D01*
X149526428Y-102842143D01*
X149669285Y-102699286D01*
X149740714Y-102413571D01*
X149740714Y-101913571D01*
X149669285Y-101627857D01*
X149526428Y-101485000D01*
X149383571Y-101413571D01*
X148312142Y-101413571D02*
X147454999Y-101413571D01*
X147883570Y-102913571D02*
X147883570Y-101413571D01*
X145883571Y-101913571D02*
X144812142Y-101913571D01*
X145454999Y-101270714D02*
X145883571Y-103199286D01*
X144954999Y-102556429D02*
X146026428Y-102556429D01*
X145383571Y-103199286D02*
X144954999Y-101270714D01*
X143526428Y-102913571D02*
X144383571Y-102913571D01*
X143954999Y-102913571D02*
X143954999Y-101413571D01*
X144097856Y-101627857D01*
X144240714Y-101770714D01*
X144383571Y-101842143D01*
D11*
X185420000Y-81915000D02*
X163195000Y-81915000D01*
X185420000Y-90170000D02*
X185420000Y-81915000D01*
X180975000Y-90170000D02*
X185420000Y-90170000D01*
X161925000Y-81915000D02*
X139700000Y-81915000D01*
X161925000Y-90805000D02*
X161925000Y-81915000D01*
X157480000Y-90805000D02*
X161925000Y-90805000D01*
D13*
X156820952Y-123007381D02*
X157154286Y-122531190D01*
X157392381Y-123007381D02*
X157392381Y-122007381D01*
X157011428Y-122007381D01*
X156916190Y-122055000D01*
X156868571Y-122102619D01*
X156820952Y-122197857D01*
X156820952Y-122340714D01*
X156868571Y-122435952D01*
X156916190Y-122483571D01*
X157011428Y-122531190D01*
X157392381Y-122531190D01*
X156487619Y-122007381D02*
X155820952Y-123007381D01*
X155820952Y-122007381D02*
X156487619Y-123007381D01*
X155678095Y-123102619D02*
X154916190Y-123102619D01*
X154725714Y-122959762D02*
X154582857Y-123007381D01*
X154344761Y-123007381D01*
X154249523Y-122959762D01*
X154201904Y-122912143D01*
X154154285Y-122816905D01*
X154154285Y-122721667D01*
X154201904Y-122626429D01*
X154249523Y-122578810D01*
X154344761Y-122531190D01*
X154535238Y-122483571D01*
X154630476Y-122435952D01*
X154678095Y-122388333D01*
X154725714Y-122293095D01*
X154725714Y-122197857D01*
X154678095Y-122102619D01*
X154630476Y-122055000D01*
X154535238Y-122007381D01*
X154297142Y-122007381D01*
X154154285Y-122055000D01*
X153725714Y-122483571D02*
X153392380Y-122483571D01*
X153249523Y-123007381D02*
X153725714Y-123007381D01*
X153725714Y-122007381D01*
X153249523Y-122007381D01*
X152344761Y-123007381D02*
X152820952Y-123007381D01*
X152820952Y-122007381D01*
X147216428Y-123007381D02*
X147549762Y-122531190D01*
X147787857Y-123007381D02*
X147787857Y-122007381D01*
X147406904Y-122007381D01*
X147311666Y-122055000D01*
X147264047Y-122102619D01*
X147216428Y-122197857D01*
X147216428Y-122340714D01*
X147264047Y-122435952D01*
X147311666Y-122483571D01*
X147406904Y-122531190D01*
X147787857Y-122531190D01*
X146883095Y-122007381D02*
X146216428Y-123007381D01*
X146216428Y-122007381D02*
X146883095Y-123007381D01*
X146073571Y-123102619D02*
X145311666Y-123102619D01*
X145073571Y-123007381D02*
X145073571Y-122007381D01*
X144597381Y-123007381D02*
X144597381Y-122007381D01*
X144025952Y-123007381D01*
X144025952Y-122007381D01*
X143692619Y-122007381D02*
X143359286Y-123007381D01*
X143025952Y-122007381D01*
X142692619Y-122483571D02*
X142359285Y-122483571D01*
X142216428Y-123007381D02*
X142692619Y-123007381D01*
X142692619Y-122007381D01*
X142216428Y-122007381D01*
X141216428Y-123007381D02*
X141549762Y-122531190D01*
X141787857Y-123007381D02*
X141787857Y-122007381D01*
X141406904Y-122007381D01*
X141311666Y-122055000D01*
X141264047Y-122102619D01*
X141216428Y-122197857D01*
X141216428Y-122340714D01*
X141264047Y-122435952D01*
X141311666Y-122483571D01*
X141406904Y-122531190D01*
X141787857Y-122531190D01*
X140930714Y-122007381D02*
X140359285Y-122007381D01*
X140645000Y-123007381D02*
X140645000Y-122007381D01*
X147811667Y-126452381D02*
X147240238Y-126452381D01*
X147525953Y-127452381D02*
X147525953Y-126452381D01*
X147002143Y-126452381D02*
X146335476Y-127452381D01*
X146335476Y-126452381D02*
X147002143Y-127452381D01*
X146192619Y-127547619D02*
X145430714Y-127547619D01*
X145192619Y-127452381D02*
X145192619Y-126452381D01*
X144716429Y-127452381D02*
X144716429Y-126452381D01*
X144145000Y-127452381D01*
X144145000Y-126452381D01*
X143811667Y-126452381D02*
X143478334Y-127452381D01*
X143145000Y-126452381D01*
X142811667Y-126928571D02*
X142478333Y-126928571D01*
X142335476Y-127452381D02*
X142811667Y-127452381D01*
X142811667Y-126452381D01*
X142335476Y-126452381D01*
X141335476Y-127452381D02*
X141668810Y-126976190D01*
X141906905Y-127452381D02*
X141906905Y-126452381D01*
X141525952Y-126452381D01*
X141430714Y-126500000D01*
X141383095Y-126547619D01*
X141335476Y-126642857D01*
X141335476Y-126785714D01*
X141383095Y-126880952D01*
X141430714Y-126928571D01*
X141525952Y-126976190D01*
X141906905Y-126976190D01*
X141049762Y-126452381D02*
X140478333Y-126452381D01*
X140764048Y-127452381D02*
X140764048Y-126452381D01*
M02*
